<svg width="67" height="135" viewBox="0 0 67 135" fill="none" xmlns="http://www.w3.org/2000/svg">
<g clip-path="url(#clip0)">
<path d="M35.8045 22.3671C35.7586 22.3324 35.702 22.3162 35.6456 22.3216C34.7228 22.3287 33.8066 22.4703 32.9244 22.7422C32.4634 22.8879 32.0182 23.0811 31.5955 23.3187C31.1813 23.5519 30.794 23.8323 30.441 24.1545C30.4009 24.1881 30.375 24.2365 30.3688 24.2895C30.3626 24.3426 30.3766 24.3962 30.4077 24.4392C30.3819 24.4887 30.3706 24.5449 30.3753 24.601C30.3819 24.7813 30.3854 24.9605 30.3843 25.1403C30.3811 25.7615 30.3459 26.3947 30.311 27.0074L30.2722 27.7309L30.2669 27.7962C30.2496 27.8267 30.2394 27.8608 30.2368 27.8961C30.2342 27.9314 30.2395 27.9668 30.2521 27.9998C30.3296 28.1392 30.4141 28.2744 30.5052 28.4048C30.5965 28.5246 30.6965 28.6369 30.8044 28.7409C31.0131 28.94 31.2524 29.1021 31.5124 29.2206C31.769 29.3342 32.0405 29.4078 32.3177 29.4387C32.5566 29.4657 32.7977 29.4628 33.0355 29.4302C33.0986 29.422 33.1618 29.4138 33.225 29.4056C33.7965 29.2999 34.3325 29.0498 34.785 28.6777C35.0114 28.4931 35.2123 28.2777 35.3822 28.0374C35.565 27.7774 35.7025 27.4866 35.7887 27.1778C35.7989 27.1459 35.8048 27.1128 35.8065 27.0793C35.8174 27.057 35.8236 27.0326 35.8247 27.0076C35.8441 26.6049 35.8438 26.2032 35.8405 25.8018L35.837 25.2351C35.8339 24.9645 35.8322 24.6937 35.8319 24.4212L35.8271 24.4785C35.838 23.7634 35.8555 23.1813 35.8946 22.6484C35.8941 22.627 35.8913 22.6057 35.8864 22.5849C35.889 22.5634 35.8892 22.5417 35.8871 22.5202C35.8801 22.4601 35.8504 22.4051 35.8045 22.3671Z" fill="#F6BC8D"/>
<path d="M32.7017 -5.17516e-05C32.2122 -0.000698048 31.7234 0.0324013 31.2384 0.0990129C30.794 0.16075 30.3543 0.253349 29.9225 0.376143C29.4836 0.507134 29.0563 0.674921 28.6453 0.877736C28.2495 1.07311 27.8732 1.30616 27.5217 1.5737C27.3481 1.69909 27.1846 1.84456 27.0223 1.99002C26.8205 2.17278 26.635 2.37292 26.4679 2.58817C26.3372 2.75798 26.2301 2.94487 26.1496 3.14368C26.1128 3.23352 26.082 3.32568 26.0572 3.41956C26.04 3.49271 26.027 3.56683 26.0185 3.64151C25.9777 4.00356 26.0662 4.36838 26.2682 4.67103C26.3332 4.77073 26.4081 4.86358 26.4917 4.94816C26.5766 5.2115 26.6827 5.46731 26.7751 5.68174C26.928 6.02816 27.1048 6.36338 27.3044 6.68493C27.6651 7.26322 28.0802 7.80534 28.5442 8.30382C28.8825 8.68002 29.2421 9.04618 29.5917 9.40106L30.0012 9.82114C30.5084 10.3316 30.9865 10.8704 31.4332 11.435C31.9357 12.1184 32.3988 12.8302 32.8203 13.5668L33.1561 14.1411C33.4882 14.7079 33.8303 15.2948 34.1924 15.8566C34.6481 16.5879 35.1768 17.2707 35.7705 17.8943C36.3156 18.4586 36.9528 18.9251 37.6545 19.2737C37.66 19.3279 37.6843 19.3785 37.7231 19.4166C37.7693 19.4626 37.8316 19.4887 37.8967 19.4893C37.9405 19.4893 37.9836 19.4776 38.0215 19.4555C38.0581 19.4339 38.0886 19.4032 38.1102 19.3665L38.3124 19.0968C38.4185 18.9715 38.5259 18.8373 38.6333 18.7106C38.7144 18.6153 38.7906 18.5175 38.8655 18.4197L38.9529 18.3081C39.1676 18.0322 39.3786 17.7513 39.5859 17.4692C40.0066 16.8999 40.3961 16.3205 40.7457 15.7475C41.4683 14.5947 42.0272 13.3462 42.4062 12.0382C43.0305 9.77223 42.968 7.46992 42.2177 5.55635C41.8363 4.57908 41.2645 3.68807 40.536 2.93552C39.74 2.12855 38.7918 1.48909 37.7468 1.05455C36.7386 0.624896 35.6808 0.323689 34.5981 0.15795C33.971 0.0562919 33.3369 0.00346737 32.7017 -5.17516e-05Z" fill="#33435A"/>
<path d="M39.7558 12.1748C39.7052 12.0397 39.6307 11.9148 39.5361 11.8062C39.4457 11.6976 39.3366 11.6063 39.214 11.5366C39.088 11.4658 38.9526 11.4134 38.8119 11.3811C38.6596 11.3434 38.5032 11.3248 38.3463 11.3259C38.186 11.3268 38.026 11.3411 37.8681 11.3685C37.6132 11.4167 37.3664 11.5011 37.1352 11.6193C37.1452 11.2619 37.1352 10.8669 37.1065 10.4168C37.0778 9.96657 37.0341 9.4725 36.9617 8.84426C36.9117 8.41916 36.8568 7.99657 36.8031 7.57272C36.7207 6.94573 36.6396 6.31121 36.5759 5.67921C36.5762 5.62913 36.557 5.58094 36.5222 5.54503C36.4979 5.52036 36.4672 5.50299 36.4336 5.49487C36.4332 5.44778 36.4143 5.40273 36.3811 5.36947C36.3446 5.3332 36.2952 5.31292 36.2438 5.31304C36.2185 5.31273 36.1934 5.31756 36.17 5.32726C36.1466 5.33696 36.1254 5.35132 36.1077 5.36947C36.0657 5.41385 36.021 5.45572 35.9741 5.49487C35.915 5.53777 35.8524 5.57553 35.7869 5.60773C35.7331 5.62872 35.6775 5.64467 35.6208 5.65538C35.5833 5.65538 35.5459 5.65538 35.5097 5.65538C35.4735 5.65538 35.456 5.65538 35.4298 5.65538C35.3523 5.64099 35.2762 5.61958 35.2026 5.59143C35.1163 5.55189 35.0343 5.50357 34.9579 5.44722C34.8584 5.36259 34.7669 5.26898 34.6844 5.16758C34.6016 5.05012 34.5317 4.92398 34.4759 4.79139C34.4354 4.67949 34.4053 4.56405 34.386 4.44654C34.3864 4.39604 34.3687 4.34708 34.3361 4.3086C34.3195 4.29277 34.2999 4.28041 34.2784 4.27223C34.257 4.26405 34.2342 4.26022 34.2112 4.26095C34.1678 4.26084 34.1261 4.27797 34.0951 4.3086C34.0587 4.31877 34.0254 4.33801 33.9984 4.36453C33.9713 4.39105 33.9513 4.42401 33.9403 4.46034C33.9241 4.52303 33.9029 4.58573 33.8804 4.64467C33.8343 4.75402 33.777 4.85825 33.7094 4.95566C33.6533 5.01969 33.5924 5.07922 33.5271 5.13372C33.454 5.18464 33.3768 5.22912 33.2961 5.26665C33.1818 5.31031 33.0635 5.34224 32.9428 5.36195C32.864 5.37119 32.7848 5.37579 32.7056 5.37574C32.5878 5.37488 32.4702 5.3665 32.3535 5.35066C32.0733 5.30304 31.7991 5.22483 31.5357 5.11742C31.2231 4.98597 30.9272 4.81759 30.6543 4.61583C30.5432 4.52429 30.4545 4.44278 30.3696 4.35876C30.3535 4.34215 30.334 4.3292 30.3125 4.32076C30.2909 4.31233 30.2679 4.30861 30.2448 4.30986C30.2081 4.30949 30.1722 4.32092 30.1424 4.34246C30.1025 4.36039 30.0689 4.39014 30.0463 4.42773C30.0276 4.45916 30.0181 4.49522 30.0188 4.53181C30.0181 4.5688 30.0276 4.60528 30.0463 4.63715L30.0687 4.69107C30.1201 4.8155 30.1586 4.94493 30.1836 5.0773C30.1892 5.14112 30.1892 5.20533 30.1836 5.26915C30.1767 5.30426 30.1667 5.33867 30.1536 5.37198L30.1262 5.42841C30.105 5.45098 30.0837 5.4723 30.0613 5.49236C30.0255 5.51831 29.9875 5.54097 29.9476 5.56008C29.8666 5.58888 29.783 5.60988 29.6979 5.62278C29.6218 5.6303 29.5456 5.63281 29.4695 5.63281C29.3166 5.63214 29.1639 5.62083 29.0125 5.59895L29.035 5.60773L29.0587 5.61525C28.4249 5.50432 27.8066 5.3174 27.2172 5.05849C27.0654 4.99719 26.917 4.9277 26.7727 4.85032C26.6669 4.79828 26.565 4.73834 26.4681 4.671C26.451 4.65115 26.43 4.63517 26.4063 4.62414C26.3826 4.61312 26.3569 4.60729 26.3308 4.60705C26.309 4.60621 26.2873 4.61041 26.2674 4.61933C26.2475 4.62824 26.2298 4.64163 26.2159 4.65847C25.8779 5.06083 25.5656 5.48426 25.2808 5.92624C24.9775 6.39993 24.7067 6.8939 24.4705 7.40469C24.0011 8.42307 23.648 9.49159 23.418 10.5898C23.1859 11.6952 23.0563 12.8198 23.031 13.9492C23.0173 14.4822 23.031 15.0502 23.0635 15.6371C23.0834 16.2718 23.1717 16.9025 23.3269 17.5181C23.3162 17.5499 23.3147 17.5841 23.3226 17.6168C23.3306 17.6494 23.3477 17.6791 23.3718 17.7024C23.9499 18.2278 24.6965 18.6629 25.6541 19.0329C27.0503 19.5437 28.5241 19.8076 30.0101 19.8128C30.5817 19.8144 31.1527 19.7725 31.718 19.6874C32.6311 19.5691 33.5086 19.257 34.2924 18.772C34.7011 18.5005 35.0636 18.1648 35.3661 17.7776C35.3947 17.7738 35.4221 17.7634 35.4461 17.7473C35.4701 17.7312 35.4901 17.7099 35.5047 17.6848C35.7166 17.3014 35.899 16.9024 36.0503 16.491L36.2351 16.0208C36.3137 15.8177 36.3924 15.6158 36.4748 15.4151H36.4922C36.5066 15.4151 36.5209 15.413 36.5347 15.4089C36.9099 15.3554 37.2793 15.2672 37.6384 15.1455C38.0285 15.0174 38.4009 14.8404 38.747 14.6188C39.0712 14.4126 39.3472 14.1384 39.556 13.815C39.6533 13.653 39.7257 13.4771 39.7708 13.2934C39.8264 13.0836 39.8524 12.8671 39.8482 12.6501C39.8446 12.4875 39.8134 12.3268 39.7558 12.1748Z" fill="#F6BC8D"/>
<path d="M26.9448 10.2099C26.9164 10.2396 26.9003 10.2791 26.8999 10.3203C26.8899 10.4281 26.8774 10.5335 26.8636 10.6413C26.775 11.2683 26.6139 11.8715 26.4754 12.4822C26.4042 12.7906 26.3405 13.1016 26.2906 13.4151C26.2449 13.7159 26.2166 14.019 26.2057 14.323C26.2057 14.3666 26.2229 14.4084 26.2536 14.4392C26.2843 14.47 26.3259 14.4873 26.3692 14.4873C26.4126 14.4873 26.4542 14.47 26.4849 14.4392C26.5156 14.4084 26.5328 14.3666 26.5328 14.323C26.5322 14.066 26.5484 13.8092 26.5815 13.5543C26.6564 13.0214 26.7837 12.4985 26.9098 11.9755C27.0486 11.4317 27.148 10.8785 27.207 10.3203C27.2073 10.3 27.2036 10.2798 27.1961 10.261C27.1886 10.2421 27.1774 10.225 27.1633 10.2105C27.1491 10.196 27.1322 10.1845 27.1135 10.1767C27.0949 10.1688 27.0749 10.1648 27.0547 10.1648C27.0137 10.1652 26.9744 10.1814 26.9448 10.2099Z" fill="#8B4700"/>
<path d="M26.2621 14.4045C26.2516 14.4454 26.2573 14.4888 26.2781 14.5255C26.2988 14.5622 26.3329 14.5894 26.3732 14.6014C26.8661 14.745 27.3768 14.8176 27.8901 14.8171C27.9321 14.8134 27.9713 14.7941 27.9998 14.7629C28.0283 14.7316 28.0441 14.6908 28.0441 14.6484C28.0441 14.606 28.0283 14.5652 27.9998 14.534C27.9713 14.5028 27.9321 14.4834 27.8901 14.4798C27.6373 14.4856 27.3844 14.4726 27.1335 14.4409C26.9054 14.4065 26.6797 14.3571 26.4581 14.2929C26.4444 14.2906 26.4305 14.2906 26.4169 14.2929C26.3818 14.293 26.3477 14.3045 26.3198 14.3258C26.2918 14.347 26.2716 14.3769 26.2621 14.4108V14.4045Z" fill="#8B4700"/>
<path d="M24.9923 10.4167C24.9499 10.4308 24.9137 10.4591 24.8899 10.497C24.8262 10.5823 24.7651 10.6675 24.7114 10.7578C24.6692 10.8319 24.6345 10.9101 24.6078 10.9911C24.5836 11.0724 24.5722 11.157 24.574 11.2419C24.574 11.281 24.5778 11.3201 24.5853 11.3585C24.5979 11.4355 24.6192 11.5108 24.649 11.583C24.6574 11.6128 24.6733 11.64 24.6951 11.662C24.717 11.6839 24.7441 11.6999 24.7738 11.7083C24.8038 11.7184 24.8362 11.7184 24.8662 11.7083C24.9102 11.6963 24.948 11.6681 24.9723 11.6293C25.0676 11.5105 25.1457 11.3788 25.2045 11.2381C25.2529 11.0709 25.2698 10.8961 25.2545 10.7227C25.2525 10.6798 25.2372 10.6386 25.2108 10.6048C25.2127 10.5857 25.2127 10.5663 25.2108 10.5472C25.2001 10.5112 25.1782 10.4796 25.1483 10.457C25.1184 10.4344 25.0821 10.4221 25.0447 10.4218C25.0302 10.4198 25.0155 10.4198 25.001 10.4218L24.9923 10.4167Z" fill="#8B4700"/>
<path d="M30.6067 11.8538L30.5506 11.9867C30.5019 12.0381 30.4557 12.0908 30.4107 12.1447C30.3893 12.1714 30.3697 12.1995 30.352 12.2287C30.3245 12.2723 30.3023 12.319 30.2859 12.3679C30.2752 12.3991 30.2689 12.4316 30.2671 12.4645C30.2591 12.516 30.2591 12.5685 30.2671 12.62C30.2734 12.663 30.2847 12.7051 30.3009 12.7454C30.3276 12.8101 30.3602 12.8722 30.3982 12.931C30.4114 12.9526 30.4292 12.9711 30.4504 12.9849C30.4716 12.9987 30.4956 13.0076 30.5206 13.0108C30.5457 13.0141 30.5711 13.0116 30.5951 13.0037C30.6191 12.9957 30.641 12.9824 30.6592 12.9648C30.7375 12.8819 30.8109 12.7944 30.8789 12.7027C30.9299 12.6254 30.969 12.5409 30.995 12.4519C31.0187 12.3667 31.0238 12.2773 31.01 12.1899C30.9908 12.072 30.9546 11.9575 30.9026 11.85C30.8871 11.8241 30.8651 11.8026 30.8389 11.7876C30.8126 11.7727 30.783 11.7649 30.7528 11.7649C30.7226 11.7649 30.693 11.7727 30.6667 11.7876C30.6405 11.8026 30.6185 11.8241 30.603 11.85L30.6067 11.8538Z" fill="#8B4700"/>
<path d="M25.9525 16.3644C25.9314 16.3702 25.9116 16.3801 25.8944 16.3936C25.8771 16.4071 25.8627 16.4239 25.8519 16.443C25.8411 16.4621 25.8342 16.4832 25.8315 16.505C25.8288 16.5268 25.8305 16.5489 25.8364 16.5701C25.879 16.6886 25.9351 16.8018 26.0037 16.9074C26.0812 17.0224 26.176 17.1248 26.2846 17.2109C26.5019 17.3818 26.7603 17.4921 27.0337 17.5306C27.2947 17.5711 27.5614 17.554 27.8152 17.4805C28.0876 17.3983 28.3356 17.2497 28.5369 17.0478C28.5546 17.0298 28.5687 17.0084 28.5783 16.9849C28.5879 16.9614 28.5927 16.9363 28.5926 16.9109C28.5925 16.8855 28.5874 16.8604 28.5776 16.837C28.5678 16.8136 28.5536 16.7923 28.5356 16.7745C28.5177 16.7566 28.4964 16.7425 28.473 16.7329C28.4496 16.7233 28.4245 16.7184 28.3993 16.7185C28.374 16.7186 28.349 16.7237 28.3257 16.7335C28.3024 16.7434 28.2812 16.7577 28.2634 16.7757C28.2097 16.8391 28.1504 16.8974 28.0862 16.95C28.0007 17.0107 27.9096 17.0628 27.814 17.1055H27.8227C27.7087 17.1501 27.5903 17.1821 27.4694 17.2008C27.34 17.2165 27.2092 17.2165 27.0799 17.2008H27.1061C26.9804 17.1807 26.8573 17.1466 26.739 17.0993C26.654 17.0588 26.573 17.0105 26.4968 16.955C26.43 16.9005 26.3689 16.8391 26.3145 16.772C26.2597 16.6957 26.2124 16.6142 26.1735 16.5287L26.1572 16.4835C26.1441 16.442 26.1166 16.4064 26.0798 16.3832C26.0544 16.3683 26.0256 16.3606 25.9962 16.3607C25.981 16.3609 25.9659 16.363 25.9512 16.3669L25.9525 16.3644Z" fill="#8B4700"/>
<path d="M24.6054 8.05428C24.5783 8.10201 24.5708 8.15848 24.5846 8.21165C24.5983 8.26483 24.6322 8.3105 24.679 8.33893C24.8203 8.42331 24.9567 8.51584 25.0873 8.61606L25.0448 8.58346C25.1946 8.69956 25.3368 8.82522 25.4706 8.95965C25.6067 9.09634 25.7315 9.2418 25.8551 9.38726C25.8942 9.42629 25.946 9.44974 26.0009 9.45325C26.0559 9.45677 26.1103 9.44012 26.1539 9.40639C26.1976 9.37266 26.2276 9.32415 26.2383 9.26989C26.249 9.21562 26.2397 9.1593 26.2122 9.11139C26.1365 9.0067 26.0553 8.90623 25.9687 8.81043C25.8569 8.68911 25.7359 8.57674 25.6067 8.47436C25.3792 8.29006 25.1389 8.12243 24.8875 7.97277C24.84 7.94656 24.7843 7.93963 24.7318 7.95339C24.6793 7.96714 24.6341 8.00055 24.6054 8.04676V8.05428Z" fill="#510026"/>
<path d="M29.9413 9.85879C29.9286 9.90848 29.9358 9.96119 29.9612 10.0057C29.9866 10.0502 30.0283 10.083 30.0774 10.097C30.1931 10.1287 30.3069 10.1668 30.4183 10.2112C30.5106 10.2538 30.6018 10.2977 30.6892 10.3466C30.7999 10.4109 30.9063 10.4825 31.0075 10.561C31.1957 10.718 31.3672 10.8941 31.5194 11.0864C31.5956 11.1918 31.668 11.2996 31.7392 11.41C31.7707 11.4593 31.82 11.4945 31.8768 11.5081C31.9335 11.5218 31.9933 11.5128 32.0437 11.4831C32.094 11.4535 32.131 11.4054 32.1468 11.349C32.1627 11.2926 32.1562 11.2322 32.1287 11.1805C32.0262 10.9963 31.9039 10.8239 31.7641 10.6664C31.6258 10.514 31.4727 10.3758 31.3072 10.2538C31.1393 10.1278 30.958 10.021 30.7666 9.93528C30.5775 9.84759 30.3812 9.77668 30.1798 9.72336C30.1636 9.72153 30.1473 9.72153 30.1311 9.72336C30.0885 9.72356 30.0472 9.73759 30.0132 9.76336C29.9792 9.78913 29.9544 9.82524 29.9426 9.86631L29.9413 9.85879ZM31.0125 10.5648L31.035 10.5823L31.0125 10.5648ZM31.4932 11.0526L31.5132 11.0789L31.4932 11.0526Z" fill="#510026"/>
<path d="M38.1439 19.4254C38.1436 19.4037 38.1388 19.3823 38.13 19.3625C38.1212 19.3427 38.1086 19.3249 38.0928 19.3101C37.935 19.1702 37.7877 19.0189 37.652 18.8574L37.6858 18.7232C37.694 18.6902 37.6914 18.6554 37.6783 18.624C37.6653 18.5926 37.6425 18.5662 37.6133 18.5489C37.591 18.5357 37.5656 18.5288 37.5397 18.5288C37.5027 18.5304 37.4676 18.5456 37.441 18.5715C37.2933 18.3538 37.1643 18.1239 37.0553 17.8843C36.7562 17.1723 36.6561 16.392 36.7656 15.6271C36.7649 15.5832 36.747 15.5412 36.7157 15.5105C36.7096 15.4698 36.6896 15.4325 36.659 15.405C36.6285 15.3775 36.5893 15.3616 36.5484 15.36C36.4647 15.36 36.3873 15.3487 36.3049 15.3374C36.2687 15.3374 36.1901 15.3174 36.1102 15.2986C36.0083 15.2716 35.9082 15.2381 35.8105 15.1983C35.7468 15.1669 35.6857 15.1356 35.622 15.1004C35.597 15.087 35.5691 15.0801 35.5408 15.0804C35.5128 15.0801 35.4852 15.0871 35.4607 15.1008C35.4362 15.1144 35.4157 15.1342 35.401 15.1581C35.3464 15.1953 35.3032 15.247 35.2762 15.3074C35.2474 15.3876 35.22 15.4666 35.1863 15.5444C35.0395 15.8859 34.8503 16.2073 34.6232 16.5011C34.5146 16.6353 34.3997 16.7657 34.2786 16.8899C34.136 17.0327 33.9842 17.1659 33.8242 17.2886C33.4968 17.536 33.1409 17.7427 32.7642 17.9043C32.5563 17.9905 32.3432 18.0634 32.1262 18.1225C31.8837 18.185 31.6377 18.2331 31.3896 18.2667C31.0998 18.3052 30.8079 18.3253 30.5157 18.3269C30.2932 18.327 30.071 18.3136 29.8502 18.2868C29.7453 18.2718 29.6417 18.253 29.5406 18.2304C29.5574 18.2106 29.5659 18.1849 29.5643 18.1589C29.5633 17.8463 29.5213 17.5351 29.4395 17.2335C29.3955 17.096 29.34 16.9626 29.2734 16.8347C29.0736 16.4628 28.7698 16.1576 28.3995 15.9569C28.257 15.8779 28.1088 15.8095 27.9562 15.7525C27.7957 15.6907 27.6314 15.6392 27.4643 15.5983C27.1867 15.5311 26.9022 15.4974 26.6166 15.498C26.2959 15.4974 25.978 15.5587 25.6802 15.6785C25.4245 15.7835 25.1932 15.9407 25.0011 16.14C24.8932 16.2546 24.7981 16.3808 24.7177 16.5162C24.6616 16.6112 24.6124 16.7101 24.5703 16.8121C24.5004 16.7281 24.428 16.6428 24.3556 16.5526C24.2284 16.3786 24.1109 16.1977 24.0035 16.0108C23.8832 15.7956 23.776 15.5733 23.6827 15.345C23.4941 14.8797 23.3506 14.4371 23.2182 14.0195C23.1945 13.6809 23.1758 13.3411 23.1758 13.0013C23.1751 12.9789 23.1686 12.9571 23.1567 12.9381C23.1448 12.9192 23.1281 12.9037 23.1083 12.8934C23.0896 13.0289 23.0659 13.163 23.0409 13.2972C23.0297 13.3511 23.0197 13.4038 23.0085 13.4577C22.991 13.548 22.9723 13.6396 22.9548 13.7298V13.7374C22.9548 13.7875 22.9473 13.8377 22.9423 13.8891C22.9286 14.0571 22.9148 14.2264 22.9023 14.3907C22.902 14.4133 22.8955 14.4354 22.8836 14.4546C22.8636 14.5938 22.8387 14.728 22.8062 14.8622C22.8024 14.8811 22.7933 14.8985 22.78 14.9123C22.7238 15.1017 22.6551 15.2885 22.5977 15.4741L22.5553 15.5995L22.5278 15.6785C22.3717 16.1073 22.2436 16.5459 22.1445 16.9914C22.0453 17.4049 22.0556 17.8372 22.1745 18.2454C22.2394 18.4344 22.3394 18.6093 22.4691 18.7608C22.544 18.8483 22.6277 18.9277 22.7188 18.9978C22.7733 19.0425 22.8299 19.0843 22.8886 19.1232C22.8453 19.1504 22.8069 19.1847 22.775 19.2248C22.6929 19.3172 22.624 19.4206 22.5702 19.532C22.4562 19.7556 22.4004 20.0045 22.4079 20.2556C22.4087 20.4745 22.4816 20.687 22.6152 20.86C22.6906 20.9495 22.7821 21.0239 22.8849 21.0794C22.9496 21.1124 23.0185 21.1364 23.0896 21.1509C23.0674 21.2037 23.0495 21.2582 23.0359 21.3139C23.0078 21.4328 22.9919 21.5542 22.9885 21.6763C22.9846 21.7982 22.9942 21.9202 23.0172 22.04C23.0345 22.157 23.0682 22.271 23.1171 22.3786C23.1609 22.4852 23.2193 22.5853 23.2906 22.6758C23.32 22.7151 23.3526 22.752 23.388 22.7861C23.4275 22.8232 23.4692 22.858 23.5129 22.8902C23.6157 22.965 23.7306 23.0214 23.8524 23.057C23.9196 23.0766 23.9887 23.0892 24.0584 23.0946C24.095 23.0965 24.1317 23.0965 24.1683 23.0946H24.2208C24.2133 23.1783 24.2171 23.2627 24.232 23.3454C24.2444 23.4324 24.2636 23.5184 24.2894 23.6024C24.3646 23.8415 24.4822 24.065 24.6365 24.262C24.7505 24.4113 24.8826 24.5457 25.0298 24.6621C25.1538 24.7621 25.2897 24.8463 25.4343 24.9129C25.5107 24.9464 25.5896 24.9741 25.6703 24.9956C25.7498 25.0151 25.8308 25.0277 25.9125 25.0332C25.9412 25.0332 25.9711 25.0332 25.9999 25.0332C26.1378 25.0313 26.2743 25.005 26.4031 24.9555C26.5468 24.8973 26.6781 24.8122 26.7901 24.7047C26.8261 24.7993 26.8757 24.888 26.9375 24.968C26.9804 25.0235 27.0285 25.0747 27.081 25.121C27.1229 25.1596 27.168 25.1944 27.2159 25.2251C27.3271 25.2967 27.4508 25.3465 27.5804 25.3718C27.6684 25.3896 27.7579 25.3984 27.8476 25.3982C27.8901 25.3982 27.9288 25.3982 27.9725 25.3982C28.2503 25.3696 28.5212 25.2941 28.774 25.1749C28.9402 25.1004 29.0994 25.011 29.2497 24.9078C29.3296 25.0097 29.4219 25.1011 29.5243 25.18C29.6224 25.2589 29.7302 25.3247 29.8452 25.3756C30.0143 25.4469 30.1962 25.4827 30.3796 25.4809H30.4632C30.6833 25.4602 30.8963 25.3917 31.0875 25.2803C31.1754 25.2255 31.2589 25.1639 31.3372 25.0959C31.4482 25.0049 31.5472 24.9 31.6318 24.7837C31.6557 24.7573 31.6729 24.7255 31.6817 24.6909C31.6846 24.7022 31.6899 24.7128 31.6973 24.7219C31.7046 24.731 31.7138 24.7384 31.7242 24.7436C31.7875 24.7873 31.8533 24.8271 31.9215 24.8627C31.9639 24.884 32.0064 24.9003 32.0463 24.9204C32.1716 24.9704 32.3038 25.0009 32.4383 25.0107C32.4587 25.0119 32.4791 25.0119 32.4995 25.0107C32.5921 25.0082 32.6841 24.9961 32.7742 24.9743C32.9033 24.9433 33.026 24.8894 33.1362 24.8151C33.2337 24.751 33.3238 24.6761 33.4047 24.5918C33.4885 24.5043 33.5634 24.4085 33.6281 24.3059C33.7022 24.1929 33.765 24.0728 33.8154 23.9473C33.8441 23.8808 33.8679 23.8131 33.8903 23.7429C33.9606 23.8164 34.0414 23.879 34.13 23.9285C34.2405 23.9839 34.3604 24.0179 34.4834 24.0288C34.5079 24.0301 34.5325 24.0301 34.557 24.0288C34.6391 24.0265 34.7207 24.0156 34.8005 23.9962C34.9255 23.9657 35.0442 23.9135 35.1513 23.842C35.2459 23.7798 35.3338 23.708 35.4135 23.6275C35.5097 23.5295 35.5936 23.42 35.6632 23.3015C35.7234 23.2015 35.7712 23.0946 35.8055 22.983C35.8297 22.9097 35.846 22.834 35.8542 22.7573C35.8939 22.7749 35.936 22.7868 35.9791 22.7924C36.0203 22.7924 36.0602 22.7924 36.1039 22.7924C36.1846 22.7922 36.2648 22.7808 36.3424 22.7585C36.4404 22.7287 36.5332 22.6834 36.617 22.6243C36.7208 22.5558 36.8131 22.4711 36.8905 22.3735C37.0422 22.1879 37.149 21.9694 37.2026 21.7353C37.2244 21.6297 37.2349 21.5221 37.2338 21.4142C37.2324 21.3091 37.2139 21.2049 37.1789 21.1058C37.2265 21.1018 37.2733 21.0904 37.3174 21.0719C37.403 21.0388 37.4837 20.9941 37.5572 20.939C37.6872 20.8407 37.7956 20.7165 37.8755 20.5741C37.9087 20.5193 37.9363 20.4614 37.9579 20.401C38.0008 20.2993 38.0314 20.1928 38.0491 20.0838C38.0753 19.9134 38.0753 19.74 38.0491 19.5696C38.0749 19.5547 38.097 19.5338 38.1135 19.5088C38.1299 19.4838 38.1404 19.4552 38.1439 19.4254ZM27.9912 18.5476C27.8155 18.5682 27.6387 18.5787 27.4618 18.579C27.2766 18.5789 27.0914 18.5676 26.9075 18.5451C26.618 18.504 26.3342 18.4286 26.0623 18.3207C25.8746 18.2403 25.6966 18.1389 25.5317 18.0185C25.4125 17.9246 25.3037 17.8183 25.2071 17.7012C25.168 17.648 25.1317 17.5927 25.0984 17.5357C25.1127 17.5396 25.1274 17.5417 25.1421 17.5419C25.1601 17.541 25.1781 17.5389 25.1958 17.5357C25.2587 17.5264 25.3205 17.5113 25.3806 17.4905C25.5031 17.4422 25.6156 17.3716 25.7127 17.2824C25.7997 17.2041 25.8776 17.1162 25.9449 17.0203C26.0123 16.9275 26.0698 16.8385 26.121 16.7494C26.1753 16.775 26.2329 16.7931 26.292 16.8034C26.3311 16.8108 26.3708 16.8146 26.4106 16.8146C26.4843 16.8134 26.5576 16.8038 26.6291 16.7858C26.6725 16.7744 26.7144 16.758 26.7539 16.7369C26.8151 16.7078 26.8722 16.6707 26.9237 16.6265C26.9637 16.5906 27.0012 16.5521 27.0361 16.5112C27.0536 16.5661 27.0783 16.6184 27.1098 16.6667C27.1827 16.7692 27.2769 16.8547 27.3857 16.9175C27.426 16.9388 27.4677 16.9572 27.5105 16.9726C27.5879 17.004 27.6696 17.023 27.7527 17.0291C27.8002 17.0291 27.8451 17.0291 27.8926 17.0291C27.959 17.0289 28.0251 17.0213 28.0898 17.0065C28.0823 17.0584 28.0794 17.1108 28.0811 17.1632C28.0828 17.2473 28.0907 17.3311 28.1048 17.414C28.1327 17.5967 28.1927 17.7729 28.2821 17.9344C28.3175 17.9975 28.3594 18.0568 28.4069 18.1113C28.4598 18.1842 28.5215 18.2503 28.5905 18.3081C28.6246 18.3332 28.6605 18.3558 28.6978 18.3758C28.4676 18.4536 28.2312 18.5115 27.9912 18.5489V18.5476Z" fill="#33435A"/>
<path d="M56.14 71.0851C56.4337 71.1091 56.7286 71.139 57.0224 71.1798L57.4999 71.254C57.4932 71.6196 57.6585 71.8859 57.7647 72.323C57.9292 73 57.9896 73.6681 57.9613 74.3549C57.9353 74.9686 57.8969 75.4684 57.8404 75.9275C57.781 76.4324 57.6935 76.9331 57.5783 77.4269C57.5736 77.4541 57.5595 77.4785 57.5388 77.4953C57.5566 77.5178 57.5688 77.5449 57.5739 77.5739C57.579 77.6029 57.5771 77.6328 57.5681 77.6607C57.4073 78.1325 57.1933 78.5821 56.9309 78.9995C56.6813 79.406 56.3793 79.7736 56.0338 80.0915C55.7068 80.396 55.3315 80.6366 54.9254 80.8022C54.5978 80.9331 54.2506 81.0001 53.9006 81C53.801 81.0001 53.7014 80.9949 53.6023 80.9844C53.5738 80.984 53.5458 80.9759 53.5211 80.9608C53.4964 80.9457 53.4757 80.9241 53.4611 80.8981C53.4493 80.8781 53.4418 80.8557 53.4391 80.8323C53.4363 80.8089 53.4384 80.7851 53.4453 80.7627L53.6328 80.1634L53.638 80.1471C53.9731 79.089 54.3194 77.9953 54.4734 76.8732C54.506 76.6136 54.526 76.3523 54.5333 76.0905C54.5336 76.0268 54.5374 75.9632 54.5446 75.8999C54.4312 76.0097 54.307 76.1061 54.174 76.1876C54.0303 76.2784 53.879 76.355 53.7221 76.4165C53.5389 76.4871 53.3497 76.5389 53.1571 76.5711C53.1363 76.5718 53.1156 76.568 53.0962 76.56C53.0767 76.552 53.0591 76.5399 53.0442 76.5244C53.0256 76.5032 53.0122 76.4774 53.0053 76.4494C52.9984 76.4213 52.9982 76.3919 53.0046 76.3638C53.0765 76.0104 53.1666 75.6615 53.2747 75.3186C53.356 75.0645 53.4419 74.8128 53.5277 74.5599L53.6238 74.277C53.739 73.9342 53.8064 73.688 53.8064 73.225V72.2115C53.829 72.031 53.8019 71.3774 53.8064 71.1954C53.8076 71.0096 54.1842 71.3704 54.1684 71.1846C54.1659 71.1629 54.168 71.141 54.1744 71.1202C54.1809 71.0995 54.1915 71.0806 54.2057 71.0647C54.2223 71.0451 54.2424 71.0293 54.265 71.0182C54.2875 71.007 54.3119 71.0009 54.3367 71C54.3739 71.001 54.4099 71.0144 54.4395 71.0384H54.8847C55.3423 71.0384 55.7536 71.0539 56.14 71.0851Z" fill="#F6BC8D"/>
<path d="M6.05247 24.3943C6.07861 24.4217 6.11236 24.4405 6.14932 24.4484C6.18627 24.4563 6.22475 24.4529 6.25974 24.4386C6.29473 24.4242 6.32462 24.3997 6.34555 24.3681C6.36647 24.3365 6.37745 24.2993 6.37708 24.2613C6.37708 24.2312 6.37708 24.1974 6.37708 24.166C6.6068 24.2074 6.84276 24.2425 7.07998 24.2739C7.40458 24.3165 7.73044 24.3479 8.05505 24.3729C8.48203 24.4055 8.93649 24.4218 9.44212 24.4218L9.93403 24.4218C9.96677 24.4469 10.0065 24.4609 10.0476 24.462C10.0751 24.4611 10.1021 24.4546 10.1269 24.443C10.1518 24.4313 10.1741 24.4148 10.1925 24.3943C10.2081 24.3777 10.2199 24.3578 10.227 24.3362C10.2341 24.3145 10.2364 24.2915 10.2337 24.2689C10.2162 24.0745 10.2099 23.8826 10.2112 23.6883C10.2162 23.4978 10.2312 23.3078 10.2561 23.119C10.3083 22.7872 10.3805 22.4589 10.4721 22.1358C10.577 21.7596 10.7081 21.3922 10.8354 21.0336L10.9416 20.7376C11.0364 20.4731 11.1313 20.2097 11.2212 19.9439C11.3406 19.5852 11.4402 19.2201 11.5196 18.8504C11.5267 18.821 11.5265 18.7902 11.5189 18.7608C11.5112 18.7315 11.4965 18.7046 11.4759 18.6824C11.4595 18.6662 11.4399 18.6535 11.4185 18.6451C11.397 18.6367 11.3741 18.6328 11.3511 18.6335C11.1383 18.6672 10.9293 18.7214 10.7268 18.7952C10.5534 18.8596 10.3862 18.9397 10.2274 19.0347C10.0805 19.12 9.94324 19.2209 9.81792 19.3357C9.82592 19.2695 9.83009 19.203 9.8304 19.1363C9.83846 18.8624 9.86055 18.5891 9.89657 18.3175C10.0676 17.1375 10.4534 15.9876 10.8255 14.8753L11.0327 14.2483C11.0402 14.2248 11.0426 14.2 11.0396 14.1755C11.0365 14.151 11.0282 14.1275 11.0152 14.1066C10.999 14.0794 10.9762 14.0569 10.9489 14.0411C10.9216 14.0253 10.8907 14.0167 10.8592 14.0163C10.7496 14.0053 10.6396 13.9999 10.5296 14C10.1428 13.9999 9.75914 14.0699 9.39718 14.2069C8.94838 14.3801 8.53372 14.6319 8.17241 14.9505C7.79061 15.2831 7.45695 15.6676 7.1811 16.0929C6.89111 16.5296 6.65468 16.9999 6.47696 17.4936C6.46709 17.5228 6.46489 17.5541 6.47058 17.5844C6.47627 17.6147 6.48964 17.643 6.50942 17.6666C6.48653 17.6842 6.47096 17.7097 6.46572 17.7381C6.33841 18.2548 6.24169 18.7787 6.17607 19.3068C6.11365 19.7871 6.0712 20.31 6.04248 20.9521C6.01127 21.6706 6.01002 22.4017 6.00752 23.1089C6.00752 23.4851 6.00752 23.8751 6.00003 24.2576C5.99878 24.2828 6.0028 24.308 6.01183 24.3315C6.02086 24.355 6.0347 24.3764 6.05247 24.3943Z" fill="#F6BC8D"/>
<path d="M23.81 125.072C23.8096 125.039 23.8005 125.006 23.7837 124.977C23.7668 124.948 23.7428 124.924 23.7139 124.907C23.7058 124.87 23.6879 124.837 23.6621 124.81C23.6364 124.783 23.6038 124.763 23.5678 124.754C22.9044 124.603 22.2254 124.532 21.5452 124.542C21.2331 124.542 20.921 124.552 20.6064 124.571C20.2918 124.589 19.9559 124.608 19.6301 124.631C19.027 124.672 18.404 124.715 17.7898 124.715C17.6837 124.715 17.5788 124.715 17.4727 124.715C17.4357 124.715 17.3995 124.725 17.3681 124.745C17.3366 124.764 17.311 124.792 17.2941 124.825C17.2142 124.893 17.1343 124.962 17.0519 125.027C16.8338 125.188 16.6057 125.334 16.369 125.466C16.1637 125.578 15.9529 125.679 15.7373 125.769C15.2666 125.966 14.7759 126.134 14.3002 126.297C13.8538 126.442 13.415 126.609 12.9856 126.799C12.5635 126.989 12.1687 127.235 11.812 127.531C11.4168 127.873 11.0817 128.279 10.8207 128.733C10.8087 128.753 10.8008 128.776 10.7976 128.799C10.7944 128.822 10.7959 128.846 10.802 128.869C10.8142 128.918 10.8452 128.96 10.8881 128.986C10.9342 129.029 10.993 129.055 11.0554 129.061H11.2751C12.9706 129.061 15.2066 129.042 17.4664 128.896C18.5539 128.824 19.6176 128.723 20.6276 128.593C21.127 128.528 21.6264 128.454 22.1258 128.371C22.3955 128.328 22.6651 128.276 22.9323 128.223C23.1958 128.179 23.4561 128.117 23.7114 128.038C23.7546 128.025 23.7925 127.999 23.8189 127.962C23.8454 127.926 23.8589 127.881 23.8575 127.836C23.8741 127.82 23.8871 127.8 23.8955 127.779C23.9039 127.757 23.9076 127.734 23.9061 127.711L23.8837 127.285C23.8462 126.559 23.8013 125.812 23.81 125.072Z" fill="#3B001C"/>
<path d="M42.4925 126.73C42.4637 126.467 42.4238 126.202 42.3764 125.94C42.3139 125.589 42.234 125.238 42.1541 124.89C42.1427 124.853 42.1196 124.821 42.0883 124.798C42.057 124.776 42.0192 124.764 41.9806 124.765C41.8445 124.796 41.7908 124.89 41.8133 124.989C41.7842 124.973 41.7573 124.954 41.7334 124.931C41.5592 124.784 41.3691 124.658 41.1666 124.554C40.9475 124.443 40.72 124.35 40.4861 124.276C40.2182 124.19 39.9433 124.127 39.6646 124.088C39.4616 124.058 39.2568 124.043 39.0516 124.043C38.7649 124.04 38.4793 124.078 38.2026 124.153C38.0066 124.209 37.8219 124.3 37.657 124.42C37.5437 124.504 37.4442 124.606 37.3624 124.721C37.33 124.727 37.2998 124.742 37.2752 124.764C37.2506 124.786 37.2324 124.815 37.2226 124.847C37.1891 124.979 37.1633 125.113 37.1452 125.248C37.1252 125.4 37.1177 125.55 37.1115 125.702V125.953V126.203C37.1115 126.329 37.1027 126.463 37.089 126.592C36.8998 128.342 36.881 130.106 37.0328 131.859C37.0686 132.27 37.1135 132.681 37.1676 133.09C37.2126 133.438 37.26 133.777 37.3324 134.106C37.373 134.323 37.4581 134.528 37.5821 134.71C37.6359 134.782 37.7018 134.843 37.7769 134.891C37.8075 134.91 37.8402 134.925 37.8743 134.936C37.929 134.959 37.9873 134.972 38.0466 134.975H38.1115C38.1509 134.974 38.1902 134.97 38.2289 134.962C38.2871 134.954 38.3447 134.942 38.4011 134.925C38.5375 134.881 38.6686 134.822 38.7919 134.749C39.0436 134.605 39.2775 134.431 39.4886 134.231C39.6962 134.038 39.8879 133.829 40.0616 133.604C40.258 133.355 40.4398 133.094 40.606 132.823C40.9412 132.265 41.2306 131.681 41.4712 131.076C41.7133 130.48 41.9237 129.871 42.1017 129.252C42.2091 128.876 42.3014 128.511 42.3851 128.137L42.4176 127.993C42.4588 127.811 42.5 127.629 42.5299 127.445C42.547 127.336 42.5566 127.227 42.5586 127.117C42.5521 126.986 42.5299 126.856 42.4925 126.73Z" fill="#3B001C"/>
<path d="M44.3937 78.8754C44.3051 74.3699 44.1552 70.2016 43.938 66.1325C43.9359 66.0874 43.9202 66.0441 43.893 66.0083C43.8658 65.9725 43.8284 65.9458 43.7857 65.9318C43.7682 65.8867 43.7457 65.8403 43.722 65.7901C43.6581 65.666 43.5811 65.5491 43.4923 65.4415C43.3936 65.3198 43.2855 65.2062 43.1689 65.1017C43.0705 65.0123 42.9671 64.9286 42.8593 64.8509C42.4356 64.5454 41.9661 64.3096 41.4685 64.1524C40.9115 63.9657 40.3379 63.8334 39.7556 63.7574C39.1437 63.6715 38.5277 63.6175 37.9103 63.5957C37.4671 63.5781 37.0214 63.5693 36.5781 63.5693C36.0263 63.5693 35.4757 63.5806 34.9251 63.5906L34.2859 63.6019C34.0537 63.6019 33.8227 63.612 33.5905 63.612C33.3408 63.612 33.0911 63.612 32.8414 63.5957C32.2234 63.5706 31.5929 63.558 30.8913 63.558C30.6291 63.558 30.3631 63.558 30.101 63.558C28.9174 63.5743 27.7138 63.6233 26.549 63.6709C25.1457 63.7286 23.6949 63.7863 22.2667 63.7863C21.0594 63.7863 19.9857 63.7436 18.9831 63.6609C18.9578 63.6603 18.9327 63.6655 18.9096 63.6759C18.8865 63.6863 18.866 63.7017 18.8495 63.7211C18.8182 63.7555 18.8001 63.7999 18.7983 63.8465C18.7978 63.8705 18.802 63.8943 18.8108 63.9167C18.777 63.9298 18.7493 63.9554 18.7334 63.9882C18.701 64.0609 18.6723 64.1386 18.641 64.2126C18.6034 64.2032 18.5638 64.2066 18.5283 64.2222C18.4928 64.2379 18.4635 64.2649 18.445 64.2991C18.4351 64.3144 18.4272 64.3308 18.4213 64.3481L18.4151 64.3694C18.3754 64.3711 18.3372 64.3853 18.306 64.4101C18.2749 64.4348 18.2523 64.4689 18.2415 64.5073C18.0218 65.2258 17.8445 65.9569 17.6909 66.6917C17.6597 66.782 17.6248 66.8686 17.5948 66.9601C17.0367 70.712 16.4212 74.4551 15.9168 78.2158C15.9174 78.2221 15.9174 78.2284 15.9168 78.2346C15.4649 81.6204 15.1153 85.0262 14.9617 88.4458C14.762 92.8874 14.7757 97.334 14.7844 101.781C14.8427 103.596 14.9284 105.381 15.0416 107.134C15.2327 110.121 15.5136 113.089 15.8794 115.956C16.0579 117.376 16.2689 118.84 16.5036 120.286C16.7533 121.843 17.013 123.271 17.2939 124.65C17.2685 124.681 17.2552 124.721 17.2565 124.761C17.2568 124.811 17.276 124.858 17.3101 124.894C17.3259 124.908 17.3431 124.919 17.3613 124.929C17.3825 124.965 17.4126 124.994 17.4485 125.014C17.4845 125.034 17.525 125.044 17.5661 125.043C17.5856 125.044 17.605 125.041 17.6235 125.034C17.6616 125.026 17.6963 125.006 17.7234 124.978C18.6335 125.081 19.5662 125.186 20.4863 125.229C20.736 125.24 20.972 125.248 21.2154 125.248C21.4801 125.248 21.746 125.24 22.0107 125.225C22.5346 125.19 23.0558 125.122 23.5713 125.022C23.6013 125.014 23.6286 124.998 23.6505 124.976C23.6725 124.954 23.6882 124.927 23.6962 124.897C23.7467 124.891 23.7938 124.869 23.8298 124.833C23.8739 124.786 23.8992 124.724 23.9009 124.66C24.1415 122.798 24.3845 120.936 24.6301 119.074C24.8635 117.286 25.1107 115.37 25.3155 113.487C25.4403 112.293 25.5477 111.078 25.6501 109.901C25.7038 109.261 25.7587 108.621 25.8199 107.98C25.9863 106.168 26.1682 104.357 26.3655 102.548L26.6639 99.8169C27.338 93.5244 28.0372 87.0163 28.2257 80.5808C28.2794 78.7889 28.2856 77.0208 28.2469 75.3003C29.0572 75.7467 29.8987 76.133 30.7439 76.5092C30.7664 83.623 31.0573 90.5299 31.6266 97.0594C31.9475 100.77 32.3757 104.487 32.8876 108.111C33.146 109.939 33.4382 111.794 33.7615 113.628C33.9188 114.545 34.0861 115.46 34.2697 116.373C34.4432 117.251 34.6367 118.141 34.8602 119.108C35.0762 120.052 35.3184 121.039 35.5793 122.037C35.869 123.147 36.1249 124.071 36.3859 124.947C36.3959 124.983 36.4149 125.017 36.441 125.044C36.4672 125.072 36.4997 125.092 36.5357 125.103C36.565 125.122 36.5986 125.132 36.6331 125.132C36.9315 125.169 37.2299 125.204 37.5295 125.243C38.3086 125.338 39.1126 125.44 39.9129 125.473C40.0802 125.482 40.2475 125.486 40.4123 125.486C40.7949 125.486 41.1773 125.463 41.5571 125.417C41.7956 125.388 42.0266 125.345 42.2588 125.292C42.5304 125.227 42.797 125.143 43.0566 125.041C43.1155 125.036 43.1705 125.009 43.2113 124.966C43.252 124.923 43.2756 124.867 43.2776 124.808C43.3262 123.951 43.4024 123.027 43.506 121.984C43.5622 121.438 43.6221 120.889 43.6846 120.343C43.727 119.952 43.772 119.562 43.8094 119.171C43.923 118.09 44.0004 117.192 44.0591 116.347C44.1041 115.612 44.1165 114.862 44.1278 114.137L44.1415 113.493C44.2189 109.657 44.2917 105.822 44.36 101.986C44.5073 92.6918 44.5186 85.5629 44.3937 78.8754Z" fill="#BABCBE"/>
<path d="M6.13439 22.7171C6.1088 22.7182 6.08354 22.7233 6.05948 22.7322C6.0356 22.742 6.01363 22.756 5.99456 22.7735C5.93937 22.7745 5.88679 22.7973 5.84822 22.837C5.80966 22.8767 5.78856 22.9855 5.78856 22.9855L5.81603 23.0883C5.81603 23.0883 3.32903 29.4422 2.70728 32.4932C2.37146 34.1179 2.16646 35.7672 2.09427 37.4251C2.02616 39.0473 2.13164 40.6721 2.40889 42.2717C2.62159 43.5377 3.08428 44.7481 3.76974 45.8318C4.40939 46.828 5.24187 47.6849 6.21773 48.3516C7.19359 49.0183 8.29291 49.4812 9.45039 49.7128C10.0401 49.8305 10.6395 49.8914 11.2407 49.8947H11.2994C11.9007 49.8912 12.5005 49.8321 13.091 49.7179C14.4344 49.4671 15.7877 48.8978 17.2285 47.9798C17.9175 47.536 18.5745 47.044 19.1949 46.5077C19.5782 46.1779 19.9639 45.8155 20.3422 45.428C19.4471 47.3591 18.1774 50.242 16.8627 53.8297C14.2571 60.9435 12.9462 64.5048 13.7714 66.2516C17.0425 73.1698 44.6754 67.4818 44.5405 66.0284C44.4806 65.3851 38.9223 64.9951 13.7714 66.2516C22.441 65.7814 27.1078 65.9005 29.7921 66.1149C30.6873 66.1864 34.2592 66.4987 39.0796 66.4987C39.6623 66.4987 40.2474 66.4936 40.835 66.4836H41.1896C41.3681 66.4836 41.5454 66.4761 41.7239 66.4748H42.1597H42.5966C43.1967 66.4719 43.7955 66.4195 44.387 66.3181C44.4128 66.3137 44.4374 66.3036 44.4589 66.2887C44.4805 66.2737 44.4985 66.2542 44.5118 66.2316C44.5429 66.1854 44.5558 66.1293 44.5479 66.0741C44.5401 66.019 44.5121 65.9687 44.4694 65.9331C44.4783 65.9162 44.4818 65.8969 44.4794 65.8779C44.4644 65.7751 44.4556 65.6748 44.4469 65.572C44.4244 65.7563 44.4257 65.972 44.5418 66.0447C44.8939 66.2642 46.1411 65.0716 46.6368 64.3268C48.1424 62.0621 45.9563 59.0312 45.0899 54.6184C44.6941 52.5983 44.4656 49.7279 45.2347 46.0525C45.3433 46.2004 45.4607 46.3484 45.5768 46.4976C47.1274 48.5191 48.4745 50.8866 49.6656 53.708C50.5914 55.9479 51.3521 58.2531 51.9416 60.6049C52.5237 62.9179 52.9731 65.2625 53.2875 67.6272C53.3512 68.1288 53.4186 68.6593 53.4723 69.1935C53.5172 69.67 53.5472 70.1465 53.5771 70.6243L53.6121 71.1723C53.6136 71.2186 53.6295 71.2632 53.6575 71.3001C53.6854 71.3369 53.7241 71.3641 53.7682 71.3779C53.7658 71.4072 53.7697 71.4367 53.7796 71.4644C53.7895 71.4921 53.8052 71.5173 53.8256 71.5384C53.8666 71.5755 53.9191 71.5972 53.9742 71.5999C54.5809 71.66 55.124 71.6901 55.6347 71.6901H55.7345C56.338 71.6856 56.9397 71.6226 57.5311 71.5021C57.5571 71.4959 57.5816 71.4846 57.6031 71.4686C57.6245 71.4526 57.6425 71.4324 57.656 71.4093C57.6712 71.3837 57.6813 71.3554 57.6855 71.3259C57.6898 71.2964 57.6883 71.2663 57.6809 71.2375C57.6719 71.2032 57.6538 71.172 57.6285 71.1472C57.6361 71.1289 57.6403 71.1093 57.641 71.0895C57.7184 70.3371 57.8045 69.5847 57.8907 68.8323C58.0155 67.7388 58.1404 66.6454 58.2415 65.5506C58.3089 64.7983 58.3664 64.0032 58.4125 62.9537C58.4525 62.1687 58.4816 61.3816 58.4999 60.5924C58.5836 57.1189 58.4438 54.0416 58.0717 51.1875C57.6472 47.9272 56.8919 44.9176 55.8244 42.2303C54.6985 39.3389 53.0973 36.6578 51.0876 34.2989C50.1274 33.1905 49.0703 32.1707 47.929 31.2517C46.7739 30.3141 45.5347 29.4863 44.2272 28.7789C41.5229 27.313 38.6789 26.5317 36.0008 26.5217C35.9698 26.5008 35.9333 26.4899 35.896 26.4903C35.8559 26.4898 35.8167 26.5016 35.7836 26.5242C35.7349 26.5291 35.6898 26.552 35.6568 26.5883C35.6239 26.6246 35.6054 26.6719 35.6051 26.7211L35.5789 26.7988C35.5501 26.8402 35.5214 26.8803 35.4915 26.9242C35.1306 27.3901 34.6545 27.7528 34.1106 27.9763C33.8543 28.077 33.5875 28.1486 33.3153 28.1895C33.1905 28.202 33.0656 28.2083 32.9408 28.2083C32.8106 28.2087 32.6806 28.2016 32.5513 28.187C32.3187 28.1517 32.0909 28.0903 31.8721 28.0039C31.6751 27.9137 31.4874 27.8045 31.3115 27.6779C31.1285 27.5282 30.9611 27.3601 30.8121 27.1763C30.6855 27.0053 30.5731 26.8241 30.4763 26.6345C30.4586 26.6032 30.4327 26.5773 30.4015 26.5597C30.3703 26.542 30.3348 26.5332 30.299 26.5342C30.2623 26.5337 30.2262 26.5428 30.1941 26.5606L30.1129 26.5844C28.6063 26.6739 27.1137 26.9261 25.6608 27.3368C24.2736 27.7456 22.9405 28.3212 21.6906 29.051C21.031 29.4368 20.3933 29.8592 19.7804 30.3162C19.5008 30.5219 19.2261 30.7351 18.9564 30.9533C18.8428 31.0479 18.734 31.1484 18.6306 31.2542C18.3546 31.5301 18.0962 31.8223 17.8378 32.1157C17.5157 32.4781 17.1948 32.8543 16.8789 33.2305C16.2322 33.9829 15.6479 34.6588 15.0361 35.3146C14.4712 35.9364 13.8611 36.5153 13.2109 37.0464C12.8958 37.3024 12.5497 37.5173 12.1808 37.6859C12.057 37.738 11.9282 37.7771 11.7963 37.8025C11.7414 37.8025 11.6864 37.8113 11.6315 37.8113C11.5974 37.8131 11.5632 37.8131 11.5291 37.8113C11.4648 37.7983 11.4018 37.7799 11.3406 37.7561C11.2843 37.7275 11.2297 37.6957 11.1771 37.6608C11.0926 37.59 11.0149 37.5115 10.9448 37.4263C10.8079 37.237 10.6939 37.032 10.6052 36.8156C10.3672 36.1637 10.2079 35.4855 10.1308 34.7955C10.0559 34.2036 10.006 33.5264 9.96102 32.685C9.95228 32.4856 9.94604 32.285 9.94105 32.0831C9.93106 31.7571 9.92107 31.431 9.90109 31.1063C9.82119 29.8059 9.9398 28.5155 10.0684 27.3042L10.1034 26.9681C10.1595 26.4352 10.2145 25.901 10.2569 25.3668C10.2844 25.042 10.3019 24.7197 10.3156 24.3949C10.3218 24.2507 10.3243 24.1065 10.3268 23.9636V23.8018C10.3268 23.709 10.3268 23.6175 10.3268 23.5247C10.3313 23.4751 10.3166 23.4257 10.2856 23.3867C10.3046 23.3554 10.3146 23.3194 10.3146 23.2827C10.3146 23.246 10.3046 23.21 10.2856 23.1786C10.2669 23.1468 10.2402 23.1204 10.2083 23.1022C10.1763 23.0839 10.1401 23.0744 10.1034 23.0745C10.0649 23.0746 10.0271 23.0845 9.99348 23.1033C9.90859 23.1485 9.81245 23.1761 9.7313 23.2287C9.42042 23.4206 6.25175 22.7146 6.13439 22.7171Z" fill="#FDDA51"/>
<path d="M24.2668 28.5055C24.2019 28.7162 24.1257 28.9194 24.0433 29.1238C24.0346 29.1438 24.0258 29.1626 24.0183 29.1827C23.9938 29.2251 23.9866 29.2755 23.9984 29.3231C24.0118 29.369 24.0416 29.4083 24.082 29.4335C24.1032 29.4456 24.1266 29.4534 24.1508 29.4564C24.175 29.4595 24.1996 29.4576 24.2231 29.4511C24.2462 29.4455 24.2679 29.435 24.2866 29.4203C24.3054 29.4056 24.3207 29.387 24.3317 29.3658C24.4416 29.1173 24.5375 28.8627 24.6189 28.6034C24.631 28.5567 24.6248 28.5071 24.6016 28.4648C24.5784 28.4226 24.5398 28.3909 24.494 28.3764C24.4785 28.3725 24.4626 28.3703 24.4466 28.3701C24.4065 28.3713 24.3678 28.3852 24.3359 28.4097C24.3041 28.4342 24.2808 28.4682 24.2693 28.5068L24.2668 28.5055ZM24.062 29.0811L24.0508 29.1075C24.0532 29.0982 24.057 29.0893 24.062 29.0811Z" fill="#510026"/>
<path d="M23.5529 30.3289C23.5215 30.3632 23.5033 30.4077 23.5017 30.4543C23.5017 30.5132 23.4892 30.5797 23.4817 30.6349C23.453 30.8217 23.4168 31.0111 23.3731 31.1941C23.3629 31.2387 23.3702 31.2854 23.3934 31.3247C23.4166 31.3641 23.454 31.3929 23.4978 31.4053C23.5415 31.4177 23.5884 31.4127 23.6286 31.3914C23.6689 31.3701 23.6994 31.334 23.7139 31.2907C23.7795 31.0152 23.8279 30.7359 23.8587 30.4543C23.8585 30.4309 23.8536 30.4077 23.8444 30.3862C23.8352 30.3646 23.8218 30.3452 23.8051 30.3289C23.7887 30.3124 23.7692 30.2993 23.7478 30.2905C23.7264 30.2817 23.7034 30.2772 23.6802 30.2775C23.6335 30.2778 23.5888 30.2962 23.5554 30.3289H23.5529Z" fill="#510026"/>
<path d="M23.0844 32.2976C23.0142 32.5949 22.967 32.8971 22.9433 33.2017C22.944 33.2482 22.9628 33.2925 22.9957 33.3251C23.0287 33.3577 23.0731 33.376 23.1193 33.376C23.1426 33.3766 23.1657 33.3724 23.1871 33.3635C23.2086 33.3547 23.2281 33.3414 23.2442 33.3246C23.2606 33.3082 23.2735 33.2886 23.2823 33.2671C23.2911 33.2455 23.2955 33.2225 23.2954 33.1992C23.3029 33.0951 23.3141 32.9923 23.3266 32.8907C23.3528 32.7227 23.384 32.5559 23.424 32.3891C23.4355 32.3438 23.4289 32.2957 23.4055 32.2551C23.3822 32.2146 23.344 32.1848 23.2991 32.1722C23.2844 32.1683 23.2694 32.1662 23.2542 32.1659C23.2159 32.1652 23.1785 32.177 23.1476 32.1997C23.1167 32.2223 23.0941 32.2545 23.0831 32.2913L23.0844 32.2976Z" fill="#510026"/>
<path d="M22.685 34.566C22.6289 34.7278 22.5802 34.8883 22.5402 35.0538C22.5003 35.2362 22.4715 35.4209 22.4541 35.6068C22.4536 35.6301 22.4579 35.6533 22.4667 35.6749C22.4755 35.6964 22.4887 35.7159 22.5053 35.7322C22.5393 35.764 22.5837 35.7822 22.6301 35.7836C22.6766 35.7826 22.7211 35.7643 22.755 35.7322C22.786 35.6976 22.8045 35.6534 22.8074 35.6068C22.8124 35.5767 22.8161 35.5466 22.8186 35.5165C22.8374 35.3911 22.8598 35.2745 22.8861 35.1529C22.9247 34.9873 22.9739 34.8243 23.0334 34.6651C23.0462 34.6182 23.0404 34.5681 23.0171 34.5255C22.9937 34.4829 22.9548 34.4511 22.9085 34.4369C22.8927 34.4323 22.8763 34.4302 22.8598 34.4306C22.8197 34.4316 22.781 34.4452 22.7489 34.4695C22.7169 34.4938 22.6933 34.5276 22.6813 34.566H22.685Z" fill="#510026"/>
<path d="M22.2555 36.7003C22.2161 36.7252 22.1869 36.7635 22.1731 36.8082C22.122 36.9398 22.0745 37.074 22.0346 37.2107C21.9842 37.3818 21.9454 37.556 21.9185 37.7324C21.9124 37.7553 21.911 37.7791 21.9142 37.8026C21.9174 37.826 21.9252 37.8486 21.9372 37.869C21.9597 37.9091 21.9969 37.9388 22.0408 37.9518C22.0862 37.9637 22.1344 37.9573 22.175 37.9338C22.2156 37.9104 22.2455 37.8718 22.258 37.8264C22.2818 37.6847 22.3105 37.5468 22.3442 37.4076C22.3892 37.2349 22.4451 37.0653 22.5115 36.8997C22.5186 36.8774 22.5208 36.8539 22.5178 36.8307C22.5147 36.8074 22.5066 36.7852 22.494 36.7655C22.471 36.7254 22.4334 36.6957 22.3891 36.6828C22.3746 36.6809 22.3599 36.6809 22.3454 36.6828C22.3141 36.6827 22.2832 36.6904 22.2555 36.7053V36.7003Z" fill="#510026"/>
<path d="M21.5923 39.3437C21.5608 39.378 21.5427 39.4225 21.5411 39.4691C21.5137 39.676 21.4899 39.8816 21.47 40.0898C21.4694 40.1131 21.4736 40.1363 21.4824 40.1579C21.4912 40.1795 21.5044 40.199 21.5212 40.2152C21.5548 40.2475 21.5994 40.2659 21.646 40.2666C21.6925 40.2657 21.737 40.2473 21.7709 40.2152C21.802 40.1807 21.8201 40.1363 21.822 40.0898C21.8445 39.8816 21.8707 39.676 21.897 39.4691C21.8976 39.4456 21.8932 39.4223 21.8841 39.4007C21.8751 39.3791 21.8616 39.3597 21.8445 39.3437C21.8112 39.3107 21.7665 39.2918 21.7197 39.291C21.6729 39.2922 21.6284 39.311 21.5948 39.3437H21.5923Z" fill="#510026"/>
<path d="M21.2504 41.2323C21.2167 41.4204 21.1879 41.6085 21.1655 41.7991C21.1656 41.8225 21.1704 41.8457 21.1796 41.8673C21.1888 41.8888 21.2023 41.9083 21.2192 41.9245C21.2528 41.957 21.2973 41.9757 21.344 41.9771C21.3906 41.9754 21.435 41.9567 21.4688 41.9245C21.499 41.8893 21.5169 41.8453 21.52 41.7991C21.52 41.7715 21.52 41.7452 21.53 41.7201C21.55 41.5947 21.5725 41.4605 21.5962 41.3288C21.6082 41.2818 21.6015 41.2318 21.5775 41.1896C21.5627 41.1623 21.5406 41.1396 21.5137 41.1241C21.4868 41.1086 21.4561 41.1009 21.4252 41.1019C21.386 41.1001 21.3473 41.1115 21.3152 41.1342C21.2831 41.1569 21.2594 41.1896 21.2479 41.2273L21.2504 41.2323Z" fill="#510026"/>
<path d="M20.9908 43.0367C20.9583 43.0703 20.9399 43.1152 20.9396 43.1621C20.9234 43.3539 20.9121 43.547 20.9084 43.7414C20.909 43.7885 20.9281 43.8335 20.9616 43.8666C20.995 43.8997 21.04 43.9182 21.0869 43.9182C21.1335 43.9176 21.1781 43.8988 21.2111 43.8658C21.2442 43.8328 21.2632 43.7882 21.2642 43.7414C21.2642 43.547 21.2779 43.3539 21.2942 43.1621C21.2943 43.1385 21.2898 43.1151 21.2809 43.0932C21.272 43.0714 21.2589 43.0516 21.2422 43.0349C21.2256 43.0182 21.2059 43.005 21.1842 42.996C21.1624 42.9871 21.1391 42.9826 21.1156 42.9827C21.0925 42.9825 21.0695 42.9869 21.048 42.9958C21.0266 43.0046 21.0071 43.0176 20.9908 43.0342V43.0367Z" fill="#510026"/>
<path d="M43.6534 29.4435C43.6222 29.5689 43.5885 29.7044 43.5523 29.8348C43.5412 29.8798 43.548 29.9274 43.5713 29.9675C43.5946 30.0075 43.6326 30.0368 43.6771 30.0492C43.7216 30.0603 43.7687 30.0534 43.8082 30.0299C43.8476 30.0064 43.8763 29.9683 43.8881 29.9238C43.9243 29.7984 43.9568 29.6642 43.988 29.5326C43.9995 29.4874 43.9928 29.4394 43.9695 29.3991C43.9461 29.3588 43.9079 29.3292 43.8631 29.3169C43.8482 29.315 43.8331 29.315 43.8182 29.3169C43.7803 29.3162 43.7432 29.3282 43.7127 29.3508C43.6822 29.3735 43.6601 29.4057 43.6496 29.4423L43.6534 29.4435Z" fill="#510026"/>
<path d="M43.26 31.6782C43.26 31.9979 43.2537 32.3177 43.2475 32.6387C43.2513 32.6839 43.2718 32.7259 43.3049 32.7566C43.3381 32.7872 43.3816 32.8043 43.4267 32.8043C43.4717 32.8043 43.5152 32.7872 43.5484 32.7566C43.5816 32.7259 43.6021 32.6839 43.6058 32.6387C43.6146 32.3177 43.6208 31.9979 43.6208 31.6782C43.6208 31.6302 43.6019 31.5841 43.5682 31.55C43.5345 31.516 43.4888 31.4967 43.441 31.4963C43.3931 31.4967 43.3472 31.5159 43.3134 31.55C43.2795 31.584 43.2603 31.63 43.26 31.6782Z" fill="#510026"/>
<path d="M43.2105 34.067C43.1936 34.4406 43.1974 34.8149 43.2217 35.1881C43.2217 35.2366 43.2409 35.2832 43.2751 35.3175C43.3093 35.3519 43.3556 35.3711 43.404 35.3711C43.4523 35.3711 43.4987 35.3519 43.5329 35.3175C43.5671 35.2832 43.5863 35.2366 43.5863 35.1881C43.5663 34.8144 43.5663 34.4407 43.5863 34.067C43.5863 34.0171 43.5665 33.9693 43.5314 33.934C43.4963 33.8987 43.4487 33.8789 43.399 33.8789C43.3493 33.8789 43.3017 33.8987 43.2666 33.934C43.2315 33.9693 43.2117 34.0171 43.2117 34.067H43.2105Z" fill="#510026"/>
<path d="M43.2627 36.5248C43.255 36.7292 43.2579 36.9339 43.2714 37.138C43.2855 37.3235 43.3097 37.5081 43.3438 37.691C43.3564 37.7363 43.3862 37.7749 43.4269 37.7984C43.4675 37.8218 43.5157 37.8283 43.5611 37.8164C43.6058 37.8037 43.6441 37.7746 43.6684 37.7349C43.691 37.6926 43.6972 37.6435 43.6859 37.5969C43.6734 37.5292 43.6622 37.4628 43.6535 37.395L43.6597 37.4427C43.622 37.1383 43.6087 36.8313 43.6198 36.5248C43.6194 36.4773 43.6005 36.4319 43.5671 36.3983C43.5337 36.3648 43.4885 36.3458 43.4412 36.3455C43.3942 36.3464 43.3493 36.3656 43.316 36.399C43.2828 36.4325 43.2636 36.4775 43.2627 36.5248Z" fill="#510026"/>
<path d="M43.4426 38.7706C43.4538 39.0527 43.4625 39.3349 43.4725 39.617C43.4725 39.6636 43.4909 39.7082 43.5237 39.7411C43.5565 39.7741 43.601 39.7926 43.6473 39.7926C43.6937 39.7926 43.7381 39.7741 43.7709 39.7411C43.8037 39.7082 43.8221 39.6636 43.8221 39.617C43.8129 39.3353 43.8034 39.0531 43.7934 38.7706C43.7934 38.7239 43.775 38.6791 43.7423 38.646C43.7095 38.6129 43.6651 38.5941 43.6186 38.5938C43.5721 38.5944 43.5277 38.6132 43.4948 38.6463C43.462 38.6793 43.4432 38.7239 43.4426 38.7706Z" fill="#510026"/>
<path d="M43.5624 41.0278C43.5609 41.2167 43.5701 41.4056 43.5899 41.5934C43.5928 41.6402 43.6118 41.6845 43.6436 41.7188C43.66 41.7352 43.6795 41.7482 43.7009 41.757C43.7223 41.7658 43.7453 41.7703 43.7684 41.7702C43.8151 41.77 43.8599 41.7516 43.8933 41.7188C43.9099 41.7025 43.923 41.683 43.9318 41.6614C43.9406 41.6399 43.9449 41.6167 43.9445 41.5934C43.927 41.404 43.9182 41.2172 43.9195 41.0278C43.9216 41.0028 43.9184 40.9776 43.9103 40.9538C43.9022 40.93 43.8892 40.9081 43.8723 40.8896C43.8553 40.8711 43.8347 40.8564 43.8118 40.8463C43.7889 40.8362 43.7641 40.8309 43.7391 40.8309C43.714 40.8309 43.6893 40.8362 43.6663 40.8463C43.6434 40.8564 43.6228 40.8711 43.6059 40.8896C43.5889 40.9081 43.576 40.93 43.5678 40.9538C43.5597 40.9776 43.5566 41.0028 43.5587 41.0278H43.5624Z" fill="#510026"/>
<path d="M43.9443 42.7984C43.9226 42.8039 43.9024 42.814 43.8848 42.8278C43.8671 42.8416 43.8525 42.8589 43.8419 42.8786C43.819 42.9184 43.8122 42.9656 43.8232 43.0103C43.8431 43.1532 43.8681 43.2975 43.8943 43.4404C43.9058 43.4848 43.9343 43.5229 43.9736 43.5464C44.0128 43.5699 44.0597 43.5769 44.1041 43.5658C44.1262 43.5604 44.1469 43.5506 44.1652 43.5371C44.1835 43.5235 44.1989 43.5064 44.2105 43.4868C44.2221 43.4672 44.2298 43.4454 44.2329 43.4228C44.2361 43.4002 44.2347 43.3772 44.2289 43.3551C44.2027 43.2122 44.1777 43.0692 44.1578 42.9238C44.1526 42.9022 44.143 42.882 44.1297 42.8643C44.1164 42.8466 44.0996 42.8318 44.0804 42.8209C44.0528 42.8056 44.0219 42.7975 43.9905 42.7971C43.9765 42.7973 43.9626 42.7994 43.9493 42.8034L43.9443 42.7984Z" fill="#510026"/>
<path d="M44.1655 44.7759C44.1655 44.8171 44.1776 44.8573 44.2004 44.8916C44.2232 44.9258 44.2555 44.9525 44.2934 44.9682C44.3313 44.984 44.3729 44.9881 44.4132 44.9801C44.4534 44.972 44.4903 44.9522 44.5193 44.9231C44.5483 44.894 44.568 44.8569 44.576 44.8165C44.584 44.7761 44.5799 44.7343 44.5642 44.6963C44.5485 44.6582 44.5219 44.6257 44.4879 44.6028C44.4538 44.58 44.4137 44.5677 44.3727 44.5677C44.3179 44.5681 44.2653 44.5901 44.2265 44.6291C44.1877 44.668 44.1658 44.7208 44.1655 44.7759Z" fill="#510026"/>
<path d="M29.5457 26.9155C29.5232 26.9215 29.5022 26.9319 29.4838 26.946C29.4654 26.9602 29.45 26.9778 29.4384 26.998C29.4268 27.0181 29.4192 27.0404 29.4162 27.0635C29.4132 27.0866 29.4148 27.11 29.4208 27.1325C29.5617 27.5161 29.76 27.876 30.0088 28.1996C30.1359 28.3643 30.2758 28.5186 30.4271 28.6611C30.5727 28.7946 30.7284 28.9166 30.8928 29.026C31.2245 29.2448 31.5862 29.4138 31.9665 29.5276C32.3502 29.6429 32.7472 29.7069 33.1476 29.7182C33.9414 29.7421 34.7293 29.5739 35.4448 29.2279C35.8131 29.0496 36.1568 28.8241 36.4673 28.557C36.7822 28.2831 37.0567 27.9655 37.2826 27.614C37.3086 27.5692 37.316 27.5159 37.3032 27.4657C37.2903 27.4154 37.2582 27.3723 37.2139 27.3457C37.1689 27.3206 37.1161 27.3138 37.0663 27.3269C37.0165 27.34 36.9737 27.3719 36.9467 27.4159C36.8746 27.5365 36.7962 27.6533 36.712 27.7657L36.7257 27.7494L36.7108 27.7695C36.7059 27.7751 36.7013 27.781 36.697 27.7871C36.7 27.7822 36.7034 27.7776 36.707 27.7733C36.4961 28.0399 36.2548 28.2806 35.9879 28.4905L36.0104 28.4742L35.9854 28.4931L35.9754 28.5006L35.9841 28.4931C35.6928 28.708 35.3783 28.8893 35.0465 29.0335L35.0652 29.0235C34.6926 29.1784 34.3021 29.2858 33.9029 29.3433H33.9154C33.5208 29.3934 33.1214 29.3934 32.7268 29.3433L32.7718 29.3495C32.3993 29.3002 32.0347 29.2033 31.6868 29.0611L31.7068 29.0699L31.6668 29.0523C31.3986 28.9321 31.1444 28.7824 30.909 28.6059C30.6681 28.4168 30.4513 28.1987 30.2635 27.9564C30.0754 27.697 29.9182 27.4162 29.7954 27.1199C29.7954 27.1337 29.8053 27.1488 29.8103 27.1626C29.7929 27.1199 29.7766 27.0748 29.7616 27.0372C29.7473 26.9935 29.7181 26.9562 29.6792 26.9318C29.6528 26.916 29.6226 26.9077 29.5918 26.908C29.5766 26.9055 29.5609 26.9055 29.5457 26.908V26.9155ZM31.6681 29.0573L31.6881 29.0661L31.6681 29.0573ZM35.0715 29.0273L35.0927 29.0197L35.0715 29.0273ZM36.7133 27.777V27.7846V27.777Z" fill="#510026"/>
<path d="M6.02499 24.0903C6.00067 24.1321 5.99372 24.1819 6.00563 24.2288C6.01755 24.2757 6.04737 24.3161 6.08866 24.3411C6.68594 24.7277 7.36481 24.969 8.07127 25.0458C8.81371 25.1617 9.57316 25.092 10.2823 24.8427C10.3341 24.8294 10.3788 24.7966 10.4072 24.7512C10.4299 24.7156 10.4409 24.6737 10.4387 24.6315C10.4364 24.5893 10.421 24.5489 10.3947 24.5159C10.3684 24.4829 10.3324 24.4591 10.2918 24.4478C10.2513 24.4364 10.2082 24.4382 10.1687 24.4527C9.88951 24.5606 9.59874 24.6355 9.30228 24.6759C8.87585 24.7219 8.44553 24.7177 8.02008 24.6634C7.62216 24.6049 7.23245 24.4997 6.85898 24.3499C6.65302 24.2601 6.45575 24.1513 6.26969 24.0251C6.24455 24.0083 6.21496 23.9996 6.18479 24C6.15268 24 6.12112 24.0084 6.09314 24.0242C6.06515 24.04 6.04168 24.0628 6.02499 24.0903Z" fill="#510026"/>
<path d="M54.1766 70.2245C54.148 70.2275 54.1205 70.2367 54.0959 70.2515C54.0712 70.2663 54.0501 70.2864 54.034 70.3102C54.0179 70.3341 54.0071 70.3612 54.0025 70.3896C53.9979 70.4181 53.9995 70.4472 54.0072 70.4749C54.015 70.5027 54.0287 70.5284 54.0473 70.5503C54.066 70.5722 54.0892 70.5898 54.1153 70.6018C54.1414 70.6137 54.1698 70.6198 54.1985 70.6196C54.2272 70.6195 54.2555 70.613 54.2814 70.6007C54.52 70.5375 54.7617 70.4873 55.0056 70.4502C55.4612 70.3912 55.9221 70.3861 56.3789 70.4351C56.7106 70.4798 57.0359 70.564 57.3477 70.6859C57.3739 70.6932 57.4013 70.6949 57.4281 70.691C57.455 70.6871 57.4807 70.6777 57.5038 70.6634C57.5269 70.6497 57.5471 70.6316 57.5631 70.6101C57.5792 70.5886 57.5909 70.5641 57.5974 70.538C57.6106 70.4858 57.6031 70.4305 57.5766 70.3838C57.5501 70.337 57.5065 70.3024 57.4551 70.2872C57.1896 70.192 56.9164 70.1198 56.6386 70.0715C56.3686 70.027 56.0957 70.0031 55.8221 70H55.721C55.1971 70.0043 54.676 70.076 54.1703 70.2132L54.1766 70.2245Z" fill="#510026"/>
</g>
<defs>
<clipPath id="clip0">
<rect width="67" height="135" fill="white"/>
</clipPath>
</defs>
</svg>
