<svg width="50" height="133" viewBox="0 0 50 133" fill="none" xmlns="http://www.w3.org/2000/svg">
<g clip-path="url(#clip0)">
<path opacity="0.1" d="M41.2772 120.449C41.0607 120.273 40.6128 120.149 40.3663 119.985C38.9895 119.074 39.9144 119.459 40.4511 118.867C41.3112 117.921 37.5039 117.617 35.0954 117.492C25.6352 117 15.7519 116.603 6.6328 117.714C6.54618 117.723 6.4712 117.74 6.41776 117.761C6.36432 117.783 6.33494 117.808 6.33348 117.835C5.07837 118.014 4.32909 118.391 4.65633 118.853C5.18412 119.598 7.78316 119.909 10.0948 120.104C8.83374 120.877 8.09943 121.801 9.36053 122.608C10.879 123.576 14.798 123.85 18.1683 123.955C23.0471 124.108 28.1823 123.852 32.8705 123.468C36.2129 123.195 39.655 122.734 41.0268 121.756C41.5985 121.346 41.8 120.873 41.2772 120.449Z" fill="#1749A0"/>
<path d="M38.244 18.7163C38.2019 18.1312 38.0824 17.5542 37.8887 17.0004C37.8337 16.8316 37.7716 16.6668 37.7096 16.501C37.6475 16.3352 37.5915 16.1874 37.5394 16.0276C37.43 15.6915 37.3516 15.3462 37.3053 14.9958C37.1862 14.028 37.2812 13.0442 37.3733 12.0933C37.4013 11.7937 37.4304 11.5031 37.4524 11.2084C37.4784 10.8728 37.4884 10.5652 37.4834 10.2686C37.4768 9.94895 37.4504 9.63006 37.4043 9.31371C37.3171 8.69975 37.1717 8.09544 36.97 7.5089C36.7671 6.92469 36.5244 6.35505 36.2435 5.80396C36.0064 5.31603 35.739 4.84334 35.4429 4.38868C34.907 3.59268 34.2676 2.87123 33.5414 2.24327C32.8929 1.67455 32.1754 1.18934 31.4058 0.79902C31.0357 0.611675 30.652 0.452417 30.258 0.322597C29.8576 0.191456 29.4458 0.0981584 29.028 0.0439345C28.801 0.0151325 28.5724 0.000455209 28.3435 -1.23023e-05C27.7631 -0.00159416 27.187 0.0998649 26.6422 0.299625C25.814 0.623549 25.0804 1.14965 24.5086 1.82977C24.4911 1.84916 24.4784 1.87244 24.4716 1.89769C24.2865 1.88271 24.0963 1.86273 23.9072 1.83876L23.5609 1.78682C23.1533 1.71491 22.7408 1.67351 22.327 1.66297C22.0543 1.6623 21.7826 1.69585 21.5184 1.76285C21.2098 1.84551 20.9144 1.97091 20.6407 2.1354C20.1797 2.4063 19.7582 2.739 19.3878 3.12421C19.0048 3.51838 18.6612 3.9489 18.362 4.40965C18.0515 4.87896 17.7765 5.37073 17.5394 5.88087C17.2992 6.38132 17.09 6.89599 16.9129 7.422C16.7121 8.03053 16.5746 8.65809 16.5026 9.29474C16.4298 9.92778 16.4382 10.5675 16.5276 11.1984C16.5775 11.5341 16.6497 11.8661 16.7438 12.1922C16.8158 12.4369 16.9059 12.6766 16.995 12.9164L17.077 13.1361C17.3062 13.7603 17.5023 14.3256 17.5894 14.9219C17.6113 15.0875 17.6233 15.2543 17.6254 15.4213C17.6275 15.6137 17.6155 15.806 17.5894 15.9966C17.5627 16.1928 17.5229 16.387 17.4703 16.5779L17.4483 16.6638C17.4053 16.8286 17.3632 16.9944 17.3252 17.1632C17.2464 17.4855 17.2088 17.8163 17.2131 18.148C17.2271 18.4641 17.2864 18.7766 17.3893 19.0759C17.4313 19.2067 17.4793 19.3346 17.5274 19.4624L17.5984 19.6512C17.664 19.8246 17.7113 20.0044 17.7395 20.1875C17.7482 20.2715 17.7518 20.3559 17.7505 20.4402C17.7464 20.5406 17.7368 20.6406 17.7215 20.7399L17.6845 20.9846C17.6043 21.3788 17.5734 21.7814 17.5924 22.1831C17.6035 22.294 17.6232 22.4039 17.6515 22.5117C17.6817 22.6154 17.7222 22.7158 17.7726 22.8114C17.8262 22.9074 17.8899 22.9975 17.9627 23.08C18.0579 23.1823 18.1679 23.2698 18.2889 23.3397C18.3161 23.3562 18.3472 23.3649 18.379 23.3647C18.4257 23.411 18.4756 23.454 18.5281 23.4935C18.6048 23.5509 18.685 23.6032 18.7683 23.6504C18.8448 23.6905 18.9236 23.7258 19.0045 23.7562C19.2379 23.8354 19.4825 23.8766 19.729 23.8781C19.8291 23.8781 19.9212 23.8721 20.0172 23.8641C20.412 23.8219 20.8026 23.7474 21.1851 23.6414C21.4773 23.5695 21.7796 23.4945 22.0858 23.4496C22.1639 23.4396 22.2359 23.4326 22.307 23.4306H22.383C22.4614 23.4311 22.5397 23.4371 22.6172 23.4486C22.7543 23.4706 22.8894 23.5015 23.0225 23.5355C23.1556 23.5695 23.3017 23.5914 23.4418 23.6104C23.5184 23.6209 23.5957 23.6259 23.673 23.6254C23.9368 23.6197 24.1985 23.5773 24.4506 23.4995C24.6921 23.4254 24.9296 23.3387 25.1621 23.2399L25.3843 23.151C25.6885 23.0252 26.0062 22.9344 26.331 22.8803C26.434 22.868 26.5375 22.8617 26.6412 22.8613H26.6462C26.7523 22.861 26.8583 22.868 26.9635 22.8823C27.0963 22.9023 27.2267 22.9358 27.3528 22.9822C27.4081 23.0086 27.4615 23.0386 27.5129 23.0721C27.5577 23.1093 27.5996 23.1501 27.638 23.1939C27.7185 23.3135 27.7878 23.4402 27.8451 23.5725C27.8772 23.6404 27.9092 23.7093 27.9452 23.7772C28.0974 24.0659 28.3231 24.3095 28.5997 24.4834C28.6658 24.5243 28.7363 24.5578 28.8099 24.5832C28.9005 24.6175 28.9944 24.6422 29.0901 24.6571C29.2032 24.676 29.3177 24.685 29.4323 24.6841C29.4924 24.6841 29.5524 24.6841 29.6125 24.6791C29.7426 24.6721 29.8697 24.6591 29.9968 24.6462L30.1619 24.6302C30.268 24.6202 30.374 24.6152 30.4801 24.6152C30.5684 24.615 30.6565 24.6194 30.7443 24.6282C30.8544 24.6452 30.9627 24.6726 31.0676 24.7101C31.1642 24.7538 31.2561 24.8073 31.3418 24.8699C31.4411 24.9576 31.5322 25.0542 31.614 25.1585L31.666 25.2274C31.7812 25.3914 31.9123 25.5436 32.0573 25.6819C32.2579 25.8507 32.496 25.9691 32.7518 26.0275C32.8595 26.0542 32.9701 26.0676 33.0811 26.0674C33.2043 26.0667 33.3271 26.0526 33.4474 26.0255C33.5574 26.0013 33.6652 25.9679 33.7696 25.9256C33.8457 25.8956 33.9197 25.8627 33.9948 25.8257L34.0948 25.7818C34.2931 25.6921 34.5009 25.6251 34.7143 25.582C34.8334 25.568 34.9555 25.563 35.0746 25.56C35.2206 25.5559 35.3663 25.5432 35.5109 25.5221C35.6292 25.5034 35.7434 25.4642 35.8482 25.4062C35.9065 25.372 35.9605 25.3311 36.0093 25.2844L36.0403 25.2514C36.0721 25.249 36.1028 25.2394 36.1304 25.2235C36.1811 25.1921 36.2188 25.1435 36.2365 25.0866C36.2434 25.0679 36.2485 25.0485 36.2515 25.0287C36.3359 24.9332 36.4151 24.8332 36.4886 24.7291C36.5664 24.6139 36.6334 24.4919 36.6888 24.3645C36.7924 24.1267 36.8693 23.8781 36.918 23.6234C36.947 23.4826 36.971 23.3417 36.994 23.1999C37.013 23.085 37.0321 22.9692 37.0551 22.8533C37.1028 22.593 37.1742 22.3376 37.2682 22.0902C37.325 21.961 37.3895 21.8353 37.4614 21.7137C37.5504 21.5559 37.6325 21.3961 37.7116 21.2333C37.8415 20.9637 37.9522 20.6854 38.0428 20.4003C38.2111 19.8557 38.2792 19.2852 38.244 18.7163Z" fill="#510026"/>
<path d="M31.3235 14.858C31.2058 14.7182 31.0984 14.57 31.0023 14.4146C30.7395 13.9683 30.5659 13.4755 30.4909 12.9633C30.4414 12.6063 30.4186 12.246 30.4229 11.8856C30.4229 11.544 30.4429 11.2034 30.4619 10.8619C30.5009 10.1627 30.5419 9.46356 30.4549 8.77339C30.4059 8.42748 30.3162 8.08854 30.1877 7.76361C30.0548 7.46538 29.8893 7.18268 29.6943 6.92063C29.4395 6.60481 29.1498 6.31868 28.8307 6.06767C28.2302 5.61222 27.5697 5.25865 26.9392 4.85214C26.6166 4.64785 26.3093 4.42053 26.0195 4.17196C25.9615 4.12202 25.9055 4.07208 25.8504 4.01715C25.7403 4.00716 25.6302 4.00217 25.5182 4.00217C25.4401 4.00217 25.36 4.00217 25.281 4.00816C25.2556 4.00883 25.2306 4.01498 25.2078 4.02618C25.185 4.03739 25.1649 4.05339 25.1489 4.07308C25.1409 4.06309 25.1219 4.06309 25.1069 4.06309C24.7741 4.12163 24.4489 4.21676 24.1371 4.34675C23.8415 4.47122 23.5606 4.62798 23.2995 4.81418C22.7829 5.18396 22.3388 5.64542 21.9895 6.17554C21.6351 6.70815 21.3518 7.28466 21.1469 7.89046C20.9432 8.46895 20.7925 9.06467 20.6965 9.67031C20.6718 9.63851 20.6404 9.61259 20.6045 9.5944C20.4811 9.52235 20.3506 9.46311 20.2152 9.41761C20.106 9.38434 19.9936 9.36258 19.8799 9.35269C19.8489 9.35269 19.8199 9.35269 19.7888 9.35269C19.7004 9.35393 19.6123 9.36363 19.5256 9.38166C19.4306 9.40299 19.3388 9.43657 19.2524 9.48153C19.1548 9.53518 19.0669 9.60472 18.9922 9.68728C18.8402 9.86266 18.7419 10.078 18.709 10.3075C18.6651 10.5991 18.6836 10.8966 18.7631 11.1805C18.7988 11.3142 18.8464 11.4446 18.9052 11.57C18.9799 11.7326 19.0676 11.8889 19.1674 12.0374C19.3576 12.3235 19.5744 12.591 19.8149 12.8365C19.941 12.9693 20.4213 14.056 20.8336 15.0029C21.0458 15.4903 21.2409 15.9407 21.36 16.2014C21.5594 16.6475 21.8039 17.0722 22.0896 17.4689C22.3587 17.8398 22.67 18.1783 23.0173 18.4776C23.3387 18.752 23.6902 18.9892 24.0651 19.1848L24.0501 19.2377C23.95 19.809 23.8499 20.4013 23.7999 20.9896C23.7306 21.6561 23.7704 22.3295 23.918 22.9832C23.9251 23.0119 23.9398 23.0382 23.9605 23.0593C23.9813 23.0804 24.0074 23.0955 24.036 23.103C24.094 23.3174 24.1834 23.522 24.3012 23.7103C24.421 23.8966 24.5727 24.0602 24.7496 24.1937C25.0688 24.4368 25.4589 24.569 25.8604 24.5703C25.8914 24.5703 25.9235 24.5703 25.9545 24.5703C26.1617 24.5596 26.3652 24.5112 26.5549 24.4274C26.7431 24.3452 26.9131 24.2268 27.0553 24.0789C27.2082 23.9162 27.3264 23.7242 27.4026 23.5145C27.4946 23.2588 27.5318 22.9865 27.5117 22.7155C27.5104 22.6853 27.5023 22.6557 27.4879 22.6291C27.4735 22.6024 27.4532 22.5794 27.4286 22.5617C27.3536 22.3078 27.2971 22.0487 27.2595 21.7866C27.2148 21.449 27.1974 21.1083 27.2074 20.7679C27.2134 20.4799 27.2351 20.1925 27.2725 19.9069C27.717 19.8905 28.1582 19.8235 28.5875 19.7072C29.5123 19.4554 30.3532 18.9621 31.0233 18.2779C31.3732 17.9198 31.6704 17.5139 31.906 17.0723C32.042 16.816 32.1562 16.5488 32.2472 16.2733C32.2853 16.1734 32.3193 16.0736 32.3533 15.9677L32.3823 15.8758C32.3963 15.8328 32.4094 15.7909 32.4234 15.7489C32 15.5295 31.6258 15.2264 31.3235 14.858Z" fill="#D4A181"/>
<path d="M23.9501 9.00109C23.481 9.15493 23.0287 9.35571 22.6001 9.60037C22.5634 9.62183 22.5369 9.65693 22.5262 9.69795C22.5155 9.73897 22.5215 9.78255 22.543 9.8191C22.5645 9.85566 22.5997 9.8822 22.6408 9.89287C22.6819 9.90355 22.7256 9.89749 22.7622 9.87604C22.9313 9.78415 23.1045 9.69925 23.2826 9.62334C23.5116 9.53231 23.7455 9.45395 23.9831 9.38862C24.2159 9.32638 24.4521 9.27802 24.6906 9.2438H24.6636L24.7107 9.23781C24.9458 9.20984 25.18 9.19486 25.4182 9.18088C25.4725 9.18088 25.5245 9.15936 25.5629 9.12105C25.6013 9.08275 25.6229 9.03079 25.6229 8.97662C25.6229 8.92245 25.6013 8.8705 25.5629 8.83219C25.5245 8.79389 25.4725 8.77237 25.4182 8.77237H25.3191C24.8526 8.78032 24.3899 8.85741 23.9461 9.00109H23.9501ZM24.7067 9.23881H24.6866H24.7097H24.7067Z" fill="#510026"/>
<path d="M28.4073 10.8549C28.4335 11.6631 28.3833 12.4721 28.2572 13.2709C28.1819 13.6945 28.0649 14.1097 27.908 14.5104C27.8963 14.5471 27.8996 14.5869 27.9173 14.6212C27.9349 14.6554 27.9654 14.6813 28.002 14.6932C28.0391 14.7047 28.0791 14.7012 28.1137 14.6837C28.1482 14.6662 28.1746 14.6359 28.1872 14.5993C28.2913 14.3049 28.3785 14.0048 28.4484 13.7004C28.5154 13.4088 28.5595 13.1111 28.5975 12.8145C28.6675 12.1668 28.6936 11.5151 28.6755 10.8638C28.6759 10.8289 28.6628 10.7951 28.639 10.7695C28.6151 10.7439 28.5824 10.7283 28.5474 10.726H28.5414C28.507 10.7262 28.4739 10.7396 28.4489 10.7633C28.424 10.7871 28.4091 10.8195 28.4073 10.8539V10.8549Z" fill="#8F4900"/>
<path d="M26.2528 14.2478C26.2423 14.2825 26.2457 14.3199 26.2623 14.3521C26.279 14.3844 26.3075 14.4089 26.3419 14.4206C26.6041 14.4985 26.8673 14.5634 27.1355 14.6203C27.4037 14.6773 27.6959 14.7142 27.9781 14.7482C27.9972 14.749 28.0162 14.746 28.0341 14.7394C28.052 14.7329 28.0684 14.7229 28.0825 14.71C28.0965 14.6971 28.1078 14.6816 28.1159 14.6643C28.1239 14.647 28.1284 14.6284 28.1292 14.6093C28.13 14.5903 28.127 14.5713 28.1205 14.5535C28.1139 14.5356 28.1039 14.5192 28.091 14.5052C28.078 14.4912 28.0625 14.4798 28.0452 14.4718C28.0279 14.4638 28.0092 14.4593 27.9901 14.4585C27.7539 14.4345 27.5198 14.4056 27.2896 14.3666H27.3026C27.0077 14.3132 26.7161 14.2435 26.4289 14.1579C26.4156 14.1539 26.4018 14.1519 26.3879 14.1519C26.3581 14.1523 26.3292 14.1623 26.3055 14.1802C26.2817 14.1982 26.2643 14.2233 26.2558 14.2518L26.2528 14.2478ZM27.2866 14.3646H27.2636H27.2866Z" fill="#8F4900"/>
<path d="M25.139 11.4861C25.1105 11.6022 25.0723 11.7158 25.0249 11.8257C24.9794 11.9126 24.9265 11.9955 24.8668 12.0734C24.7559 12.2043 24.6137 12.3053 24.4534 12.367C24.3768 12.3938 24.2977 12.4129 24.2173 12.4239C24.1435 12.4276 24.0695 12.4253 23.9961 12.4169C23.9278 12.4024 23.8608 12.382 23.796 12.356C23.737 12.3248 23.6808 12.2887 23.6278 12.2481C23.5803 12.2049 23.5365 12.1578 23.4967 12.1073C23.448 12.035 23.4064 11.958 23.3726 11.8776C23.3387 11.7803 23.3142 11.68 23.2996 11.578C23.2958 11.558 23.288 11.539 23.2767 11.5221C23.2653 11.5053 23.2507 11.4909 23.2337 11.4798C23.2166 11.4687 23.1975 11.4611 23.1775 11.4576C23.1574 11.454 23.1369 11.4546 23.1171 11.4591C23.0972 11.4637 23.0785 11.4722 23.0621 11.4842C23.0457 11.4962 23.0318 11.5113 23.0214 11.5288C23.0109 11.5462 23.0041 11.5656 23.0014 11.5857C22.9986 11.6058 23 11.6263 23.0054 11.6459C23.0308 11.8224 23.0827 11.9942 23.1595 12.1553C23.2269 12.2902 23.3189 12.4114 23.4307 12.5128C23.6545 12.7138 23.9473 12.8211 24.2483 12.8125C24.3989 12.8078 24.5476 12.777 24.6876 12.7216C24.8288 12.6658 24.9599 12.5876 25.0759 12.4899C25.1973 12.3852 25.299 12.2597 25.3761 12.1193C25.4725 11.9466 25.5334 11.7564 25.5553 11.56C25.5575 11.5125 25.544 11.4657 25.5169 11.4267C25.4898 11.3877 25.4505 11.3587 25.4052 11.3442C25.3847 11.3383 25.3635 11.3352 25.3421 11.3353C25.2953 11.3336 25.2492 11.3475 25.2112 11.3748C25.1731 11.4021 25.1453 11.4412 25.132 11.4861H25.139ZM24.8928 12.0444C24.8848 12.0534 24.8768 12.0614 24.8698 12.0704C24.8766 12.061 24.8843 12.0523 24.8928 12.0444Z" fill="#8F4900"/>
<path d="M25.6663 15.8868C25.6384 15.9135 25.6219 15.9498 25.6203 15.9883C25.6186 16.0268 25.6318 16.0645 25.6573 16.0935C25.8502 16.291 26.071 16.4592 26.3128 16.5929C26.4217 16.653 26.5355 16.7038 26.653 16.7447C26.7858 16.7912 26.9235 16.8227 27.0633 16.8386C27.1829 16.8541 27.304 16.8541 27.4236 16.8386C27.491 16.8306 27.5578 16.8186 27.6237 16.8027C27.6896 16.7857 27.7542 16.764 27.8169 16.7377C27.9492 16.6825 28.0721 16.607 28.1812 16.514C28.3005 16.4123 28.4019 16.2915 28.4814 16.1564C28.5067 16.1156 28.5152 16.0667 28.5051 16.0197C28.4951 15.9728 28.4672 15.9316 28.4274 15.9047C28.3853 15.8794 28.3352 15.8712 28.2872 15.8818C28.2423 15.894 28.203 15.9216 28.1762 15.9597C28.1431 16.0046 28.1091 16.0476 28.0761 16.0905C28.0068 16.1687 27.9301 16.24 27.8469 16.3033C27.6921 16.4127 27.5113 16.4799 27.3225 16.498C27.1905 16.5067 27.0578 16.5004 26.9272 16.4791C26.7665 16.4453 26.6101 16.3937 26.4609 16.3252C26.3069 16.2472 26.1613 16.1534 26.0265 16.0456C26.0265 16.0456 26.0265 16.0456 26.0316 16.0506L26.0245 16.0446L26.0025 16.0266L26.0225 16.0426C25.9695 15.9956 25.9175 15.9427 25.8674 15.8968C25.8534 15.8823 25.8366 15.8708 25.818 15.863C25.7995 15.8551 25.7795 15.8509 25.7593 15.8508C25.7225 15.8499 25.6867 15.8631 25.6593 15.8878L25.6663 15.8868ZM27.8819 16.2803L27.8709 16.2883L27.8819 16.2803Z" fill="#8F4900"/>
<path d="M25.3671 115.641C25.4671 115.22 25.5322 114.8 25.5852 114.442C25.5722 114.419 25.5639 114.394 25.5608 114.368C25.5577 114.341 25.5599 114.315 25.5673 114.289C25.5747 114.264 25.587 114.24 25.6037 114.219C25.6203 114.199 25.6409 114.181 25.6643 114.169C25.6695 114.142 25.6692 114.114 25.6633 114.086C25.6575 114.059 25.6462 114.034 25.6303 114.011C25.4115 113.767 25.1747 113.539 24.9217 113.331C24.7606 113.198 24.5895 113.071 24.4213 112.949C23.9807 112.643 23.507 112.386 23.0093 112.184C22.9783 112.171 22.9444 112.166 22.9109 112.169C22.8774 112.173 22.8454 112.185 22.8181 112.205L22.8031 112.192C22.778 112.168 22.7466 112.152 22.7126 112.145C22.6787 112.138 22.6435 112.141 22.611 112.153C22.2888 112.297 21.9786 112.466 21.6833 112.659C21.65 112.651 21.6154 112.653 21.5829 112.663C21.5505 112.674 21.5216 112.693 21.4991 112.719C21.1429 113.104 20.7826 113.485 20.4223 113.865C19.6337 114.698 18.8211 115.563 18.0676 116.455C17.5235 117.099 17.022 117.778 16.5664 118.488C16.3483 118.828 16.1351 119.196 15.9329 119.58C15.7309 119.973 15.5499 120.375 15.3905 120.787C15.3727 120.828 15.3686 120.874 15.3787 120.918C15.3887 120.962 15.4125 121.001 15.4466 121.031L15.4936 121.059C15.5209 121.07 15.5503 121.076 15.5797 121.074C15.5868 121.091 15.5982 121.105 15.6127 121.115C15.6302 121.13 15.6505 121.141 15.6723 121.147C15.6942 121.154 15.7171 121.156 15.7398 121.153C17.6633 120.977 19.3815 120.031 20.8096 119.129C20.9737 119.029 21.1369 118.918 21.3 118.811C21.4921 118.686 21.6833 118.56 21.8784 118.44L22.3007 118.176C22.5699 118.01 22.8382 117.843 23.1013 117.677C23.5144 117.412 23.9108 117.123 24.2882 116.811C24.6337 116.527 24.9406 116.2 25.2009 115.838C25.2408 115.818 25.2762 115.791 25.3049 115.757C25.3335 115.723 25.3547 115.684 25.3671 115.641Z" fill="#191847"/>
<path d="M34.2438 118.607L34.2328 118.54H34.2378C34.2526 118.484 34.2451 118.426 34.2168 118.376C34.1885 118.326 34.1418 118.289 34.0867 118.274C33.9476 118.229 33.8095 118.182 33.6724 118.126C33.4315 118.02 33.203 117.888 32.9909 117.733C32.7683 117.556 32.5668 117.355 32.3904 117.133C32.1607 116.818 31.9679 116.478 31.816 116.118C31.4397 115.211 31.2536 114.23 31.0734 113.281L31.0564 113.191C31.0795 113.167 31.097 113.139 31.1075 113.107C31.1705 112.952 31.2336 112.798 31.2986 112.646C31.4627 112.266 31.6068 111.963 31.75 111.691C31.7623 111.669 31.7699 111.644 31.7723 111.619C31.7747 111.594 31.7719 111.568 31.764 111.544C31.7888 111.524 31.8088 111.498 31.8226 111.47C31.8365 111.441 31.8438 111.409 31.844 111.377C31.8442 111.349 31.8387 111.321 31.8277 111.294C31.8167 111.268 31.8004 111.244 31.78 111.224C31.5596 111.012 31.3178 110.823 31.0584 110.66C30.7957 110.501 30.5218 110.361 30.2388 110.241L29.9456 110.11C29.7615 110.028 29.5783 109.947 29.3972 109.86C29.1156 109.726 28.8475 109.566 28.5966 109.381C28.5225 109.322 28.4845 109.3 28.4315 109.3C28.4065 109.3 28.3817 109.304 28.3587 109.314C28.3356 109.324 28.3148 109.338 28.2974 109.356C28.2796 109.373 28.2655 109.394 28.2559 109.417C28.2462 109.44 28.2413 109.465 28.2413 109.489H28.2293H28.1823C28.1593 109.489 28.1364 109.493 28.1151 109.501C28.0939 109.51 28.0748 109.524 28.0592 109.54C27.9231 109.699 27.796 109.867 27.6679 110.033C27.1979 110.55 26.7802 111.112 26.4209 111.711C26.3887 111.727 26.3614 111.752 26.342 111.782C26.3226 111.812 26.3119 111.848 26.3109 111.884C26.3109 111.884 26.3109 111.891 26.3109 111.895C26.3013 111.92 26.2977 111.948 26.3005 111.975C26.3033 112.003 26.3123 112.029 26.3269 112.052C26.342 112.293 26.3981 112.53 26.493 112.752C26.509 112.786 26.531 112.818 26.548 112.851C26.574 112.944 26.6031 113.036 26.6341 113.127C26.7062 113.327 26.7902 113.527 26.8743 113.719C26.9744 113.95 27.0744 114.18 27.1845 114.407C27.5751 115.212 28.0598 115.968 28.6286 116.659C28.8288 116.908 29.0289 117.158 29.2431 117.399C29.4297 117.628 29.6302 117.845 29.8435 118.049C30.1467 118.343 30.4913 118.59 30.8663 118.784C31.0961 118.896 31.3418 118.972 31.5948 119.01C31.8651 119.054 32.1387 119.074 32.4125 119.07C32.6976 119.068 32.9824 119.048 33.2651 119.01C33.5423 118.975 33.8175 118.925 34.0927 118.873C34.1183 118.868 34.1425 118.858 34.1637 118.842C34.185 118.827 34.2027 118.808 34.2158 118.785C34.2321 118.759 34.243 118.73 34.2478 118.699C34.2526 118.669 34.2513 118.637 34.2438 118.607Z" fill="#191847"/>
<path d="M44.1714 82.4831C43.7711 78.8605 42.7923 75.2659 41.8857 72.2305C41.5734 71.1848 41.2492 70.1421 40.9219 69.1003C40.7408 68.511 40.5567 67.9207 40.3745 67.3315C40.1383 66.5664 39.9082 65.8006 39.684 65.0342C39.4788 64.3351 39.2837 63.6299 39.0835 62.9258L39.0355 62.759C38.0838 59.426 37.1851 56.4386 35.8151 53.6091C35.0592 52.0193 34.106 50.5308 32.9779 49.1784C32.9622 49.1588 32.942 49.1432 32.919 49.1328C32.8961 49.1224 32.871 49.1175 32.8458 49.1185C32.817 49.1186 32.7884 49.1244 32.7618 49.1355C32.7137 49.0836 32.6617 49.0296 32.6077 48.9797C32.4955 48.8782 32.3761 48.7851 32.2504 48.701C32.0028 48.5362 31.7333 48.4068 31.4498 48.3165C31.1538 48.222 30.8501 48.1535 30.5421 48.1117C30.2529 48.0658 29.9587 48.0378 29.6665 48.0118L29.5664 48.0009C28.6557 47.913 27.695 47.869 26.6272 47.869C26.0327 47.869 25.3852 47.885 24.6427 47.913C23.1345 47.9729 21.6014 48.0957 20.1213 48.2126C18.409 48.3494 16.6386 48.4913 14.8923 48.5392C14.8859 48.4984 14.8652 48.4613 14.8338 48.4344C14.8025 48.4075 14.7625 48.3926 14.7212 48.3924C14.6973 48.3922 14.6736 48.3969 14.6516 48.4062C14.6296 48.4155 14.6097 48.4291 14.5931 48.4463C14.5602 48.4798 14.541 48.5243 14.5391 48.5712C14.5168 48.6243 14.5029 48.6806 14.498 48.738C14.4984 48.7679 14.506 48.7974 14.52 48.8239C14.505 49.0146 14.492 49.2114 14.485 49.4052C14.4841 49.4265 14.4878 49.4477 14.4957 49.4675C14.5036 49.4873 14.5157 49.5052 14.5311 49.52L14.411 51.8132C14.1027 55.8474 14.0177 59.2203 14.0037 61.6913C13.9826 65.6405 14.1568 64.9873 14.504 75.3927C14.5371 76.3725 14.5881 77.9566 14.8313 80.078C15.0452 81.9557 15.3602 83.8204 15.775 85.6643L15.8811 86.2396C16.9717 92.8278 18.4129 99.3535 20.1983 105.789C20.5546 107.071 20.9215 108.336 21.2992 109.584L21.4523 110.084C21.5954 110.551 21.7385 111.02 21.8746 111.488L25.6774 113.132C25.6898 113.133 25.7022 113.133 25.7145 113.132L25.7535 113.125C25.7655 113.126 25.7775 113.126 25.7895 113.125H25.7665C25.8436 113.114 25.9216 113.101 25.9977 113.088C26.029 113.063 26.052 113.029 26.0636 112.99C26.0752 112.952 26.0749 112.911 26.0627 112.872C26.0551 112.846 26.0425 112.821 26.0257 112.799C25.8396 111.078 25.6915 109.291 25.5934 107.44C25.5567 106.761 25.5277 106.09 25.5063 105.428L25.4783 104.757C25.4429 103.896 25.4096 103.036 25.3782 102.177V102.089C25.6524 98.1042 25.8236 94.7732 25.9316 92.3532C25.9316 92.3532 26.2108 86.0798 25.9316 69.8304C25.91 68.1702 25.7459 66.5148 25.4413 64.8824C25.4343 64.8475 25.4293 64.8185 25.4263 64.8025C25.6264 64.8844 25.8436 64.9583 26.0557 65.0292L26.346 65.1291C26.9904 65.3469 27.4818 65.5286 27.9382 65.7164C28.2234 66.2158 31.9412 72.7679 33.3212 76.9618C33.7005 78.1144 33.9947 79.2241 33.9947 79.2241C34.4023 80.7684 34.7151 82.336 34.9314 83.9184C35.3525 87.004 35.3636 90.1316 34.9644 93.2201C34.8137 94.2836 34.5887 95.3352 34.2909 96.3673C33.9971 97.358 33.6449 98.3305 33.2361 99.2798C32.5026 101.004 31.6069 102.687 30.7393 104.313L30.6392 104.5L30.5051 104.753C30.0918 105.533 29.6785 106.313 29.2822 107.101C29.05 107.562 28.8298 108.024 28.6177 108.491C28.4535 108.852 28.2694 109.274 28.1083 109.703C28.2214 109.797 28.3365 109.89 28.4505 109.981C28.9363 110.354 29.4472 110.694 29.9797 110.998C30.1908 111.097 30.406 111.197 30.6222 111.286C30.9224 111.411 31.2146 111.536 31.5158 111.647H31.5479C31.5846 111.65 31.6216 111.644 31.6548 111.628C31.688 111.612 31.7161 111.587 31.736 111.556C31.742 111.547 31.736 111.538 31.743 111.528C31.7789 111.531 31.815 111.523 31.8463 111.506C31.8776 111.488 31.9027 111.461 31.9181 111.428C32.1123 111.169 32.2994 110.908 32.4846 110.642L32.5847 110.501C32.8268 110.163 33.063 109.819 33.2992 109.473C33.7515 108.812 34.1915 108.142 34.6192 107.462C34.7553 107.248 34.8894 107.033 35.0195 106.818C35.0415 106.787 35.0645 106.756 35.0875 106.726C35.1876 106.586 35.2927 106.444 35.3968 106.304C35.4908 106.21 35.5899 106.12 35.683 106.024C36.2474 105.429 36.7729 104.798 37.2562 104.136C37.7385 103.484 38.2189 102.775 38.7213 101.972C39.6563 100.453 40.5053 98.8842 41.2642 97.2712C41.6215 96.5171 41.9787 95.7371 42.353 94.8821C42.6953 94.0981 43.0305 93.329 43.3007 92.5469C44.2985 89.6844 44.5907 86.2955 44.1714 82.4831Z" fill="#754FBA"/>
<path d="M25.7195 113.129L25.7707 113.123H25.7574L25.7195 113.129Z" fill="#3B001C"/>
<path d="M28.1472 21.8006C28.1144 21.8 28.0823 21.8094 28.0551 21.8276C28.0128 21.8531 27.9814 21.8933 27.967 21.9404C27.941 21.9674 27.919 21.9834 27.899 22.0034C27.8717 22.0291 27.8523 22.062 27.8429 22.0982C27.8319 22.1354 27.8319 22.175 27.8429 22.2121L27.8569 22.266H27.8519C27.8654 22.421 27.8637 22.5769 27.8469 22.7315C27.8209 22.8886 27.7797 23.0428 27.7238 23.1919C27.6793 23.2946 27.6288 23.3947 27.5727 23.4916C27.5169 23.5842 27.4557 23.6736 27.3896 23.7592C27.2672 23.9081 27.1312 24.0452 26.9833 24.1687C26.8485 24.271 26.7025 24.3575 26.548 24.4264C26.4079 24.4816 26.2623 24.5214 26.1136 24.5453C26.0396 24.5513 25.9655 24.5553 25.8915 24.5553C25.8174 24.5553 25.7433 24.5553 25.6693 24.5453C25.4839 24.5157 25.3023 24.4658 25.1279 24.3965C24.9151 24.3038 24.7137 24.1871 24.5274 24.0489C24.3262 23.8864 24.1431 23.7029 23.981 23.5015C23.8174 23.2849 23.6791 23.0503 23.5687 22.8024C23.4893 22.6088 23.4284 22.4081 23.3866 22.2031C23.3808 22.1783 23.3697 22.1551 23.3539 22.1351C23.3382 22.1151 23.3183 22.0987 23.2955 22.0873C23.2806 22.0511 23.2554 22.0201 23.2231 21.9981C23.1907 21.976 23.1525 21.964 23.1134 21.9634C22.744 21.9798 22.3758 22.0165 22.0105 22.0733L21.9235 22.0843L21.2039 22.1841L20.7916 22.2411C20.4504 22.286 20.1081 22.33 19.7598 22.3639L19.6928 22.3509C19.6488 22.3514 19.6062 22.366 19.5711 22.3924C19.536 22.4188 19.5102 22.4557 19.4976 22.4978C18.5514 25.5493 17.773 28.6502 17.1659 31.7865C16.5034 35.2553 16.1371 38.4455 16.047 41.5377C15.9673 43.8694 16.0962 46.2035 16.4323 48.5123C16.4398 48.5429 16.4536 48.5716 16.4727 48.5967C16.4918 48.6218 16.5159 48.6427 16.5434 48.6581C16.5813 48.6792 16.6241 48.6902 16.6675 48.6901C16.7059 48.6913 16.7439 48.6828 16.778 48.6653C16.8122 48.6478 16.8413 48.622 16.8627 48.5902C17.9875 48.6631 19.1184 48.73 20.2492 48.7959C22.3628 48.9198 24.5474 49.0486 26.6941 49.2094C27.4306 49.2664 28.1662 49.3243 28.8957 49.3952C29.5122 49.4571 30.1707 49.52 30.8422 49.549C31.0103 49.556 31.1784 49.559 31.3426 49.559C31.8228 49.56 32.3026 49.5286 32.7786 49.4651C33.0783 49.4233 33.3744 49.3588 33.6643 49.2724C33.9613 49.1812 34.2494 49.0631 34.525 48.9198C34.5657 48.8341 34.6371 48.7668 34.7251 48.731C34.7719 48.6814 34.7986 48.6163 34.8002 48.5482C34.8522 48.1737 34.8842 47.7951 34.9163 47.4176C34.9543 46.9901 34.9823 46.5736 35.0063 46.1571C35.0514 45.3861 35.0814 44.569 35.0954 43.7281C35.1224 42.106 35.0844 40.453 34.9803 38.816C34.7835 35.5444 34.2966 32.2966 33.5252 29.1108C33.031 27.1218 32.4048 25.1679 31.6508 23.2618C31.6516 23.2319 31.6463 23.2022 31.6353 23.1744C31.6243 23.1466 31.6078 23.1213 31.5867 23.1L31.5517 23.0311H31.5577C31.5414 22.9809 31.5082 22.9378 31.4637 22.9093C31.4333 22.8912 31.3989 22.8812 31.3636 22.8803L31.3075 22.8893C30.8705 22.6601 30.4215 22.4544 29.9625 22.273C29.393 22.0582 28.8033 21.9013 28.2022 21.8046L28.1472 21.7976V21.8006ZM16.8667 48.1867C16.8667 48.1867 16.8667 48.1777 16.8667 48.1747V48.1637C17.329 48.2146 17.7954 48.2506 18.2617 48.2835L16.8607 48.1837L16.8667 48.1867Z" fill="white"/>
<path d="M48.5366 39.0787C48.3875 38.4335 48.1973 37.7523 47.9541 36.9962C47.738 36.312 47.4948 35.6398 47.2326 34.9986C46.7305 33.7485 46.1117 32.5483 45.3842 31.414C44.0772 29.3734 42.3676 27.6198 40.3594 26.2602C39.9231 25.9606 39.4487 25.6609 38.8653 25.3333C38.3969 25.0627 37.8645 24.78 37.2871 24.4933C36.1462 23.9118 34.963 23.417 33.7474 23.0131C32.4465 22.5837 31.2786 22.3559 30.1878 22.314H30.1808C30.1412 22.3131 30.1023 22.324 30.069 22.3452C30.0356 22.3664 30.0093 22.397 29.9933 22.4331C29.9774 22.4692 29.9725 22.5093 29.9793 22.5481C29.9861 22.587 30.0043 22.623 30.0316 22.6516C30.8242 24.5633 31.4897 26.6737 32.0652 29.1038C32.5465 31.1553 32.9408 33.3506 33.3031 36.0114C33.6083 38.3086 33.8665 40.7676 34.0957 43.5393L33.9896 43.4394L33.9326 43.4044C33.9028 43.3849 33.8681 43.3742 33.8325 43.3735C33.8002 43.3746 33.7684 43.3825 33.7393 43.3966C33.7101 43.4107 33.6843 43.4307 33.6634 43.4554C33.6418 43.4556 33.6205 43.4604 33.6008 43.4693C33.5812 43.4783 33.5636 43.4912 33.5493 43.5073C33.4792 43.5892 33.4122 43.6761 33.3491 43.762C33.2637 43.894 33.1891 44.0326 33.126 44.1765C33.1132 44.1996 33.1051 44.225 33.1021 44.2512C33.0992 44.2774 33.1015 44.304 33.109 44.3293L33.0589 44.4422C32.9588 44.6619 32.8488 44.8757 32.7327 45.0874C32.5132 45.4792 32.2643 45.8538 31.9881 46.2081C31.5859 46.7143 31.1377 47.1824 30.6491 47.6064C30.6307 47.6235 30.6158 47.6442 30.6055 47.6672C30.5952 47.6902 30.5896 47.715 30.5891 47.7402C30.5881 47.7684 30.5929 47.7965 30.6032 47.8228C30.6136 47.8491 30.6292 47.873 30.6491 47.893C30.6691 47.9126 30.6935 47.9273 30.7202 47.936L30.7452 48.0189C31.1505 48.5183 31.6158 49.0446 32.2553 49.7248C32.4905 49.9715 32.7287 50.2152 32.9709 50.4599L33.0429 50.5288C33.2531 50.7406 33.4632 50.9503 33.6814 51.1531C34.0037 51.4469 34.3461 51.7179 34.7062 51.9641L34.7232 52.3246L34.9093 55.3919L35.0094 57.1158C35.0654 58.0301 35.1238 58.9446 35.1845 59.8595L35.2336 60.5487L35.2836 61.2868L35.3316 61.939L35.3426 62.0868C35.3519 62.2772 35.3713 62.4669 35.4007 62.6551C35.4114 62.6966 35.4322 62.7347 35.4613 62.7662C35.4904 62.7976 35.5268 62.8215 35.5673 62.8355C35.6078 62.8495 35.6511 62.8534 35.6935 62.8466C35.7358 62.8399 35.7758 62.8228 35.81 62.797C36.0592 62.8169 36.3194 62.8329 36.5786 62.8459C37.188 62.8799 37.8796 62.9198 38.5441 63.0077C39.0086 63.0683 39.4661 63.174 39.9101 63.3233H39.9211C40.0512 63.3233 40.1212 63.2804 40.1553 63.2035C40.1746 63.1848 40.19 63.1625 40.2005 63.1378C40.211 63.113 40.2163 63.0865 40.2163 63.0596C40.1293 62.3775 40.0432 61.6953 39.9541 61.0121L39.9431 60.9302C39.829 60.0513 39.7159 59.1724 39.6119 58.2924C39.4067 56.5945 39.2506 55.1073 39.1365 53.7479C39.5249 53.8315 39.9195 53.8833 40.3164 53.9027C40.4785 53.9117 40.6416 53.9157 40.8058 53.9157C41.8505 53.9208 42.8861 53.7202 43.8531 53.3254C44.4045 53.0974 44.9221 52.7949 45.3912 52.4265C45.9214 51.9952 46.3979 51.5019 46.8103 50.9573C47.6569 49.8719 48.2843 48.6328 48.6577 47.3087C49.0099 46.1002 49.1681 44.7398 49.129 43.2656C49.0774 41.8533 48.8788 40.4501 48.5366 39.0787ZM34.6661 44.3363C34.6561 44.3363 34.6461 44.3363 34.6361 44.3363V44.3133C34.6465 44.3205 34.6565 44.3281 34.6661 44.3363ZM33.8075 43.8229C33.8075 43.8319 33.7955 43.8389 33.7945 43.8479L33.7775 43.8619L33.7835 43.8519L33.8075 43.8229ZM39.762 43.9418C39.7071 44.0593 39.64 44.1708 39.5618 44.2744C39.4294 44.4339 39.2797 44.5782 39.1155 44.7049C38.9732 44.8098 38.8202 44.8995 38.6591 44.9725C38.541 45.0175 38.42 45.0545 38.2969 45.0834C38.2118 44.2584 38.0827 43.4264 37.9786 42.7582L37.8625 42.0591C37.7364 41.297 37.6114 40.5339 37.5073 39.7678C37.4072 39.0487 37.3452 38.3825 37.3071 37.7283C37.4072 37.9181 37.5243 38.1049 37.6404 38.2926C37.7565 38.4804 37.8655 38.6582 37.9766 38.842C38.4266 39.5793 38.8248 40.3469 39.1685 41.1392C39.4448 41.7641 39.6389 42.4221 39.746 43.0968C39.7879 43.3783 39.7932 43.664 39.762 43.9468V43.9418Z" fill="#4B208F"/>
<path d="M20.9058 22.1801L20.8498 22.1741C20.8346 22.1492 20.8132 22.1285 20.7877 22.1142C20.759 22.0972 20.726 22.0886 20.6926 22.0892L20.6396 22.0942C20.2482 22.1548 19.8625 22.248 19.4867 22.3729C19.0914 22.5017 18.6991 22.6575 18.3199 22.8094C17.9196 22.9712 17.5543 23.109 17.193 23.2388C16.8568 23.3597 16.5235 23.4875 16.1923 23.6174C14.9404 24.1164 13.7228 24.6973 12.5475 25.3563C10.21 26.6594 8.07591 28.2964 6.21274 30.2154C4.33969 32.147 2.79069 34.3671 1.62528 36.7904C1.34907 37.3627 1.08687 37.975 0.824677 38.6592C0.609284 39.2156 0.434039 39.7867 0.300282 40.3681C0.0478347 41.5095 -0.0467819 42.6799 0.0190701 43.8469C0.139645 46.1872 0.886425 48.4524 2.1817 50.407C2.82307 51.3716 3.60568 52.2348 4.50345 52.9679C5.41474 53.7088 6.44413 54.2918 7.54874 54.6928C7.68685 54.7447 7.82795 54.7926 7.96806 54.8376H7.98908C8.03178 54.8433 8.07513 54.8339 8.11167 54.8111C8.1482 54.7883 8.17563 54.7535 8.18923 54.7127C8.21579 54.6707 8.24451 54.63 8.27529 54.5909C8.84772 53.5452 9.57627 52.4575 10.577 51.17C10.8392 50.8304 11.1354 50.4589 11.4337 50.0873C11.4679 50.0514 11.4875 50.0041 11.4887 49.9545C11.4889 49.9297 11.4841 49.9051 11.4746 49.8821C11.4652 49.8591 11.4513 49.8382 11.4337 49.8207C11.4135 49.8005 11.3888 49.7855 11.3616 49.7767C11.3649 49.7463 11.361 49.7155 11.3505 49.6867C11.3399 49.658 11.3228 49.632 11.3006 49.6109C11.1579 49.4976 11.0216 49.3766 10.8923 49.2484C10.7449 49.1011 10.6078 48.9439 10.482 48.7779C10.2426 48.4524 10.0262 48.1107 9.83447 47.7552C9.66934 47.4555 9.49621 47.1349 9.3521 46.8003C9.11471 46.2026 8.95366 45.5774 8.87274 44.9396C8.76521 44.0455 8.77126 43.1414 8.89075 42.2488L8.87875 42.3028C9.00316 41.4275 9.23473 40.5708 9.56826 39.7519C9.81731 39.1665 10.1376 38.614 10.522 38.1068C10.8138 37.7308 11.1498 37.3911 11.5227 37.0951C11.8475 36.851 12.1994 36.6452 12.5715 36.4818C11.895 39.63 11.884 42.933 11.932 46.0442C11.9401 46.5443 11.9494 47.0454 11.9601 47.5474L11.9791 48.5572C11.9941 49.3343 12.0061 50.1702 11.9951 51.0102C11.9831 51.9091 11.9531 52.8081 11.923 53.707C11.897 54.485 11.87 55.2631 11.856 56.0411C11.8215 57.3888 11.8576 58.7373 11.9641 60.0812C12.0211 60.7375 12.1072 61.3877 12.2203 62.0149C12.2763 62.3415 12.3454 62.6631 12.4204 62.9837C12.4594 63.1435 12.5005 63.3033 12.5435 63.4612C12.5525 63.5118 12.5687 63.5609 12.5915 63.607C12.6056 63.6379 12.6226 63.6669 12.6386 63.6959L12.6736 63.7598C12.692 63.7916 12.7188 63.8178 12.7511 63.8354C12.7834 63.8531 12.82 63.8615 12.8567 63.8597C12.894 63.86 12.9306 63.8504 12.9628 63.8317C12.9854 63.8179 13.0056 63.8008 13.0229 63.7808C13.0442 63.7922 13.0678 63.7987 13.0919 63.7997C13.223 63.8107 13.3541 63.8167 13.4862 63.8167C13.7428 63.8159 13.999 63.7965 14.2528 63.7588C14.6659 63.6959 15.0747 63.6072 15.4767 63.4931C15.7509 63.4182 16.0241 63.3353 16.2963 63.2534C16.8487 63.0759 17.4103 62.9282 17.9786 62.8109C18.0652 62.8128 18.1493 62.7818 18.2138 62.724C18.2338 62.7036 18.2494 62.6791 18.2594 62.6523C18.2694 62.6254 18.2736 62.5968 18.2718 62.5682C18.2518 62.1967 18.2208 61.8261 18.1908 61.4566L18.1768 61.2868C18.1407 60.8167 18.1017 60.3459 18.0597 59.8745C18.0006 59.1853 17.9376 58.4952 17.8745 57.807L17.8155 57.1628C17.6484 55.327 17.4872 53.5322 17.3591 51.7523C17.0589 47.4865 17.0299 44.0397 17.2741 40.9045C17.3321 40.1584 17.4142 39.4113 17.4952 38.7141C17.5763 38.017 17.6644 37.3358 17.7574 36.6496C18.1167 33.9978 18.527 31.6277 19.0064 29.4373C19.5828 26.7895 20.2463 24.4903 21.0339 22.4069C21.0413 22.3871 21.0444 22.366 21.0428 22.3449C21.0412 22.3239 21.0351 22.3034 21.0249 22.285C21.0133 22.2603 20.9967 22.2383 20.9762 22.2203C20.9557 22.2022 20.9318 22.1886 20.9058 22.1801Z" fill="#4B208F"/>
<path d="M20.6837 22.0273C20.4343 22.1146 20.1923 22.2218 19.9602 22.3479C19.7073 22.4877 19.4645 22.6449 19.2336 22.8184C18.7487 23.183 18.2921 23.5837 17.8676 24.0169C17.4413 24.4424 17.03 24.8939 16.6297 25.3303L16.5736 25.3933L16.4846 25.4931C16.1363 25.8757 15.777 26.2712 15.4027 26.6388C15.3524 26.6701 15.3088 26.7112 15.2746 26.7596C15.2614 26.7826 15.2531 26.808 15.2502 26.8343C15.2473 26.8605 15.2498 26.8872 15.2576 26.9124C15.2638 26.9357 15.2747 26.9575 15.2894 26.9765C15.3042 26.9956 15.3227 27.0115 15.3437 27.0233C15.4455 27.0772 15.5438 27.1376 15.6379 27.2041C15.8227 27.3515 15.9905 27.519 16.1383 27.7035C16.3382 27.9768 16.523 28.2609 16.6917 28.5544L16.8108 28.7592C16.9339 28.9739 17.058 29.1857 17.1941 29.3904C16.8314 29.7421 16.4513 30.0755 16.0552 30.3892L15.82 30.563C15.7775 30.5903 15.746 30.6317 15.731 30.6799C15.7175 30.7308 15.7247 30.785 15.751 30.8307C15.5689 32.4817 15.4508 34.1836 15.4047 35.9165C15.3677 37.5146 15.4047 39.2215 15.5258 40.9794C15.6339 42.5825 15.803 44.2195 16.0412 45.9843C16.1513 46.8123 16.2654 47.6653 16.4235 48.4973C16.5679 49.2857 16.7911 50.0576 17.09 50.8015L17.106 50.8704C17.1147 50.905 17.1332 50.9362 17.1593 50.9605C17.1854 50.9848 17.218 51.001 17.2531 51.0073V50.9164C17.2481 50.436 17.2761 49.9565 17.3182 49.4781C17.2932 49.0626 17.2872 48.6581 17.2832 48.2915V47.892C17.2832 47.6923 17.2832 47.4855 17.2761 47.2848C17.2671 46.9262 17.2611 46.5656 17.2591 46.2071C17.2591 44.8737 17.3222 43.4204 17.4593 41.7635C17.5934 40.1884 17.7815 38.6422 17.9487 37.3348C18.0394 36.6177 18.1331 35.8999 18.2299 35.1814L18.373 34.0827L18.5241 32.9192L18.5161 32.9451L18.5071 32.9731C18.7863 31.0304 19.2236 29.0668 19.6079 27.3799C19.6529 27.1801 19.699 26.9803 19.751 26.7806C19.8091 26.5648 19.8781 26.3471 19.9512 26.1304C20.0632 25.7868 20.1893 25.4482 20.3144 25.1086L20.4205 24.8259C20.5936 24.3595 20.7207 23.973 20.8318 23.6094C20.9552 23.1924 21.0413 22.7652 21.089 22.333C21.0894 22.283 21.07 22.2349 21.035 22.1991C20.9989 22.1644 20.951 22.1444 20.9009 22.1432C20.8859 22.1103 20.8623 22.082 20.8325 22.0614C20.8027 22.0408 20.7679 22.0287 20.7318 22.0263L20.6827 22.0323L20.6837 22.0273Z" fill="#83E2ED"/>
<path d="M30.1747 22.325C30.1529 22.3132 30.1284 22.3073 30.1037 22.308C30.0715 22.3101 30.0402 22.3196 30.0122 22.3357C29.9843 22.3518 29.9604 22.3741 29.9425 22.4009C29.9198 22.4456 29.913 22.4967 29.9235 22.5457C30.0947 23.5715 30.4859 24.5503 30.8632 25.4982C30.9633 25.7509 31.0634 26.0065 31.1635 26.2612C31.6638 27.5706 31.9641 28.951 32.1962 30.1296C32.3043 30.6869 32.3964 31.2492 32.4965 31.8105L32.5445 32.0802C32.6336 32.5966 32.7266 33.1149 32.8197 33.6333L32.9128 34.1547C33.174 35.6339 33.3911 37.0012 33.5703 38.3316C33.6914 39.2245 33.7974 40.1185 33.8885 41.0084C33.9365 41.4798 33.9796 41.9502 34.0206 42.4217C34.0406 42.6284 34.0536 42.8382 34.0616 43.0479C34.0672 43.2331 34.0832 43.4178 34.1097 43.6012C34.1225 43.6099 34.1348 43.6193 34.1467 43.6292C34.1913 43.6369 34.2339 43.6535 34.2718 43.6781C34.5428 43.8798 34.8288 44.0604 35.1274 44.2185C35.1838 44.0011 35.2256 43.7802 35.2525 43.5573C35.2736 43.3715 35.2916 43.1857 35.3086 43L35.3406 42.6744C35.3946 42.11 35.4497 41.5467 35.5007 40.9764C35.6268 39.628 35.7109 38.5244 35.7669 37.5006C35.91 34.8039 35.834 32.6315 35.5267 30.6659C35.5208 30.6429 35.5103 30.6213 35.4958 30.6025C35.4814 30.5836 35.4633 30.5678 35.4427 30.556C35.4212 30.5446 35.3978 30.5371 35.3736 30.5341C34.8953 30.0896 34.4489 29.5942 34.0726 29.1667C34.3559 28.892 34.6391 28.6094 34.9213 28.3247C35.2976 27.9462 35.5788 27.6466 35.834 27.3549C35.8686 27.3179 35.8878 27.2692 35.8878 27.2186C35.8878 27.168 35.8686 27.1192 35.834 27.0822C35.8064 27.0559 35.7715 27.0385 35.7339 27.0323C35.7258 27.0056 35.7114 26.9813 35.6919 26.9614C35.4477 26.6917 35.2055 26.417 34.9633 26.1424C34.4369 25.5511 33.8955 24.9348 33.3201 24.3695C32.9211 23.9777 32.4983 23.6108 32.0541 23.2709C31.5439 22.8891 30.9995 22.5551 30.4279 22.2731C30.397 22.2571 30.3626 22.2489 30.3278 22.2491C30.2979 22.2488 30.2684 22.2558 30.2417 22.2694C30.2151 22.2829 30.1921 22.3027 30.1747 22.327V22.325Z" fill="#83E2ED"/>
<path d="M11.1554 49.7677C10.4515 50.4917 9.8119 51.2754 9.24395 52.1099C8.67222 52.935 8.18698 53.8166 7.79586 54.7407C7.78944 54.765 7.7879 54.7903 7.79133 54.8151C7.79477 54.84 7.80311 54.8639 7.81588 54.8856C7.82779 54.9067 7.84386 54.9252 7.86313 54.9399C7.88239 54.9547 7.90444 54.9654 7.92796 54.9715C7.9522 54.9781 7.97751 54.9798 8.00243 54.9765C8.02734 54.9733 8.05136 54.9651 8.07307 54.9525C8.11384 54.9256 8.14448 54.8858 8.16014 54.8396C8.17014 54.8116 8.18315 54.7817 8.19616 54.7537C8.19616 54.7537 8.19116 54.7647 8.18916 54.7707C8.66775 53.7059 9.27577 52.7039 9.99952 51.7873L9.99052 51.7963C10.4559 51.197 10.9542 50.6347 11.4626 50.0744C11.5027 50.0333 11.5251 49.9783 11.5251 49.9211C11.5251 49.8638 11.5027 49.8088 11.4626 49.7677C11.4216 49.7275 11.3665 49.705 11.309 49.705C11.2515 49.705 11.1964 49.7275 11.1554 49.7677ZM9.99952 51.7873L10.0255 51.7533L9.99952 51.7873Z" fill="#89C5CC"/>
<path d="M10.3638 49.559C9.71927 50.2802 9.07879 51.0063 8.49035 51.7753C8.19764 52.1554 7.92506 52.5504 7.67373 52.9589C7.42188 53.3721 7.20336 53.8046 7.02024 54.2523C7.01353 54.2758 7.01158 54.3003 7.0145 54.3245C7.01742 54.3487 7.02516 54.372 7.03725 54.3932C7.06196 54.4328 7.10044 54.462 7.14533 54.4751C7.19278 54.4882 7.24347 54.4821 7.28644 54.4581C7.32521 54.4324 7.35413 54.3944 7.3685 54.3502C7.37551 54.3312 7.38452 54.3113 7.39152 54.2923C7.39194 54.297 7.39194 54.3016 7.39152 54.3063C7.76214 53.4687 8.23762 52.6814 8.80659 51.9631C8.79558 51.9741 8.78657 51.9871 8.77556 51.9991C9.36 51.248 10.0005 50.5438 10.631 49.8307C10.6653 49.7938 10.6844 49.7452 10.6844 49.6949C10.6844 49.6445 10.6653 49.596 10.631 49.559C10.6127 49.5409 10.591 49.5266 10.5671 49.517C10.5432 49.5074 10.5176 49.5027 10.4919 49.5031C10.4671 49.5024 10.4425 49.507 10.4197 49.5167C10.3969 49.5263 10.3764 49.5408 10.3598 49.559H10.3638Z" fill="#89C5CC"/>
<path d="M33.4631 43.76C33.4051 43.9248 33.345 44.0866 33.279 44.2464C33.0225 44.8266 32.6966 45.3736 32.3083 45.8754C31.8991 46.4012 31.4288 46.8767 30.9072 47.2917C30.9202 47.2837 30.9332 47.2728 30.9462 47.2638C30.8061 47.3696 30.665 47.4715 30.5199 47.5684C30.4796 47.5947 30.4509 47.6353 30.4397 47.6821C30.4285 47.7288 30.4357 47.7781 30.4599 47.8197C30.484 47.8613 30.5231 47.8921 30.5693 47.9057C30.6155 47.9193 30.6651 47.9148 30.708 47.893C31.4333 47.4045 32.0796 46.8084 32.6245 46.1251C33.1639 45.4579 33.6162 44.6979 33.8474 43.8679C33.8547 43.8424 33.8568 43.8157 33.8536 43.7893C33.8504 43.763 33.842 43.7376 33.8289 43.7145C33.8158 43.6914 33.7982 43.6712 33.7771 43.655C33.7561 43.6388 33.732 43.627 33.7063 43.6202C33.6891 43.6151 33.6712 43.6125 33.6533 43.6122C33.6096 43.6135 33.5675 43.6285 33.5328 43.655C33.4981 43.6815 33.4727 43.7183 33.4601 43.76H33.4631ZM33.299 44.2035C33.293 44.2165 33.286 44.2304 33.281 44.2444C33.2859 44.2303 33.2919 44.2166 33.299 44.2035Z" fill="#89C5CC"/>
<path d="M33.9657 44.2814C33.7556 44.6889 33.5434 45.0954 33.3112 45.4929C33.0698 45.912 32.8024 46.3156 32.5106 46.7015C32.3325 46.9292 32.1464 47.1509 31.9462 47.3617C31.7144 47.6078 31.4656 47.8374 31.2017 48.0488C31.1842 48.0663 31.1703 48.087 31.1608 48.1098C31.1514 48.1326 31.1465 48.157 31.1465 48.1817C31.1465 48.2064 31.1514 48.2308 31.1608 48.2536C31.1703 48.2764 31.1842 48.2971 31.2017 48.3145C31.2191 48.3323 31.24 48.3465 31.263 48.3561C31.286 48.3657 31.3108 48.3706 31.3358 48.3705C31.3857 48.3683 31.4332 48.3485 31.4699 48.3145C31.7801 48.0643 32.0724 47.7926 32.3445 47.5015C32.6036 47.2208 32.8449 46.9242 33.0671 46.6136C33.5482 45.944 33.9682 45.2326 34.322 44.4882C34.3419 44.4573 34.3528 44.4217 34.3538 44.3851C34.3547 44.3485 34.3455 44.3123 34.3272 44.2806C34.3089 44.2488 34.2822 44.2227 34.2501 44.205C34.2179 44.1874 34.1815 44.1789 34.1449 44.1805C34.1091 44.1798 34.0738 44.1888 34.0426 44.2063C34.0115 44.2239 33.9856 44.2495 33.9677 44.2804L33.9657 44.2814ZM32.5347 46.6685L32.5216 46.6845C32.5216 46.6785 32.5307 46.6735 32.5347 46.6685Z" fill="#89C5CC"/>
<path d="M16.3423 53.7699C16.2756 54.0143 16.1955 54.2557 16.1021 54.494C16.1091 54.4741 16.1171 54.4551 16.1241 54.4351C15.9061 55.0053 15.6184 55.5464 15.2675 56.0462C15.0542 56.3361 14.8095 56.6017 14.5379 56.8382L14.5129 56.8602L14.5329 56.8422C14.3208 57.0151 14.0886 57.162 13.8414 57.2797C13.8189 57.2924 13.7993 57.3098 13.784 57.3306C13.7686 57.3514 13.7578 57.3753 13.7523 57.4005C13.7463 57.4264 13.7454 57.4533 13.7499 57.4796C13.7544 57.5058 13.764 57.5309 13.7784 57.5533C13.8062 57.597 13.8494 57.6287 13.8995 57.6422C13.9523 57.6526 14.0071 57.6433 14.0536 57.6163C14.7591 57.2857 15.3325 56.7263 15.7809 56.0981C16.2576 55.4288 16.6073 54.678 16.8126 53.8828C16.8277 53.8205 16.8174 53.7549 16.784 53.7002C16.7506 53.6455 16.6969 53.6063 16.6345 53.5911C16.6165 53.5868 16.598 53.5845 16.5795 53.5841C16.5251 53.5853 16.4726 53.6041 16.4299 53.6376C16.3871 53.6711 16.3564 53.7175 16.3423 53.7699Z" fill="#89C5CC"/>
<path d="M33.9196 43.4704C33.888 43.5048 33.8712 43.5502 33.8727 43.5969C33.8741 43.6435 33.8939 43.6878 33.9276 43.7201C34.2464 44.0161 34.5906 44.2834 34.9564 44.5191C35.3752 44.7885 35.8221 45.0116 36.2894 45.1843C36.7208 45.3446 37.1738 45.4392 37.6334 45.465C38.0984 45.4904 38.5626 45.403 38.9864 45.2103C39.0335 45.1934 39.0732 45.1605 39.0985 45.1174C39.1103 45.095 39.1175 45.0705 39.1197 45.0453C39.1219 45.0201 39.1191 44.9947 39.1115 44.9706C39.1043 44.9464 39.0923 44.9238 39.0763 44.9042C39.0603 44.8846 39.0406 44.8684 39.0182 44.8565C38.9959 44.8446 38.9714 44.8373 38.9462 44.8349C38.9209 44.8326 38.8955 44.8352 38.8713 44.8427C38.7763 44.8857 38.6792 44.9246 38.5811 44.9576C38.4676 44.9941 38.3515 45.0222 38.2338 45.0415C37.9501 45.0788 37.663 45.0832 37.3782 45.0545C37.3962 45.0535 37.4142 45.0535 37.4322 45.0545C37.0298 45.0042 36.6347 44.9063 36.2554 44.7628L36.2654 44.7678L36.2504 44.7608L36.2203 44.7499L36.2353 44.7548C35.7348 44.5542 35.2589 44.2969 34.8173 43.9878C34.5919 43.8246 34.3766 43.6478 34.1728 43.4584C34.1556 43.4424 34.1354 43.43 34.1133 43.4217C34.0913 43.4135 34.0678 43.4097 34.0443 43.4106C34.0208 43.4114 33.9977 43.4169 33.9763 43.4266C33.9549 43.4364 33.9356 43.4502 33.9196 43.4674V43.4704ZM38.2529 45.0385H38.2358H38.2529ZM38.2328 45.0385L38.2008 45.0445L38.2288 45.0455L38.2328 45.0385ZM36.2504 44.7618L36.2303 44.7538L36.2453 44.7598L36.2504 44.7618Z" fill="#89C5CC"/>
<path d="M34.8203 51.8372C34.7778 51.851 34.7421 51.8802 34.7203 51.9192C34.6991 51.9605 34.6945 52.0083 34.7073 52.053C34.7231 52.0951 34.7532 52.1304 34.7923 52.1529C35.0694 52.3531 35.3585 52.5363 35.658 52.7012C35.9497 52.8608 36.2505 53.0036 36.5587 53.1287C37.1971 53.3861 37.8563 53.5889 38.5291 53.7349C38.5772 53.7465 38.6278 53.7385 38.67 53.7127C38.7121 53.687 38.7423 53.6456 38.7538 53.5976C38.7653 53.5497 38.7573 53.4991 38.7315 53.4571C38.7057 53.415 38.6642 53.3849 38.6162 53.3734C37.9875 53.2457 37.3698 53.0691 36.7688 52.845C36.4719 52.7265 36.182 52.5933 35.8992 52.4455C35.5706 52.2689 35.2541 52.0711 34.9514 51.8532C34.9283 51.838 34.9011 51.8303 34.8734 51.8313C34.8544 51.8315 34.8355 51.8345 34.8173 51.8402L34.8203 51.8372ZM36.7928 52.849L36.8068 52.855L36.7928 52.849Z" fill="#89C5CC"/>
<path d="M25.3911 27.8293C25.3624 27.8297 25.3342 27.8362 25.3083 27.8485C25.2824 27.8607 25.2594 27.8784 25.241 27.9002C25.2057 27.9065 25.1731 27.9227 25.1468 27.947C25.1206 27.9712 25.1018 28.0025 25.0928 28.037C24.8306 29.0498 24.5604 30.0606 24.2922 31.0704C24.0921 31.8015 23.9009 32.5326 23.7088 33.2677C23.4793 34.1387 23.2548 35.0109 23.0353 35.8845C22.8061 36.8134 22.602 37.6534 22.4208 38.5243C22.4138 38.5556 22.4136 38.588 22.4202 38.6193C22.4267 38.6507 22.4399 38.6803 22.4589 38.7061C22.4373 38.7235 22.4219 38.7473 22.4148 38.774C22.4018 38.8216 22.4081 38.8723 22.4323 38.9153C22.4564 38.9583 22.4965 38.99 22.5439 39.0038C22.9442 39.1246 23.3375 39.2505 23.7338 39.3773C24.1301 39.5042 24.5264 39.63 24.9247 39.7509C25.323 39.8717 25.7193 39.9786 26.1196 40.0815C26.611 40.2083 26.9893 40.2902 27.3475 40.3481C27.3665 40.3496 27.3856 40.3496 27.4046 40.3481C27.4399 40.3486 27.4747 40.3389 27.5047 40.3202C27.5508 40.2932 27.5848 40.2496 27.5997 40.1983C27.6104 40.1557 27.6075 40.1108 27.5916 40.0698C27.5756 40.0289 27.5474 39.9939 27.5107 39.9696C27.8699 38.5343 28.3453 37.0981 28.8046 35.7098C29.4872 33.6492 30.1927 31.5148 30.5219 29.3275C30.532 29.2912 30.532 29.2529 30.5219 29.2166C30.5342 29.187 30.54 29.155 30.5388 29.123C30.5376 29.0909 30.5294 29.0595 30.5149 29.0308C30.4867 28.9839 30.4428 28.9485 30.3908 28.931C30.0247 28.7914 29.65 28.6753 29.269 28.5834C28.8377 28.4725 28.4013 28.3836 27.994 28.3067C27.6388 28.2368 27.2825 28.1719 26.9262 28.107C26.4319 28.0171 25.9385 27.9272 25.4461 27.8243L25.4001 27.8193L25.3911 27.8293Z" fill="#3B001C"/>
<path d="M29.6102 33.036L29.5964 33.056C29.6007 33.0486 29.606 33.0419 29.6123 33.036H29.6102Z" fill="#D4A181"/>
<path d="M33.4053 43.6472C32.7878 42.978 32.2194 42.3108 31.715 41.6606C30.7833 40.444 30.0998 39.3124 29.6134 38.1978C29.5576 38.0106 29.5151 37.8197 29.4863 37.6265C29.4713 37.4936 29.4623 37.3628 29.4603 37.2269C29.4603 37.0736 29.4703 36.9205 29.4903 36.7685C29.5904 36.0993 29.8276 35.4641 29.9517 34.8009C30.02 34.4611 30.0455 34.1142 30.0277 33.7681C30.0277 33.7561 30.0277 33.7442 30.0277 33.7322C30.0608 33.5963 30.0918 33.4605 30.1098 33.3327L30.0538 33.2458C30.0257 33.2273 29.9966 33.2103 29.9667 33.1948C29.9434 33.1861 29.9197 33.1788 29.8956 33.1729C29.8696 33.1639 29.8436 33.1579 29.8176 33.1509H29.6404C29.5794 33.1639 29.5234 33.1788 29.4673 33.1948C29.4543 33.1998 29.4403 33.1948 29.4263 33.2048C29.2541 33.2926 29.0994 33.411 28.9699 33.5544C28.6697 33.854 28.4075 34.1786 28.1273 34.4903C27.5969 33.836 27.0735 33.1758 26.5051 32.5526C26.1879 32.2032 25.8508 31.8723 25.4953 31.5618C25.1663 31.2704 24.805 31.0174 24.4185 30.8077C24.3874 30.7923 24.3531 30.7844 24.3184 30.7847C24.3026 30.7849 24.2868 30.7869 24.2714 30.7907C24.2367 30.8003 24.2061 30.821 24.1843 30.8497C24.1564 30.8253 24.1213 30.8106 24.0843 30.8077C24.0597 30.8071 24.0353 30.8115 24.0125 30.8208C23.9898 30.8301 23.9692 30.844 23.9522 30.8616C23.8562 30.9666 23.7673 31.0777 23.686 31.1942C23.5999 31.3212 23.5281 31.4572 23.4718 31.5998C23.369 31.8697 23.3161 32.156 23.3157 32.4447C23.3185 32.7487 23.3616 33.0509 23.4438 33.3436C23.5376 33.6832 23.6622 34.0135 23.8161 34.3304C24.1349 34.9917 24.5092 35.6248 24.9349 36.2232C25.069 36.4229 25.2071 36.6227 25.3482 36.8154C25.5644 37.1221 25.7835 37.4307 25.9867 37.7483C25.9957 37.8482 26.0057 37.9481 26.0167 38.048C26.0852 38.1008 26.1342 38.175 26.1558 38.2587C26.4284 39.4446 26.8021 40.6051 27.2727 41.7275C27.2727 41.7275 27.2727 41.7275 27.2727 41.7185C27.8184 43.0019 28.4507 44.2469 29.1651 45.445C29.5183 46.0393 29.8836 46.6226 30.2659 47.1999L30.396 47.3996C30.437 47.4436 30.4791 47.4875 30.5211 47.5295C30.5501 47.5596 30.588 47.5795 30.6292 47.5864C30.6572 47.5992 30.6875 47.6064 30.7183 47.6074C30.7674 47.6043 30.814 47.5846 30.8504 47.5514C31.1368 47.3271 31.4046 47.0799 31.651 46.8123C31.9039 46.5303 32.1354 46.2299 32.3435 45.9134C32.5442 45.61 32.7276 45.2956 32.8929 44.9716C33.0687 44.6383 33.2273 44.2962 33.3682 43.9468C33.3921 43.9308 33.4122 43.91 33.4272 43.8856C33.4422 43.8612 33.4518 43.8338 33.4553 43.8054C33.4588 43.777 33.4562 43.7482 33.4475 43.7209C33.4389 43.6936 33.4245 43.6684 33.4053 43.6472Z" fill="#D4A181"/>
<path d="M11.0873 50.331L11.0363 50.337C11.0012 50.3476 10.9696 50.3677 10.9452 50.395C10.9145 50.3721 10.8774 50.3596 10.8391 50.359C10.8046 50.3623 10.7713 50.3729 10.7412 50.3902C10.7112 50.4074 10.6852 50.4308 10.665 50.4589C10.4778 50.7026 10.2977 50.9523 10.1176 51.202L10.0415 51.3078C9.81667 51.6201 9.59683 51.9361 9.38201 52.2557C9.00192 52.817 8.67526 53.4125 8.40627 54.0345L8.37525 54.0815C8.35301 54.1133 8.34177 54.1516 8.34322 54.1904C8.32503 54.2184 8.31273 54.2499 8.30705 54.2829C8.30138 54.3158 8.30245 54.3496 8.3102 54.3821C8.31599 54.4036 8.3263 54.4237 8.34045 54.4409C8.3546 54.4581 8.37226 54.4721 8.39226 54.482C9.58116 55.0593 10.8211 55.5807 12.019 56.0801L12.6795 56.3567H12.6855L12.7215 56.3717C13.2069 56.5775 13.7223 56.8012 14.2427 57.0269C14.274 57.0417 14.3081 57.0499 14.3427 57.0509C14.3751 57.0484 14.4066 57.0388 14.4348 57.0228C14.463 57.0067 14.4873 56.9846 14.5059 56.958L14.5379 56.9031C14.8851 56.599 15.2046 56.2647 15.4926 55.9043C15.6348 55.7229 15.7658 55.5332 15.8849 55.336C16.0021 55.1355 16.1025 54.9257 16.1851 54.7087C16.1928 54.6825 16.195 54.6549 16.1915 54.6277C16.1881 54.6006 16.1791 54.5744 16.1651 54.5509C16.178 54.5181 16.181 54.4822 16.1735 54.4477C16.166 54.4132 16.1485 54.3817 16.1231 54.3571C15.3745 53.673 14.5729 52.9928 13.6752 52.2767C12.8957 51.6544 12.1111 51.0572 11.1734 50.352C11.1462 50.3339 11.1139 50.3251 11.0813 50.327L11.0873 50.331ZM9.05576 54.3901L8.73252 54.2343C8.83259 54.2812 8.94468 54.3342 9.05576 54.3871V54.3901Z" fill="#D4A181"/>
</g>
<defs>
<clipPath id="clip0">
<rect width="49.135" height="133" fill="white"/>
</clipPath>
</defs>
</svg>
