<svg width="72" height="35" viewBox="0 0 72 35" fill="none" xmlns="http://www.w3.org/2000/svg">
<path opacity="0.8" d="M20.4987 11.8634L34.2648 11.8634C38.8733 11.8634 42.2814 14.7403 45.126 
16.9384L43.7037 12.5422C41.247 7.62873 37.1232 5.94781 32.5147 5.94781L20.4987 5.94781C15.904 
8.14593 11.5078 9.08377 10.8613 14.2231L10.8613 16.2592C10.8613 10.5644 15.8902 11.8634 20.4987
 11.8634Z" fill="#CEE8FF"/>
<path d="M53.1124 15.2213H47.283L41.0313 6.94356C40.5485 6.30449 39.9246 5.78563 39.2082 
5.42744C38.4918 5.06926 37.7024 4.88144 36.9015 4.87865H36.8807L18.7642 4.80481C17.964 4.81088
17.1759 5.00098 16.4609 5.36039C15.7459 5.7198 15.1232 6.23889 14.6409 6.87749L8.42026 
15.2213H5.1817C3.80743 15.2213 2.48944 15.7672 1.51768 16.739C0.545927 17.7108 0 19.0287 
0 20.403V28.1756C0 28.5191 0.136482 28.8486 0.379421 29.0916C0.62236 29.3345 0.951856 29.471
1.29542 29.471H5.31124C5.60988 30.934 6.40481 32.2489 7.56152 33.1931C8.71822 34.1374 10.1656 
34.653 11.6588 34.6527H11.6821C13.1713 34.6476 14.6132 34.1296 15.7652 33.1858C16.9171 32.242 
17.7086 30.9301 18.0064 29.471H40.2877C40.5863 30.934 41.3813 32.2489 42.538 33.1931C43.6947 
34.1374 45.1421 34.653 46.6353 34.6527H46.6586C48.1478 34.6476 49.5897 34.1296 50.7416 
33.1858C51.8935 32.242 52.685 30.9301 52.9829 29.471H56.9987C57.3422 29.471 57.6717 29.3345 
57.9147 29.0916C58.1576 28.8486 58.2941 28.5191 58.2941 28.1756V20.403C58.2941 19.0287 57.7482
17.7108 56.7764 16.739C55.8047 15.7672 54.4867 15.2213 53.1124 15.2213ZM36.8794 
7.4695H36.8898C37.2918 7.4705 37.6882 7.56458 38.0478 7.74438C38.4074 7.92418 38.7205 8.18481
38.9625 8.50584L44.0341 15.2213H28.5304L28.4993 7.43582L36.8794 7.4695ZM16.711 8.42682C16.9509
8.10887 17.2605 7.85014 17.6159 7.67049C17.9714 7.49084 18.3634 7.39505 18.7616 7.39048L25.9085
7.42545L25.9396 15.2213H11.6498L16.711 8.42682ZM11.6731 32.0618H11.6588C10.6281 32.0637 9.63888
31.6561 8.90872 30.9286C8.17857 30.2011 7.76731 29.2134 7.76542 28.1827C7.76353 27.152 8.17117
26.1627 8.89865 25.4326C9.62613 24.7024 10.6139 24.2912 11.6446 24.2893H11.6588C12.6895 24.2874
13.6788 24.695 14.4089 25.4225C15.1391 26.15 15.5503 27.1377 15.5522 28.1684C15.5541 29.1991
15.1465 30.1884 14.419 30.9185C13.6915 31.6487 12.7038 32.0599 11.6731 32.0618ZM16.2226
23.5794C14.9993 22.3752 13.352 21.6997 11.6355 21.6984C10.1463 21.7035 8.70439 22.2215 
7.55248 23.1653C6.40058 24.1091 5.60907 25.421 5.31124 26.8801H2.59085V20.403C2.59085
19.7159 2.86381 19.0569 3.34969 18.571C3.83557 18.0851 4.49456 17.8122 5.1817 
17.8122H25.9486L25.9771 26.8801H18.0064C17.7536 25.6269 17.1325 24.4776 16.2226 
23.5794ZM46.6495 32.0618H46.6353C45.6046 32.0637 44.6153 31.6561 43.8852
30.9286C43.155 30.2011 42.7438 29.2134 42.7419 28.1827C42.74 27.152 43.1476 26.1627
43.8751 25.4326C44.6026 24.7024 45.5903 24.2912 46.621 24.2893H46.6353C47.666 24.2874 
48.6552 24.695 49.3854 25.4225C50.1155 26.15 50.5268 27.1377 50.5287 28.1684C50.5306 
29.1991 50.1229 30.1884 49.3955 30.9185C48.668 31.6487 47.6802 32.0599 46.6495 
32.0618ZM55.7033 26.8801H52.9829C52.73 25.6269 52.1089 24.4776 51.1991 23.5794C49.9801 
22.369 48.3302 21.6924 46.6124 21.6985C44.8946 21.7046 43.2495 22.3928 42.0391 23.6118C41.1467
24.5054 40.5375 25.6422 40.2877 26.8801H28.5641L28.5356 17.8122H53.1124C53.7995 17.8122 54.4585 
18.0851 54.9444 18.571C55.4303 19.0569 55.7033 19.7159 55.7033 20.403V26.8801Z" fill="#0D2E68"/>
<path d="M53.3132 1.98997L49.9675 8.76215L52.2892 9.91112L54.4783 5.47943L56.4237 9.38732C56.5711 
9.68309 56.8259 9.91136 57.136 10.0254C57.4462 10.1395 57.7882 10.1307 58.0921 10.0009L63.2413 
7.80199L61.9077 13.2399C61.829 13.5609 61.8759 13.8998 62.0388 14.1872C62.2017 14.4747 62.4683 
14.6891 62.7841 14.7865L67.3266 16.1855L62.9101 20.3521L64.6889 22.2369L70.7223 16.5448C70.8873 
16.3894 71.0087 16.1934 71.0742 15.9765C71.1398 15.7595 71.1473 15.5292 71.0959 15.3084C71.0446 
15.0877 70.9363 14.8842 70.7817 14.7185C70.6272 14.5527 70.4319 14.4303 70.2152 14.3637L64.7154 
12.6699L66.3714 5.89808C66.4287 5.66439 66.4198 5.41936 66.3456 5.19047C66.2714 4.96158 66.135 
4.75786 65.9516 4.60215C65.7681 4.44644 65.545 4.34489 65.3071 4.30889C65.0692 4.27289 64.826 
4.30385 64.6047 4.39831L58.1916 7.13204L55.6272 1.98019C55.5197 1.76422 55.3539 1.58257 55.1487 
1.45574C54.9434 1.3289 54.7068 1.2619 54.4655 1.2623C54.2243 1.2627 53.9879 1.33048 53.7831 
1.458C53.5782 1.58552 53.4131 1.76771 53.3062 1.98404L53.3132 1.98997Z" fill="#00C2FF"/>
</svg>
