<svg width="126" height="126" viewBox="0 0 126 126" fill="none" xmlns="http://www.w3.org/2000/svg">
<path d="M59.9717 106.744C78.3123 106.593 89.1397 102.451 104.491 86.0412C119.842 69.6309 121.575 50.5485 101.115 50.9065C76.4955 51.3373 67.2838 53.104 34.4212 39.4799C13.292 30.7203 9.29931 54.8915 22.9546 78.1576C36.6098 101.424 43.4707 106.879 59.9717 106.744Z" fill="#CEE8FF"/>
<path d="M96.4993 27.6988V40.6614C96.4989 49.7902 91.3823 58.1489 83.2528 62.3018C82.7139 62.5779 82.1624 62.8356 81.5984 63.0748L78.9326 64.2243L76.5704 63.1951C67.7121 59.3195 61.9836 50.5728 61.9712 40.9039V27.6988L78.9937 18.3703L96.4993 27.6988Z" fill="#00ACEA"/>
<path d="M94.1611 74.4523V84.8377C94.1611 87.6593 91.8738 89.9466 89.0522 89.9466H86.4967L86.4731 89.9447C86.4888 89.7494 86.4967 89.5503 86.4967 89.3511C86.4967 85.306 83.2176 82.0269 79.1725 82.0269C75.1274 82.0269 71.8483 85.306 71.8483 89.3511C71.8483 89.5503 71.8562 89.7494 71.8719 89.9447L71.8483 89.9466H61.2893V72.234H93.4749L93.6267 72.1808C93.9787 72.8863 94.1617 73.6639 94.1611 74.4523Z" fill="white"/>
<path d="M93.6257 72.1805L93.4739 72.2338H77.2125L72.0444 60.614L72.0484 60.6081C73.4584 61.63 74.9741 62.4972 76.5697 63.1951L78.9319 64.2243L81.5978 63.0748C82.1617 62.8362 82.7132 62.5785 83.2521 62.3018L83.6563 62.4201L92.5393 70.7175C92.9867 71.1357 93.3548 71.6314 93.6257 72.1805Z" fill="#D4E1F4"/>
<path d="M86.4956 89.3512C86.4956 89.5503 86.4877 89.7494 86.472 89.9447C86.1431 93.9766 82.6078 96.9786 78.5759 96.6497C75.0007 96.3581 72.1625 93.5201 71.8708 89.9447C71.8551 89.7494 71.8472 89.5503 71.8472 89.3512C71.8472 85.306 75.1263 82.0269 79.1714 82.0269C83.2163 82.0269 86.4956 85.3062 86.4956 89.3512Z" fill="#D4E1F4"/>
<path d="M72.0454 60.6138L77.2135 72.2336H61.2893V58.9476H69.8548L69.9198 58.8766C70.5962 59.4938 71.3072 60.0718 72.0494 60.6079L72.0454 60.6138Z" fill="#D4E1F4"/>
<path d="M61.2894 72.2331V89.9457H41.7016L41.6779 89.9437C41.6937 89.7485 41.7016 89.5494 41.7016 89.3502C41.701 85.3051 38.4211 82.0266 34.3762 82.0272C30.332 82.0278 27.0539 85.3061 27.0531 89.3502C27.0531 89.5494 27.061 89.7485 27.0768 89.9437L27.0531 89.9457H24.4148C21.593 89.9465 19.3047 87.6598 19.304 84.838C19.304 84.8376 19.304 84.8372 19.304 84.8368V80.7492C19.3038 76.0461 23.1162 72.2333 27.8193 72.2331C27.8195 72.2331 27.8199 72.2331 27.8201 72.2331H36.2496C36.4479 72.2331 36.6461 72.2212 36.8431 72.1976L36.847 72.2331H61.2894Z" fill="white"/>
<path d="M61.2879 58.9479V72.2338H36.8455L36.8416 72.1983C38.0418 72.0587 39.1535 71.4978 39.9787 70.615L49.3841 60.5667C50.3499 59.5339 51.7008 58.9477 53.1148 58.9479H61.2879Z" fill="#D4E1F4"/>
<path d="M41.7012 89.3513C41.7012 89.5504 41.6933 89.7496 41.6775 89.9448C41.3486 93.9767 37.8134 96.9788 33.7815 96.6499C30.2062 96.3582 27.3682 93.5202 27.0764 89.9448C27.0606 89.7496 27.0527 89.5504 27.0527 89.3513C27.0533 85.3061 30.3332 82.0276 34.3781 82.0282C38.4223 82.029 41.7004 85.3073 41.7012 89.3513Z" fill="#D4E1F4"/>
<path d="M94.1007 55.2103C96.9805 50.9047 98.5191 45.8419 98.5216 40.662V27.6994C98.5116 26.9671 98.1012 26.2992 97.4525 25.9593L79.9345 16.6307C79.3455 16.318 78.6388 16.3219 78.0534 16.6416L61.0634 25.9701C60.4398 26.3201 60.0588 26.9844 60.0716 27.6994V40.9045C60.0598 44.2252 60.6618 47.5197 61.8474 50.6215H53.1999C52.1109 50.6215 51.2281 51.5043 51.2281 52.5933C51.2281 53.6823 52.1109 54.5651 53.1999 54.5651H55.5365V56.9312H53.1171C51.1554 56.9425 49.2849 57.7622 47.9469 59.197L38.5414 69.2569C38.0362 69.8128 37.3514 70.1728 36.6073 70.2742C36.4896 70.303 36.3705 70.3249 36.2502 70.3394H27.821C22.0379 70.3394 17.2837 74.9674 17.2837 80.7505V84.838C17.2837 88.7424 20.5101 91.832 24.4157 91.832H25.4457C26.8637 96.765 32.0122 99.6149 36.9452 98.197C40.0212 97.3128 42.426 94.9082 43.3102 91.832H70.2408C71.6583 96.7654 76.8068 99.6157 81.7403 98.1981C84.8171 97.314 87.2224 94.9088 88.1064 91.832H89.0529C92.957 91.832 96.1553 88.7424 96.1553 84.838V74.4526C96.1446 72.4897 95.3261 70.6179 93.8924 69.277L86.7133 62.5625C89.6391 60.6262 92.1504 58.1269 94.1007 55.2103ZM82.3685 64.8918C82.6051 64.7916 82.8417 64.7226 83.0783 64.6147L89.1649 70.3394H78.4957L76.2459 65.243L78.1463 66.0514C78.6487 66.2616 79.2152 66.2574 79.7146 66.04L82.3685 64.8918ZM69.2602 60.8748C69.6307 61.2426 70.0284 61.5821 70.4498 61.8903L74.1796 70.3394H63.2265V60.8748H69.2602ZM59.4801 54.5651H63.8003C64.3175 55.3538 64.8838 56.1425 65.4988 56.9312H59.4801V54.5651ZM50.8265 61.9299C51.4141 61.2802 52.2416 60.8991 53.1171 60.8748H59.2829V70.3394H43.0121L50.8265 61.9299ZM21.2273 84.838V80.7505C21.2273 77.1421 24.2124 74.283 27.821 74.283H36.2504C36.3799 74.283 36.5093 74.2787 36.6374 74.2716C36.7072 74.2791 36.7776 74.2828 36.8478 74.283H59.2829V87.8884H43.5717C42.9046 83.5505 39.0365 79.9697 34.3791 79.9697C29.7218 79.9697 25.8519 83.5505 25.1847 87.8884H24.4157C22.6848 87.8884 21.2273 86.5673 21.2273 84.838ZM34.4148 94.7029C31.6364 94.698 29.3286 92.5576 29.1145 89.7875V89.7861C29.1145 89.6445 29.0614 89.4982 29.0614 89.3523C29.0614 86.4037 31.4518 84.0132 34.4004 84.0132C37.3491 84.0132 39.7395 86.4037 39.7395 89.3523C39.7395 89.499 39.7472 89.6453 39.7355 89.7884C39.5034 92.558 37.1939 94.6913 34.4148 94.7029ZM79.1923 94.7029C76.4103 94.6986 74.097 92.5606 73.8742 89.7875V89.7861C73.8742 89.6461 73.8391 89.4998 73.8391 89.3523C73.8387 86.4001 76.2317 84.0063 79.1838 84.006C82.136 84.0056 84.5298 86.3985 84.5302 89.3507C84.5302 89.3513 84.5302 89.3517 84.5302 89.3523C84.5302 89.5005 84.5311 89.6469 84.5199 89.7882C84.2847 92.559 81.9729 94.6917 79.1923 94.7029ZM92.2119 84.838C92.2119 86.5679 90.7829 87.8884 89.0531 87.8884H88.3669C87.6996 83.5505 83.8317 79.9697 79.1744 79.9697C74.517 79.9697 70.6473 83.5505 69.9801 87.8884H63.2265V74.283H77.2089H77.2156H77.2249H92.1758C92.2006 74.3361 92.2131 74.394 92.2119 74.4526V84.838ZM82.3545 60.5479C81.8566 60.8031 81.3447 61.042 80.8189 61.2649L78.938 62.0759L77.3623 61.3893C75.8949 60.7473 74.5008 59.9497 73.2038 59.0101C72.5336 58.5172 71.8923 57.9862 71.2832 57.4197C66.6478 53.1803 64.0097 47.1862 64.0152 40.9045V28.8673L79.0681 20.6122L94.578 28.8829V40.662C94.5747 45.0642 93.2664 49.3665 90.8182 53.0251C88.6826 56.2117 85.7694 58.8009 82.3545 60.5479Z" fill="#1536B1"/>
<path d="M76.5125 48.2682C75.9353 48.2693 75.3868 48.0169 75.0121 47.578L70.4078 42.1871C69.7005 41.359 69.7985 40.1144 70.6266 39.4071C71.4548 38.6998 72.6994 38.7978 73.4067 39.626L78.011 45.0167C78.7189 45.8442 78.6219 47.0888 77.7943 47.7967C77.4372 48.1021 76.9825 48.2701 76.5125 48.2701V48.2682Z" fill="white"/>
<path d="M76.5126 48.2676C75.4236 48.2685 74.54 47.3868 74.5388 46.2977C74.5382 45.7032 74.8058 45.1403 75.2672 44.7655L85.9896 36.042C86.8343 35.3549 88.0764 35.4824 88.7637 36.3274C89.4509 37.1721 89.3233 38.4141 88.4784 39.1013L77.7558 47.8245C77.4048 48.1112 76.9657 48.2678 76.5126 48.2676Z" fill="white"/>
</svg>
