<svg width="12" height="12" viewBox="0 0 12 12" fill="none" xmlns="http://www.w3.org/2000/svg">
<g clip-path="url(#clip0)">
<path d="M11.7187 4.50023H10.495L9.76 2.67492C9.47453 1.965 8.78594 1.5 8.02094 1.5H3.97938C3.21438 1.5 2.52578 1.965 2.24008 2.67469L1.50508 4.5H0.281643C0.0985964 4.5 -0.0357005 4.67203 0.00883078 4.84945L0.149456 5.41195C0.164702 5.47278 0.199822 5.52677 0.249244 5.56537C0.298666 5.60396 0.359561 5.62495 0.422268 5.625H0.687346C0.493284 5.95687 0.375159 6.33773 0.375159 6.74977V9.9375C0.375159 10.248 0.627112 10.5 0.937659 10.5H1.31266C1.62321 10.5 1.87516 10.248 1.87516 9.9375V9.375H10.1252V9.9375C10.1252 10.248 10.3771 10.5 10.6877 10.5H11.0627C11.3732 10.5 11.6252 10.248 11.6252 9.9375V6.75C11.6252 6.33773 11.507 5.95687 11.3132 5.62523H11.5783C11.7074 5.62523 11.8199 5.53734 11.8511 5.41219L11.9917 4.84969C12.036 4.67203 11.9017 4.50023 11.7187 4.50023ZM3.28375 3.09492C3.3986 2.80945 3.67164 2.625 3.97938 2.625H8.02094C8.32868 2.625 8.60172 2.80945 8.71657 3.09492L9.28211 4.49977H2.71821L3.28375 3.09492ZM10.5002 7.875C10.5002 8.08172 10.3319 8.25 10.1252 8.25H1.87516C1.66844 8.25 1.50016 8.08172 1.50016 7.875V6.75C1.50016 6.12961 2.00477 5.625 2.62516 5.625H9.37516C9.99555 5.625 10.5002 6.12961 10.5002 6.75V7.875ZM3.00016 6.18727C2.55016 6.18727 2.25016 6.48633 2.25016 6.93516C2.25016 7.38398 2.55016 7.68305 3.00016 7.68305C3.45016 7.68305 4.12516 7.75781 4.12516 7.30898C4.12516 6.86039 3.45016 6.18727 3.00016 6.18727ZM9.00016 6.18727C8.55016 6.18727 7.87516 6.86039 7.87516 7.30898C7.87516 7.75781 8.55016 7.68305 9.00016 7.68305C9.45016 7.68305 9.75016 7.38398 9.75016 6.93516C9.75016 6.48656 9.45016 6.18727 9.00016 6.18727Z" fill="white"/>
</g>
<defs>
<clipPath id="clip0">
<rect width="12" height="12" fill="white"/>
</clipPath>
</defs>
</svg>
