<svg width="72" height="30" viewBox="0 0 72 30" fill="none" xmlns="http://www.w3.org/2000/svg">
<path opacity="0.8" d="M34.2046 7.0588L47.9706 7.0588C52.5792 7.05881 55.9873 9.93565 58.8319 
12.1338L57.4096 7.73754C54.9529 2.8241 50.8291 1.14319 46.2205 1.14319L34.2046 1.14319C29.6099 
3.3413 25.2137 4.27915 24.5672 9.41845L24.5672 11.4545C24.5672 5.75978 29.596 7.0588 34.2046 
7.0588Z" fill="#CEE8FF"/>
<path d="M66.8183 10.4165H60.9889L54.7371 2.13875C54.2544 1.49968 53.6304 0.980818 52.9141 
0.622633C52.1977 0.264448 51.4083 0.0766324 50.6073 0.0738406H50.5866L32.4701 0C31.6699 
0.00607277 30.8818 0.196168 30.1668 0.555578C29.4518 0.914987 28.829 1.43408 28.3468 2.07268L22.1261 
10.4165H18.8876C17.5133 10.4165 16.1953 10.9624 15.2236 11.9342C14.2518 12.906 13.7059 14.2239 
13.7059 15.5982V23.3708C13.7059 23.7143 13.8424 24.0438 14.0853 24.2868C14.3282 24.5297 14.6577 
24.6662 15.0013 24.6662H19.0171C19.3157 26.1292 20.1107 27.4441 21.2674 28.3883C22.4241 29.3326 
23.8715 29.8482 25.3647 29.8479H25.388C26.8772 29.8428 28.3191 29.3248 29.471 28.381C30.6229 
27.4372 31.4144 26.1253 31.7123 24.6662H53.9936C54.2922 26.1292 55.0871 27.4441 56.2439 
28.3883C57.4006 29.3326 58.848 29.8482 60.3412 29.8479H60.3645C61.8536 29.8428 63.2956 
29.3248 64.4475 28.381C65.5994 27.4372 66.3909 26.1253 66.6887 24.6662H70.7045C71.0481 
24.6662 71.3776 24.5297 71.6206 24.2868C71.8635 24.0438 72 23.7143 72 23.3708V15.5982C72 
14.2239 71.454 12.906 70.4823 11.9342C69.5105 10.9624 68.1925 10.4165 66.8183 
10.4165ZM50.5853 2.66469H50.5957C50.9977 2.66569 51.3941 2.75977 51.7537 2.93957C52.1133 
3.11937 52.4263 3.38 52.6684 3.70103L57.7399 10.4165H42.2363L42.2052 2.63101L50.5853 
2.66469ZM30.4168 3.62201C30.6568 3.30406 30.9663 3.04533 31.3218 2.86568C31.6773 2.68603 
32.0692 2.59024 32.4675 2.58567L39.6144 2.62064L39.6455 10.4165H25.3556L30.4168 
3.62201ZM25.3789 27.257H25.3647C24.334 27.2589 23.3447 26.8513 22.6146 26.1238C21.8844 
25.3963 21.4732 24.4086 21.4713 23.3779C21.4694 22.3472 21.877 21.3579 22.6045 
20.6278C23.332 19.8976 24.3197 19.4864 25.3504 19.4845H25.3647C26.3954 19.4826 27.3846 
19.8902 28.1148 20.6177C28.8449 21.3452 29.2562 22.3329 29.2581 23.3636C29.26 
24.3943 28.8523 25.3836 28.1249 26.1137C27.3974 26.8439 26.4096 27.2551 25.3789 
27.257ZM29.9285 18.7746C28.7052 17.5704 27.0579 16.8949 25.3414 16.8936C23.8522 
16.8987 22.4103 17.4167 21.2584 18.3605C20.1064 19.3043 19.3149 20.6162 19.0171 
22.0753H16.2967V15.5982C16.2967 14.9111 16.5697 14.2521 17.0556 13.7662C17.5414 
13.2803 18.2004 13.0074 18.8876 13.0074H39.6545L39.683 22.0753H31.7123C31.4594 
20.8221 30.8383 19.6728 29.9285 18.7746ZM60.3554 27.257H60.3412C59.3104 27.2589 
58.3212 26.8513 57.5911 26.1238C56.8609 25.3963 56.4496 24.4086 56.4478 23.3779C56.4459 
22.3472 56.8535 21.3579 57.581 20.6278C58.3085 19.8976 59.2962 19.4864 60.3269 
19.4845H60.3412C61.3719 19.4826 62.3611 19.8902 63.0913 20.6177C63.8214 21.3452 64.2327 
22.3329 64.2346 23.3636C64.2364 24.3943 63.8288 25.3836 63.1013 26.1137C62.3738 26.8439 
61.3861 27.2551 60.3554 27.257ZM69.4091 22.0753H66.6887C66.4359 20.8221 65.8148 19.6728 
64.9049 18.7746C63.6859 17.5642 62.0361 16.8876 60.3183 16.8937C58.6004 16.8998 56.9554 
17.588 55.745 18.807C54.8526 19.7005 54.2434 20.8374 53.9936 22.0753H42.27L42.2415 
13.0074H66.8183C67.5054 13.0074 68.1644 13.2803 68.6503 13.7662C69.1362 14.2521 
69.4091 14.9111 69.4091 15.5982V22.0753Z" fill="#0D2E68"/>
<path d="M21.2658 1.03442H11.8352C11.4401 1.03442 11.1199 1.6133 11.1199 2.32743C11.1199 
3.04156 11.4402 3.62044 11.8352 3.62044H21.2658C21.6609 3.62044 21.9812 3.04156 21.9812 
2.32743C21.9812 1.6133 21.6609 1.03442 21.2658 1.03442Z" fill="#00C2FF"/>
<path d="M7.24845 1.03442H7.23332C6.52337 1.03442 5.94788 1.6133 5.94788 2.32743C5.94788 
3.04156 6.52324 3.62044 7.2332 3.62044H7.24845C7.9584 3.62044 8.5339 3.04156 8.5339 
2.32743C8.5339 1.6133 7.9584 1.03442 7.24845 1.03442Z" fill="#00C2FF"/>
<path d="M18.057 5.17212H8.57899C8.12559 5.17212 7.75806 5.751 7.75806 6.46513C7.75806 
7.17926 8.12559 7.75814 8.57899 7.75814H18.057C18.5104 7.75814 18.8779 7.17926 18.8779 
6.46513C18.8779 5.75087 18.5104 5.17212 18.057 5.17212Z" fill="#00C2FF"/>
<path d="M5.88318 5.17212H0.840466C0.376275 5.17212 0 5.7509 0 6.46507C0 7.17923 0.376275 
7.75814 0.840466 7.75814H5.88318C6.34737 7.75814 6.72365 7.17923 6.72365 6.46507C6.72365 
5.7509 6.34737 5.17212 5.88318 5.17212Z" fill="#00C2FF"/>
</svg>
