<svg width="34" height="40" viewBox="0 0 34 40" fill="none" xmlns="http://www.w3.org/2000/svg">
<path d="M6.6875 30.3901V9.66509C6.6875 5.45995 10.1753 2.05103 14.4778 2.05103H9.73438C5.41961 
2.05103 1.92188 5.46132 1.92188 9.66821V30.387C1.92188 34.5938 5.41961 38.0042 9.73438 
38.0042H14.4778C10.1753 38.0042 6.6875 34.5952 6.6875 30.3901Z" fill="#CEE8FF"/>
<path d="M24.1875 39.5276H9.8125C4.64313 39.5276 0.4375 35.4271 0.4375 30.387V9.66821C0.4375 
4.62807 4.64313 0.527588 9.8125 0.527588H24.1875C29.3569 0.527588 33.5625 4.62807 33.5625 
9.66821V30.387C33.5625 35.4271 29.3569 39.5276 24.1875 39.5276ZM9.8125 3.57446C6.36625 3.57446 
3.5625 6.30812 3.5625 9.66821V30.387C3.5625 33.7471 6.36625 36.4807 9.8125 36.4807H24.1875C27.6338 
36.4807 30.4375 33.7471 30.4375 30.387V9.66821C30.4375 6.30812 27.6338 3.57446 24.1875 
3.57446H9.8125ZM25.4375 7.99243C25.4375 7.15104 24.738 6.46899 23.875 6.46899C23.012 
6.46899 22.3125 7.15104 22.3125 7.99243C22.3125 9.25247 21.2611 10.2776 19.9688 
10.2776H14.0312C12.7389 10.2776 11.6875 9.25247 11.6875 7.99243C11.6875 7.15104 
10.988 6.46899 10.125 6.46899C9.26203 6.46899 8.5625 7.15104 8.5625 7.99243C8.5625 
10.9325 11.0158 13.3245 14.0312 13.3245H19.9688C22.9842 13.3245 25.4375 10.9325 
25.4375 7.99243Z" fill="#0D2E68"/>
<path d="M24.2656 30.6155H11.0625C10.1995 30.6155 9.50001 29.9335 9.50001 29.0921C9.50001 
28.2507 10.1995 27.5686 11.0625 27.5686H24.2656C25.1286 27.5686 25.8281 28.2507 25.8281 
29.0921C25.8281 29.9335 25.1286 30.6155 24.2656 30.6155ZM25.8281 23.2268C25.8281 22.3854 
25.1286 21.7034 24.2656 21.7034H21.2188C20.3558 21.7034 19.6563 22.3854 19.6563 23.2268C19.6563 
24.0682 20.3558 24.7503 21.2188 24.7503H24.2656C25.1286 24.7503 25.8281 24.0682 25.8281 
23.2268ZM15.4219 23.838L18.422 20.8875C19.0296 20.29 19.0254 19.3255 18.4125 18.7331C17.7998 
18.1408 16.8105 18.1448 16.2028 18.7424L13.2026 21.6928C13.1883 21.7068 13.1706 21.7068 13.1563 
21.6928L11.7032 20.2638C11.0956 19.6662 10.1063 19.6621 9.49353 20.2545C8.88071 20.8468 8.87649 
21.8114 9.48399 22.4089L10.9371 23.838C11.5353 24.4262 12.3317 24.7503 13.1795 24.7503C14.0274 
24.7503 14.8238 24.4263 15.4219 23.838Z" fill="#00C2FF"/>
</svg>
