<svg width="22" height="24" viewBox="0 0 22 24" fill="none" xmlns="http://www.w3.org/2000/svg">
<g clip-path="url(#clip0)">
<path d="M15.1495 16.5H14.927C14.3513 16.5 13.7908 16.6359 13.2463 16.8187C11.5325 17.3944 9.67486 17.3944 7.96106 16.8187C7.41757 16.6359 6.85846 16.5009 6.2842 16.5009H6.0598C4.45281 16.5009 2.91162 17.1329 1.77521 18.258C0.638803 19.383 0.000251093 20.9089 0 22.5C0 22.8978 0.15961 23.2794 0.443719 23.5607C0.727827 23.842 1.11316 24 1.51495 24H19.6944C20.0961 24 20.4815 23.842 20.7656 23.5607C21.0497 23.2794 21.2093 22.8978 21.2093 22.5C21.2093 20.9087 20.5709 19.3826 19.4344 18.2574C18.298 17.1321 16.7567 16.5 15.1495 16.5ZM1.51495 22.5C1.5162 21.3069 1.99544 20.163 2.84749 19.3194C3.69954 18.4757 4.85482 18.0012 6.0598 18H6.2842C6.61181 18 6.99055 18.0759 7.47533 18.2386C9.50417 18.9198 11.7032 18.9198 13.7321 18.2386C14.2202 18.075 14.5999 17.9991 14.927 17.9991H15.1495C16.3545 18.0003 17.5098 18.4748 18.3618 19.3185C19.2139 20.1621 19.6931 21.306 19.6944 22.4991L1.51495 22.5ZM2.27243 10.5C2.47332 10.5 2.66599 10.421 2.80804 10.2803C2.9501 10.1397 3.0299 9.94891 3.0299 9.75V9C3.0299 4.86469 6.42812 1.5 10.6047 1.5C14.7812 1.5 18.1794 4.86469 18.1794 9V9.75C18.1783 10.7442 17.7789 11.6974 17.0689 12.4004C16.3588 13.1034 15.3962 13.4989 14.392 13.5H12.8771C12.8771 13.1022 12.7175 12.7206 12.4334 12.4393C12.1492 12.158 11.7639 12 11.3621 12H9.84718C9.44539 12 9.06005 12.158 8.77594 12.4393C8.49184 12.7206 8.33223 13.1022 8.33223 13.5C8.33223 13.8978 8.49184 14.2794 8.77594 14.5607C9.06005 14.842 9.44539 15 9.84718 15H14.392C15.7978 14.9983 17.1454 14.4446 18.1394 13.4604C19.1334 12.4762 19.6926 11.1419 19.6944 9.75V9C19.6944 4.03688 15.6172 0 10.6047 0C5.59206 0 1.51495 4.03688 1.51495 9V9.75C1.51495 9.94891 1.59476 10.1397 1.73681 10.2803C1.87886 10.421 2.07153 10.5 2.27243 10.5ZM10.6047 4.5C11.4824 4.49612 12.3423 4.74511 13.0796 5.21662C13.8169 5.68812 14.3998 6.3618 14.7572 7.15554C15.1146 7.94928 15.2312 8.82883 15.0926 9.687C14.954 10.5452 14.5664 11.3449 13.9768 11.9887C13.9768 11.993 13.983 11.9958 13.9854 12H14.392C14.7764 11.9992 15.1542 11.9016 15.49 11.7164C15.8259 11.5313 16.1086 11.2646 16.3118 10.9416C16.5224 10.3294 16.6645 9.68344 16.6645 9C16.6645 7.4087 16.026 5.88258 14.8896 4.75736C13.7531 3.63214 12.2118 3 10.6047 3C8.99749 3 7.45616 3.63214 6.31972 4.75736C5.18329 5.88258 4.54485 7.4087 4.54485 9C4.54485 10.8947 5.44909 12.5625 6.83385 13.6627C6.83101 13.6078 6.81728 13.5558 6.81728 13.5C6.82069 12.9716 6.96664 12.4538 7.24004 12C6.64747 11.3569 6.25694 10.5569 6.11618 9.6976C5.97541 8.83833 6.09051 7.95706 6.44741 7.16151C6.8043 6.36596 7.38754 5.69058 8.12583 5.21792C8.86412 4.74526 9.72548 4.49579 10.6047 4.5Z" fill="#0D2E68"/>
</g>
<defs>
<clipPath id="clip0">
<rect width="21.2093" height="24" fill="white"/>
</clipPath>
</defs>
</svg>
