<svg fill="none" height="259" viewBox="0 0 260 259" width="260" xmlns="http://www.w3.org/2000/svg" xmlns:xlink="http://www.w3.org/1999/xlink"><clipPath id="a"><path d="m99 85h116.392v116.392h-116.392z"/></clipPath><path d="m113.001 219.958c38.413 1.171 62.125-6.499 98.436-39.113s44.813-71.841 1.913-72.755c-42.9-.913-42.744 20.345-70.947 11.22-28.203-9.124-23.707-20.4011-65.6783-40.1784-41.971-19.7773-56.4996 29.7644-33.8721 78.8644 22.6276 49.101 35.589 60.909 70.1484 61.962z" fill="#cee8ff"/><g clip-path="url(#a)"><path d="m203.753 128.97v28.452c0 4.285-3.474 7.759-7.76 7.759h-51.73c-4.285 0-7.759-3.474-7.759-7.759v-28.452c0-4.285 3.474-7.759 7.759-7.759h51.73c4.286 0 7.76 3.474 7.76 7.759zm-40.867 8.924c0-2.857-2.316-5.173-5.173-5.173-1.547-.062-3.032.609-4.009 1.81-1.051-1.176-2.561-1.836-4.138-1.81-2.857 0-5.173 2.316-5.173 5.173s2.316 5.173 5.173 5.173c1.598-.007 3.111-.716 4.138-1.94.963 1.233 2.444 1.95 4.009 1.94 2.857 0 5.173-2.316 5.173-5.173z" fill="#cee8ff"/><path d="m174.008 175.527v15.519c0 4.285-3.474 7.759-7.76 7.759h-46.556c-4.285 0-7.76-3.474-7.76-7.759v-15.519zm-25.865 11.639c0-2.857-2.316-5.173-5.173-5.173s-5.173 2.316-5.173 5.173 2.316 5.173 5.173 5.173 5.173-2.316 5.173-5.173z" fill="#00c2ff"/><path d="m174.008 166.474v9.053h-62.076v-68.542h62.076v14.226h-29.745c-4.285 0-7.759 3.474-7.759 7.759v28.452c0 4.285 3.474 7.759 7.759 7.759h29.745z" fill="#fff"/><path d="m174.008 95.3461v11.6389h-62.076v-11.6389c0-4.2853 3.475-7.7595 7.76-7.7595h46.557c4.285 0 7.759 3.4739 7.759 7.7595z" fill="#00c2ff"/><path d="m157.713 132.721c2.857 0 5.173 2.316 5.173 5.173s-2.316 5.173-5.173 5.173c-1.565.01-3.046-.706-4.009-1.94-1.027 1.224-2.541 1.933-4.138 1.94-2.857 0-5.173-2.316-5.173-5.173s2.316-5.173 5.173-5.173c1.577-.026 3.087.635 4.138 1.81.977-1.201 2.462-1.872 4.009-1.81z" fill="#fff"/><path d="m142.97 192.339c2.857 0 5.173-2.316 5.173-5.173s-2.316-5.173-5.173-5.173-5.173 2.316-5.173 5.173 2.316 5.173 5.173 5.173z" fill="#fff"/><g fill="#0d2e68"><path d="m151.376 99.2255h-16.812c-1.428 0-2.586-1.1579-2.586-2.5865 0-1.4285 1.158-2.5864 2.586-2.5864h16.812c1.429 0 2.587 1.1579 2.587 2.5864 0 1.4286-1.158 2.5865-2.587 2.5865z"/><path d="m142.97 194.926c-4.285 0-7.759-3.475-7.759-7.76s3.474-7.759 7.759-7.759c4.286 0 7.76 3.474 7.76 7.759s-3.474 7.76-7.76 7.76zm0-10.346c-1.428 0-2.586 1.158-2.586 2.586 0 1.429 1.158 2.587 2.586 2.587 1.429 0 2.587-1.158 2.587-2.587 0-1.428-1.159-2.586-2.587-2.586z"/><path d="m195.993 118.624h-20.045v-23.278c0-5.6904-4.009-10.346-9.7-10.346h-46.556c-5.69 0-10.993 4.6556-10.993 10.346v95.7c0 5.69 5.303 10.346 10.993 10.346h46.557c5.69 0 9.699-4.656 9.699-10.346v-23.279h20.045c5.691 0 9.7-4.655 9.7-10.346v-28.451c-.001-5.69-4.01-10.346-9.7-10.346zm-76.301-28.451h46.557c2.845 0 4.526 2.3278 4.526 5.173v9.053h-56.903v-9.053c0-2.8452 2.975-5.173 5.82-5.173zm46.556 106.046h-46.556c-2.845 0-5.82-2.328-5.82-5.173v-12.933h56.903v12.933c0 2.845-1.681 5.173-4.527 5.173zm4.527-23.279h-56.903v-63.368h56.903v9.052h-26.512c-5.69 0-10.992 4.656-10.992 10.346v28.451c0 5.691 5.302 10.346 10.992 10.346h26.512zm29.744-15.519c0 2.857-2.316 5.173-5.173 5.173h-51.729c-2.857 0-5.173-2.316-5.173-5.173v-28.451c0-2.857 2.316-5.173 5.173-5.173h51.729c2.857 0 5.173 2.316 5.173 5.173z"/><path d="m179.828 157.421h-36.211c-1.429 0-2.587-1.158-2.587-2.586 0-1.429 1.158-2.587 2.587-2.587h36.211c1.428 0 2.586 1.158 2.586 2.587 0 1.428-1.158 2.586-2.586 2.586z"/><path d="m157.584 145.653c-1.419-.008-2.807-.411-4.009-1.164-1.187.788-2.586 1.194-4.009 1.164-4.286 0-7.76-3.474-7.76-7.759 0-4.286 3.474-7.76 7.76-7.76 1.403-.012 2.786.345 4.009 1.035 1.235-.659 2.609-1.014 4.009-1.035 4.285 0 7.759 3.474 7.759 7.76 0 4.285-3.474 7.759-7.759 7.759zm-3.88-7.113c.743.024 1.445.351 1.94.905.448.631 1.166 1.015 1.94 1.035 1.429 0 2.586-1.158 2.586-2.586 0-1.429-1.157-2.587-2.586-2.587-.755-.031-1.479.307-1.94.905-1.012 1.107-2.73 1.185-3.837.173-.06-.055-.117-.112-.172-.173-.93-1.084-2.562-1.21-3.647-.28s-1.21 2.562-.281 3.647c.468.545 1.141.872 1.859.901.809-.019 1.568-.398 2.069-1.035.535-.574 1.284-.902 2.069-.905z"/></g></g><path d="m99.5 139.375v-14.5c0-2.884-1.1458-5.65-3.1852-7.69-2.0395-2.039-4.8056-3.185-7.6898-3.185l-14.5 32.625v39.875h40.89c1.748.02 3.445-.593 4.777-1.725 1.333-1.133 2.211-2.709 2.473-4.438l5.002-32.624c.158-1.04.088-2.101-.205-3.11s-.802-1.943-1.492-2.736c-.689-.793-1.543-1.426-2.502-1.857-.959-.43-2-.647-3.051-.635zm-25.375 47.125h-10.875c-1.9228 0-3.7669-.764-5.1265-2.123-1.3597-1.36-2.1235-3.204-2.1235-5.127v-25.375c0-1.923.7638-3.767 2.1235-5.127 1.3596-1.359 3.2037-2.123 5.1265-2.123h10.875" fill="#fff"/><path d="m74.125 186.5h-10.875c-1.9228 0-3.7669-.764-5.1265-2.123-1.3597-1.36-2.1235-3.204-2.1235-5.127v-25.375c0-1.923.7638-3.767 2.1235-5.127 1.3596-1.359 3.2037-2.123 5.1265-2.123h10.875m25.375-7.25v-14.5c0-2.884-1.1458-5.65-3.1852-7.69-2.0395-2.039-4.8056-3.185-7.6898-3.185l-14.5 32.625v39.875h40.89c1.748.02 3.445-.593 4.777-1.725 1.333-1.133 2.211-2.709 2.473-4.438l5.002-32.624c.158-1.04.088-2.101-.205-3.11s-.802-1.943-1.492-2.736c-.689-.793-1.543-1.426-2.502-1.857-.959-.43-2-.647-3.051-.635z" stroke="#0d2e68" stroke-linecap="round" stroke-linejoin="round" stroke-width="5"/></svg>