<svg width="35" height="35" viewBox="0 0 35 35" fill="none" xmlns="http://www.w3.org/2000/svg">
<g clip-path="url(#clip0)">
<g opacity="0.8">
<path opacity="0.8" d="M8.47656 26.7997V8.20032C8.47656 4.42647 11.5284 1.36719 15.2931 
1.36719H11.1426C7.36716 1.36719 4.30664 4.42771 4.30664 8.20312V26.7969C4.30664 30.5722 7.36716 
33.6328 11.1426 33.6328H15.2931C11.5284 33.6328 8.47656 30.5735 8.47656 26.7997Z" fill="#CEE8FF"/>
</g>
<path d="M12.7832 16.0645C13.727 16.0645 14.4922 15.2993 14.4922 14.3555C14.4922 13.4116 13.727 
12.6465 12.7832 12.6465C11.8394 12.6465 11.0742 13.4116 11.0742 14.3555C11.0742 15.2993 11.8394 
16.0645 12.7832 16.0645Z" fill="#00C2FF"/>
<path d="M23.7905 35H11.2095C6.68705 35 3.00781 31.3208 3.00781 26.7983V8.20169C3.00781 3.67924 
6.68705 0 11.2095 0H23.7904C28.3129 0 31.9922 3.67924 31.9922 8.20169V26.7982C31.9922 31.3208 28.3129 
35 23.7905 35ZM11.2095 2.73438C8.19485 2.73438 5.74219 5.18704 5.74219 8.20169V26.7982C5.74219 29.813 
8.19485 32.2656 11.2095 32.2656H23.7904C26.8051 32.2656 29.2578 29.813 29.2578 26.7983V8.20169C29.2578 
5.18704 26.8051 2.73438 23.7905 2.73438H11.2095Z" fill="#0D2E68"/>
<path d="M25.0879 13.9453H22.7637C20.1251 13.9453 17.9785 11.7987 17.9785 9.16016V6.83594C17.9785 
6.08084 18.5906 5.46875 19.3457 5.46875C20.1008 5.46875 20.7129 6.08084 20.7129 
6.83594V9.16016C20.7129 10.291 21.6329 11.2109 22.7637 11.2109H25.0879C25.843 11.2109 26.4551 
11.823 26.4551 12.5781C26.4551 13.3332 25.843 13.9453 25.0879 13.9453Z" fill="#0D2E68"/>
<path d="M21.6699 27.002H12.2363C11.4812 27.002 10.8691 26.3899 10.8691 25.6348C10.8691 24.8797 
11.4812 24.2676 12.2363 24.2676H21.6699C22.425 24.2676 23.0371 24.8797 23.0371 25.6348C23.0371 
26.3899 22.425 27.002 21.6699 27.002Z" fill="#00C2FF"/>
<path d="M21.6699 21.7383H12.2363C11.4812 21.7383 10.8691 21.1262 10.8691 20.3711C10.8691 
19.616 11.4812 19.0039 12.2363 19.0039H21.6699C22.425 19.0039 23.0371 19.616 23.0371 
20.3711C23.0371 21.1262 22.425 21.7383 21.6699 21.7383Z" fill="#00C2FF"/>
</g>
<defs>
<clipPath id="clip0">
<path d="M0 0H35V35H0V0Z" fill="white"/>
</clipPath>
</defs>
</svg>
