<svg width="12" height="12" viewBox="0 0 12 12" fill="none" xmlns="http://www.w3.org/2000/svg">
<path d="M11.592 3.85594C11.5455 3.81773 11.0719 3.43617 10.5 2.97633V2.25C10.5 1.83586 10.1641 1.5 9.75 1.5H8.66086C8.56406 1.42242 8.48016 1.35563 8.4218 1.30922C7.90383 0.895078 7.01813 0 6 0C4.98727 0 4.11 0.884063 3.57797 1.30922C3.51867 1.35633 3.435 1.42336 3.33891 1.5H2.25C1.83586 1.5 1.5 1.83586 1.5 2.25V2.97609C0.925313 3.43805 0.451172 3.82008 0.410625 3.85336C0.28227 3.95887 0.178879 4.0915 0.107881 4.24173C0.0368826 4.39195 3.99055e-05 4.55603 0 4.72219L0 10.875C0 11.4963 0.503672 12 1.125 12H10.875C11.4963 12 12 11.4963 12 10.875V4.72289C12 4.3875 11.8505 4.06945 11.592 3.85594ZM6 0.75C6.51023 0.75 7.04625 1.14188 7.47984 1.5H4.52109C4.95539 1.14211 5.49188 0.75 6 0.75ZM2.25 2.25H9.75V6.31289C8.99227 6.92227 8.21953 7.54195 7.72055 7.93805C7.32562 8.25281 6.54422 9.00867 6 9C5.45602 9.00891 4.67438 8.25281 4.27945 7.93781C3.78047 7.54172 3.0082 6.92227 2.25 6.31266V2.25ZM0.75 4.72219C0.75 4.60969 0.799922 4.50398 0.886875 4.4325C0.915937 4.40859 1.15922 4.21266 1.5 3.93844V5.70914C1.22977 5.49164 0.972422 5.28422 0.75 5.10492V4.72219ZM11.25 10.875C11.25 11.0817 11.0817 11.25 10.875 11.25H1.125C0.918281 11.25 0.75 11.0817 0.75 10.875V6.0682C1.75195 6.87539 3.07758 7.94133 3.81281 8.52492C4.29305 8.90836 5.14266 9.75609 6 9.74977C6.8543 9.75586 7.69383 8.91867 8.18695 8.52492C8.92313 7.94063 10.2478 6.87516 11.25 6.06797V10.875ZM11.25 5.10492C11.0245 5.28656 10.7749 5.48789 10.5 5.70938V3.93891C10.8384 4.21125 11.0813 4.40695 11.1141 4.43391C11.2005 4.50539 11.25 4.61062 11.25 4.72289V5.10492ZM5.36508 5.63859L6.41977 5.955C6.5407 5.99133 6.62531 6.11391 6.62531 6.25336C6.62531 6.42375 6.50109 6.5625 6.34875 6.5625H5.68992C5.58305 6.5625 5.47992 6.53227 5.38945 6.47531C5.31352 6.42773 5.21695 6.43055 5.15203 6.49242L4.87664 6.75516C4.79391 6.83414 4.79859 6.97102 4.89 7.03969C5.10328 7.19977 5.36062 7.29211 5.62523 7.3057V7.6875C5.62523 7.79109 5.70914 7.875 5.81273 7.875H6.18773C6.29133 7.875 6.37523 7.79109 6.37523 7.6875V7.30969C6.92883 7.29492 7.37531 6.82828 7.37531 6.25336C7.37531 5.78531 7.07109 5.36719 6.63516 5.23641L5.58047 4.92C5.45953 4.88367 5.37492 4.76109 5.37492 4.62164C5.37492 4.45125 5.49914 4.3125 5.65148 4.3125H6.31031C6.41719 4.3125 6.52031 4.34273 6.61078 4.39969C6.68672 4.44727 6.78328 4.44445 6.8482 4.38258L7.12359 4.11984C7.20633 4.04086 7.20164 3.90398 7.11023 3.83531C6.89695 3.67523 6.63961 3.58289 6.375 3.5693V3.1875C6.375 3.08391 6.29109 3 6.1875 3H5.8125C5.70891 3 5.625 3.08391 5.625 3.1875V3.56531C5.07141 3.58008 4.62492 4.04695 4.62492 4.62164C4.62492 5.08969 4.92914 5.50781 5.36508 5.63859Z" fill="white"/>
</svg>
