<svg width="48" height="42" viewBox="0 0 48 42" fill="none" xmlns="http://www.w3.org/2000/svg">
<path d="M42.5165 5.58032C44.3109 5.81087 45.5905 7.43518 45.3949 9.23368L42.8486 31.7625C42.6528 
33.5555 41.0404 34.8503 39.2474 34.6544C39.2115 34.6505 39.1757 34.6459 39.1399 
34.6408H38.9739V13.994C38.9739 12.1598 37.4869 10.6728 35.6527 10.6728H7.97607L8.64027 5.13745C8.81 
3.34181 10.4033 2.02369 12.1989 2.19343C12.2305 2.19639 12.2621 2.19989 12.2936 2.20381L42.5165 
5.58032Z" fill="white"/>
<path d="M38.9739 34.6406V36.6333C38.9739 38.4675 37.4869 39.9545 35.6527 39.9545H5.26377C3.42957 
39.9545 1.94257 38.4675 1.94257 36.6333V31.9836L11.0759 25.3413C12.524 24.2426 14.5504 24.3358 
15.8916 25.5628L21.9804 30.8767C23.2567 31.9589 25.0782 32.1145 26.5194 31.2641L38.9739 
23.9575V34.6406Z" fill="white"/>
<path d="M40.0698 38.219V39.2619C40.0698 40.2218 38.5756 41 36.7326 41H6.19764C4.35462 41 2.86047 
40.2218 2.86047 39.2619V36.8284L12.0377 33.3521C13.4927 32.7771 15.5289 32.8259 16.8765 33.468L22.9946 
36.2491C24.277 36.8155 26.1073 36.8969 27.5554 36.4519L40.0698 32.6279V38.219Z" fill="#CEE8FF"/>
<path d="M38.9739 13.994V23.9576L26.5194 31.2642C25.0782 32.1146 23.2567 31.959 21.9804 
30.8767L15.8916 25.5628C14.5504 24.3359 12.524 24.2427 11.0759 25.3414L1.94257 
31.9838V13.994C1.94257 12.1598 3.42957 10.6728 5.26377 10.6728H35.6527C37.487 
10.6728 38.9739 12.1597 38.9739 13.994ZM27.6265 19.7508C27.6273 17.7942 26.0419 16.2075 24.0854 
16.2066C22.1288 16.2058 20.5421 17.7912 20.5413 19.7477C20.5413 19.7487 20.5413 19.7497 20.5413 
19.7508C20.5404 21.7073 22.1259 23.294 24.0823 23.2949C26.0389 23.2957 27.6256 21.7103 27.6265 
19.7538C27.6265 19.7528 27.6265 19.7517 27.6265 19.7508Z" fill="white"/>
<path d="M42.6583 4.22519L42.6554 4.22487L12.436 0.793337C11.1953 0.617967 9.93856 0.979818 
8.98112 1.78811C8.02602 2.53052 7.41368 3.62942 7.28491 4.83232L6.75845 9.14972H5.26375C2.66638 
9.14972 0.751496 11.4455 0.751496 13.994V36.6303C0.688354 39.0894 2.62967 41.135 5.08921 
41.2C5.14802 41.2015 5.2068 41.2019 5.26531 41.2011H35.6527C38.2017 41.2011 40.5524 39.2305 
40.5524 36.6336V35.9505C41.2671 35.7856 41.9445 35.4863 42.5482 35.0677L42.5578 
35.0611L42.5668 35.0535C43.5125 34.2573 44.118 33.1298 44.2594 31.9018L44.2594 31.9014L46.8057 
9.42797L46.8059 9.42602C46.9371 8.18114 46.5579 6.93648 45.7552 5.97632C44.9938 5.00758 43.881 
4.37828 42.6583 4.22519ZM25.8953 30.1072L25.8938 30.1081C24.9498 30.6673 23.7552 30.5664 
22.9185 29.8569C22.9181 29.8566 22.9176 29.8562 22.9172 29.8559L16.833 24.546C16.8326 
24.5457 16.8323 24.5454 16.832 24.5451C15.0203 22.9303 12.3238 22.8088 10.3743 24.2544C10.374 
24.2546 10.3737 24.2548 10.3734 24.255L3.46563 29.2788V13.994C3.46563 12.8633 4.23003 
11.8639 5.26375 11.8639H35.6473C36.8157 11.9148 37.7591 12.8359 37.8382 14.0023V23.1496L25.8953 
30.1072ZM5.26375 38.487V38.4869L5.2564 38.4871C4.29435 38.5153 3.49156 37.7583 3.4633 
36.7963L3.4633 36.7961C3.46181 36.7466 3.46246 36.697 3.46524 36.6476L3.46563 
36.6476V36.6336V32.6639L11.9436 26.4286L11.9436 26.4286L11.9477 26.4255C12.8814 25.7087 
14.1965 25.7723 15.0567 26.5759L15.0566 26.576L15.0621 26.5808L21.0956 31.8947L21.0956 
31.8948L21.1001 31.8986C22.0604 32.7048 23.2692 33.1555 24.5228 33.1749L24.5236 
33.1749C25.5046 33.1869 26.4696 32.9258 27.3106 32.4206C27.3113 32.4203 27.3119 
32.4199 27.3125 32.4195L37.8382 26.3285V36.6336C37.8382 37.1533 37.5793 37.6125 37.1688 
37.9484C36.7566 38.2856 36.2036 38.487 35.6527 38.487H5.26375ZM40.8452 32.914C40.7845 
32.9747 40.6808 33.0305 40.5524 33.0908V13.994H40.5525L40.5522 13.9854C40.4602 
11.3312 38.3134 9.20989 35.6583 9.14978V9.14972H35.6527H9.47435L9.93925 5.12052C10.0372 
4.62443 10.2962 4.17465 10.6759 3.84076C11.1104 3.54419 11.6337 3.40583 12.1582 
3.44888L42.3218 6.93565L42.3217 6.93583L42.3314 6.93657C42.8541 6.97666 43.3332 
7.24287 43.6435 7.66555L43.6485 7.67235L43.6539 7.67881C43.9859 8.07251 44.1449 
8.58367 44.0946 9.0962C44.0945 9.09687 44.0945 9.09754 44.0944 9.09821L41.4932 
31.5675L41.4915 31.5828L41.4916 31.5982C41.4954 32.1035 41.265 32.5821 
40.8676 32.8942L40.8558 32.9034L40.8452 32.914Z" fill="#0D2E68" stroke="#0D2E68" 
stroke-width="0.5"/>
<path d="M19.1841 19.7507C19.1841 22.4568 21.3779 24.6504 24.0839 24.6504C26.7899 
24.6504 28.9836 22.4568 28.9836 19.7507C28.9836 17.0446 26.7899 14.851 24.0839 
14.851C21.3778 14.851 19.1841 17.0447 19.1841 19.7507ZM21.8983 19.7508C21.8983 
18.5438 22.8768 17.5652 24.0839 17.5652C25.2909 17.5652 26.2694 18.5438 26.2694 
19.7508C26.2694 20.9579 25.2909 21.9364 24.0839 21.9364C22.8768 21.9364 
21.8983 20.9579 21.8983 19.7508Z" fill="#00C2FF" stroke="#00C2FF" 
stroke-width="0.5"/>
</svg>
