<svg width="106" height="25" viewBox="0 0 106 25" fill="none" xmlns="http://www.w3.org/2000/svg">
<g clip-path="url(#clip0)">
<path d="M3.35124 7.7174C2.17018 8.04017 1.03342 8.6417 0 9.49264V8.52433C0.959605 7.8201 1.97826 7.30661 3.01168 7.04252L3.04121 7.02785L3.05597 7.05719C3.12979 7.26259 3.2479 7.46799 3.366 7.67339L3.39553 7.7174H3.35124ZM2.79024 6.22092V6.19158C2.76071 5.94217 2.77547 5.70743 2.81976 5.48736L2.83453 5.42867L2.77547 5.44334C2.00779 5.63407 1.24011 5.9275 0.487184 6.3383C0.339553 6.41165 0.177158 6.49968 0 6.61705V7.52668C0.900553 6.93982 1.83063 6.49968 2.76071 6.25027L2.79024 6.22092ZM22.9272 20.7016C21.6428 20.6869 20.5503 20.4228 19.5612 19.8946C19.2807 19.7479 19.0592 19.6746 18.8673 19.6746C18.6606 19.6746 18.513 19.7479 18.3801 19.8213C18.3358 19.8506 18.3063 19.88 18.3063 19.9093C18.3063 19.924 18.3063 19.9386 18.3358 19.968C19.6645 20.9656 21.2294 21.4645 23.0158 21.4645C23.503 21.4645 24.0197 21.4205 24.5364 21.3471C25.9536 21.1417 27.3857 20.6575 28.7882 19.924V19.029C27.9762 19.4985 27.1495 19.8653 26.3227 20.144C25.1417 20.5255 24.0049 20.7162 22.9272 20.7016ZM28.3157 7.65872C28.4781 7.24792 28.6258 6.80778 28.7586 6.32362V8.56834C28.5667 8.99381 28.3453 9.40461 28.0943 9.78607C26.5737 12.2509 24.374 13.6593 21.879 13.762C21.5247 13.7767 21.2737 13.9967 21.1556 14.1435C21.0375 14.2755 20.9785 14.3929 20.9785 14.4222C21.0523 14.4662 21.569 14.5983 21.8495 14.5983H21.8642C24.6102 14.5396 27.0609 13.0138 28.7734 10.2996V11.6347C28.5962 11.8694 28.4191 12.0748 28.2419 12.2802C26.5442 14.1728 24.5068 15.1851 22.3514 15.1851C22.0709 15.1851 21.7757 15.1705 21.4804 15.1264C21.4509 15.1264 21.4066 15.1264 21.3771 15.1264C20.8899 15.1264 20.506 15.5372 20.4765 15.6253C20.5356 15.6986 21.008 15.904 21.318 15.948C21.6428 15.9921 21.9676 16.0214 22.2924 16.0214H22.3809C24.7283 16.0214 26.9428 14.9504 28.7882 12.9257V14.0261C28.5077 14.2902 28.2124 14.5396 27.9467 14.7597C26.3375 16.0361 24.5511 16.6963 22.8091 16.6963C22.1152 16.6963 21.4213 16.5936 20.7422 16.3735C20.6537 16.3442 20.5651 16.3295 20.4765 16.3295C20.0484 16.3295 19.6941 16.6082 19.6645 16.6669C19.7236 16.7403 20.1517 17.0484 20.4322 17.1364C21.1999 17.3858 21.9823 17.5179 22.7353 17.5179H22.8238C24.7431 17.5179 26.7066 16.7843 28.4634 15.3905C28.5815 15.3025 28.6848 15.2145 28.7882 15.1264V16.1094C28.2715 16.5055 27.74 16.843 27.1937 17.1364C25.8208 17.87 24.4183 18.2368 23.0305 18.2368C22.2628 18.2368 21.5099 18.1194 20.7718 17.8993C20.6979 17.8847 20.6241 17.87 20.5356 17.87C20.1074 17.87 19.7383 18.2221 19.7088 18.2955C19.7679 18.3688 20.2551 18.6182 20.506 18.7063C21.318 18.9703 22.13 19.1024 22.8977 19.1171C22.9272 19.1171 22.9567 19.1171 22.9862 19.1171C24.4921 19.1171 26.0422 18.6916 27.5628 17.8847C27.9467 17.6793 28.36 17.4298 28.7586 17.1511V18.0754C27.8728 18.6329 26.9428 19.0584 26.0274 19.3665C24.7873 19.7773 23.6949 19.9827 22.691 19.9973C21.6133 19.9533 20.6094 19.7332 19.7974 19.3078C19.384 19.0877 18.9411 18.985 18.3211 19.4398C18.0553 19.6305 17.952 19.6746 17.7601 19.6746C17.5829 19.6746 17.3172 19.3958 17.0219 19.2344C16.5052 18.941 16.4166 18.897 15.8704 18.7063C15.5161 18.5742 15.6637 17.3712 15.7966 17.1364C16.0623 16.6669 17.2581 16.4469 17.5534 15.8894C17.7453 15.5226 17.3762 15.1558 17.2138 14.9357C17.14 15.684 16.3576 15.9774 15.5751 15.9627C14.7779 15.948 13.3311 15.4639 13.3016 15.0531C13.1835 15.2291 13.0506 15.5372 13.0802 15.8307C13.1687 16.4762 14.9994 16.4762 15.2799 17.1364C15.3832 17.3565 15.2946 18.1194 15.2208 18.3395C15.1322 18.6182 14.9551 18.6769 14.586 18.7943C13.0506 19.2931 12.8882 20.8483 10.8804 18.985C12.7554 22.3741 13.3607 19.4398 15.1765 19.4545C16.7267 19.4692 17.7748 20.6722 18.6163 21.2151C18.6459 21.2297 18.6902 21.2591 18.7344 21.2737C19.1921 21.5525 19.7383 21.7726 20.4322 21.978C21.1851 22.198 21.9971 22.3007 22.8534 22.3154C23.4291 22.3154 24.0197 22.2861 24.6102 22.198C25.9832 21.9926 27.3709 21.5525 28.7439 20.8923V21.7872C26.7213 22.6969 24.6102 23.137 22.6467 23.093C21.2442 23.049 19.9746 22.7555 18.8673 22.2127C18.7492 22.154 18.6311 22.1247 18.4835 22.1247C18.1144 22.1247 17.7896 22.3301 17.7453 22.4034C17.7896 22.4768 18.2177 22.8289 18.4539 22.9463C19.635 23.5478 21.0375 23.8706 22.6172 23.9146C22.691 23.9146 22.75 23.9146 22.8238 23.9146C24.7283 23.9293 26.7804 23.5038 28.7291 22.6822V23.5771C26.8542 24.296 24.8907 24.6775 23.0453 24.6775C22.1743 24.6775 21.3328 24.5895 20.5356 24.4281C19.3988 24.1933 18.3654 23.7972 17.4648 23.2397C17.3319 23.1517 17.1696 23.1223 17.0072 23.1223C16.6676 23.1223 16.3871 23.2837 16.3428 23.3277C16.3871 23.4158 16.7857 23.7972 17.0072 23.9293C17.7748 24.4134 18.6754 24.7509 19.6645 25.0149H17.4796C16.5938 24.5895 15.8261 24.1053 15.1765 23.4891C14.9846 23.3131 14.7336 23.269 14.5712 23.269C14.3055 23.269 14.0988 23.3571 14.0693 23.3864C14.0988 23.4744 14.4088 23.8999 14.6155 24.0906C14.9698 24.4281 15.3832 24.7068 15.8261 25.0149H14.586C13.8774 24.4134 13.2868 23.7972 12.8292 23.0783C12.652 22.7996 12.5044 22.7262 12.3125 22.6235C12.2387 22.5795 12.1501 22.5355 12.0615 22.4768C11.8548 22.3448 11.6334 22.1247 11.471 21.8899C11.5891 22.3594 11.7662 22.9169 12.1206 23.4891C12.4453 24.0173 12.8587 24.5014 13.3459 24.9856H12.2977C10.91 23.3717 10.2456 21.5672 10.3933 19.6892C10.408 19.3518 10.2161 19.1024 10.098 18.985C9.95037 18.8383 9.8175 18.7649 9.78798 18.7503C9.72892 18.8236 9.58129 19.3518 9.56653 19.6159C9.4189 21.5085 9.99466 23.3424 11.2348 24.9856H10.2899C8.78408 22.7409 8.42976 20.3494 9.31555 18.1341C9.50747 17.6352 9.18269 17.0777 9.10887 17.0337C9.03505 17.0777 8.68074 17.4885 8.5774 17.7526C7.63255 20.0854 7.88353 22.6235 9.30079 24.9856H8.415H8.40024C6.96821 22.3448 6.87963 19.6746 8.16403 17.4445C8.35595 17.1217 8.2969 16.799 8.23784 16.6229C8.17879 16.4322 8.10497 16.3295 8.09021 16.3295C8.03116 16.3442 7.67684 16.6229 7.47016 16.975C6.06766 19.3518 6.06766 22.1687 7.48492 25.0003H6.62866C6.4515 24.5895 6.28911 24.2374 6.15624 23.8559C5.2114 21.039 5.59524 18.3835 7.23395 16.3882C7.41111 16.1828 7.39634 15.904 7.36682 15.7133C7.32253 15.4786 7.23395 15.3025 7.20442 15.2732C7.13061 15.3025 6.77629 15.6399 6.55484 15.904C4.73897 18.0754 4.32561 20.995 5.35903 24.12C5.46237 24.4134 5.58047 24.6775 5.71334 25.0003H4.88661C4.53229 24.1053 4.29608 23.2397 4.16321 22.3594C3.72032 19.3518 4.59134 16.7843 6.6139 15.1264C6.87963 14.9064 6.93868 14.5836 6.93868 14.4075C6.95345 14.2168 6.92392 14.0701 6.8944 14.0408C6.79105 14.0554 6.31863 14.2902 6.11195 14.4662C3.83842 16.3001 2.84929 19.1464 3.33647 22.4768C3.45458 23.3277 3.69079 24.1347 4.00082 25.0003H3.15932C2.64261 23.4598 2.40639 21.9926 2.45068 20.5255C2.53926 17.4592 3.86795 15.0678 6.20053 13.7767C6.49579 13.6153 6.59913 13.3072 6.64342 13.1458C6.70247 12.9551 6.68771 12.8084 6.67295 12.7644C6.52532 12.7644 6.02337 12.9257 5.81669 13.0431C3.20361 14.4369 1.71253 17.0924 1.60918 20.4962C1.56489 21.9633 1.78634 23.4451 2.27353 25.0003H1.43203C0.782448 22.7115 0.664342 20.4668 1.09247 18.4275C1.71253 15.4492 3.41029 13.3219 5.8905 12.4563C6.20053 12.3536 6.36292 12.0601 6.43674 11.8987C6.51055 11.7227 6.52532 11.576 6.52532 11.532C6.51055 11.532 6.49579 11.532 6.4515 11.532C6.25958 11.532 5.87574 11.5906 5.63953 11.664C2.86405 12.603 0.974369 14.9357 0.2805 18.2514C0.118105 19.029 0.0295263 19.8506 0.0147632 20.7162L0 21.039V16.4322C0.0442895 16.3295 0.0738158 16.2268 0.118105 16.1388C1.21058 13.4099 3.15932 11.6347 5.61 11.1212C5.94955 11.0478 6.171 10.7837 6.25958 10.637C6.36292 10.4756 6.39245 10.3582 6.40721 10.3289C6.36292 10.3142 6.14147 10.2702 5.86097 10.2702C5.72811 10.2702 5.59524 10.2849 5.50666 10.2996C3.18884 10.7544 1.28439 12.1775 0 14.4516V13.0284C1.53537 10.9158 3.6465 9.74205 5.93479 9.71271C6.27434 9.71271 6.52532 9.49264 6.64342 9.3606C6.77629 9.21388 6.83534 9.08184 6.85011 9.0525C6.77629 9.00848 6.30387 8.89111 5.97908 8.89111C3.70555 8.89111 1.63871 9.87409 0 11.708V10.6077C1.19582 9.4633 2.5245 8.72973 3.94176 8.4363C4.2075 8.37761 4.35513 8.30426 4.38466 8.21623C4.42895 8.09886 4.28132 7.9228 4.10416 7.70273L4.04511 7.62938C3.15932 6.54369 3.61697 5.38466 4.2075 4.37233C2.84929 4.46036 1.46155 4.87116 0.088579 5.60473C0.0738158 5.6194 0.0590526 5.63407 0.0295263 5.64874C0.0295263 5.64874 0.0147632 5.64874 0 5.66341V4.7978C0.546237 4.51905 1.09247 4.29898 1.63871 4.12292C2.65737 3.78548 3.66126 3.60942 4.63563 3.60942C6.48103 3.60942 8.14926 4.24029 9.43366 5.42867C9.61082 5.59006 9.86179 5.63407 10.0242 5.63407C10.2899 5.63407 10.5114 5.56071 10.5557 5.53137C10.5114 5.42867 10.1866 4.98853 9.9799 4.81247C8.50358 3.49205 6.64342 2.78783 4.60611 2.78783C3.55792 2.78783 2.46545 2.97855 1.35821 3.33067C0.930079 3.47738 0.472421 3.65344 0 3.87351V3.02257C1.04818 2.58243 2.11113 2.27433 3.14455 2.12761C3.66126 2.05426 4.16321 2.01024 4.63563 2.01024C7.18966 2.01024 9.35984 3.06658 10.7476 4.97386C10.9543 5.26729 11.3233 5.29663 11.5153 5.29663C11.6924 5.29663 11.7958 5.26729 11.8253 5.25261C11.8253 5.16459 11.5596 4.68043 11.4119 4.46036C9.87655 2.34768 7.48492 1.18865 4.66516 1.18865C4.13368 1.18865 3.58745 1.23266 3.02645 1.30602C2.03732 1.45273 1.01866 1.73149 0 2.12761V1.27668C1.57966 0.704492 3.14455 0.425737 4.6504 0.425737C4.7685 0.425737 4.87184 0.425737 4.98995 0.425737C8.66597 0.528436 11.1019 2.03959 12.2239 4.9005C12.4011 5.35531 12.9473 5.48736 13.1392 5.48736C13.154 5.48736 13.1687 5.48736 13.1835 5.48736C13.1983 5.39933 13.1097 4.85649 13.0063 4.60707C12.1353 2.289 10.3194 0.689821 7.80971 0.000267064H9.83226C11.8843 1.05661 13.1097 2.72914 13.5821 5.13524C13.6854 5.67808 14.2907 5.91283 14.4384 5.91283C14.4679 5.8248 14.4679 5.25261 14.4088 4.98853C14.0398 2.94921 12.9621 1.21799 11.3086 0.000267064H12.4011C13.8921 1.42339 14.7632 3.30132 14.8517 5.26729C14.8813 5.85414 15.4718 6.22092 15.5751 6.2356C15.6194 6.14757 15.7375 5.56071 15.7228 5.26729C15.6194 3.31599 14.8813 1.49675 13.5673 0.000267064H14.5565C15.6047 1.43806 16.1066 3.06658 16.0328 4.73912C16.018 5.1059 16.2247 5.38466 16.3576 5.5167C16.4904 5.66341 16.6233 5.73677 16.6528 5.73677C16.7119 5.66341 16.8595 5.09123 16.8743 4.81247C16.9776 3.13994 16.5347 1.4674 15.5751 -0.0144043H16.4609C17.2434 1.40872 17.5091 2.96388 17.2581 4.47503C17.2138 4.76846 17.3467 5.01787 17.4796 5.17926C17.6124 5.34064 17.7601 5.44334 17.8044 5.45801C17.8634 5.38466 18.0406 4.9005 18.0849 4.60707C18.3654 3.05191 18.1439 1.49675 17.4205 0.000267064H18.2325C18.9411 1.68747 19.0149 3.43337 18.4539 5.04722C18.3358 5.36999 18.454 5.69276 18.5425 5.85414C18.6311 6.01553 18.7197 6.10355 18.7492 6.1329C18.823 6.08888 19.1331 5.64874 19.2216 5.38466C19.8417 3.66811 19.8122 1.80484 19.1331 0.0149384H19.945C20.6684 2.12761 20.5356 4.18161 19.5464 5.97151C19.384 6.26494 19.4431 6.58771 19.5021 6.74909C19.5612 6.93982 19.6498 7.05719 19.6793 7.08653C19.7531 7.04252 20.1074 6.64639 20.2403 6.41165C19.9303 5.414 20.3289 5.12057 20.9342 4.68043C21.0227 4.60707 21.1261 4.54839 21.2294 4.46036C22.1743 3.72679 22.9272 3.68278 23.0601 3.68278H23.0748C23.2815 3.68278 23.4439 3.78548 23.5472 3.96153C23.9016 4.56306 23.6358 5.91283 23.1782 6.74909C22.8091 7.42398 22.5729 7.46799 22.2924 7.49733C22.1005 7.52668 21.8938 7.55602 21.5837 7.86412C21.3328 8.11353 21.318 8.45097 21.318 8.6417C21.318 8.83243 21.3623 8.9498 21.3918 8.97914C21.4804 8.96447 21.9381 8.70039 22.1595 8.48031C24.2706 6.39698 24.6545 3.15461 24.3297 0.99792C24.2854 0.67515 24.2116 0.337708 24.1378 0.000267064H24.935C25.1417 1.01259 25.245 1.99557 25.2155 2.94921C25.1417 5.73677 24.0049 8.01083 22.0266 9.34592C21.7461 9.53665 21.6576 9.84475 21.628 10.0208C21.5985 10.2115 21.6133 10.3582 21.6428 10.3876C21.7461 10.3876 22.2628 10.1822 22.4695 10.0355C24.684 8.58301 25.9536 6.05954 26.0422 2.96388C26.0717 2.02491 25.9832 1.01259 25.7765 0.000267064H26.5885C26.9132 1.7755 26.8985 3.46271 26.5737 5.04722C25.9979 7.84945 24.4035 9.93278 22.1005 10.8864C21.7904 11.0185 21.6576 11.2972 21.5985 11.4586C21.5247 11.6347 21.5247 11.796 21.5247 11.8401C21.5247 11.8401 21.5395 11.8401 21.5542 11.8401C21.7166 11.8401 22.2038 11.7374 22.4105 11.6493C24.9793 10.6077 26.7508 8.31893 27.4004 5.2086C27.74 3.58008 27.7547 1.81952 27.4447 0.000267064H28.2862C28.6848 2.64111 28.4338 5.17926 27.5628 7.35062C26.4703 10.0795 24.5068 11.8547 22.0266 12.3682C21.7018 12.4416 21.4952 12.691 21.4066 12.8377C21.3032 13.0138 21.2589 13.1605 21.2737 13.1898C21.2885 13.1898 21.4066 13.2045 21.628 13.2045C21.8347 13.2045 22.0414 13.1898 22.1447 13.1751C24.9202 12.647 27.1052 10.681 28.3157 7.65872ZM7.78019 7.95215C7.78019 7.89346 7.1749 7.64405 6.90916 7.60003C6.42197 7.49733 6.25958 7.45332 6.0529 7.24792C5.80192 6.99851 5.78716 6.63172 5.80192 6.16224C5.80192 5.64874 5.65429 4.70977 5.28521 4.6951C4.75374 4.6951 4.6504 5.32597 4.63563 6.11823C4.63563 7.05719 5.24092 7.15989 5.24092 7.76142C5.24092 7.93747 5.13758 8.14287 5.31474 8.14287C5.7724 8.14287 6.21529 8.18689 6.67295 8.27492C7.26347 8.40696 7.79495 8.04017 7.78019 7.95215ZM8.415 6.92515C8.37071 6.86646 8.0164 6.64639 7.7359 6.49968C7.69161 6.48501 7.66208 6.47034 7.61779 6.45567C7.33729 6.32362 7.08632 6.20625 7.0125 5.67808V5.60473L7.07155 5.6194C7.5735 5.79545 8.03116 6.04487 8.47405 6.32362C8.59216 6.41165 8.73979 6.45567 8.90219 6.45567C9.24174 6.45567 9.537 6.27961 9.58129 6.2356C9.537 6.14757 9.1384 5.78078 8.90219 5.63407C8.07545 5.09123 7.1749 4.70977 6.20053 4.51905C6.42197 4.7978 6.6139 5.2086 6.79105 5.79545C6.87963 6.10355 6.92392 6.35297 6.95345 6.54369C7.02726 6.93982 7.05679 7.13055 7.35205 7.23325C7.42587 7.26259 7.52921 7.27726 7.61779 7.27726C8.03116 7.27726 8.38547 6.99851 8.415 6.92515ZM11.2348 13.3219C11.1167 13.1311 10.9395 13.0871 10.7919 12.9698C9.87655 12.3976 8.84313 11.4879 9.09411 10.2849C8.82837 10.3729 8.51834 10.4463 8.40024 10.7104C8.10497 11.796 8.90219 12.7203 9.75845 13.3805C10.2899 13.8354 9.19745 14.0848 9.37461 14.7156C9.46319 14.9944 9.61082 15.5226 9.99466 15.4345C10.2604 14.5836 11.0281 14.1875 11.2348 13.3219ZM20.0484 10.0648C19.0149 10.3142 17.1548 9.58067 16.5643 10.8277C16.1066 10.2115 15.3537 9.84475 14.5269 9.90344C13.8774 9.96212 13.3754 10.1822 12.9916 10.637C12.7997 10.8717 12.6963 11.2532 12.4011 11.4586C12.032 10.1822 10.5409 10.3436 9.40413 10.2409C9.37461 12.5736 11.8991 11.0185 12.593 12.2215C12.6077 12.2509 12.6225 12.2802 12.6225 12.2802C13.0949 11.1945 13.9069 10.8864 14.9108 10.8864H14.9256C15.5899 10.9158 15.8409 11.1652 16.0033 11.4439L16.8152 14.0848C16.9038 14.3048 16.9038 14.789 17.2138 14.4369C17.5534 13.7033 16.9629 12.8964 16.9481 12.1775V12.1628C16.9481 11.6347 17.3762 11.2092 17.9077 11.2092C18.0849 11.2092 18.262 11.2532 18.3949 11.3412C18.9411 11.1358 19.2659 10.2702 19.8564 10.5343C19.7383 11.6933 17.7896 11.796 18.2325 13.1165C19.5317 12.8671 20.9784 11.2239 20.0484 10.0648ZM21.569 7.17456C22.0119 6.70508 22.3957 6.20625 22.6762 5.67808C22.9567 5.14991 22.5138 4.62175 22.44 4.63642C21.5099 4.72445 21.6871 5.81013 20.9342 6.66107C20.5208 7.13055 20.6979 7.74675 20.7718 7.77609C20.8456 7.80543 21.3771 7.37996 21.569 7.17456ZM22.8386 3.1106L22.8977 3.08125C23.0601 2.99322 23.1634 3.0079 23.252 3.0079H23.2667C23.3848 3.0079 23.4882 3.06658 23.5472 3.13994L23.6063 3.22797V3.12527C23.6211 2.5971 23.5915 1.74616 23.503 1.12996C23.4439 0.777849 23.3701 0.396394 23.2815 0.0149384H22.4843C22.75 0.99792 22.8681 1.99557 22.8386 3.05191V3.1106ZM21.1704 3.91752L21.1556 4.02022L21.2294 3.94686C21.318 3.85884 21.5395 3.72679 21.7314 3.60942C21.82 3.56541 21.8938 3.50672 21.9528 3.47738L21.9676 3.46271V3.44804C22.0562 2.36236 21.9233 1.08595 21.6133 0.000267064H20.8308C21.2442 1.262 21.3475 2.50907 21.1704 3.91752ZM54.727 17.826V24.9856H56.5134C62.1381 24.9856 65.9323 22.2567 65.9323 17.2978V15.3172C65.9323 12.9551 67.2905 11.532 69.5345 11.532H69.8445V4.40168H67.9991C61.5329 4.40168 58.1816 7.76142 58.1816 12.9551V14.6423C58.1816 16.5789 57.0448 17.826 55.1256 17.826H54.727ZM68.9882 17.826V24.9856H70.7894C76.3994 24.9856 80.2082 22.2567 80.2082 17.2978V15.3172C80.2082 12.9551 81.5665 11.532 83.8105 11.532H84.1205V4.40168H82.2751C75.8088 4.40168 72.4576 7.76142 72.4576 12.9551V14.6423C72.4576 16.5789 71.3208 17.826 69.4016 17.826H68.9882ZM43.5513 25.0003V17.8406H42.4736C40.7316 17.8406 39.3143 16.4322 39.3143 14.701C39.3143 12.9698 40.7316 11.5613 42.4736 11.5613C44.4076 11.5613 45.382 12.823 45.382 14.701V25.0149H52.8964V14.701C52.8964 8.99381 48.2165 4.35766 42.4736 4.35766C36.7307 4.35766 32.0656 9.00848 32.0656 14.701C32.0656 20.4081 36.7455 25.0149 42.4736 25.0149H43.5513V25.0003ZM96.3001 25.0003V17.8406H95.2224C93.4803 17.8406 92.0631 16.4322 92.0631 14.701C92.0631 12.9698 93.4803 11.5613 95.2224 11.5613C97.1416 11.5613 98.116 12.823 98.116 14.701V25.0149H105.63V14.701C105.63 8.99381 100.965 4.35766 95.2224 4.35766C89.4795 4.35766 84.7996 9.00848 84.7996 14.701C84.7996 20.4081 89.4795 25.0149 95.2224 25.0149H96.3001V25.0003ZM0.561 25.0003C0.2805 24.12 0.0295263 22.9756 0 21.9193V25.0003H0.561ZM0 0.455079C0.442895 0.279023 1.21058 0.0296098 2.05208 0.000267064H0V0.455079ZM28.7734 23.5478V22.6528V23.5478ZM28.7734 24.4428C28.1976 24.6775 27.3266 24.9416 26.1456 25.0003H28.7734V24.4428Z" fill="white"/>
</g>
<defs>
<clipPath id="clip0">
<rect width="105.645" height="25" fill="white"/>
</clipPath>
</defs>
</svg>
