<svg id="Layer_1" data-name="Layer 1" xmlns="http://www.w3.org/2000/svg" xmlns:xlink="http://www.w3.org/1999/xlink" height="100%"  viewBox="0 0 89.11 129.26"><defs><style>.cls-1{fill:none;}.cls-2{clip-path:url(#clip-path);}.cls-3{clip-path:url(#clip-path-2);}.cls-4{fill:#e0e0e0;}.cls-5{fill:#c6c6c5;}.cls-6{fill:#d2d2d1;}.cls-7{fill:#fff;}.cls-8{fill:#b0b0b0;}.cls-9{fill:#194b9e;}</style><clipPath id="clip-path"><rect class="cls-1" width="89.11" height="129.26"/></clipPath><clipPath id="clip-path-2"><rect class="cls-1" x="-4.56" y="0.05" width="189.07" height="129.28"/></clipPath></defs><g class="cls-2"><g class="cls-3"><rect class="cls-4" x="-6.03" y="-1.55" width="13.35" height="51.51" rx="1.48"/><path class="cls-4" d="M89.51-.78c.69-.42.59-.77-.22-.77H21.13c-.81,0-.93.38-.26.84L51.65,20.56a2.5,2.5,0,0,0,2.48.07Z"/><rect class="cls-4" x="-6.03" y="53.05" width="13.35" height="35.64" rx="1.48"/><rect class="cls-4" x="11.82" y="123.99" width="22.7" height="6.8" rx="1.48"/><rect class="cls-4" x="-6.03" y="91.78" width="13.35" height="29.13" rx="1.48"/><rect class="cls-4" x="-6.03" y="123.99" width="13.35" height="6.8" rx="1.48"/><path class="cls-4" d="M69.09,32.61a2.57,2.57,0,0,0,2.49.1L109.08,11a7.24,7.24,0,0,0,2.07-2L117.07-.3c.44-.69.13-1.25-.68-1.25H99.05a6.26,6.26,0,0,0-2.74.77l-39,23.6a.89.89,0,0,0,0,1.61Z"/><path class="cls-4" d="M74.76,34.91a.86.86,0,0,0-.06,1.58l10.24,7.08a2.61,2.61,0,0,0,2.5.12l42.71-23.58a6.8,6.8,0,0,1,2.76-.71h33.72a1.47,1.47,0,0,0,1.47-1.47v-18a1.47,1.47,0,0,0-1.47-1.48H124.25A3,3,0,0,0,122-.3l-7.12,11.24a7.19,7.19,0,0,1-2.06,2Z"/><path class="cls-4" d="M83.56,49.88a5.68,5.68,0,0,0-1.75-2.22L60.61,33a3.41,3.41,0,0,0-2.61-.4L40.43,38.23A2.16,2.16,0,0,0,39,40.15V87.22a1.47,1.47,0,0,0,1.47,1.47H63.22a10.33,10.33,0,0,0,2.87-.48l27.15-9.48a1.41,1.41,0,0,0,.88-1.8s0,0,0-.06Z"/><rect class="cls-5" x="11.82" y="91.78" width="22.7" height="29.13" rx="1.48"/><path class="cls-4" d="M40.5,124A1.48,1.48,0,0,0,39,125.46v3.83a1.48,1.48,0,0,0,1.48,1.48H97.71c.81,0,.86-.25.11-.55l-14.09-5.67a8.9,8.9,0,0,0-2.84-.56Z"/><path class="cls-4" d="M13.05,56c-.68-.45-1.23-.15-1.23.66v30.6a1.47,1.47,0,0,0,1.47,1.47H33a1.47,1.47,0,0,0,1.48-1.47V71.66a3.05,3.05,0,0,0-1.23-2.29Z"/><path class="cls-5" d="M102.73,96.44a4.73,4.73,0,0,1-1.84-2.07l-4.55-11.7a1.55,1.55,0,0,0-1.93-.89l-25,8.72a1.2,1.2,0,0,0-.8,1.51,1.23,1.23,0,0,0,.12.26l14.85,27a2.13,2.13,0,0,0,2.16,1l42.34-9c.8-.16.86-.62.15-1Z"/><path class="cls-4" d="M40.5,91.78A1.48,1.48,0,0,0,39,93.26v26.17a1.48,1.48,0,0,0,1.48,1.48H78.24a.81.81,0,0,0,.77-1.3L64.39,93.07a2.75,2.75,0,0,0-2.19-1.29Z"/><path class="cls-6" d="M34.52,38.19a2.16,2.16,0,0,1,1.4-1.92l18.7-6c.78-.25.86-.83.19-1.29L13,.13c-.67-.46-1.21-.17-1.21.64V49.38a3.09,3.09,0,0,0,1.23,2.29L33.29,65.08c.67.45,1.23.15,1.23-.66Z"/><path class="cls-7" d="M146.88,100.54a1.47,1.47,0,0,1,1.48-1.47h37.08a1.48,1.48,0,0,0,1.48-1.48v-.14A1.47,1.47,0,0,0,185.44,96H148.36a1.48,1.48,0,0,1-1.48-1.48V89.42A1.47,1.47,0,0,1,148.36,88h37.08a1.48,1.48,0,0,0,1.48-1.48v-.14a1.47,1.47,0,0,0-1.48-1.47H148.36a1.48,1.48,0,0,1-1.48-1.48V81.06A2.49,2.49,0,0,1,148.23,79l23-10.31a2.48,2.48,0,0,0,1.34-2.08V25.29a1.48,1.48,0,0,1,1.48-1.48h11.36a1.47,1.47,0,0,0,1.48-1.47V20.86a1.47,1.47,0,0,0-1.48-1.47H174.08a1.48,1.48,0,0,1-1.48-1.48v-18a1.47,1.47,0,0,0-1.47-1.48h-1.55A1.48,1.48,0,0,0,168.1-.07v18a1.47,1.47,0,0,1-1.47,1.47H132.91a6.8,6.8,0,0,0-2.76.71L87.44,43.69a2.61,2.61,0,0,1-2.5-.13L74.7,36.48a.86.86,0,0,1,.06-1.58l38-22a7.14,7.14,0,0,0,2.07-2L122-.3c.44-.69.13-1.25-.69-1.25h-2A3,3,0,0,0,117.07-.3l-5.92,9.35a7.33,7.33,0,0,1-2.06,2L71.58,32.71a2.59,2.59,0,0,1-2.5-.1L57.25,24.43a.88.88,0,0,1,0-1.6l39-23.61c.69-.42.59-.76-.21-.76H92.25a6.25,6.25,0,0,0-2.74.76L54.13,20.63a2.5,2.5,0,0,1-2.48-.07L20.88-.71a5.71,5.71,0,0,0-2.69-.84H8.79A1.47,1.47,0,0,0,7.32-.07V48.48A1.48,1.48,0,0,1,5.84,50H-4.56A1.47,1.47,0,0,0-6,51.44v.13a1.47,1.47,0,0,0,1.47,1.48H5.84a1.47,1.47,0,0,1,1.48,1.47v32.7a1.47,1.47,0,0,1-1.48,1.47H-4.56A1.47,1.47,0,0,0-6,90.17v.14a1.47,1.47,0,0,0,1.47,1.47H5.84a1.48,1.48,0,0,1,1.48,1.48v26.17a1.48,1.48,0,0,1-1.48,1.48H-4.56A1.47,1.47,0,0,0-6,122.38v.13A1.47,1.47,0,0,0-4.56,124H5.84a1.48,1.48,0,0,1,1.48,1.48v3.83a1.47,1.47,0,0,0,1.47,1.48h1.55a1.48,1.48,0,0,0,1.48-1.48v-3.83A1.47,1.47,0,0,1,13.29,124H33a1.48,1.48,0,0,1,1.48,1.48v3.83A1.47,1.47,0,0,0,36,130.77h1.56A1.47,1.47,0,0,0,39,129.29v-3.83A1.48,1.48,0,0,1,40.5,124H80.89a9.17,9.17,0,0,1,2.84.55l14.09,5.7a9.17,9.17,0,0,0,2.84.55h5.92c.81,0,.86-.25.11-.55l-16.82-6.79c-.75-.3-.72-.69.08-.86l42.46-9a4.71,4.71,0,0,1,2.74.41l29.6,16.06a7,7,0,0,0,2.78.7h7.41c.81,0,.89-.32.18-.7l-26.94-14.62a2.74,2.74,0,0,1-1.3-2.18Zm-14.46-76a6.8,6.8,0,0,1,2.77-.71h31.44a1.47,1.47,0,0,1,1.47,1.47V64.92A2.46,2.46,0,0,1,166.75,67l-3.52,1.58a2.1,2.1,0,0,1-2.31-.52L151.61,57.1a4.18,4.18,0,0,0-2.42-1.27l-13.43-1.39a4.46,4.46,0,0,1-2.46-1.24L116.68,34.83a1.12,1.12,0,0,1,0-1.58A1.24,1.24,0,0,1,117,33Zm-21.54,11.9a2,2,0,0,1,2.28.38l17.43,19.26a4.54,4.54,0,0,0,2.46,1.25l13.35,1.37A4.31,4.31,0,0,1,148.83,60l8.32,9.8a1,1,0,0,1,0,1.48,1,1,0,0,1-.39.24l-13,5.84a2.49,2.49,0,0,0-1.35,2.08v31.46a.8.8,0,0,1-1.29.77l-32.7-17.74a4.57,4.57,0,0,1-1.83-2.08L90.09,49.56a1.75,1.75,0,0,1,.76-2.09ZM13.05,51.67a3.09,3.09,0,0,1-1.23-2.29V.77c0-.81.54-1.1,1.21-.64L54.81,29c.67.46.59,1-.19,1.29l-18.7,6a2.16,2.16,0,0,0-1.4,1.92V64.42c0,.81-.56,1.11-1.23.66Zm.24,37a1.47,1.47,0,0,1-1.47-1.47V56.62c0-.81.55-1.11,1.23-.66L33.29,69.37a3.05,3.05,0,0,1,1.23,2.29V87.22A1.47,1.47,0,0,1,33,88.69Zm27.21,0A1.47,1.47,0,0,1,39,87.22V40.16a2.14,2.14,0,0,1,1.41-1.92L58,32.63a3.37,3.37,0,0,1,2.61.39l21.2,14.65a5.72,5.72,0,0,1,1.75,2.21l10.52,27a1.42,1.42,0,0,1-.8,1.84l-.06,0L66.07,88.21a10.27,10.27,0,0,1-2.86.49ZM13.29,120.91a1.47,1.47,0,0,1-1.47-1.48V93.26a1.47,1.47,0,0,1,1.47-1.48H33a1.48,1.48,0,0,1,1.48,1.48v26.17A1.48,1.48,0,0,1,33,120.91Zm27.21,0A1.48,1.48,0,0,1,39,119.43V93.26a1.48,1.48,0,0,1,1.48-1.48H62.2a2.75,2.75,0,0,1,2.19,1.29L79,119.61c.39.72,0,1.3-.77,1.3Zm45.28-.67a2.13,2.13,0,0,1-2.16-1l-14.85-27a1.19,1.19,0,0,1,.68-1.77l25-8.73a1.55,1.55,0,0,1,1.93.89l4.55,11.69a4.76,4.76,0,0,0,1.84,2.06l25.54,13.87c.71.39.65.84-.15,1Z"/></g><ellipse class="cls-8" cx="40.47" cy="53.98" rx="8.53" ry="2.13"/><path class="cls-9" d="M49.62,35a9.12,9.12,0,1,0-18.24-.32,1.71,1.71,0,0,0,0,.32s-.72,6.42,9.12,19.1C50.33,41.42,49.62,35,49.62,35Z"/></g></svg>