<svg width="89.11" height="167" viewBox="0 0 89.11 167" fill="none" preserveAspectRatio="xMidYMin slice" xmlns="http://www.w3.org/2000/svg">
<path d="M99.0302 1.95485C99.9141 1.42652 99.7824 0.991211 98.7593 0.991211H11.8711C10.8368 0.991211 10.6863 1.46745 11.5401 2.05159L50.7752 28.8623C51.247 29.1498 51.7867 29.3098 52.3406 29.3261C52.8944 29.3424 53.4429 29.2146 53.9311 28.9553L99.0302 1.95485Z" fill="#EAEAEA"/>
<path d="M27.0557 159.281H1.8807C0.842017 159.281 0 160.114 0 161.141V165.989C0 167.016 0.842017 167.849 1.8807 167.849H27.0557C28.0944 167.849 28.9364 167.016 28.9364 165.989V161.141C28.9364 160.114 28.0944 159.281 27.0557 159.281Z" fill="#E0E0E0"/>
<path d="M221.313 113.83H174.043C173.005 113.83 172.163 114.663 172.163 115.69V122.097C172.163 123.125 173.005 123.957 174.043 123.957H221.313C222.351 123.957 223.193 123.125 223.193 122.097V115.69C223.193 114.663 222.351 113.83 221.313 113.83Z" fill="#EAEAEA"/>
<path d="M204.947 86.9002C204.918 87.4476 204.744 87.9778 204.443 88.438C204.142 88.8982 203.725 89.2724 203.232 89.5233L173.893 102.527C173.402 102.775 172.985 103.146 172.683 103.603C172.382 104.06 172.206 104.587 172.174 105.131V108.063C172.174 108.556 172.372 109.03 172.725 109.379C173.078 109.727 173.556 109.923 174.055 109.923H221.317C221.815 109.923 222.294 109.727 222.647 109.379C222.999 109.03 223.197 108.556 223.197 108.063V34.8079C223.197 34.3146 222.999 33.8414 222.647 33.4925C222.294 33.1436 221.815 32.9476 221.317 32.9476H206.828C206.329 32.9476 205.851 33.1436 205.498 33.4925C205.145 33.8414 204.947 34.3146 204.947 34.8079V86.9002Z" fill="#EAEAEA"/>
<path d="M73.0012 44.0573C73.4755 44.3447 74.0162 44.5072 74.5719 44.5294C75.1276 44.5515 75.6798 44.4325 76.1759 44.1838L123.983 16.8485C125.023 16.1999 125.919 15.3493 126.616 14.3482L134.165 2.56503C134.718 1.69813 134.327 0.991211 133.293 0.991211H111.194C109.972 1.04384 108.777 1.37352 107.704 1.95485L57.9782 31.7197C57.0943 32.2518 57.068 33.1596 57.918 33.7438L73.0012 44.0573Z" fill="#EAEAEA"/>
<path d="M80.2305 46.9556C79.3353 47.4691 79.2977 48.362 80.1515 48.9462L93.2036 57.8756C93.6801 58.1641 94.2222 58.3295 94.7801 58.3568C95.3381 58.3841 95.894 58.2724 96.397 58.0319L150.832 28.3005C151.93 27.7573 153.133 27.4516 154.36 27.4038H197.33C197.829 27.4038 198.307 27.2078 198.66 26.859C199.013 26.5101 199.211 26.0369 199.211 25.5435V2.85152C199.211 2.35813 199.013 1.88496 198.66 1.53608C198.307 1.18721 197.829 0.991211 197.33 0.991211H143.309C142.739 1.02328 142.184 1.1813 141.684 1.45367C141.184 1.72603 140.752 2.1058 140.42 2.56503L131.348 16.7368C130.649 17.7371 129.754 18.5875 128.715 19.2371L80.2305 46.9556Z" fill="#EAEAEA"/>
<path d="M221.313 0.991211H206.828C205.789 0.991211 204.947 1.8241 204.947 2.85152V25.5249C204.947 26.5523 205.789 27.3852 206.828 27.3852H221.313C222.352 27.3852 223.194 26.5523 223.194 25.5249V2.85152C223.194 1.8241 222.352 0.991211 221.313 0.991211Z" fill="#EAEAEA"/>
<path d="M91.447 65.8301C90.9527 64.7281 90.1856 63.7671 89.2165 63.0359L62.1984 44.5705C61.7052 44.2722 61.1564 44.0746 60.5847 43.9897C60.0129 43.9047 59.4297 43.9339 58.8696 44.0757L36.4743 51.1448C35.9677 51.3302 35.5277 51.6592 35.2092 52.0907C34.8907 52.5222 34.708 53.037 34.6838 53.5707V112.911C34.6838 113.404 34.882 113.877 35.2347 114.226C35.5874 114.575 36.0657 114.771 36.5645 114.771H65.5273C66.769 114.737 67.9997 114.53 69.1833 114.157L103.788 102.214C104.019 102.135 104.231 102.011 104.413 101.849C104.594 101.687 104.74 101.491 104.842 101.271C104.944 101.052 105.001 100.814 105.008 100.573C105.015 100.331 104.972 100.091 104.883 99.8662L91.447 65.8301Z" fill="#EAEAEA"/>
<path opacity="0.5" d="M27.0557 118.667H1.8807C0.842017 118.667 0 119.5 0 120.527V153.529C0 154.556 0.842017 155.389 1.8807 155.389H27.0557C28.0944 155.389 28.9364 154.556 28.9364 153.529V120.527C28.9364 119.5 28.0944 118.667 27.0557 118.667Z" fill="#A3A2A2"/>
<path d="M36.557 159.266C36.0582 159.266 35.5798 159.462 35.2271 159.811C34.8744 160.16 34.6763 160.633 34.6763 161.126V165.963C34.6763 166.456 34.8744 166.93 35.2271 167.278C35.5798 167.627 36.0582 167.823 36.557 167.823H109.487C110.521 167.823 110.585 167.511 109.626 167.128L91.6689 159.977C90.5056 159.555 89.2814 159.32 88.0429 159.281L36.557 159.266Z" fill="#E0E0E0"/>
<path d="M1.5685 73.4985C0.707141 72.933 0 73.3088 0 74.3319V112.911C0 113.404 0.198144 113.878 0.550843 114.226C0.903542 114.575 1.3819 114.771 1.8807 114.771H27.0557C27.5545 114.771 28.0329 114.575 28.3856 114.226C28.7383 113.878 28.9364 113.404 28.9364 112.911V93.2959C28.9035 92.7307 28.746 92.1794 28.4751 91.6806C28.2042 91.1819 27.8263 90.7478 27.3679 90.4087L1.5685 73.4985Z" fill="#EAEAEA"/>
<path opacity="0.5" d="M115.881 124.534C114.858 123.916 114.044 123.009 113.545 121.93L107.741 107.178C107.552 106.717 107.192 106.345 106.735 106.137C106.278 105.93 105.758 105.903 105.282 106.061L73.4601 117.052C73.2376 117.12 73.0335 117.237 72.8634 117.394C72.6932 117.551 72.5613 117.745 72.4776 117.96C72.3939 118.175 72.3607 118.405 72.3804 118.635C72.4001 118.864 72.4722 119.087 72.5912 119.285L91.5299 153.313C91.8098 153.768 92.2208 154.13 92.7101 154.352C93.1993 154.574 93.7445 154.646 94.2757 154.56L148.252 143.268C149.263 143.059 149.346 142.486 148.44 141.999L115.881 124.534Z" fill="#A3A2A2"/>
<path d="M223.197 129.713C223.197 129.22 222.999 128.747 222.646 128.398C222.294 128.049 221.815 127.853 221.317 127.853H174.043C173.545 127.853 173.066 128.049 172.714 128.398C172.361 128.747 172.163 129.22 172.163 129.713V145.786C172.194 146.342 172.361 146.882 172.649 147.36C172.937 147.838 173.338 148.241 173.818 148.532L208.159 166.964C209.261 167.5 210.464 167.801 211.691 167.85H221.317C221.815 167.85 222.294 167.654 222.646 167.305C222.999 166.956 223.197 166.483 223.197 165.989V129.713Z" fill="#E0E0E0"/>
<path d="M36.557 118.667C36.0582 118.667 35.5798 118.863 35.2271 119.212C34.8744 119.56 34.6763 120.034 34.6763 120.527V153.529C34.6763 154.022 34.8744 154.495 35.2271 154.844C35.5798 155.193 36.0582 155.389 36.557 155.389H84.6727C85.7071 155.389 86.1472 154.645 85.6469 153.76L67.0167 120.296C66.7173 119.824 66.3075 119.429 65.8219 119.145C65.3362 118.862 64.7889 118.698 64.2258 118.667H36.557Z" fill="#E0E0E0"/>
<path opacity="0.5" d="M28.9364 51.0966C28.9606 50.5629 29.1433 50.0481 29.4618 49.6166C29.7802 49.1852 30.2203 48.8562 30.7268 48.6708L54.5628 41.1403C55.5483 40.8278 55.6611 40.0985 54.8073 39.5181L1.54969 3.1082C0.695857 2.52779 0 2.88869 0 3.91185V65.1978C0.0329202 65.763 0.190363 66.3143 0.461304 66.813C0.732244 67.3118 1.11013 67.7459 1.5685 68.085L27.3679 84.9951C28.2293 85.5607 28.9364 85.1849 28.9364 84.1617V51.0966Z" fill="#A3A2A2"/>
<path d="M99.6054 157.514C98.5936 157.722 98.5484 158.209 99.5076 158.593L120.948 167.15C122.11 167.572 123.333 167.807 124.57 167.846H194.716C195.75 167.846 195.844 167.448 194.942 166.96L157.207 146.713C156.121 146.198 154.903 146.022 153.713 146.207L99.6054 157.514Z" fill="#E0E0E0"/>
<path opacity="0.5" d="M175.097 73.346C176.278 73.5283 177.364 74.0937 178.185 74.9533L190.052 88.7494C190.418 89.1387 190.894 89.4099 191.418 89.5274C191.942 89.6449 192.49 89.6032 192.99 89.4079L197.485 87.4137C197.976 87.1655 198.393 86.7945 198.694 86.3377C198.996 85.8808 199.171 85.3539 199.203 84.8092V34.8079C199.203 34.3146 199.005 33.8414 198.653 33.4925C198.3 33.1436 197.822 32.9476 197.323 32.9476H157.249C156.023 32.9971 154.821 33.304 153.724 33.848L134.052 44.5931C133.846 44.6915 133.666 44.8378 133.529 45.0194C133.392 45.2011 133.301 45.4128 133.264 45.6366C133.227 45.8605 133.245 46.0898 133.317 46.3052C133.389 46.5206 133.512 46.7157 133.676 46.8739L154.86 70.031C155.711 70.8678 156.808 71.4173 157.994 71.6011L175.097 73.346Z" fill="#A3A2A2"/>
<path d="M120.763 118.711C121.256 119.799 122.071 120.714 123.099 121.334L164.772 143.699C165.682 144.186 166.427 143.747 166.427 142.724V103.04C166.456 102.493 166.63 101.963 166.931 101.502C167.232 101.042 167.649 100.668 168.142 100.417L184.752 93.0578C184.965 92.9834 185.154 92.8571 185.304 92.6906C185.454 92.5242 185.558 92.323 185.608 92.1058C185.658 91.8886 185.652 91.6624 185.589 91.4483C185.527 91.2342 185.411 91.0392 185.253 90.8813L174.623 78.5288C173.801 77.6712 172.715 77.1062 171.535 76.9215L154.511 75.1803C153.325 74.9973 152.228 74.4477 151.377 73.6102L129.166 49.3295C128.795 48.9544 128.313 48.7058 127.79 48.6195C127.267 48.5332 126.729 48.6138 126.255 48.8495L100.738 62.7906C100.292 63.0488 99.9516 63.4533 99.7757 63.9337C99.5998 64.4142 99.5995 64.9404 99.7748 65.4211L120.763 118.711Z" fill="#EAEAEA"/>
<path d="M36.5234 73.6841C42.5249 73.6841 47.3901 72.4814 47.3901 70.9978C47.3901 69.5142 42.5249 68.3115 36.5234 68.3115C30.5219 68.3115 25.6567 69.5142 25.6567 70.9978C25.6567 72.4814 30.5219 73.6841 36.5234 73.6841Z" fill="#A3A2A2"/>
<path d="M48.1877 47.0782C48.2155 45.5503 47.9352 44.0322 47.3633 42.6126C46.7914 41.193 45.9393 39.9004 44.8568 38.8101C43.7742 37.7199 42.4829 36.8539 41.0583 36.2628C39.6337 35.6716 38.1042 35.3672 36.5593 35.3672C35.0144 35.3672 33.485 35.6716 32.0604 36.2628C30.6357 36.8539 29.3444 37.7199 28.2619 38.8101C27.1794 39.9004 26.3272 41.193 25.7553 42.6126C25.1834 44.0322 24.9032 45.5503 24.931 47.0782C24.931 47.0782 24.0245 55.1631 36.5612 71.158C49.0904 55.1631 48.1877 47.0782 48.1877 47.0782Z" fill="#1749A0"/>
</svg>
