<svg width="96" height="163" viewBox="0 0 96 163" fill="none" xmlns="http://www.w3.org/2000/svg">
<g clip-path="url(#clip0)">
<path d="M98.902 -1.04515C99.7859 -1.57348 99.6543 -2.00879 98.6312 -2.00879H11.743C10.7086 -2.00879 10.5581 -1.53255 11.412 -0.948415L50.6471 25.8623C51.1188 26.1498 51.6586 26.3098 52.2124 26.3261C52.7662 26.3424 53.3147 26.2146 53.8029 25.9553L98.902 -1.04515Z" fill="#EAEAEA"/>
<path d="M26.9275 156.281H1.75252C0.713843 156.281 -0.128174 157.114 -0.128174 158.141V162.989C-0.128174 164.016 0.713843 164.849 1.75252 164.849H26.9275C27.9662 164.849 28.8082 164.016 28.8082 162.989V158.141C28.8082 157.114 27.9662 156.281 26.9275 156.281Z" fill="#E0E0E0"/>
<path d="M72.8729 41.0573C73.3472 41.3447 73.8879 41.5072 74.4436 41.5294C74.9993 41.5515 75.5515 41.4325 76.0476 41.1838L123.855 13.8485C124.895 13.1999 125.79 12.3493 126.488 11.3482L134.037 -0.43497C134.59 -1.30187 134.199 -2.00879 133.164 -2.00879H111.066C109.843 -1.95616 108.649 -1.62648 107.576 -1.04515L57.8499 28.7197C56.966 29.2518 56.9397 30.1596 57.7898 30.7438L72.8729 41.0573Z" fill="#EAEAEA"/>
<path d="M80.1024 43.9556C79.2072 44.4691 79.1695 45.362 80.0234 45.9462L93.0754 54.8756C93.5519 55.1641 94.094 55.3295 94.652 55.3568C95.2099 55.3841 95.7659 55.2724 96.2688 55.0319L150.704 25.3005C151.802 24.7573 153.005 24.4516 154.232 24.4038H197.202C197.701 24.4038 198.179 24.2078 198.532 23.859C198.885 23.5101 199.083 23.0369 199.083 22.5435V-0.148483C199.083 -0.641867 198.885 -1.11504 198.532 -1.46392C198.179 -1.81279 197.701 -2.00879 197.202 -2.00879H143.181C142.611 -1.97672 142.056 -1.8187 141.556 -1.54633C141.056 -1.27397 140.624 -0.894202 140.292 -0.43497L131.22 13.7368C130.521 14.7371 129.626 15.5875 128.587 16.2371L80.1024 43.9556Z" fill="#EAEAEA"/>
<path d="M91.3188 62.8301C90.8245 61.7281 90.0574 60.7671 89.0883 60.0359L62.0703 41.5705C61.577 41.2722 61.0283 41.0746 60.4565 40.9897C59.8847 40.9047 59.3016 40.9339 58.7414 41.0757L36.3461 48.1448C35.8395 48.3302 35.3995 48.6592 35.081 49.0907C34.7626 49.5222 34.5798 50.037 34.5557 50.5707V109.911C34.5557 110.404 34.7538 110.877 35.1065 111.226C35.4592 111.575 35.9376 111.771 36.4364 111.771H65.3991C66.6408 111.737 67.8715 111.53 69.0552 111.157L103.66 99.214C103.891 99.1353 104.103 99.0113 104.284 98.8493C104.466 98.6872 104.612 98.4906 104.714 98.2713C104.816 98.0519 104.873 97.8143 104.88 97.5729C104.887 97.3314 104.844 97.091 104.755 96.8662L91.3188 62.8301Z" fill="#EAEAEA"/>
<path opacity="0.5" d="M26.9275 115.667H1.75252C0.713843 115.667 -0.128174 116.5 -0.128174 117.527V150.529C-0.128174 151.556 0.713843 152.389 1.75252 152.389H26.9275C27.9662 152.389 28.8082 151.556 28.8082 150.529V117.527C28.8082 116.5 27.9662 115.667 26.9275 115.667Z" fill="#A3A2A2"/>
<path d="M36.4288 156.266C35.93 156.266 35.4516 156.462 35.0989 156.811C34.7462 157.16 34.5481 157.633 34.5481 158.126V162.963C34.5481 163.456 34.7462 163.93 35.0989 164.278C35.4516 164.627 35.93 164.823 36.4288 164.823H109.358C110.393 164.823 110.457 164.511 109.498 164.128L91.5407 156.977C90.3774 156.555 89.1532 156.32 87.9148 156.281L36.4288 156.266Z" fill="#E0E0E0"/>
<path d="M1.44033 70.4985C0.578967 69.933 -0.128174 70.3088 -0.128174 71.3319V109.911C-0.128174 110.404 0.0699704 110.878 0.422669 111.226C0.775368 111.575 1.25373 111.771 1.75252 111.771H26.9275C27.4263 111.771 27.9047 111.575 28.2574 111.226C28.6101 110.878 28.8082 110.404 28.8082 109.911V90.2959C28.7753 89.7307 28.6179 89.1794 28.3469 88.6806C28.076 88.1819 27.6981 87.7478 27.2397 87.4087L1.44033 70.4985Z" fill="#EAEAEA"/>
<path opacity="0.5" d="M115.753 121.534C114.729 120.916 113.916 120.009 113.417 118.93L107.613 104.178C107.424 103.717 107.064 103.345 106.607 103.137C106.15 102.93 105.63 102.903 105.153 103.061L73.3318 114.052C73.1093 114.12 72.9053 114.237 72.7351 114.394C72.5649 114.551 72.433 114.745 72.3493 114.96C72.2656 115.175 72.2324 115.405 72.2521 115.635C72.2718 115.864 72.3439 116.087 72.4629 116.285L91.4016 150.313C91.6815 150.768 92.0925 151.13 92.5818 151.352C93.071 151.574 93.6162 151.646 94.1474 151.56L148.123 140.268C149.135 140.059 149.218 139.486 148.311 138.999L115.753 121.534Z" fill="#A3A2A2"/>
<path d="M36.4288 115.667C35.93 115.667 35.4516 115.863 35.0989 116.212C34.7462 116.56 34.5481 117.034 34.5481 117.527V150.529C34.5481 151.022 34.7462 151.495 35.0989 151.844C35.4516 152.193 35.93 152.389 36.4288 152.389H84.5445C85.5789 152.389 86.019 151.645 85.5187 150.76L66.8886 117.296C66.5891 116.824 66.1793 116.429 65.6937 116.145C65.208 115.862 64.6607 115.698 64.0976 115.667H36.4288Z" fill="#E0E0E0"/>
<path opacity="0.5" d="M28.8082 48.0966C28.8324 47.5629 29.0151 47.0481 29.3336 46.6166C29.6521 46.1852 30.0921 45.8562 30.5986 45.6708L54.4346 38.1403C55.4201 37.8278 55.5329 37.0985 54.6791 36.5181L1.42152 0.108202C0.567684 -0.472213 -0.128174 -0.111314 -0.128174 0.911854V62.1978C-0.0952536 62.763 0.0621896 63.3143 0.33313 63.813C0.604071 64.3118 0.981957 64.7459 1.44033 65.085L27.2397 81.9951C28.1011 82.5607 28.8082 82.1849 28.8082 81.1617V48.0966Z" fill="#A3A2A2"/>
<path d="M36.395 70.6843C42.3965 70.6843 47.2617 69.4816 47.2617 67.998C47.2617 66.5144 42.3965 65.3117 36.395 65.3117C30.3935 65.3117 25.5283 66.5144 25.5283 67.998C25.5283 69.4816 30.3935 70.6843 36.395 70.6843Z" fill="#A3A2A2"/>
<path d="M48.0593 44.0786C48.087 42.5507 47.8068 41.0326 47.2349 39.613C46.663 38.1934 45.8109 36.9008 44.7283 35.8105C43.6458 34.7203 42.3545 33.8543 40.9299 33.2632C39.5052 32.672 37.9758 32.3676 36.4309 32.3676C34.886 32.3676 33.3566 32.672 31.9319 33.2632C30.5073 33.8543 29.216 34.7203 28.1335 35.8105C27.0509 36.9008 26.1988 38.1934 25.6269 39.613C25.055 41.0326 24.7748 42.5507 24.8026 44.0786C24.8026 44.0786 23.8961 52.1635 36.4328 68.1584C48.962 52.1635 48.0593 44.0786 48.0593 44.0786Z" fill="#1749A0"/>
</g>
<defs>
<clipPath id="clip0">
<rect width="96" height="163" rx="10" fill="white"/>
</clipPath>
</defs>
</svg>
