<svg width="34" height="22" viewBox="0 0 34 22" fill="none" xmlns="http://www.w3.org/2000/svg">
<rect x="0.800003" y="0.200012" width="32.4" height="21.6" rx="4" fill="#F2F0EC"/>
<g opacity="0.01">
<rect x="3.93852" y="2.36002" width="26.1292" height="17.28" fill="white"/>
</g>
<rect x="13.5574" y="5.37045" width="6.89175" height="11.259" fill="#F26122"/>
<path d="M14.3001 11C14.2887 8.8086 15.284 6.73333 17.0001 5.37047C14.064 3.06149 9.84641 3.39678 7.31202 6.14064C4.77763 8.88451 4.77763 13.1154 7.31202 15.8593C9.84641 18.6032 14.064 18.9384 17.0001 16.6295C15.284 15.2666 14.2887 13.1913 14.3001 11Z" fill="#EA1D25"/>
<path fill-rule="evenodd" clip-rule="evenodd" d="M27.8946 15.2052V15.4347H27.8541V15.2052H27.7596V15.158H27.9959V15.2052H27.8946ZM28.3537 15.158V15.4347H28.3065V15.2255L28.2322 15.4077H28.1782L28.0972 15.2255V15.4347H28.05V15.158H28.1175L28.2052 15.3537L28.2862 15.158H28.3537Z" fill="#F69E1E"/>
<path d="M28.583 11C28.5813 13.74 27.0163 16.2389 24.5519 17.4367C22.0874 18.6344 19.1556 18.321 17 16.6295C20.1051 14.1846 20.6428 9.68662 18.2015 6.57872C17.8516 6.12868 17.4481 5.72294 17 5.37047C19.1556 3.67892 22.0874 3.36555 24.5519 4.56329C27.0163 5.76103 28.5813 8.25991 28.583 11Z" fill="#F69E1E"/>
</svg>
