<svg width="93" height="93" viewBox="0 0 93 93" fill="none" xmlns="http://www.w3.org/2000/svg">
<path d="M26.3749 74.8793C41.0377 78.1257 55.627 70.7346 61.0888 66.6333C72.0626 60.098 79.2281 50.739 80.8861 38.7051C84.2061 14.6073 64.2182 19.548 54.6356 25.1253C43.8346 30.4071 20.6243 42.8948 14.1913 50.5921C6.15016 60.2138 8.0465 70.8213 26.3749 74.8793Z" fill="#CEE8FF"/>
<g clip-path="url(#clip0)">
<rect x="27.9649" y="28.683" width="37" height="37" rx="8" fill="white"/>
<path d="M58.7273 63.6981L57.5711 64.8383L51.8778 59.2241C50.4646 57.8305 49.5014 56.0554 49.1097 54.1228L48.1898 49.5853L52.7913 50.4923C52.9465 50.5229 53.1003 50.5582 53.2534 50.5959L54.4692 57.1276C54.8609 59.0603 55.8241 60.8352 57.2373 62.2289L58.7273 63.6981ZM31.4614 58.0736V36.2923C31.4614 31.8697 35.0971 28.2845 39.582 28.2845L56.7936 28.2221L56.7977 28.2044L34.7097 28.2845C30.2247 28.2845 26.5891 31.8697 26.5891 36.2923V58.0736C26.5891 62.4961 30.2247 66.0814 34.7097 66.0814L38.9371 66.0562C34.7537 65.7321 31.4614 62.2821 31.4614 58.0736V58.0736Z" fill="#CEE1F2"/>
<path d="M50.1388 67.683H34.7096C29.3364 67.683 24.9649 63.3722 24.9649 58.0736V36.2923C24.9649 30.9937 29.3364 26.683 34.7096 26.683H56.7977C62.1709 26.683 66.5424 30.9937 66.5424 36.2923V51.6273C66.5424 52.5118 65.8153 53.2289 64.9183 53.2289C64.0212 53.2289 63.2941 52.5118 63.2941 51.6273V36.2923C63.2941 32.7599 60.3798 29.8861 56.7977 29.8861H34.7096C31.1275 29.8861 28.2131 32.7599 28.2131 36.2923V58.0736C28.2131 61.606 31.1275 64.4798 34.7096 64.4798H50.1388C51.0358 64.4798 51.7629 65.1968 51.7629 66.0814C51.7629 66.9659 51.0358 67.683 50.1388 67.683ZM64.8061 65.9707C67.1174 63.6915 67.1174 59.983 64.8061 57.7037L59.1128 52.0896C57.4674 50.4669 55.3914 49.3716 53.1096 48.9218L48.5081 48.0148C47.9759 47.9097 47.4253 48.0742 47.0414 48.4528C46.6575 48.8315 46.4908 49.3742 46.5972 49.8993L47.5169 54.4368C47.9731 56.687 49.0839 58.734 50.7293 60.3567L56.4226 65.9708C57.5422 67.0748 59.0309 67.683 60.6143 67.683C62.1978 67.683 63.6864 67.0748 64.8061 65.9707ZM52.4729 52.0628C54.1238 52.3881 55.6255 53.1805 56.8159 54.3544L62.5092 59.9685C63.5541 60.9989 63.5541 62.6754 62.5092 63.7058C62.0031 64.2049 61.3301 64.4798 60.6143 64.4798C59.8986 64.4798 59.2255 64.2049 58.7195 63.7058L53.0262 58.0917C51.8358 56.9177 51.0322 55.4368 50.7022 53.809L50.2599 51.6266L52.4729 52.0628Z" fill="#1536B1"/>
<path d="M56.7977 38.3744H41.937C41.04 38.3744 40.3128 37.6573 40.3128 36.7728C40.3128 35.8883 41.04 35.1712 41.937 35.1712H56.7977C57.6947 35.1712 58.4218 35.8883 58.4218 36.7728C58.4218 37.6573 57.6947 38.3744 56.7977 38.3744ZM58.4218 43.179C58.4218 42.2945 57.6947 41.5775 56.7977 41.5775H34.7096C33.8126 41.5775 33.0855 42.2945 33.0855 43.179C33.0855 44.0636 33.8126 44.7806 34.7096 44.7806H56.7977C57.6947 44.7806 58.4218 44.0636 58.4218 43.179ZM42.1806 49.5853C42.1806 48.7008 41.4535 47.9837 40.5565 47.9837H34.7096C33.8126 47.9837 33.0855 48.7008 33.0855 49.5853C33.0855 50.4698 33.8126 51.1869 34.7096 51.1869H40.5565C41.4535 51.1869 42.1806 50.4698 42.1806 49.5853ZM33.0855 36.6126C33.0855 37.7183 33.9944 38.6146 35.1157 38.6146C36.2369 38.6146 37.1458 37.7183 37.1458 36.6126C37.1458 35.507 36.2369 34.6107 35.1157 34.6107C33.9944 34.6107 33.0855 35.507 33.0855 36.6126Z" fill="#00C2FF"/>
</g>
<defs>
<clipPath id="clip0">
<rect width="41.5775" height="41" fill="white" transform="translate(24.9649 26.683)"/>
</clipPath>
</defs>
</svg>
