<svg width="93" height="93" viewBox="0 0 93 93" fill="none" xmlns="http://www.w3.org/2000/svg">
<path d="M27.3749 73.8793C42.0377 77.1257 56.627 69.7346 62.0888 65.6333C73.0626 59.098 80.2281 49.739 81.8861 37.7051C85.2061 13.6073 65.2182 18.548 55.6356 24.1253C44.8346 29.4071 21.6243 41.8948 15.1913 49.5921C7.15016 59.2138 9.0465 69.8213 27.3749 73.8793Z" fill="#CEE8FF"/>
<g clip-path="url(#clip0)">
<path d="M26.9649 30C27.7649 28 28.9649 26.8333 29.4649 26.5C31.8649 23.7 34.1315 24.6667 34.9649 25.5C36.2982 26.6667 39.1649 29.4 39.9649 31C40.9649 33 38.4649 38 36.9649 39C35.7649 39.8 36.1315 43 36.4649 44.5L48.4649 56.5C49.2649 57.3 51.4649 56.8333 52.4649 56.5C53.2982 55.5 55.3649 53.4 56.9649 53C58.9649 52.5 62.9649 53.5 64.9649 54.5C66.9649 55.5 68.4649 58.5 68.4649 61.5C68.4649 64.5 61.9649 67 59.9649 67.5C58.3649 67.9 51.6315 66.3333 48.4649 65.5L39.9649 60.5L34.9649 56.5C32.4649 54.5 29.4649 48.5 26.9649 43.5C24.4649 38.5 25.9649 32.5 26.9649 30Z" fill="white"/>
<path d="M30.3036 32.4129C32.4192 30.1687 35.526 29.4568 38.167 30.351C37.8032 29.4546 37.2512 28.625 36.508 27.9245C33.6229 25.2048 28.974 25.4505 26.1245 28.4733C23.275 31.4961 23.3038 36.1514 26.1888 38.8711C26.932 39.5717 27.7926 40.0739 28.7089 40.3842C27.6606 37.8005 28.1881 34.6571 30.3036 32.4129Z" fill="#CEE1F2"/>
<path d="M69.9606 60.0656C69.8964 58.2862 69.1552 56.6257 67.8736 55.3899C65.3642 52.9702 63.2616 51.5733 61.2569 50.994C58.4946 50.1956 55.9359 50.9216 53.6524 53.1517C53.649 53.155 53.6456 53.1584 53.6422 53.1618L51.2128 55.5731C49.6945 54.7172 46.7423 52.838 43.5526 49.6484L43.3162 49.4121C40.126 46.222 38.2469 43.2692 37.3919 41.7527L39.8033 39.3232C39.8067 39.3198 39.8101 39.3164 39.8135 39.3129C42.0435 37.0296 42.7695 34.471 41.9712 31.7084C41.3918 29.7037 39.995 27.6012 37.5751 25.0918C36.3394 23.8103 34.679 23.0691 32.8997 23.005C31.1192 22.9407 29.4108 23.5605 28.0858 24.7498L28.0342 24.7962C28.0103 24.8176 27.9869 24.8398 27.9641 24.8626C25.3264 27.5003 23.9437 31.193 23.9653 35.5415C24.0023 42.9286 28.0622 51.3764 34.8256 58.1397C36.1009 59.415 37.5503 60.6772 39.1336 61.8911C39.921 62.4949 41.0489 62.3461 41.6528 61.5585C42.2567 60.771 42.1078 59.6431 41.3202 59.0392C39.8616 57.9208 38.5314 56.7632 37.3667 55.5987C31.2577 49.4897 27.5913 41.9851 27.559 35.5236C27.5424 32.1746 28.5498 29.3793 30.4727 27.4363L30.4865 27.4239C31.7925 26.2516 33.7699 26.3229 34.9884 27.5864C39.6404 32.4108 39.3036 34.6884 37.2479 36.7963L33.9171 40.1522C33.3947 40.6785 33.2493 41.4716 33.5509 42.149C33.6354 42.339 35.6811 46.8593 40.7756 51.9539L41.0122 52.1901C46.1062 57.2841 50.6266 59.3297 50.8165 59.4142C51.4937 59.716 52.2871 59.5705 52.8133 59.0481L56.1692 55.7172C58.2774 53.6614 60.555 53.3248 65.3792 57.9768C66.6426 59.1951 66.714 61.1726 65.5419 62.4784L65.5291 62.4925C63.6021 64.3998 60.8365 65.4064 57.524 65.4064C57.4966 65.4064 57.4693 65.4064 57.4419 65.4063C54.7941 65.3931 51.728 64.6672 48.5753 63.3073C47.6643 62.9142 46.6068 63.3343 46.2138 64.2456C45.8207 65.1569 46.2407 66.2141 47.152 66.6072C50.7963 68.1791 54.2522 68.9841 57.424 69C57.4577 69.0001 57.4912 69.0002 57.5249 69.0002C61.8296 69.0002 65.4856 67.6185 68.103 65.0013C68.1257 64.9784 68.1478 64.9552 68.1693 64.9312L68.2159 64.8793C69.4052 63.5544 70.0248 61.8449 69.9606 60.0656Z" fill="#1536B1"/>
<path d="M51.0347 28.7659C58.6292 28.7748 64.7835 34.9291 64.7924 42.5236C64.7924 43.2144 65.3525 43.7742 66.0431 43.7742C66.7339 43.7742 67.2937 43.2144 67.2937 42.5236C67.2833 33.5482 60.01 26.2748 51.0347 26.2646C50.3439 26.2646 49.7841 26.8244 49.7841 27.5152C49.7841 28.206 50.3439 28.7659 51.0347 28.7659Z" fill="#00C2FF"/>
<path d="M51.0453 36.2065C54.5265 36.2106 57.3476 39.0317 57.3519 42.513C57.3519 43.2096 57.9166 43.7743 58.6131 43.7743C59.3096 43.7743 59.8744 43.2096 59.8744 42.513C59.8688 37.6392 55.9192 33.6894 51.0453 33.684C50.3487 33.684 49.7841 34.2486 49.7841 34.9452C49.7841 35.6418 50.3487 36.2065 51.0453 36.2065Z" fill="#00C2FF"/>
</g>
<defs>
<clipPath id="clip0">
<rect width="46" height="46" fill="white" transform="translate(23.9649 23)"/>
</clipPath>
</defs>
</svg>
