<svg width="93" height="93" viewBox="0 0 93 93" fill="none" xmlns="http://www.w3.org/2000/svg">
<path d="M44.4443 79.1057C58.0362 78.9941 66.0601 75.9247 77.4364 63.7634C88.8127 51.6021 90.0976 37.4605 74.9351 37.7258C56.6897 38.0451 49.8632 39.3543 25.5093 29.2578C9.85093 22.7662 6.89203 40.679 17.0117 57.921C27.1313 75.1631 32.2158 79.2061 44.4443 79.1057Z" fill="#CEE8FF"/>
<circle cx="48.5" cy="46.5" r="20" fill="white" stroke="#1536B1" stroke-width="3"/>
<path d="M50.6512 28.1237C41.4473 29.1895 34.3023 37.0104 34.3023 46.5C34.3023 55.9896 41.4473 63.8105 50.6512 64.8763C49.9455 64.958 49.2276 65 48.5 65C38.2827 65 30 56.7173 30 46.5C30 36.2827 38.2827 28 48.5 28C49.2276 28 49.9455 28.042 50.6512 28.1237Z" fill="#CEE1F2" fill-opacity="0.7"/>
<path d="M49.54 46.1996C47.3668 45.3247 46.0176 43.5115 46.0176 41.4312C46.0176 38.9619 47.7196 36.8873 50.0063 36.2997C49.1168 36.167 48.3623 36.1333 47.6952 36.1333C44.7746 36.1333 42.3848 38.5052 42.3848 41.4312C42.3848 44.3571 45.0511 46.7573 48.9291 46.7573C49.1615 46.7573 49.3902 46.7702 49.6155 46.7924C49.5984 46.6548 49.5481 46.2596 49.54 46.1996Z" fill="#CEE1F2"/>
<path d="M54.004 47.3813C52.6441 46.1981 50.8416 45.5464 48.9285 45.5464C45.8879 45.5464 43.595 43.7772 43.595 41.4311C43.595 39.1776 45.4341 37.3442 47.6945 37.3442C49.1406 37.3442 51.0269 37.5032 54.0539 38.6826C54.6771 38.9253 55.379 38.617 55.6218 37.9938C55.8646 37.3707 55.5562 36.6687 54.9331 36.4259C52.9818 35.6657 51.4137 35.2838 50.1341 35.0958V32.2109C50.1341 31.5421 49.592 31 48.9232 31C48.2544 31 47.7122 31.5421 47.7122 32.2109V34.9224C47.7064 34.9224 47.7004 34.9223 47.6945 34.9223C44.0986 34.9223 41.1732 37.8422 41.1732 41.4311C41.1732 43.2368 41.9724 44.9017 43.4238 46.1192C44.8453 47.3116 46.8002 47.9683 48.9285 47.9683C51.5964 47.9683 53.7669 49.7889 53.7669 52.0268C53.7669 54.2422 51.8337 56.1138 49.5454 56.1138C48.2844 56.1138 45.3915 55.7088 42.5899 54.5932C41.9684 54.346 41.2643 54.6489 41.0169 55.2703C40.7695 55.8916 41.0726 56.5959 41.6939 56.8433C43.7683 57.6693 45.9819 58.1755 47.7122 58.3996V60.7891C47.7122 61.4579 48.2544 62 48.9232 62C49.592 62 50.1341 61.4579 50.1341 60.7891V58.5094C51.6529 58.3754 53.0782 57.7253 54.1979 56.6442C55.4817 55.4047 56.1888 53.7649 56.1888 52.0268C56.1888 50.2571 55.4129 48.6072 54.004 47.3813Z" fill="#1536B1" stroke="#1536B1" stroke-width="0.7"/>
<path d="M37.2382 46.6968C36.9306 46.6968 36.6229 46.5804 36.3869 46.3469L34.0984 44.0843C33.3901 43.384 33 42.4518 33 41.4595C33 40.4672 33.3901 39.5349 34.0985 38.8346L36.3869 36.572C36.8625 36.1017 37.6293 36.1061 38.0994 36.5817C38.5696 37.0572 38.5652 37.824 38.0897 38.2942L35.8013 40.5568C35.5566 40.7987 35.4219 41.1193 35.4219 41.4595C35.4219 41.7997 35.5566 42.1202 35.8013 42.3621L38.0897 44.6247C38.5652 45.095 38.5696 45.8617 38.0994 46.3373C37.8626 46.5768 37.5504 46.6968 37.2382 46.6968ZM60.6131 56.9426L62.9016 54.68C63.6099 53.9797 64 53.0475 64 52.0552C64 51.0629 63.6099 50.1306 62.9015 49.4303L60.6131 47.1677C60.1375 46.6975 59.3707 46.7018 58.9006 47.1774C58.4304 47.6529 58.4348 48.4197 58.9103 48.8899L61.1987 51.1526C61.4434 51.3944 61.5781 51.715 61.5781 52.0552C61.5781 52.3953 61.4434 52.7159 61.1987 52.9578L58.9103 55.2205C58.4348 55.6907 58.4304 56.4574 58.9006 56.933C59.1374 57.1725 59.4495 57.2925 59.7618 57.2925C60.0694 57.2925 60.3771 57.176 60.6131 56.9426Z" fill="#00C2FF"/>
</svg>
