<svg width="277" height="150" viewBox="0 0 277 150" fill="none" xmlns="http://www.w3.org/2000/svg">
<rect opacity="0.5" width="277" height="150" fill="url(#paint0_linear)"/>
<path fill-rule="evenodd" clip-rule="evenodd" d="M86.8666 48.4199C92.2511 57.453 98.5222 66.1995 102.288 76.0759C102.137 74.9118 101.976 73.7489 101.795 72.5876C100.84 66.4318 99.6523 60.3208 98.4043 54.2174C97.7687 51.1098 97.0965 48.0135 96.4071 44.9175C96.0363 43.2546 95.6701 41.5907 95.2916 39.9294C95.2 39.5267 95.1212 38.8239 95.0065 38.1116C98.6665 50.1219 102.196 62.1412 104.778 74.4403C105.116 76.0544 105.405 77.6656 105.641 79.2741C105.722 78.9072 105.801 78.5402 105.888 78.1742C106.933 73.7876 108.5 69.4359 110.366 65.3343C111.257 63.3729 112.282 61.4544 113.488 59.6667C114.24 58.5524 116.014 57.2277 116.701 56.0865C112.948 62.9695 111.593 71.5815 109.426 79.0645C108.897 80.8905 108.365 82.7136 107.843 84.54C111.111 77.9868 116.181 72.6026 123.23 70.2693C114.697 75.9069 109.58 85.7799 106.131 95.8775C106.12 95.9972 106.106 96.117 106.094 96.2369C107.109 94.3109 108.387 92.5688 110.12 91.3487C113.828 88.7367 117.942 89.4976 121.539 91.7382C118.716 89.9437 113.614 91.5777 111.238 93.4017C109.538 94.7073 108.084 96.4589 106.822 98.1678C106.52 98.5774 106.108 99.0553 105.672 99.5653C105.061 103.532 104.065 107.471 102.655 111.379C102.888 110.257 102.72 108.463 102.784 107.627C102.791 107.537 102.797 107.446 102.804 107.356C102.589 108.212 102.382 109.057 102.183 109.89C102.579 108.302 102.795 106.644 102.963 104.969C103.006 104.249 103.048 103.529 103.093 102.809C103.079 101.443 103.023 100.071 102.927 98.6975C102.59 97.3624 102.212 96.1031 101.901 95.0558C100.776 91.2768 99.1278 87.6565 97.099 84.279C95.2479 81.1969 93.0322 78.4051 90.4743 75.8803C89.0954 74.5196 87.6522 73.2236 86.2294 71.9097C85.7149 71.4347 84.7953 70.2668 84 69.6579C89.7923 72.8513 95.7542 76.306 99.9797 81.4512C99.4843 79.5489 98.9463 77.6734 98.3771 75.8356C95.4895 66.5112 91.8435 56.8474 86.8666 48.4199Z" fill="#00C2FF" fill-opacity="0.3"/>
<path fill-rule="evenodd" clip-rule="evenodd" d="M92.6538 99.5524C92.6538 109.908 93.4738 118.302 104.48 118.302C115.487 118.302 116.307 109.908 116.307 99.5524" fill="#00C2FF"/>
<rect x="111.072" y="16" width="55.2522" height="104.944" rx="8" fill="#1749A0"/>
<path fill-rule="evenodd" clip-rule="evenodd" d="M138.524 114.342C141.403 114.342 143.737 112.008 143.737 109.13C143.737 106.251 141.403 103.917 138.524 103.917C135.645 103.917 133.312 106.251 133.312 109.13C133.312 112.008 135.645 114.342 138.524 114.342Z" fill="white"/>
<path fill-rule="evenodd" clip-rule="evenodd" d="M134.007 22.9501C134.391 22.9501 134.702 22.6389 134.702 22.2551C134.702 21.8713 134.391 21.5601 134.007 21.5601C133.623 21.5601 133.312 21.8713 133.312 22.2551C133.312 22.6389 133.623 22.9501 134.007 22.9501Z" fill="white"/>
<rect x="136.439" y="21.5601" width="7.29746" height="1.38999" rx="0.694997" fill="white"/>
<rect x="115.937" y="25.7298" width="46" height="19" rx="4" fill="white"/>
<path d="M148.427 31.9654L148.09 31.3228C148.064 31.2733 148.011 31.2419 147.952 31.2419C147.893 31.2419 147.84 31.2733 147.814 31.3228L147.477 31.9654L146.723 32.0682C146.665 32.0762 146.617 32.1145 146.599 32.167C146.58 32.2195 146.596 32.2772 146.638 32.3157L147.183 32.8159L147.054 33.5219C147.044 33.5764 147.068 33.6314 147.116 33.6638C147.163 33.6963 147.226 33.7005 147.278 33.6749L147.952 33.3415L148.626 33.6749C148.678 33.7005 148.741 33.6963 148.788 33.6638C148.836 33.6314 148.86 33.5764 148.85 33.5219L148.721 32.8159L149.266 32.3157C149.308 32.2772 149.323 32.2195 149.305 32.167C149.287 32.1145 149.239 32.0762 149.181 32.0682L148.427 31.9654ZM148.448 32.6613C148.411 32.6946 148.395 32.7427 148.403 32.7897L148.493 33.2812L148.024 33.0491C147.979 33.0268 147.925 33.0268 147.88 33.0491L147.411 33.2812L147.501 32.7897C147.509 32.7427 147.493 32.6946 147.456 32.6613L147.077 32.3131L147.601 32.2415C147.651 32.2347 147.695 32.205 147.717 32.1622L147.952 31.7149L148.186 32.1622C148.209 32.205 148.252 32.2347 148.303 32.2415L148.827 32.3132L148.448 32.6613Z" fill="#C2C8EF"/>
<path d="M152.238 31.9654L151.901 31.3228C151.875 31.2733 151.821 31.2419 151.763 31.2419C151.704 31.2419 151.65 31.2733 151.624 31.3228L151.287 31.9654L150.534 32.0682C150.476 32.0762 150.427 32.1145 150.409 32.167C150.391 32.2195 150.406 32.2772 150.448 32.3157L150.993 32.8159L150.865 33.5219C150.855 33.5764 150.879 33.6314 150.926 33.6638C150.974 33.6963 151.036 33.7005 151.088 33.6749L151.763 33.3415L152.437 33.6749C152.488 33.7005 152.551 33.6963 152.599 33.6638C152.646 33.6314 152.67 33.5764 152.66 33.5219L152.532 32.8159L153.077 32.3157C153.119 32.2772 153.134 32.2195 153.116 32.167C153.098 32.1145 153.049 32.0762 152.991 32.0682L152.238 31.9654ZM152.258 32.6613C152.222 32.6946 152.205 32.7427 152.214 32.7897L152.303 33.2812L151.834 33.0491C151.789 33.0268 151.736 33.0268 151.691 33.0491L151.221 33.2812L151.311 32.7897C151.32 32.7427 151.303 32.6946 151.267 32.6613L150.887 32.3131L151.412 32.2415C151.462 32.2347 151.505 32.205 151.528 32.1622L151.762 31.7149L151.997 32.1622C152.019 32.205 152.063 32.2347 152.113 32.2415L152.638 32.3132L152.258 32.6613Z" fill="#C2C8EF"/>
<path d="M150.332 34.6872L149.996 34.0446C149.97 33.9951 149.916 33.9637 149.857 33.9637C149.799 33.9637 149.745 33.9951 149.719 34.0446L149.382 34.6872L148.628 34.79C148.57 34.7979 148.522 34.8363 148.504 34.8888C148.486 34.9413 148.501 34.9989 148.543 35.0375L149.088 35.5376L148.959 36.2437C148.95 36.2981 148.973 36.3532 149.021 36.3856C149.068 36.4181 149.131 36.4223 149.183 36.3967L149.857 36.0633L150.531 36.3967C150.583 36.4223 150.646 36.4181 150.694 36.3856C150.741 36.3532 150.765 36.2981 150.755 36.2437L150.626 35.5376L151.172 35.0375C151.214 34.9989 151.229 34.9413 151.211 34.8888C151.192 34.8363 151.144 34.7979 151.086 34.79L150.332 34.6872ZM150.353 35.383C150.317 35.4164 150.3 35.4644 150.309 35.5115L150.398 36.003L149.929 35.7708C149.884 35.7486 149.83 35.7486 149.785 35.7708L149.316 36.003L149.406 35.5115C149.414 35.4644 149.398 35.4164 149.361 35.383L148.982 35.0349L149.506 34.9633C149.557 34.9564 149.6 34.9267 149.622 34.884L149.857 34.4366L150.092 34.884C150.114 34.9267 150.158 34.9564 150.208 34.9633L150.732 35.035L150.353 35.383Z" fill="#C2C8EF"/>
<path d="M156.048 31.9654L155.711 31.3228C155.685 31.2733 155.632 31.2419 155.573 31.2419C155.514 31.2419 155.461 31.2733 155.435 31.3228L155.098 31.9654L154.344 32.0682C154.286 32.0762 154.238 32.1145 154.22 32.167C154.201 32.2195 154.217 32.2772 154.259 32.3157L154.804 32.8159L154.675 33.5219C154.665 33.5764 154.689 33.6314 154.737 33.6638C154.784 33.6963 154.847 33.7005 154.899 33.6749L155.573 33.3415L156.247 33.6749C156.299 33.7005 156.362 33.6963 156.409 33.6638C156.457 33.6314 156.481 33.5764 156.471 33.5219L156.342 32.8159L156.887 32.3157C156.929 32.2772 156.944 32.2195 156.926 32.167C156.908 32.1145 156.86 32.0762 156.802 32.0682L156.048 31.9654ZM156.069 32.6613C156.032 32.6946 156.016 32.7427 156.024 32.7897L156.114 33.2812L155.645 33.0491C155.6 33.0268 155.546 33.0268 155.501 33.0491L155.032 33.2812L155.122 32.7897C155.13 32.7427 155.114 32.6946 155.077 32.6613L154.698 32.3131L155.222 32.2415C155.272 32.2347 155.316 32.205 155.338 32.1622L155.573 31.7149L155.807 32.1622C155.83 32.205 155.873 32.2347 155.924 32.2415L156.448 32.3132L156.069 32.6613Z" fill="#C2C8EF"/>
<path d="M154.143 34.6872L153.806 34.0446C153.78 33.9951 153.727 33.9637 153.668 33.9637C153.609 33.9637 153.556 33.9951 153.53 34.0446L153.192 34.6872L152.439 34.79C152.381 34.7979 152.333 34.8363 152.314 34.8888C152.296 34.9413 152.311 34.9989 152.353 35.0375L152.899 35.5376L152.77 36.2437C152.76 36.2981 152.784 36.3532 152.831 36.3856C152.879 36.4181 152.942 36.4223 152.994 36.3967L153.668 36.0633L154.342 36.3967C154.394 36.4223 154.457 36.4181 154.504 36.3856C154.552 36.3532 154.575 36.2981 154.566 36.2437L154.437 35.5376L154.982 35.0375C155.024 34.9989 155.039 34.9413 155.021 34.8888C155.003 34.8363 154.955 34.7979 154.897 34.79L154.143 34.6872ZM154.163 35.383C154.127 35.4164 154.111 35.4644 154.119 35.5115L154.209 36.003L153.74 35.7708C153.695 35.7486 153.641 35.7486 153.596 35.7708L153.127 36.003L153.216 35.5115C153.225 35.4644 153.208 35.4164 153.172 35.383L152.793 35.0349L153.317 34.9633C153.367 34.9564 153.411 34.9267 153.433 34.884L153.668 34.4366L153.902 34.884C153.925 34.9267 153.968 34.9564 154.018 34.9633L154.543 35.035L154.163 35.383Z" fill="#C2C8EF"/>
<rect x="115.937" y="47.2747" width="46" height="15" rx="4" fill="white"/>
<path fill-rule="evenodd" clip-rule="evenodd" d="M125.498 59.0305C128.259 59.0305 130.498 56.7919 130.498 54.0305C130.498 51.2691 128.259 49.0305 125.498 49.0305C122.737 49.0305 120.498 51.2691 120.498 54.0305C120.498 56.7919 122.737 59.0305 125.498 59.0305Z" fill="#E2E6FF"/>
<rect x="115.937" y="64.6497" width="46" height="15" rx="4" fill="white"/>
<rect x="115.937" y="82.0246" width="46" height="15" rx="4" fill="white"/>
<path fill-rule="evenodd" clip-rule="evenodd" d="M123.998 92.9312C126.483 92.9312 128.498 90.9165 128.498 88.4312C128.498 85.9459 126.483 83.9312 123.998 83.9312C121.513 83.9312 119.498 85.9459 119.498 88.4312C119.498 90.9165 121.513 92.9312 123.998 92.9312Z" fill="#E2E6FF"/>
<rect width="18" height="3" rx="1.5" transform="matrix(-1 0 0 1 159 86)" fill="#C2C8EF"/>
<rect width="12" height="2" rx="1" transform="matrix(-1 0 0 1 159 90)" fill="#C2C8EF"/>
<rect width="18" height="3" rx="1.5" transform="matrix(-1 0 0 1 136 31)" fill="#C2C8EF"/>
<rect width="14" height="3" rx="1.5" transform="matrix(-1 0 0 1 132 36)" fill="#C2C8EF"/>
<rect width="22" height="2" rx="1" transform="matrix(-1 0 0 1 140 69)" fill="#C2C8EF"/>
<rect width="14" height="2" rx="1" transform="matrix(-1 0 0 1 132 73)" fill="#C2C8EF"/>
<path opacity="0.1" d="M185.698 131.449C185.481 131.273 185.033 131.149 184.787 130.985C183.41 130.074 184.335 130.459 184.872 129.867C185.732 128.921 181.924 128.617 179.516 128.492C170.056 128 160.172 127.603 151.053 128.714C150.967 128.723 150.892 128.74 150.838 128.761C150.785 128.783 150.755 128.808 150.754 128.835C149.499 129.014 148.75 129.391 149.077 129.853C149.605 130.598 152.204 130.909 154.515 131.104C153.254 131.877 152.52 132.801 153.781 133.608C155.3 134.576 159.219 134.85 162.589 134.955C167.468 135.108 172.603 134.852 177.291 134.468C180.633 134.195 184.076 133.734 185.447 132.756C186.019 132.346 186.221 131.873 185.698 131.449Z" fill="#1749A0"/>
<path d="M182.664 29.7163C182.622 29.1312 182.503 28.5542 182.309 28.0004C182.254 27.8316 182.192 27.6668 182.13 27.501C182.068 27.3352 182.012 27.1874 181.96 27.0276C181.85 26.6915 181.772 26.3462 181.726 25.9958C181.606 25.028 181.702 24.0442 181.794 23.0933C181.822 22.7937 181.851 22.5031 181.873 22.2084C181.899 21.8728 181.909 21.5652 181.904 21.2686C181.897 20.949 181.871 20.6301 181.825 20.3137C181.737 19.6998 181.592 19.0954 181.39 18.5089C181.187 17.9247 180.945 17.355 180.664 16.804C180.427 16.316 180.159 15.8433 179.863 15.3887C179.327 14.5927 178.688 13.8712 177.962 13.2433C177.313 12.6745 176.596 12.1893 175.826 11.799C175.456 11.6117 175.072 11.4524 174.678 11.3226C174.278 11.1915 173.866 11.0982 173.448 11.0439C173.221 11.0151 172.993 11.0005 172.764 11C172.183 10.9984 171.607 11.0999 171.063 11.2996C170.234 11.6235 169.501 12.1497 168.929 12.8298C168.911 12.8492 168.899 12.8724 168.892 12.8977C168.707 12.8827 168.517 12.8627 168.327 12.8388L167.981 12.7868C167.574 12.7149 167.161 12.6735 166.747 12.663C166.475 12.6623 166.203 12.6959 165.939 12.7629C165.63 12.8455 165.335 12.9709 165.061 13.1354C164.6 13.4063 164.178 13.739 163.808 14.1242C163.425 14.5184 163.082 14.9489 162.782 15.4096C162.472 15.879 162.197 16.3707 161.96 16.8809C161.719 17.3813 161.51 17.896 161.333 18.422C161.132 19.0305 160.995 19.6581 160.923 20.2947C160.85 20.9278 160.858 21.5675 160.948 22.1984C160.998 22.5341 161.07 22.8661 161.164 23.1922C161.236 23.4369 161.326 23.6766 161.415 23.9164L161.497 24.1361C161.726 24.7603 161.923 25.3256 162.01 25.9219C162.032 26.0875 162.044 26.2543 162.046 26.4213C162.048 26.6137 162.036 26.806 162.01 26.9966C161.983 27.1928 161.943 27.387 161.891 27.5779L161.869 27.6638C161.826 27.8286 161.784 27.9944 161.746 28.1632C161.667 28.4855 161.629 28.8163 161.633 29.148C161.647 29.4641 161.707 29.7766 161.81 30.0759C161.852 30.2067 161.9 30.3346 161.948 30.4624L162.019 30.6512C162.084 30.8246 162.132 31.0044 162.16 31.1875C162.168 31.2715 162.172 31.3559 162.171 31.4402C162.167 31.5406 162.157 31.6406 162.142 31.7399L162.105 31.9846C162.025 32.3788 161.994 32.7814 162.013 33.1831C162.024 33.294 162.044 33.4039 162.072 33.5117C162.102 33.6154 162.143 33.7158 162.193 33.8114C162.246 33.9074 162.31 33.9975 162.383 34.08C162.478 34.1823 162.588 34.2698 162.709 34.3397C162.736 34.3562 162.768 34.3649 162.799 34.3647C162.846 34.411 162.896 34.454 162.948 34.4935C163.025 34.5509 163.105 34.6032 163.189 34.6504C163.265 34.6905 163.344 34.7258 163.425 34.7562C163.658 34.8354 163.903 34.8766 164.149 34.8781C164.249 34.8781 164.341 34.8721 164.438 34.8641C164.832 34.8219 165.223 34.7474 165.605 34.6414C165.898 34.5695 166.2 34.4945 166.506 34.4496C166.584 34.4396 166.656 34.4326 166.727 34.4306H166.803C166.882 34.4311 166.96 34.4371 167.037 34.4486C167.175 34.4706 167.31 34.5015 167.443 34.5355C167.576 34.5695 167.722 34.5914 167.862 34.6104C167.939 34.6209 168.016 34.6259 168.093 34.6254C168.357 34.6197 168.619 34.5773 168.871 34.4995C169.112 34.4254 169.35 34.3387 169.582 34.2399L169.805 34.151C170.109 34.0252 170.426 33.9344 170.751 33.8803C170.854 33.868 170.958 33.8617 171.062 33.8613H171.067C171.173 33.861 171.279 33.868 171.384 33.8823C171.517 33.9023 171.647 33.9358 171.773 33.9822C171.828 34.0086 171.882 34.0386 171.933 34.0721C171.978 34.1093 172.02 34.1501 172.058 34.1939C172.139 34.3135 172.208 34.4402 172.265 34.5725C172.297 34.6404 172.329 34.7093 172.365 34.7772C172.518 35.0659 172.743 35.3095 173.02 35.4834C173.086 35.5243 173.157 35.5578 173.23 35.5832C173.321 35.6175 173.415 35.6422 173.51 35.6571C173.623 35.676 173.738 35.685 173.853 35.6841C173.913 35.6841 173.973 35.6841 174.033 35.6791C174.163 35.6721 174.29 35.6591 174.417 35.6462L174.582 35.6302C174.688 35.6202 174.794 35.6152 174.9 35.6152C174.989 35.615 175.077 35.6194 175.165 35.6282C175.275 35.6452 175.383 35.6726 175.488 35.7101C175.585 35.7538 175.676 35.8073 175.762 35.8699C175.861 35.9576 175.953 36.0542 176.034 36.1585V36.1585L176.086 36.2274C176.201 36.3914 176.333 36.5436 176.478 36.6819C176.678 36.8507 176.916 36.9691 177.172 37.0275C177.28 37.0542 177.39 37.0676 177.501 37.0674C177.625 37.0667 177.747 37.0526 177.868 37.0255C177.978 37.0013 178.085 36.9679 178.19 36.9256C178.266 36.8956 178.34 36.8627 178.415 36.8257L178.515 36.7818C178.713 36.6921 178.921 36.6251 179.135 36.582C179.254 36.568 179.376 36.563 179.495 36.56C179.641 36.5559 179.787 36.5432 179.931 36.5221C180.05 36.5034 180.164 36.4642 180.268 36.4062C180.327 36.372 180.381 36.3311 180.43 36.2844L180.461 36.2514C180.492 36.249 180.523 36.2394 180.551 36.2235C180.601 36.1921 180.639 36.1435 180.657 36.0866C180.664 36.0679 180.669 36.0485 180.672 36.0287C180.756 35.9332 180.835 35.8332 180.909 35.7291C180.987 35.6139 181.054 35.4919 181.109 35.3645C181.213 35.1267 181.29 34.8781 181.338 34.6234C181.367 34.4826 181.391 34.3417 181.414 34.1999C181.433 34.085 181.452 33.9692 181.475 33.8533C181.523 33.593 181.594 33.3376 181.689 33.0902C181.745 32.961 181.81 32.8353 181.882 32.7137C181.971 32.5559 182.053 32.3961 182.132 32.2333C182.262 31.9637 182.372 31.6854 182.463 31.4003C182.631 30.8557 182.7 30.2852 182.664 29.7163V29.7163Z" fill="#510026"/>
<path d="M175.744 25.858C175.626 25.7182 175.519 25.57 175.423 25.4146C175.16 24.9683 174.986 24.4755 174.911 23.9633C174.862 23.6063 174.839 23.246 174.843 22.8856C174.843 22.544 174.863 22.2034 174.882 21.8619C174.921 21.1627 174.962 20.4636 174.875 19.7734C174.826 19.4275 174.737 19.0885 174.608 18.7636C174.475 18.4654 174.31 18.1827 174.115 17.9206C173.86 17.6048 173.57 17.3187 173.251 17.0677C172.651 16.6122 171.99 16.2586 171.36 15.8521C171.037 15.6478 170.73 15.4205 170.44 15.172C170.382 15.122 170.326 15.0721 170.271 15.0171C170.161 15.0072 170.051 15.0022 169.939 15.0022C169.861 15.0022 169.781 15.0022 169.702 15.0082C169.676 15.0088 169.651 15.015 169.628 15.0262C169.606 15.0374 169.585 15.0534 169.569 15.0731C169.561 15.0631 169.542 15.0631 169.527 15.0631C169.195 15.1216 168.869 15.2168 168.558 15.3467C168.262 15.4712 167.981 15.628 167.72 15.8142C167.203 16.184 166.759 16.6454 166.41 17.1755C166.056 17.7082 165.772 18.2847 165.567 18.8905C165.364 19.4689 165.213 20.0647 165.117 20.6703C165.092 20.6385 165.061 20.6126 165.025 20.5944C164.902 20.5223 164.771 20.4631 164.636 20.4176C164.527 20.3843 164.414 20.3626 164.3 20.3527C164.269 20.3527 164.24 20.3527 164.209 20.3527C164.121 20.3539 164.033 20.3636 163.946 20.3817C163.851 20.403 163.759 20.4366 163.673 20.4815C163.575 20.5352 163.487 20.6047 163.413 20.6873C163.261 20.8627 163.162 21.078 163.13 21.3075C163.086 21.5991 163.104 21.8966 163.184 22.1805C163.219 22.3142 163.267 22.4446 163.326 22.57C163.4 22.7326 163.488 22.8889 163.588 23.0374C163.778 23.3235 163.995 23.591 164.235 23.8365C164.361 23.9693 164.842 25.056 165.254 26.0029C165.466 26.4903 165.661 26.9407 165.781 27.2014C165.98 27.6475 166.224 28.0722 166.51 28.4689C166.779 28.8398 167.091 29.1783 167.438 29.4776C167.759 29.752 168.111 29.9892 168.486 30.1848L168.471 30.2377C168.371 30.809 168.27 31.4013 168.22 31.9896C168.151 32.6561 168.191 33.3295 168.338 33.9832C168.346 34.0119 168.36 34.0382 168.381 34.0593C168.402 34.0804 168.428 34.0955 168.457 34.103C168.515 34.3174 168.604 34.522 168.722 34.7103C168.841 34.8966 168.993 35.0602 169.17 35.1937C169.489 35.4368 169.879 35.569 170.281 35.5703C170.312 35.5703 170.344 35.5703 170.375 35.5703C170.582 35.5596 170.786 35.5112 170.975 35.4274C171.164 35.3452 171.334 35.2268 171.476 35.0789C171.629 34.9162 171.747 34.7242 171.823 34.5145C171.915 34.2588 171.952 33.9865 171.932 33.7155C171.931 33.6853 171.923 33.6557 171.908 33.6291C171.894 33.6024 171.874 33.5794 171.849 33.5617C171.774 33.3078 171.718 33.0487 171.68 32.7866C171.635 32.449 171.618 32.1083 171.628 31.7679C171.634 31.4799 171.656 31.1925 171.693 30.9069C172.138 30.8906 172.579 30.8235 173.008 30.7072C173.933 30.4554 174.774 29.9621 175.444 29.2779C175.794 28.9198 176.091 28.5139 176.327 28.0723C176.463 27.816 176.577 27.5488 176.668 27.2733C176.706 27.1734 176.74 27.0736 176.774 26.9677L176.803 26.8758C176.817 26.8328 176.83 26.7909 176.844 26.7489C176.421 26.5295 176.046 26.2264 175.744 25.858V25.858Z" fill="#D4A181"/>
<path d="M168.371 20.0011C167.901 20.1549 167.449 20.3557 167.02 20.6004C166.984 20.6218 166.957 20.6569 166.947 20.6979C166.936 20.739 166.942 20.7825 166.963 20.8191C166.985 20.8557 167.02 20.8822 167.061 20.8929C167.102 20.9035 167.146 20.8975 167.183 20.876C167.352 20.7841 167.525 20.6992 167.703 20.6233C167.932 20.5323 168.166 20.454 168.404 20.3886C168.636 20.3264 168.873 20.278 169.111 20.2438H169.084L169.131 20.2378C169.366 20.2098 169.6 20.1949 169.839 20.1809C169.893 20.1809 169.945 20.1594 169.983 20.1211C170.022 20.0827 170.043 20.0308 170.043 19.9766C170.043 19.9225 170.022 19.8705 169.983 19.8322C169.945 19.7939 169.893 19.7724 169.839 19.7724H169.74C169.273 19.7803 168.81 19.8574 168.366 20.0011H168.371ZM169.127 20.2388H169.107H169.13H169.127Z" fill="#510026"/>
<path d="M172.828 21.8549C172.854 22.6631 172.804 23.4721 172.678 24.2709C172.602 24.6945 172.485 25.1097 172.328 25.5104C172.317 25.5471 172.32 25.5869 172.338 25.6212C172.355 25.6554 172.386 25.6813 172.423 25.6932C172.46 25.7047 172.5 25.7012 172.534 25.6837C172.569 25.6662 172.595 25.6359 172.608 25.5993C172.712 25.3049 172.799 25.0048 172.869 24.7004C172.936 24.4088 172.98 24.1111 173.018 23.8145C173.088 23.1668 173.114 22.5151 173.096 21.8638C173.096 21.8289 173.083 21.7951 173.059 21.7695C173.036 21.7439 173.003 21.7283 172.968 21.726H172.962C172.927 21.7262 172.894 21.7396 172.869 21.7633C172.845 21.7871 172.83 21.8195 172.828 21.8539V21.8549Z" fill="#8F4900"/>
<path d="M170.673 25.2478C170.663 25.2825 170.666 25.3199 170.683 25.3521C170.699 25.3844 170.728 25.4089 170.762 25.4206C171.024 25.4985 171.288 25.5634 171.556 25.6203C171.824 25.6773 172.116 25.7142 172.399 25.7482C172.418 25.749 172.437 25.746 172.454 25.7394C172.472 25.7329 172.489 25.7229 172.503 25.71C172.517 25.6971 172.528 25.6816 172.536 25.6643C172.544 25.647 172.549 25.6284 172.55 25.6093C172.55 25.5903 172.547 25.5713 172.541 25.5535C172.534 25.5356 172.524 25.5192 172.511 25.5052C172.498 25.4912 172.483 25.4798 172.466 25.4718C172.448 25.4638 172.43 25.4593 172.411 25.4585C172.174 25.4345 171.94 25.4056 171.71 25.3666H171.723C171.428 25.3132 171.136 25.2435 170.849 25.1579C170.836 25.1539 170.822 25.1519 170.808 25.1519C170.779 25.1523 170.75 25.1623 170.726 25.1802C170.702 25.1982 170.685 25.2233 170.676 25.2518L170.673 25.2478ZM171.707 25.3646H171.684H171.707Z" fill="#8F4900"/>
<path d="M169.559 22.4861C169.531 22.6022 169.493 22.7158 169.445 22.8257C169.4 22.9126 169.347 22.9955 169.287 23.0734C169.176 23.2043 169.034 23.3053 168.874 23.367C168.797 23.3938 168.718 23.4129 168.638 23.4239C168.564 23.4276 168.49 23.4253 168.417 23.4169C168.348 23.4024 168.281 23.382 168.216 23.356C168.157 23.3248 168.101 23.2887 168.048 23.2481C168.001 23.2049 167.957 23.1578 167.917 23.1073C167.868 23.035 167.827 22.958 167.793 22.8776C167.759 22.7803 167.735 22.68 167.72 22.578C167.716 22.558 167.708 22.539 167.697 22.5221C167.686 22.5053 167.671 22.4909 167.654 22.4798C167.637 22.4687 167.618 22.4611 167.598 22.4576C167.578 22.454 167.557 22.4546 167.537 22.4591C167.518 22.4637 167.499 22.4722 167.483 22.4842C167.466 22.4962 167.452 22.5113 167.442 22.5288C167.431 22.5462 167.425 22.5656 167.422 22.5857C167.419 22.6058 167.42 22.6263 167.426 22.6459C167.451 22.8224 167.503 22.9942 167.58 23.1553C167.647 23.2902 167.739 23.4114 167.851 23.5128C168.075 23.7138 168.368 23.8211 168.669 23.8125C168.819 23.8078 168.968 23.777 169.108 23.7216C169.249 23.6658 169.38 23.5876 169.496 23.4899C169.618 23.3852 169.719 23.2597 169.797 23.1193C169.893 22.9466 169.954 22.7564 169.976 22.56C169.978 22.5125 169.964 22.4657 169.937 22.4267C169.91 22.3877 169.871 22.3587 169.826 22.3442C169.805 22.3383 169.784 22.3352 169.763 22.3353C169.716 22.3336 169.67 22.3475 169.632 22.3748C169.594 22.4021 169.566 22.4412 169.552 22.4861H169.559ZM169.313 23.0444C169.305 23.0534 169.297 23.0614 169.29 23.0704C169.297 23.061 169.305 23.0523 169.313 23.0444V23.0444Z" fill="#8F4900"/>
<path d="M170.087 26.8868C170.059 26.9134 170.042 26.9498 170.041 26.9883C170.039 27.0268 170.052 27.0645 170.078 27.0935C170.271 27.291 170.492 27.4592 170.733 27.5929C170.842 27.653 170.956 27.7037 171.074 27.7447C171.206 27.7912 171.344 27.8227 171.484 27.8386C171.603 27.8541 171.725 27.8541 171.844 27.8386C171.911 27.8306 171.978 27.8185 172.044 27.8026C172.11 27.7857 172.175 27.764 172.237 27.7377C172.37 27.6825 172.493 27.607 172.602 27.514C172.721 27.4123 172.822 27.2914 172.902 27.1564C172.927 27.1156 172.936 27.0666 172.926 27.0197C172.916 26.9728 172.888 26.9316 172.848 26.9047C172.806 26.8794 172.756 26.8712 172.708 26.8818C172.663 26.894 172.623 26.9216 172.597 26.9597C172.564 27.0046 172.53 27.0476 172.497 27.0905C172.427 27.1687 172.351 27.24 172.267 27.3033C172.113 27.4127 171.932 27.4798 171.743 27.498C171.611 27.5067 171.478 27.5003 171.348 27.479C171.187 27.4453 171.031 27.3937 170.881 27.3252C170.727 27.2472 170.582 27.1534 170.447 27.0456C170.447 27.0456 170.447 27.0456 170.452 27.0506L170.445 27.0446L170.423 27.0266L170.443 27.0426C170.39 26.9956 170.338 26.9427 170.288 26.8967C170.274 26.8823 170.257 26.8708 170.239 26.8629C170.22 26.855 170.2 26.8509 170.18 26.8508C170.143 26.8499 170.107 26.8631 170.08 26.8878L170.087 26.8868ZM172.302 27.2803L172.291 27.2883L172.302 27.2803Z" fill="#8F4900"/>
<path d="M169.788 126.641C169.888 126.22 169.953 125.8 170.006 125.442C169.993 125.419 169.984 125.394 169.981 125.368C169.978 125.341 169.98 125.315 169.988 125.289C169.995 125.264 170.008 125.24 170.024 125.219C170.041 125.199 170.061 125.181 170.085 125.169C170.09 125.142 170.09 125.114 170.084 125.086C170.078 125.059 170.067 125.034 170.051 125.011C169.832 124.767 169.595 124.539 169.342 124.331C169.181 124.198 169.01 124.071 168.842 123.949C168.401 123.643 167.928 123.386 167.43 123.184C167.399 123.171 167.365 123.166 167.331 123.169C167.298 123.173 167.266 123.185 167.239 123.205L167.224 123.192C167.198 123.168 167.167 123.152 167.133 123.145C167.099 123.138 167.064 123.141 167.032 123.153C166.709 123.297 166.399 123.466 166.104 123.659C166.071 123.651 166.036 123.653 166.003 123.663C165.971 123.674 165.942 123.693 165.92 123.719C165.563 124.104 165.203 124.485 164.843 124.865C164.054 125.698 163.242 126.563 162.488 127.455C161.944 128.099 161.443 128.778 160.987 129.488C160.769 129.828 160.556 130.196 160.353 130.58C160.151 130.973 159.97 131.375 159.811 131.787C159.793 131.828 159.789 131.874 159.799 131.918C159.809 131.962 159.833 132.001 159.867 132.031L159.914 132.06C159.941 132.07 159.971 132.076 160 132.074C160.007 132.091 160.019 132.105 160.033 132.115C160.051 132.13 160.071 132.141 160.093 132.147C160.115 132.154 160.138 132.156 160.16 132.153C162.084 131.977 163.802 131.031 165.23 130.129C165.394 130.029 165.557 129.918 165.721 129.811C165.913 129.686 166.104 129.561 166.299 129.44L166.721 129.176C166.99 129.01 167.259 128.843 167.522 128.677C167.935 128.413 168.331 128.123 168.709 127.811C169.054 127.528 169.361 127.2 169.621 126.838C169.661 126.818 169.697 126.791 169.725 126.757C169.754 126.723 169.775 126.684 169.788 126.641V126.641Z" fill="#191847"/>
<path d="M178.664 129.607L178.653 129.54H178.658C178.673 129.484 178.665 129.426 178.637 129.376C178.609 129.326 178.562 129.289 178.507 129.274C178.368 129.229 178.23 129.182 178.093 129.126C177.852 129.02 177.623 128.888 177.411 128.733C177.189 128.556 176.987 128.355 176.811 128.133C176.581 127.818 176.388 127.478 176.236 127.118C175.86 126.211 175.674 125.23 175.494 124.281L175.477 124.191C175.5 124.167 175.517 124.139 175.528 124.107C175.591 123.952 175.654 123.798 175.719 123.646C175.883 123.266 176.027 122.963 176.17 122.691C176.183 122.669 176.19 122.644 176.193 122.619C176.195 122.594 176.192 122.568 176.184 122.544C176.209 122.524 176.229 122.498 176.243 122.47C176.257 122.441 176.264 122.409 176.264 122.377C176.265 122.349 176.259 122.321 176.248 122.294C176.237 122.268 176.221 122.244 176.2 122.224C175.98 122.012 175.738 121.823 175.479 121.66C175.216 121.501 174.942 121.361 174.659 121.241L174.366 121.11C174.182 121.028 173.999 120.947 173.818 120.86C173.536 120.726 173.268 120.566 173.017 120.381C172.943 120.322 172.905 120.3 172.852 120.3C172.827 120.3 172.802 120.304 172.779 120.314C172.756 120.324 172.735 120.338 172.718 120.356C172.7 120.373 172.686 120.394 172.676 120.417C172.667 120.44 172.662 120.465 172.662 120.489H172.65H172.603C172.58 120.489 172.557 120.493 172.536 120.501C172.514 120.51 172.495 120.524 172.48 120.54C172.343 120.699 172.216 120.867 172.088 121.033C171.618 121.55 171.201 122.112 170.841 122.711C170.809 122.727 170.782 122.752 170.762 122.782C170.743 122.812 170.732 122.848 170.731 122.884C170.731 122.884 170.731 122.891 170.731 122.895C170.722 122.92 170.718 122.948 170.721 122.975C170.724 123.003 170.733 123.029 170.747 123.052C170.762 123.293 170.819 123.53 170.913 123.752C170.929 123.786 170.951 123.818 170.968 123.851C170.994 123.944 171.023 124.036 171.055 124.127C171.127 124.327 171.211 124.527 171.295 124.719C171.395 124.95 171.495 125.18 171.605 125.407C171.995 126.212 172.48 126.968 173.049 127.659C173.249 127.908 173.449 128.158 173.663 128.399C173.85 128.628 174.051 128.845 174.264 129.049C174.567 129.343 174.912 129.59 175.287 129.784C175.517 129.896 175.762 129.972 176.015 130.01C176.286 130.054 176.559 130.074 176.833 130.07C177.118 130.068 177.403 130.048 177.686 130.01C177.963 129.975 178.238 129.925 178.513 129.873C178.539 129.868 178.563 129.858 178.584 129.842C178.605 129.827 178.623 129.808 178.636 129.785C178.653 129.759 178.663 129.73 178.668 129.699C178.673 129.669 178.672 129.637 178.664 129.607V129.607Z" fill="#191847"/>
<path d="M188.592 93.4831C188.191 89.8605 187.213 86.2659 186.306 83.2305C185.994 82.1848 185.669 81.1421 185.342 80.1003C185.161 79.511 184.977 78.9208 184.795 78.3315C184.559 77.5664 184.328 76.8007 184.104 76.0343C183.899 75.3351 183.704 74.63 183.504 73.9258L183.456 73.759C182.504 70.426 181.605 67.4387 180.235 64.6091C179.479 63.0194 178.526 61.5308 177.398 60.1785C177.382 60.1588 177.362 60.1432 177.339 60.1328C177.316 60.1224 177.291 60.1175 177.266 60.1185C177.237 60.1187 177.209 60.1244 177.182 60.1355C177.134 60.0836 177.082 60.0296 177.028 59.9797C176.916 59.8783 176.796 59.7851 176.671 59.701C176.423 59.5362 176.154 59.4068 175.87 59.3165C175.574 59.222 175.27 59.1535 174.962 59.1117C174.673 59.0658 174.379 59.0378 174.087 59.0119L173.987 59.0009C173.076 58.913 172.115 58.869 171.047 58.869C170.453 58.869 169.806 58.885 169.063 58.913C167.555 58.9729 166.022 59.0958 164.542 59.2126C162.829 59.3495 161.059 59.4913 159.313 59.5392C159.306 59.4985 159.285 59.4613 159.254 59.4344C159.223 59.4075 159.183 59.3926 159.141 59.3924C159.118 59.3922 159.094 59.3969 159.072 59.4062C159.05 59.4155 159.03 59.4291 159.013 59.4463C158.981 59.4799 158.961 59.5243 158.959 59.5712C158.937 59.6243 158.923 59.6806 158.918 59.738C158.919 59.768 158.926 59.7974 158.94 59.8239C158.925 60.0146 158.912 60.2114 158.905 60.4052C158.904 60.4265 158.908 60.4477 158.916 60.4675C158.924 60.4873 158.936 60.5052 158.951 60.52L158.831 62.8133C158.523 66.8474 158.438 70.2203 158.424 72.6913C158.403 76.6405 158.577 75.9873 158.924 86.3927C158.957 87.3725 159.008 88.9566 159.252 91.078C159.465 92.9557 159.78 94.8205 160.195 96.6643L160.301 97.2396C161.392 103.828 162.833 110.354 164.619 116.789C164.975 118.071 165.342 119.337 165.719 120.584L165.873 121.084C166.016 121.551 166.159 122.02 166.295 122.488L170.098 124.132C170.11 124.133 170.122 124.133 170.135 124.132V124.132L170.174 124.125C170.186 124.126 170.198 124.126 170.21 124.125H170.187C170.264 124.114 170.342 124.101 170.418 124.088C170.449 124.063 170.472 124.029 170.484 123.99C170.495 123.952 170.495 123.911 170.483 123.872C170.475 123.846 170.463 123.821 170.446 123.799C170.26 122.079 170.112 120.291 170.014 118.44C169.977 117.761 169.948 117.09 169.927 116.428L169.899 115.757C169.863 114.896 169.83 114.036 169.799 113.177V113.089C170.073 109.104 170.244 105.773 170.352 103.353C170.352 103.353 170.631 97.0798 170.352 80.8305C170.33 79.1702 170.166 77.5148 169.862 75.8824C169.855 75.8475 169.85 75.8185 169.847 75.8025C170.047 75.8844 170.264 75.9583 170.476 76.0293L170.766 76.1291C171.411 76.3469 171.902 76.5287 172.358 76.7164C172.644 77.2158 176.361 83.7679 177.741 87.9618C178.121 89.1144 178.415 90.2241 178.415 90.2241C178.823 91.7684 179.135 93.3361 179.352 94.9184C179.773 98.004 179.784 101.132 179.385 104.22C179.234 105.284 179.009 106.335 178.711 107.367C178.417 108.358 178.065 109.331 177.656 110.28C176.923 112.004 176.027 113.687 175.16 115.313L175.059 115.5L174.925 115.753C174.512 116.533 174.099 117.313 173.702 118.101C173.47 118.562 173.25 119.024 173.038 119.491C172.874 119.852 172.69 120.274 172.529 120.703C172.642 120.797 172.757 120.89 172.871 120.981C173.357 121.354 173.867 121.694 174.4 121.998C174.611 122.097 174.826 122.197 175.042 122.286C175.343 122.411 175.635 122.536 175.936 122.647H175.968C176.005 122.65 176.042 122.644 176.075 122.628C176.108 122.612 176.136 122.587 176.156 122.556C176.162 122.547 176.156 122.538 176.163 122.528C176.199 122.531 176.235 122.523 176.267 122.506C176.298 122.488 176.323 122.461 176.338 122.428C176.533 122.169 176.72 121.908 176.905 121.642L177.005 121.501C177.247 121.163 177.483 120.819 177.719 120.473C178.172 119.812 178.612 119.142 179.039 118.462C179.176 118.248 179.31 118.033 179.44 117.818C179.462 117.787 179.485 117.756 179.508 117.726C179.608 117.586 179.713 117.444 179.817 117.304C179.911 117.21 180.01 117.121 180.103 117.024C180.668 116.429 181.193 115.798 181.676 115.136C182.159 114.484 182.639 113.775 183.142 112.972C184.077 111.453 184.926 109.884 185.684 108.271C186.042 107.517 186.399 106.737 186.773 105.882C187.116 105.098 187.451 104.329 187.721 103.547C188.719 100.684 189.011 97.2955 188.592 93.4831Z" fill="#754FBA"/>
<path d="M170.14 124.129L170.191 124.123H170.178L170.14 124.129Z" fill="#3B001C"/>
<path d="M172.568 32.8006C172.535 32.8 172.503 32.8094 172.476 32.8276C172.433 32.8531 172.402 32.8933 172.388 32.9404C172.362 32.9674 172.34 32.9834 172.32 33.0034C172.292 33.0291 172.273 33.062 172.263 33.0983C172.252 33.1354 172.252 33.175 172.263 33.2121L172.277 33.2661H172.272C172.286 33.421 172.284 33.5769 172.267 33.7315C172.241 33.8886 172.2 34.0428 172.144 34.1919C172.1 34.2946 172.049 34.3947 171.993 34.4916C171.937 34.5842 171.876 34.6736 171.81 34.7592C171.688 34.9081 171.552 35.0452 171.404 35.1688C171.269 35.271 171.123 35.3575 170.968 35.4264C170.828 35.4816 170.683 35.5215 170.534 35.5453C170.46 35.5513 170.386 35.5553 170.312 35.5553C170.238 35.5553 170.164 35.5553 170.09 35.5453C169.904 35.5157 169.723 35.4658 169.548 35.3965C169.336 35.3038 169.134 35.1872 168.948 35.0489C168.747 34.8864 168.564 34.7029 168.402 34.5016C168.238 34.2849 168.1 34.0503 167.989 33.8024C167.91 33.6088 167.849 33.4081 167.807 33.2031C167.801 33.1783 167.79 33.1551 167.774 33.1351C167.759 33.1151 167.739 33.0988 167.716 33.0873C167.701 33.0511 167.676 33.0201 167.644 32.9981C167.611 32.9761 167.573 32.964 167.534 32.9634C167.165 32.9798 166.796 33.0165 166.431 33.0733L166.344 33.0843L165.624 33.1842L165.212 33.2411C164.871 33.286 164.529 33.33 164.18 33.3639L164.113 33.351C164.069 33.3515 164.027 33.366 163.992 33.3924C163.956 33.4188 163.931 33.4557 163.918 33.4978C162.972 36.5493 162.194 39.6502 161.586 42.7865C160.924 46.2553 160.558 49.4455 160.468 52.5377C160.388 54.8694 160.517 57.2035 160.853 59.5123C160.86 59.5429 160.874 59.5716 160.893 59.5967C160.912 59.6218 160.936 59.6427 160.964 59.6581C161.002 59.6792 161.045 59.6903 161.088 59.6901C161.126 59.6913 161.164 59.6828 161.199 59.6653C161.233 59.6478 161.262 59.622 161.283 59.5902C162.408 59.6631 163.539 59.73 164.67 59.7959C166.783 59.9198 168.968 60.0486 171.115 60.2094C171.851 60.2664 172.587 60.3243 173.316 60.3952C173.933 60.4571 174.591 60.5201 175.263 60.549C175.431 60.556 175.599 60.559 175.763 60.559C176.243 60.56 176.723 60.5286 177.199 60.4651C177.499 60.4233 177.795 60.3588 178.085 60.2724C178.382 60.1812 178.67 60.0632 178.945 59.9198C178.986 59.8341 179.058 59.7668 179.146 59.731C179.192 59.6814 179.219 59.6163 179.221 59.5482C179.273 59.1737 179.305 58.7952 179.337 58.4176C179.375 57.9901 179.403 57.5736 179.427 57.1571C179.472 56.3861 179.502 55.5691 179.516 54.7281C179.543 53.106 179.505 51.453 179.401 49.816C179.204 46.5444 178.717 43.2966 177.946 40.1108C177.452 38.1218 176.825 36.1679 176.071 34.2618C176.072 34.232 176.067 34.2022 176.056 34.1744C176.045 34.1466 176.028 34.1213 176.007 34.1L175.972 34.0311H175.978C175.962 33.9809 175.929 33.9378 175.884 33.9093C175.854 33.8912 175.819 33.8812 175.784 33.8803L175.728 33.8893C175.291 33.6601 174.842 33.4544 174.383 33.273C173.814 33.0583 173.224 32.9013 172.623 32.8046L172.568 32.7976V32.8006ZM161.287 59.1867C161.287 59.1867 161.287 59.1777 161.287 59.1747V59.1637C161.75 59.2146 162.216 59.2506 162.682 59.2836L161.281 59.1837L161.287 59.1867Z" fill="white"/>
<path d="M192.957 50.0787C192.808 49.4335 192.618 48.7523 192.375 47.9962C192.158 47.312 191.915 46.6399 191.653 45.9986C191.151 44.7485 190.532 43.5483 189.805 42.414C188.498 40.3734 186.788 38.6199 184.78 37.2602C184.344 36.9606 183.869 36.6609 183.286 36.3333C182.817 36.0627 182.285 35.78 181.708 35.4934C180.567 34.9118 179.383 34.417 178.168 34.0131C176.867 33.5837 175.699 33.3559 174.608 33.314H174.601C174.562 33.3132 174.523 33.324 174.489 33.3452C174.456 33.3664 174.43 33.397 174.414 33.4331C174.398 33.4692 174.393 33.5093 174.4 33.5482C174.407 33.587 174.425 33.623 174.452 33.6516C175.245 35.5633 175.91 37.6737 176.486 40.1038C176.967 42.1553 177.361 44.3506 177.724 47.0114C178.029 49.3086 178.287 51.7677 178.516 54.5393L178.41 54.4394L178.353 54.4045C178.323 54.3849 178.289 54.3742 178.253 54.3735C178.221 54.3746 178.189 54.3825 178.16 54.3966C178.131 54.4107 178.105 54.4307 178.084 54.4554C178.062 54.4557 178.041 54.4604 178.021 54.4693C178.002 54.4783 177.984 54.4912 177.97 54.5073C177.9 54.5892 177.833 54.6761 177.77 54.762C177.684 54.894 177.609 55.0326 177.546 55.1765C177.534 55.1996 177.525 55.225 177.523 55.2512C177.52 55.2775 177.522 55.304 177.529 55.3293L177.479 55.4422C177.379 55.6619 177.269 55.8757 177.153 56.0874C176.934 56.4792 176.685 56.8538 176.409 57.2081C176.006 57.7143 175.558 58.1824 175.07 58.6064C175.051 58.6236 175.036 58.6442 175.026 58.6672C175.016 58.6902 175.01 58.715 175.009 58.7402C175.008 58.7684 175.013 58.7965 175.024 58.8228C175.034 58.8491 175.05 58.873 175.07 58.893C175.09 58.9126 175.114 58.9273 175.141 58.936L175.166 59.0189C175.571 59.5183 176.036 60.0446 176.676 60.7248C176.911 60.9715 177.149 61.2152 177.391 61.4599L177.463 61.5288C177.673 61.7406 177.884 61.9503 178.102 62.1531C178.424 62.4469 178.766 62.7179 179.127 62.9641L179.144 63.3247L179.33 66.3919L179.43 68.1159C179.486 69.0301 179.544 69.9446 179.605 70.8595L179.654 71.5487L179.704 72.2868L179.752 72.939L179.763 73.0868C179.772 73.2772 179.792 73.4669 179.821 73.6552C179.832 73.6966 179.853 73.7347 179.882 73.7662C179.911 73.7977 179.947 73.8215 179.988 73.8355C180.028 73.8495 180.072 73.8534 180.114 73.8466C180.156 73.8399 180.196 73.8229 180.23 73.797C180.48 73.817 180.74 73.8329 180.999 73.8459C181.608 73.8799 182.3 73.9198 182.964 74.0077C183.429 74.0684 183.887 74.1741 184.33 74.3233H184.342C184.472 74.3233 184.542 74.2804 184.576 74.2035C184.595 74.1848 184.61 74.1625 184.621 74.1378C184.631 74.1131 184.637 74.0865 184.637 74.0597C184.55 73.3775 184.464 72.6953 184.375 72.0121L184.364 71.9302C184.249 71.0513 184.136 70.1724 184.032 69.2924C183.827 67.5945 183.671 66.1073 183.557 64.7479C183.945 64.8316 184.34 64.8833 184.737 64.9027C184.899 64.9117 185.062 64.9157 185.226 64.9157C186.271 64.9208 187.306 64.7202 188.273 64.3255C188.825 64.0974 189.342 63.7949 189.812 63.4265C190.342 62.9952 190.818 62.502 191.231 61.9573C192.077 60.8719 192.705 59.6328 193.078 58.3087C193.43 57.1002 193.588 55.7398 193.549 54.2656C193.498 52.8533 193.299 51.4501 192.957 50.0787V50.0787ZM179.087 55.3363C179.077 55.3363 179.067 55.3363 179.057 55.3363V55.3134C179.067 55.3205 179.077 55.3282 179.087 55.3363V55.3363ZM178.228 54.823C178.228 54.8319 178.216 54.8389 178.215 54.8479L178.198 54.8619L178.204 54.8519L178.228 54.823ZM184.182 54.9418C184.127 55.0593 184.06 55.1708 183.982 55.2744C183.85 55.4339 183.7 55.5782 183.536 55.7049C183.394 55.8098 183.241 55.8995 183.08 55.9726C182.961 56.0175 182.84 56.0545 182.717 56.0834C182.632 55.2584 182.503 54.4264 182.399 53.7582L182.283 53.0591C182.157 52.297 182.032 51.5339 181.928 50.7679C181.828 50.0487 181.766 49.3825 181.728 48.7283C181.828 48.9181 181.945 49.1049 182.061 49.2927C182.177 49.4804 182.286 49.6582 182.397 49.842C182.847 50.5794 183.245 51.3469 183.589 52.1392C183.865 52.7642 184.059 53.4222 184.166 54.0968C184.208 54.3783 184.214 54.664 184.182 54.9468V54.9418Z" fill="#4B208F"/>
<path d="M165.326 33.1801L165.27 33.1741C165.255 33.1491 165.234 33.1285 165.208 33.1142C165.179 33.0972 165.146 33.0886 165.113 33.0892L165.06 33.0942C164.669 33.1548 164.283 33.248 163.907 33.3729C163.512 33.5017 163.12 33.6575 162.74 33.8093C162.34 33.9712 161.975 34.109 161.613 34.2388C161.277 34.3597 160.944 34.4875 160.613 34.6174C159.361 35.1164 158.143 35.6973 156.968 36.3563C154.63 37.6594 152.496 39.2964 150.633 41.2154C148.76 43.1469 147.211 45.3671 146.046 47.7904C145.769 48.3627 145.507 48.975 145.245 49.6592C145.03 50.2156 144.854 50.7867 144.721 51.3681C144.468 52.5094 144.374 53.6799 144.439 54.8469C144.56 57.1872 145.307 59.4524 146.602 61.4069C147.243 62.3715 148.026 63.2348 148.924 63.9678C149.835 64.7088 150.865 65.2918 151.969 65.6928C152.107 65.7447 152.248 65.7926 152.388 65.8376H152.409C152.452 65.8433 152.496 65.8339 152.532 65.8111C152.569 65.7883 152.596 65.7535 152.61 65.7127C152.636 65.6707 152.665 65.63 152.696 65.5909C153.268 64.5451 153.997 63.4575 154.997 62.17C155.26 61.8304 155.556 61.4589 155.854 61.0873C155.888 61.0514 155.908 61.0041 155.909 60.9545C155.909 60.9297 155.904 60.905 155.895 60.8821C155.886 60.8591 155.872 60.8382 155.854 60.8207C155.834 60.8005 155.809 60.7854 155.782 60.7767C155.785 60.7462 155.781 60.7155 155.771 60.6867C155.76 60.658 155.743 60.632 155.721 60.6109C155.578 60.4976 155.442 60.3765 155.313 60.2483C155.165 60.1011 155.028 59.9439 154.902 59.7779C154.663 59.4524 154.447 59.1107 154.255 58.7552C154.09 58.4555 153.917 58.1349 153.773 57.8003C153.535 57.2026 153.374 56.5774 153.293 55.9396C153.186 55.0455 153.192 54.1414 153.311 53.2488V53.2488L153.299 53.3028C153.424 52.4275 153.655 51.5708 153.989 50.7518C154.238 50.1665 154.558 49.614 154.942 49.1068C155.234 48.7308 155.57 48.3911 155.943 48.0951C156.268 47.851 156.62 47.6452 156.992 47.4818C156.315 50.63 156.304 53.933 156.352 57.0442C156.36 57.5443 156.37 58.0453 156.38 58.5474L156.399 59.5572C156.415 60.3342 156.427 61.1702 156.416 62.0102C156.403 62.9091 156.373 63.808 156.343 64.7069C156.317 65.485 156.29 66.2631 156.276 67.0411C156.242 68.3888 156.278 69.7373 156.384 71.0812C156.442 71.7374 156.528 72.3877 156.641 73.0149C156.697 73.3415 156.766 73.6631 156.841 73.9837C156.88 74.1435 156.921 74.3033 156.964 74.4611C156.973 74.5118 156.989 74.5609 157.012 74.607C157.026 74.6379 157.043 74.6669 157.059 74.6959L157.094 74.7598C157.112 74.7916 157.139 74.8178 157.172 74.8354C157.204 74.853 157.24 74.8614 157.277 74.8597C157.314 74.86 157.351 74.8504 157.383 74.8317C157.406 74.8179 157.426 74.8007 157.443 74.7808C157.465 74.7922 157.488 74.7987 157.512 74.7997C157.643 74.8107 157.775 74.8167 157.907 74.8167C158.163 74.8158 158.419 74.7965 158.673 74.7588C159.086 74.6959 159.495 74.6072 159.897 74.4931C160.171 74.4182 160.445 74.3353 160.717 74.2534C161.269 74.0758 161.831 73.9281 162.399 73.8109C162.486 73.8128 162.57 73.7817 162.634 73.724C162.654 73.7036 162.67 73.6791 162.68 73.6523C162.69 73.6254 162.694 73.5968 162.692 73.5682C162.672 73.1967 162.641 72.8261 162.611 72.4566L162.597 72.2868C162.561 71.8167 162.522 71.3459 162.48 70.8745C162.421 70.1853 162.358 69.4952 162.295 68.807L162.236 68.1628C162.069 66.327 161.908 64.5322 161.78 62.7523C161.479 58.4865 161.45 55.0397 161.694 51.9044C161.753 51.1583 161.835 50.4113 161.916 49.7141C161.997 49.0169 162.085 48.3358 162.178 47.6496C162.537 44.9978 162.947 42.6277 163.427 40.4373C164.003 37.7895 164.667 35.4903 165.454 33.4068C165.462 33.3871 165.465 33.366 165.463 33.3449C165.462 33.3239 165.456 33.3034 165.445 33.285C165.434 33.2603 165.417 33.2383 165.397 33.2203C165.376 33.2022 165.352 33.1886 165.326 33.1801V33.1801Z" fill="#4B208F"/>
<path d="M165.104 33.0273C164.855 33.1146 164.613 33.2218 164.38 33.3479C164.128 33.4877 163.885 33.6449 163.654 33.8184C163.169 34.183 162.712 34.5837 162.288 35.0169C161.862 35.4424 161.45 35.8939 161.05 36.3303L160.994 36.3933L160.905 36.4931C160.557 36.8757 160.197 37.2712 159.823 37.6388C159.773 37.6701 159.729 37.7112 159.695 37.7596C159.682 37.7826 159.673 37.808 159.67 37.8343C159.668 37.8605 159.67 37.8872 159.678 37.9124C159.684 37.9357 159.695 37.9575 159.71 37.9765C159.725 37.9956 159.743 38.0115 159.764 38.0233C159.866 38.0772 159.964 38.1376 160.058 38.2041C160.243 38.3515 160.411 38.519 160.559 38.7035C160.759 38.9768 160.943 39.2609 161.112 39.5544L161.231 39.7592C161.354 39.9739 161.478 40.1857 161.614 40.3904C161.252 40.7421 160.872 41.0755 160.476 41.3892L160.24 41.563C160.198 41.5903 160.166 41.6317 160.151 41.6799C160.138 41.7308 160.145 41.785 160.171 41.8307C159.989 43.4817 159.871 45.1836 159.825 46.9165C159.788 48.5146 159.825 50.2215 159.946 51.9794C160.054 53.5825 160.223 55.2195 160.462 56.9843C160.572 57.8123 160.686 58.6653 160.844 59.4973C160.988 60.2857 161.211 61.0576 161.51 61.8015L161.526 61.8704C161.535 61.905 161.554 61.9362 161.58 61.9605C161.606 61.9848 161.638 62.001 161.673 62.0073V61.9164C161.668 61.436 161.696 60.9565 161.738 60.4781C161.713 60.0626 161.707 59.6581 161.703 59.2915V58.892C161.703 58.6923 161.703 58.4855 161.696 58.2848C161.687 57.9262 161.681 57.5656 161.679 57.2071C161.679 55.8737 161.742 54.4204 161.88 52.7635C162.014 51.1884 162.202 49.6422 162.369 48.3348C162.46 47.6177 162.553 46.8999 162.65 46.1814L162.793 45.0827L162.944 43.9192L162.936 43.9451L162.927 43.9731C163.207 42.0304 163.644 40.0668 164.028 38.3799C164.073 38.1801 164.119 37.9803 164.171 37.7806C164.229 37.5648 164.298 37.3471 164.371 37.1304C164.484 36.7868 164.61 36.4482 164.735 36.1086L164.841 35.8259C165.014 35.3595 165.141 34.973 165.252 34.6094C165.376 34.1924 165.462 33.7652 165.509 33.333C165.51 33.283 165.49 33.2349 165.455 33.1991C165.419 33.1644 165.371 33.1444 165.321 33.1432C165.306 33.1103 165.283 33.082 165.253 33.0614C165.223 33.0408 165.188 33.0287 165.152 33.0263L165.103 33.0323L165.104 33.0273Z" fill="#83E2ED"/>
<path d="M174.595 33.325C174.573 33.3132 174.549 33.3073 174.524 33.308C174.492 33.3101 174.461 33.3196 174.433 33.3357C174.405 33.3518 174.381 33.3741 174.363 33.4009C174.34 33.4456 174.333 33.4967 174.344 33.5457C174.515 34.5715 174.906 35.5503 175.284 36.4981C175.384 36.7508 175.484 37.0065 175.584 37.2612C176.084 38.5706 176.384 39.951 176.617 41.1295C176.725 41.6869 176.817 42.2492 176.917 42.8105L176.965 43.0802C177.054 43.5965 177.147 44.1149 177.24 44.6333L177.333 45.1547C177.594 46.6339 177.812 48.0012 177.991 49.3316C178.112 50.2245 178.218 51.1184 178.309 52.0084C178.357 52.4798 178.4 52.9502 178.441 53.4217C178.461 53.6284 178.474 53.8381 178.482 54.0479C178.488 54.2331 178.504 54.4178 178.53 54.6012C178.543 54.6099 178.555 54.6192 178.567 54.6292C178.612 54.6369 178.654 54.6535 178.692 54.6781C178.963 54.8798 179.249 55.0604 179.548 55.2185C179.604 55.0011 179.646 54.7802 179.673 54.5573C179.694 54.3715 179.712 54.1857 179.729 53.9999L179.761 53.6743C179.815 53.11 179.87 52.5467 179.921 51.9764C180.047 50.628 180.131 49.5244 180.187 48.5006C180.33 45.8039 180.254 43.6315 179.947 41.6659C179.941 41.6429 179.931 41.6213 179.916 41.6025C179.902 41.5836 179.884 41.5678 179.863 41.556C179.842 41.5446 179.818 41.5371 179.794 41.534C179.316 41.0896 178.869 40.5942 178.493 40.1667C178.776 39.892 179.059 39.6094 179.342 39.3247C179.718 38.9462 179.999 38.6465 180.254 38.3549C180.289 38.3179 180.308 38.2692 180.308 38.2186C180.308 38.1679 180.289 38.1192 180.254 38.0822C180.227 38.0559 180.192 38.0385 180.154 38.0323C180.146 38.0056 180.132 37.9813 180.112 37.9614C179.868 37.6917 179.626 37.417 179.384 37.1424C178.857 36.5511 178.316 35.9348 177.74 35.3695C177.341 34.9777 176.919 34.6108 176.475 34.2708C175.964 33.8891 175.42 33.5551 174.848 33.273C174.817 33.2571 174.783 33.2489 174.748 33.2491C174.718 33.2488 174.689 33.2558 174.662 33.2693C174.635 33.2829 174.612 33.3027 174.595 33.327V33.325Z" fill="#83E2ED"/>
<path d="M155.576 60.7678C154.872 61.4917 154.232 62.2754 153.664 63.1099C153.093 63.935 152.607 64.8166 152.216 65.7408C152.21 65.765 152.208 65.7903 152.212 65.8152C152.215 65.84 152.224 65.864 152.236 65.8856C152.248 65.9067 152.264 65.9252 152.284 65.9399C152.303 65.9547 152.325 65.9654 152.348 65.9715C152.373 65.9781 152.398 65.9798 152.423 65.9766C152.448 65.9733 152.472 65.9651 152.493 65.9525C152.534 65.9256 152.565 65.8859 152.581 65.8396C152.591 65.8117 152.604 65.7817 152.617 65.7537C152.617 65.7537 152.612 65.7647 152.61 65.7707C153.088 64.7059 153.696 63.7039 154.42 62.7873L154.411 62.7963C154.876 62.197 155.375 61.6347 155.883 61.0744C155.923 61.0334 155.945 60.9783 155.945 60.9211C155.945 60.8638 155.923 60.8088 155.883 60.7678C155.842 60.7276 155.787 60.705 155.729 60.705C155.672 60.705 155.617 60.7276 155.576 60.7678V60.7678ZM154.42 62.7873L154.446 62.7534L154.42 62.7873Z" fill="#89C5CC"/>
<path d="M154.784 60.559C154.14 61.2802 153.499 62.0063 152.911 62.7753C152.618 63.1554 152.346 63.5504 152.094 63.9589C151.842 64.3721 151.624 64.8046 151.441 65.2523C151.434 65.2758 151.432 65.3003 151.435 65.3245C151.438 65.3487 151.446 65.372 151.458 65.3932C151.482 65.4328 151.521 65.462 151.566 65.4751C151.613 65.4882 151.664 65.4821 151.707 65.4581C151.746 65.4324 151.775 65.3944 151.789 65.3502C151.796 65.3312 151.805 65.3113 151.812 65.2923C151.812 65.297 151.812 65.3016 151.812 65.3063C152.183 64.4687 152.658 63.6814 153.227 62.9631C153.216 62.9741 153.207 62.9871 153.196 62.9991C153.781 62.248 154.421 61.5438 155.051 60.8307C155.086 60.7938 155.105 60.7452 155.105 60.6949C155.105 60.6445 155.086 60.596 155.051 60.559C155.033 60.5409 155.011 60.5266 154.988 60.517C154.964 60.5074 154.938 60.5027 154.912 60.5031C154.888 60.5024 154.863 60.507 154.84 60.5167C154.817 60.5263 154.797 60.5408 154.78 60.559H154.784Z" fill="#89C5CC"/>
<path d="M177.884 54.76C177.826 54.9248 177.766 55.0866 177.7 55.2464C177.443 55.8266 177.117 56.3736 176.729 56.8755C176.32 57.4013 175.849 57.8767 175.328 58.2917C175.341 58.2838 175.354 58.2728 175.367 58.2638C175.227 58.3696 175.086 58.4715 174.94 58.5684C174.9 58.5947 174.871 58.6354 174.86 58.6821C174.849 58.7289 174.856 58.7781 174.88 58.8197C174.904 58.8613 174.944 58.8921 174.99 58.9057C175.036 58.9194 175.086 58.9148 175.129 58.893C175.854 58.4046 176.5 57.8084 177.045 57.1252C177.584 56.458 178.037 55.6979 178.268 54.8679C178.275 54.8424 178.277 54.8157 178.274 54.7893C178.271 54.763 178.263 54.7376 178.249 54.7145C178.236 54.6915 178.219 54.6712 178.198 54.655C178.177 54.6388 178.153 54.627 178.127 54.6202C178.11 54.6152 178.092 54.6125 178.074 54.6122C178.03 54.6135 177.988 54.6285 177.953 54.655C177.919 54.6815 177.893 54.7183 177.881 54.76H177.884ZM177.72 55.2035C177.714 55.2165 177.707 55.2305 177.702 55.2444C177.706 55.2303 177.712 55.2166 177.72 55.2035V55.2035Z" fill="#89C5CC"/>
<path d="M178.386 55.2814C178.176 55.6889 177.964 56.0954 177.732 56.4929C177.49 56.912 177.223 57.3156 176.931 57.7015C176.753 57.9292 176.567 58.1509 176.367 58.3617C176.135 58.6078 175.886 58.8374 175.622 59.0488C175.604 59.0663 175.591 59.087 175.581 59.1098C175.572 59.1326 175.567 59.157 175.567 59.1817C175.567 59.2064 175.572 59.2308 175.581 59.2536C175.591 59.2764 175.604 59.2971 175.622 59.3145C175.639 59.3323 175.66 59.3465 175.683 59.3561C175.706 59.3657 175.731 59.3706 175.756 59.3705C175.806 59.3683 175.854 59.3485 175.89 59.3145C176.2 59.0643 176.493 58.7926 176.765 58.5015C177.024 58.2208 177.265 57.9242 177.487 57.6136C177.968 56.944 178.388 56.2326 178.742 55.4882C178.762 55.4573 178.773 55.4217 178.774 55.3851C178.775 55.3485 178.766 55.3123 178.747 55.2806C178.729 55.2488 178.703 55.2227 178.67 55.205C178.638 55.1874 178.602 55.1789 178.565 55.1805C178.529 55.1798 178.494 55.1888 178.463 55.2063C178.432 55.2239 178.406 55.2495 178.388 55.2804L178.386 55.2814ZM176.955 57.6685L176.942 57.6845C176.942 57.6785 176.951 57.6735 176.955 57.6685Z" fill="#89C5CC"/>
<path d="M160.763 64.7699C160.696 65.0143 160.616 65.2557 160.523 65.494C160.53 65.4741 160.538 65.4551 160.545 65.4351C160.327 66.0053 160.039 66.5464 159.688 67.0462C159.475 67.3361 159.23 67.6017 158.958 67.8382V67.8382L158.933 67.8602L158.953 67.8422C158.741 68.0151 158.509 68.162 158.262 68.2797C158.239 68.2924 158.22 68.3098 158.204 68.3306C158.189 68.3514 158.178 68.3753 158.173 68.4005C158.167 68.4264 158.166 68.4533 158.17 68.4796C158.175 68.5058 158.184 68.5309 158.199 68.5533C158.227 68.597 158.27 68.6287 158.32 68.6422C158.373 68.6526 158.427 68.6433 158.474 68.6163C159.18 68.2857 159.753 67.7263 160.201 67.0981C160.678 66.4288 161.028 65.678 161.233 64.8828C161.248 64.8205 161.238 64.7549 161.204 64.7002C161.171 64.6455 161.117 64.6063 161.055 64.5911C161.037 64.5868 161.018 64.5845 161 64.5841C160.946 64.5853 160.893 64.6041 160.85 64.6376C160.807 64.6711 160.777 64.7175 160.763 64.7699V64.7699Z" fill="#89C5CC"/>
<path d="M178.34 54.4704C178.308 54.5048 178.292 54.5502 178.293 54.5969C178.295 54.6435 178.314 54.6877 178.348 54.7201C178.667 55.0161 179.011 55.2834 179.377 55.5191C179.796 55.7885 180.243 56.0116 180.71 56.1843C181.141 56.3446 181.594 56.4392 182.054 56.465C182.519 56.4904 182.983 56.403 183.407 56.2103C183.454 56.1934 183.494 56.1605 183.519 56.1174C183.531 56.095 183.538 56.0705 183.54 56.0453C183.542 56.0201 183.54 55.9947 183.532 55.9706C183.525 55.9463 183.513 55.9238 183.497 55.9042C183.481 55.8846 183.461 55.8684 183.439 55.8565C183.416 55.8446 183.392 55.8373 183.367 55.8349C183.341 55.8325 183.316 55.8352 183.292 55.8427C183.197 55.8857 183.1 55.9246 183.002 55.9576C182.888 55.9941 182.772 56.0222 182.654 56.0415C182.37 56.0788 182.083 56.0832 181.799 56.0545C181.817 56.0535 181.835 56.0535 181.853 56.0545C181.45 56.0041 181.055 55.9062 180.676 55.7628L180.686 55.7678L180.671 55.7608L180.641 55.7498L180.656 55.7548C180.155 55.5542 179.679 55.2968 179.238 54.9878C179.012 54.8246 178.797 54.6478 178.593 54.4584C178.576 54.4424 178.556 54.4299 178.534 54.4217C178.512 54.4135 178.488 54.4097 178.465 54.4106C178.441 54.4114 178.418 54.4168 178.397 54.4266C178.375 54.4363 178.356 54.4502 178.34 54.4674V54.4704ZM182.673 56.0385H182.656H182.673ZM182.653 56.0385L182.621 56.0445L182.649 56.0455L182.653 56.0385ZM180.671 55.7618L180.651 55.7538L180.666 55.7598L180.671 55.7618Z" fill="#89C5CC"/>
<path d="M179.241 62.8372C179.198 62.851 179.162 62.8802 179.141 62.9192C179.12 62.9605 179.115 63.0083 179.128 63.053C179.144 63.0951 179.174 63.1304 179.213 63.1529C179.49 63.3531 179.779 63.5363 180.078 63.7012C180.37 63.8608 180.671 64.0036 180.979 64.1287C181.617 64.3861 182.277 64.5889 182.95 64.7349C182.998 64.7465 183.048 64.7385 183.09 64.7127C183.133 64.687 183.163 64.6456 183.174 64.5976C183.186 64.5497 183.178 64.4991 183.152 64.4571C183.126 64.415 183.085 64.3849 183.037 64.3734C182.408 64.2457 181.79 64.0691 181.189 63.845C180.892 63.7265 180.602 63.5933 180.32 63.4455C179.991 63.2689 179.674 63.0711 179.372 62.8532C179.349 62.838 179.321 62.8303 179.294 62.8313C179.275 62.8315 179.256 62.8345 179.238 62.8402L179.241 62.8372ZM181.213 63.849L181.227 63.855L181.213 63.849Z" fill="#89C5CC"/>
<path d="M169.812 38.8293C169.783 38.8297 169.755 38.8362 169.729 38.8485C169.703 38.8607 169.68 38.8783 169.661 38.9002C169.626 38.9065 169.594 38.9227 169.567 38.947C169.541 38.9712 169.522 39.0025 169.513 39.037C169.251 40.0498 168.981 41.0606 168.713 42.0704C168.513 42.8015 168.321 43.5326 168.129 44.2677C167.9 45.1386 167.675 46.0109 167.456 46.8845C167.227 47.8134 167.022 48.6534 166.841 49.5243C166.834 49.5556 166.834 49.588 166.841 49.6193C166.847 49.6507 166.86 49.6803 166.879 49.7061C166.858 49.7235 166.842 49.7473 166.835 49.774C166.822 49.8216 166.829 49.8723 166.853 49.9153C166.877 49.9582 166.917 49.99 166.964 50.0038C167.365 50.1246 167.758 50.2505 168.154 50.3773C168.551 50.5041 168.947 50.63 169.345 50.7508C169.744 50.8717 170.14 50.9786 170.54 51.0814C171.032 51.2083 171.41 51.2902 171.768 51.3481C171.787 51.3496 171.806 51.3496 171.825 51.3481C171.86 51.3486 171.895 51.3389 171.925 51.3202C171.971 51.2932 172.005 51.2496 172.02 51.1983C172.031 51.1557 172.028 51.1108 172.012 51.0698C171.996 51.0289 171.968 50.9939 171.931 50.9696C172.29 49.5343 172.766 48.0981 173.225 46.7097C173.908 44.6492 174.613 42.5148 174.942 40.3275C174.953 40.2912 174.953 40.2529 174.942 40.2166C174.955 40.187 174.961 40.155 174.959 40.1229C174.958 40.0909 174.95 40.0595 174.935 40.0308C174.907 39.9839 174.863 39.9485 174.811 39.9309C174.445 39.7914 174.071 39.6753 173.69 39.5834C173.258 39.4725 172.822 39.3836 172.415 39.3067C172.059 39.2368 171.703 39.1719 171.347 39.1069C170.852 39.0171 170.359 38.9272 169.867 38.8243L169.821 38.8193L169.812 38.8293Z" fill="#3B001C"/>
<path d="M174.03 44.036L174.017 44.056C174.021 44.0486 174.026 44.0419 174.033 44.036H174.03Z" fill="#D4A181"/>
<path d="M177.826 54.6472C177.208 53.978 176.64 53.3108 176.135 52.6606C175.204 51.444 174.52 50.3124 174.034 49.1978C173.978 49.0106 173.936 48.8197 173.907 48.6265C173.892 48.4936 173.883 48.3628 173.881 48.2269C173.881 48.0736 173.891 47.9205 173.911 47.7685C174.011 47.0993 174.248 46.4641 174.372 45.8009C174.44 45.4611 174.466 45.1142 174.448 44.7681C174.448 44.7561 174.448 44.7442 174.448 44.7322C174.481 44.5963 174.512 44.4605 174.53 44.3327L174.474 44.2458C174.446 44.2273 174.417 44.2103 174.387 44.1948C174.364 44.1861 174.34 44.1788 174.316 44.1729C174.29 44.1639 174.264 44.1579 174.238 44.1509H174.061C174 44.1639 173.944 44.1788 173.888 44.1948C173.875 44.1998 173.861 44.1948 173.847 44.2048C173.674 44.2926 173.52 44.411 173.39 44.5544C173.09 44.854 172.828 45.1786 172.548 45.4903C172.017 44.836 171.494 44.1758 170.925 43.5526C170.608 43.2032 170.271 42.8723 169.916 42.5618C169.587 42.2704 169.225 42.0174 168.839 41.8077C168.808 41.7923 168.774 41.7844 168.739 41.7847C168.723 41.7849 168.707 41.7869 168.692 41.7907C168.657 41.8003 168.626 41.821 168.605 41.8497C168.577 41.8253 168.542 41.8106 168.505 41.8077C168.48 41.8071 168.456 41.8115 168.433 41.8208C168.41 41.8301 168.39 41.844 168.373 41.8616C168.277 41.9666 168.188 42.0777 168.106 42.1942C168.02 42.3212 167.949 42.4572 167.892 42.5998C167.789 42.8697 167.736 43.156 167.736 43.4447C167.739 43.7487 167.782 44.0509 167.864 44.3436C167.958 44.6832 168.083 45.0135 168.236 45.3304C168.555 45.9917 168.93 46.6248 169.355 47.2232C169.489 47.4229 169.628 47.6227 169.769 47.8154C169.985 48.1221 170.204 48.4307 170.407 48.7483C170.416 48.8482 170.426 48.9481 170.437 49.048C170.506 49.1008 170.555 49.175 170.576 49.2587C170.849 50.4446 171.222 51.6051 171.693 52.7275C171.693 52.7275 171.693 52.7275 171.693 52.7185C172.239 54.0019 172.871 55.2469 173.585 56.445C173.939 57.0393 174.304 57.6226 174.686 58.1999L174.816 58.3996C174.857 58.4436 174.899 58.4875 174.942 58.5295C174.97 58.5596 175.008 58.5795 175.05 58.5864C175.078 58.5992 175.108 58.6064 175.139 58.6074C175.188 58.6043 175.234 58.5846 175.271 58.5514C175.557 58.3271 175.825 58.0799 176.071 57.8123C176.324 57.5303 176.556 57.2299 176.764 56.9134C176.965 56.61 177.148 56.2956 177.313 55.9716C177.489 55.6383 177.648 55.2962 177.789 54.9468C177.812 54.9308 177.833 54.91 177.848 54.8856C177.863 54.8612 177.872 54.8338 177.876 54.8054C177.879 54.777 177.877 54.7482 177.868 54.7209C177.859 54.6936 177.845 54.6684 177.826 54.6472V54.6472Z" fill="#D4A181"/>
<path d="M155.508 61.331L155.457 61.337C155.422 61.3477 155.39 61.3677 155.366 61.395C155.335 61.3722 155.298 61.3596 155.26 61.359C155.225 61.3623 155.192 61.3729 155.162 61.3902C155.132 61.4074 155.106 61.4308 155.086 61.4589C154.898 61.7026 154.718 61.9523 154.538 62.202L154.462 62.3079C154.237 62.6202 154.017 62.9361 153.803 63.2557C153.422 63.817 153.096 64.4126 152.827 65.0346L152.796 65.0815C152.774 65.1134 152.762 65.1516 152.764 65.1904C152.746 65.2185 152.733 65.2499 152.728 65.2829C152.722 65.3158 152.723 65.3496 152.731 65.3821C152.737 65.4036 152.747 65.4237 152.761 65.4409C152.775 65.4581 152.793 65.4721 152.813 65.482C154.002 66.0593 155.242 66.5807 156.44 67.0801L157.1 67.3567H157.106L157.142 67.3717C157.627 67.5775 158.143 67.8012 158.663 68.0269C158.695 68.0417 158.729 68.0499 158.763 68.0509C158.796 68.0485 158.827 68.0388 158.855 68.0228C158.884 68.0067 158.908 67.9846 158.926 67.958L158.958 67.9031C159.306 67.599 159.625 67.2647 159.913 66.9043C160.055 66.723 160.186 66.5332 160.305 66.336C160.423 66.1355 160.523 65.9257 160.606 65.7087C160.613 65.6825 160.616 65.6549 160.612 65.6278C160.609 65.6006 160.6 65.5745 160.586 65.5509C160.599 65.5181 160.601 65.4822 160.594 65.4477C160.587 65.4132 160.569 65.3817 160.544 65.3572C159.795 64.673 158.993 63.9928 158.096 63.2767C157.316 62.6544 156.532 62.0572 155.594 61.352C155.567 61.3339 155.534 61.3252 155.502 61.3271L155.508 61.331ZM153.476 65.3901L153.153 65.2343C153.253 65.2813 153.365 65.3342 153.476 65.3871V65.3901Z" fill="#D4A181"/>
<defs>
<linearGradient id="paint0_linear" x1="153.408" y1="178.125" x2="152.988" y2="-8.20191" gradientUnits="userSpaceOnUse">
<stop stop-color="#CEE8FF"/>
<stop offset="1" stop-color="white"/>
</linearGradient>
</defs>
</svg>
