<svg width="93" height="93" viewBox="0 0 93 93" fill="none" xmlns="http://www.w3.org/2000/svg">
<path d="M44.7188 79.1057C58.3106 78.9941 66.3345 75.9247 77.7108 63.7634C89.0871 51.6021 90.372 37.4605 75.2095 37.7258C56.9642 38.0451 50.1376 39.3543 25.7838 29.2578C10.1253 22.7662 7.16644 40.679 17.2861 57.921C27.4057 75.1631 32.4902 79.2061 44.7188 79.1057Z" fill="#CEE8FF"/>
<path d="M75.7046 24.3742V33.9805C75.7043 40.7457 71.9125 46.9401 65.8879 50.0178C65.4885 50.2224 65.0798 50.4134 64.6619 50.5906L62.6863 51.4426L60.9357 50.6798C54.371 47.8077 50.1257 41.3257 50.1165 34.1603V24.3742L62.7316 17.461L75.7046 24.3742Z" fill="#00ACEA"/>
<path d="M73.9718 59.0223V66.7187C73.9718 68.8098 72.2767 70.5048 70.1856 70.5048H68.2919L68.2743 70.5034C68.286 70.3587 68.2919 70.2111 68.2919 70.0635C68.2919 67.0658 65.8618 64.6357 62.864 64.6357C59.8662 64.6357 57.4362 67.0658 57.4362 70.0635C57.4362 70.2111 57.442 70.3587 57.4537 70.5034L57.4362 70.5048H49.6111V57.3784H73.4632L73.5758 57.3389C73.8366 57.8617 73.9722 58.4381 73.9718 59.0223Z" fill="white"/>
<path d="M73.5752 57.3386L73.4627 57.3781H61.4117L57.5818 48.7669L57.5847 48.7625C58.6297 49.5199 59.7529 50.1626 60.9354 50.6797L62.686 51.4425L64.6616 50.5906C65.0795 50.4137 65.4882 50.2228 65.8876 50.0177L66.1871 50.1054L72.7701 56.2544C73.1017 56.5643 73.3745 56.9317 73.5752 57.3386Z" fill="#D4E1F4"/>
<path d="M68.2909 70.0635C68.2909 70.2111 68.285 70.3586 68.2733 70.5033C68.0296 73.4913 65.4097 75.716 62.4217 75.4723C59.7722 75.2562 57.6688 73.153 57.4527 70.5033C57.441 70.3586 57.4352 70.2111 57.4352 70.0635C57.4352 67.0657 59.8653 64.6356 62.863 64.6356C65.8606 64.6356 68.2909 67.0658 68.2909 70.0635Z" fill="#D4E1F4"/>
<path d="M57.5823 48.7668L61.4123 57.3779H49.6111V47.532H55.9588L56.0071 47.4794C56.5083 47.9368 57.0352 48.3651 57.5852 48.7624L57.5823 48.7668Z" fill="#D4E1F4"/>
<path d="M49.6112 57.3776V70.504H35.0951L35.0775 70.5026C35.0892 70.3579 35.0951 70.2103 35.0951 70.0627C35.0946 67.065 32.664 64.6353 29.6663 64.6358C26.6693 64.6362 24.24 67.0657 24.2394 70.0627C24.2394 70.2103 24.2452 70.3579 24.2569 70.5026L24.2394 70.504H22.2842C20.193 70.5046 18.4972 68.81 18.4966 66.7188C18.4966 66.7185 18.4966 66.7182 18.4966 66.7179V63.6887C18.4965 60.2033 21.3218 57.3777 24.8072 57.3776C24.8074 57.3776 24.8077 57.3776 24.8078 57.3776H31.0547C31.2017 57.3776 31.3485 57.3688 31.4945 57.3513L31.4974 57.3776H49.6112Z" fill="white"/>
<path d="M49.6113 47.5324V57.3783H31.4976L31.4946 57.352C32.3841 57.2486 33.208 56.8328 33.8195 56.1786L40.7897 48.7321C41.5054 47.9667 42.5065 47.5322 43.5544 47.5324H49.6113Z" fill="#D4E1F4"/>
<path d="M35.0955 70.0637C35.0955 70.2113 35.0896 70.3589 35.078 70.5035C34.8342 73.4915 32.2143 75.7163 29.2263 75.4725C26.5768 75.2564 24.4736 73.1532 24.2573 70.5035C24.2457 70.3589 24.2398 70.2113 24.2398 70.0637C24.2402 67.0659 26.6709 64.6363 29.6685 64.6367C32.6656 64.6373 35.0949 67.0668 35.0955 70.0637Z" fill="#D4E1F4"/>
<path d="M73.9275 44.7623C76.0617 41.5715 77.2019 37.8195 77.2038 33.9808V24.3745C77.1964 23.8318 76.8923 23.3369 76.4115 23.0849L63.4293 16.1717C62.9928 15.94 62.4691 15.9429 62.0352 16.1798L49.4443 23.093C48.9821 23.3524 48.6998 23.8447 48.7093 24.3745V34.1605C48.7005 36.6215 49.1466 39.0629 50.0253 41.3616H43.6168C42.8098 41.3616 42.1555 42.0158 42.1555 42.8229C42.1555 43.6299 42.8098 44.2841 43.6168 44.2841H45.3484V46.0376H43.5554C42.1016 46.046 40.7155 46.6534 39.7239 47.7168L32.7537 55.172C32.3793 55.5839 31.8718 55.8507 31.3203 55.9258C31.2331 55.9472 31.1448 55.9634 31.0557 55.9742H24.809C20.5232 55.9742 17 59.4039 17 63.6896V66.7188C17 69.6123 19.3911 71.9019 22.2854 71.9019H23.0487C24.0995 75.5577 27.915 77.6696 31.5708 76.6188C33.8503 75.9636 35.6325 74.1816 36.2877 71.9019H56.2454C57.2959 75.558 61.1114 77.6702 64.7675 76.6197C67.0476 75.9645 68.8302 74.182 69.4853 71.9019H70.1867C73.08 71.9019 75.4501 69.6123 75.4501 66.7188V59.0224C75.4423 57.5677 74.8357 56.1805 73.7732 55.1869L68.4529 50.2108C70.6211 48.7759 72.4822 46.9238 73.9275 44.7623ZM65.233 51.937C65.4084 51.8628 65.5837 51.8117 65.7591 51.7317L70.2697 55.9742H62.363L60.6957 52.1973L62.104 52.7964C62.4764 52.9522 62.8962 52.9491 63.2663 52.7879L65.233 51.937ZM55.5187 48.9602C55.7933 49.2327 56.088 49.4843 56.4003 49.7127L59.1644 55.9742H51.0473V48.9602H55.5187ZM48.2709 44.2841H51.4725C51.8558 44.8686 52.2755 45.4531 52.7313 46.0376H48.2709V44.2841ZM41.8579 49.7421C42.2933 49.2606 42.9066 48.9781 43.5554 48.9602H48.1248V55.9742H36.0668L41.8579 49.7421ZM19.9225 66.7188V63.6896C19.9225 61.0155 22.1347 58.8967 24.809 58.8967H31.0558C31.1518 58.8967 31.2477 58.8935 31.3427 58.8882C31.3944 58.8938 31.4466 58.8966 31.4986 58.8967H48.1248V68.9794H36.4815C35.9871 65.7646 33.1206 63.111 29.6691 63.111C26.2176 63.111 23.3497 65.7646 22.8553 68.9794H22.2854C21.0027 68.9794 19.9225 68.0003 19.9225 66.7188ZM29.6955 74.0295C27.6365 74.0258 25.9262 72.4396 25.7675 70.3867V70.3857C25.7675 70.2808 25.7282 70.1724 25.7282 70.0642C25.7282 67.8791 27.4997 66.1076 29.6849 66.1076C31.87 66.1076 33.6415 67.8791 33.6415 70.0642C33.6415 70.1729 33.6472 70.2814 33.6386 70.3875C33.4666 72.4399 31.755 74.0209 29.6955 74.0295ZM62.8792 74.0295C60.8176 74.0263 59.1032 72.4418 58.9381 70.3867V70.3857C58.9381 70.2819 58.9121 70.1735 58.9121 70.0642C58.9118 67.8764 60.6852 66.1025 62.873 66.1022C65.0607 66.1019 66.8347 67.8753 66.835 70.063C66.835 70.0635 66.835 70.0638 66.835 70.0642C66.835 70.1741 66.8357 70.2825 66.8274 70.3873C66.6531 72.4407 64.9399 74.0212 62.8792 74.0295ZM72.5278 66.7188C72.5278 68.0008 71.4688 68.9794 70.1868 68.9794H69.6783C69.1838 65.7646 66.3174 63.111 62.8659 63.111C59.4145 63.111 56.5467 65.7646 56.0522 68.9794H51.0473V58.8967H61.4094H61.4143H61.4212H72.501C72.5194 58.936 72.5287 58.979 72.5278 59.0224V66.7188ZM65.2227 48.7179C64.8537 48.907 64.4743 49.0841 64.0846 49.2492L62.6907 49.8502L61.523 49.3414C60.4356 48.8656 59.4025 48.2745 58.4413 47.5782C57.9446 47.2129 57.4694 46.8194 57.018 46.3996C53.5827 43.2579 51.6277 38.8158 51.6318 34.1605V25.24L62.7872 19.1223L74.2813 25.2516V33.9808C74.2788 37.2432 73.3093 40.4315 71.495 43.1429C69.9123 45.5044 67.7534 47.4232 65.2227 48.7179Z" fill="#1536B1"/>
<path d="M60.8924 39.6177C60.4647 39.6186 60.0582 39.4315 59.7806 39.1062L56.3684 35.1112C55.8442 34.4974 55.9169 33.5751 56.5306 33.0509C57.1443 32.5268 58.0667 32.5994 58.5908 33.2131L62.003 37.2081C62.5276 37.8214 62.4557 38.7437 61.8424 39.2683C61.5778 39.4947 61.2408 39.6192 60.8924 39.6192V39.6177Z" fill="white"/>
<path d="M60.8925 39.6172C60.0855 39.6179 59.4307 38.9644 59.4298 38.1574C59.4294 37.7168 59.6277 37.2996 59.9696 37.0218L67.9158 30.5571C68.5418 30.0478 69.4622 30.1424 69.9716 30.7685C70.4809 31.3945 70.3863 32.315 69.7602 32.8242L61.8139 39.2888C61.5537 39.5013 61.2283 39.6173 60.8925 39.6172Z" fill="white"/>
</svg>
