<svg width="93" height="93" viewBox="0 0 93 93" fill="none" xmlns="http://www.w3.org/2000/svg">
<path d="M44.7188 79.1057C58.3106 78.9941 66.3345 75.9247 77.7108 63.7634C89.0871 51.6021 90.372 37.4605 75.2095 37.7258C56.9642 38.0451 50.1376 39.3543 25.7838 29.2578C10.1253 22.7662 7.16644 40.679 17.2861 57.921C27.4057 75.1631 32.4902 79.2061 44.7188 79.1057Z" fill="#CEE8FF"/>
<path d="M18.3801 34.6888L14.0438 35.7212L16.7282 39.438L16.3152 43.9808L21.2709 42.1224L25.8137 43.9808L25.4007 39.438L28.7045 35.7212L23.9553 34.6888L21.2709 30.7655L18.3801 34.6888Z" fill="white"/>
<path d="M43.9852 34.6888L39.6489 35.7212L42.3333 39.438L41.9203 43.9808L46.876 42.1224L51.4188 43.9808L51.0058 39.438L54.3096 35.7212L49.5604 34.6888L46.876 30.7655L43.9852 34.6888Z" fill="white"/>
<path d="M69.5891 34.6888L65.2528 35.7212L67.9372 39.438L67.5242 43.9808L72.4799 42.1224L77.0227 43.9808L76.6097 39.438L79.9135 35.7212L75.1643 34.6888L72.4799 30.7655L69.5891 34.6888Z" fill="white"/>
<path d="M56.7877 52.86L52.4515 53.8924L55.1358 57.6092L54.7229 62.152L59.6786 60.2936L64.2213 62.152L63.8084 57.6092L67.1122 53.8924L62.3629 52.86L59.6786 48.9367L56.7877 52.86Z" fill="white"/>
<path d="M31.5962 52.86L27.2599 53.8924L29.9442 57.6092L29.5313 62.152L34.487 60.2936L39.0297 62.152L38.6168 57.6092L41.9206 53.8924L37.1713 52.86L34.487 48.9367L31.5962 52.86Z" fill="white"/>
<path d="M24.3819 33.8789L22.1105 29.5456C21.9353 29.2116 21.5738 29 21.1777 29C20.7821 29 20.4206 29.2116 20.2454 29.5456L17.9719 33.8789L12.8904 34.5726C12.4988 34.6261 12.1733 34.8846 12.051 35.2386C11.9286 35.5926 12.0306 35.9815 12.314 36.2414L15.9915 39.6144L15.1232 44.3762C15.0561 44.7431 15.2166 45.1143 15.537 45.3331C15.8569 45.5519 16.2815 45.5806 16.6318 45.4077L21.1777 43.1593L25.7235 45.4077C26.0734 45.5806 26.4985 45.5519 26.8184 45.3331C27.1388 45.1143 27.2993 44.7431 27.2322 44.3762L26.3639 39.6144L30.0414 36.2414C30.3247 35.9815 30.4268 35.5926 30.3044 35.2386C30.1821 34.8846 29.8566 34.6261 29.465 34.5726L24.3819 33.8789ZM24.5201 38.5719C24.2753 38.7969 24.1636 39.1208 24.2215 39.4381L24.8258 42.7528L21.6616 41.1871C21.3585 41.0371 20.9964 41.0371 20.6938 41.1871L17.5291 42.7528L18.1334 39.4381C18.1913 39.1208 18.0796 38.7969 17.8343 38.5719L15.275 36.2242L18.8113 35.7412C19.15 35.6948 19.443 35.4946 19.5944 35.2061L21.1772 32.1895L22.759 35.2061C22.9103 35.4946 23.2033 35.6948 23.5425 35.7412L27.0804 36.2247L24.5201 38.5719Z" fill="#1536B1"/>
<path d="M50.0797 33.8789L47.8083 29.5456C47.6331 29.2116 47.2715 29 46.8754 29C46.4799 29 46.1183 29.2116 45.9431 29.5456L43.6697 33.8789L38.5881 34.5726C38.1966 34.6261 37.8711 34.8846 37.7487 35.2386C37.6263 35.5926 37.7284 35.9815 38.0118 36.2414L41.6893 39.6144L40.8209 44.3762C40.7539 44.7431 40.9144 45.1143 41.2348 45.3331C41.5547 45.5519 41.9792 45.5806 42.3296 45.4077L46.8754 43.1593L51.4213 45.4077C51.7712 45.5806 52.1962 45.5519 52.5161 45.3331C52.8365 45.1143 52.997 44.7431 52.93 44.3762L52.0616 39.6144L55.7391 36.2414C56.0225 35.9815 56.1246 35.5926 56.0022 35.2386C55.8798 34.8846 55.5543 34.6261 55.1628 34.5726L50.0797 33.8789ZM50.2178 38.5719C49.973 38.7969 49.8613 39.1208 49.9192 39.4381L50.5235 42.7528L47.3594 41.1871C47.0562 41.0371 46.6942 41.0371 46.3915 41.1871L43.2269 42.7528L43.8312 39.4381C43.8891 39.1208 43.7773 38.7969 43.5321 38.5719L40.9728 36.2242L44.5091 35.7412C44.8478 35.6948 45.1408 35.4946 45.2921 35.2061L46.8749 32.1895L48.4567 35.2061C48.6081 35.4946 48.9011 35.6948 49.2403 35.7412L52.7781 36.2247L50.2178 38.5719Z" fill="#1536B1"/>
<path d="M37.2296 52.2347L34.9582 47.9014C34.783 47.5675 34.4214 47.3558 34.0254 47.3558C33.6298 47.3558 33.2682 47.5675 33.093 47.9014L30.8196 52.2347L25.738 52.9284C25.3465 52.9819 25.021 53.2404 24.8986 53.5944C24.7762 53.9484 24.8783 54.3373 25.1617 54.5972L28.8392 57.9702L27.9708 62.732C27.9038 63.0989 28.0643 63.4701 28.3847 63.689C28.7046 63.9078 29.1291 63.9364 29.4795 63.7635L34.0254 61.5152L38.5712 63.7635C38.9211 63.9364 39.3461 63.9078 39.666 63.689C39.9864 63.4701 40.1469 63.0989 40.0799 62.732L39.2115 57.9702L42.889 54.5972C43.1724 54.3373 43.2745 53.9484 43.1521 53.5944C43.0297 53.2404 42.7042 52.9819 42.3127 52.9284L37.2296 52.2347ZM37.3677 56.9277C37.1229 57.1528 37.0112 57.4767 37.0691 57.7939L37.6734 61.1086L34.5093 59.543C34.2061 59.393 33.8441 59.393 33.5414 59.543L30.3768 61.1086L30.9811 57.7939C31.039 57.4767 30.9272 57.1528 30.682 56.9277L28.1227 54.58L31.659 54.097C31.9977 54.0507 32.2907 53.8505 32.442 53.5619L34.0248 50.5454L35.6066 53.5619C35.758 53.8505 36.051 54.0507 36.3902 54.097L39.9281 54.5805L37.3677 56.9277Z" fill="#1536B1"/>
<path d="M75.7774 33.8789L73.506 29.5456C73.3308 29.2116 72.9693 29 72.5732 29C72.1776 29 71.8161 29.2116 71.6409 29.5456L69.3674 33.8789L64.2859 34.5726C63.8943 34.6261 63.5688 34.8846 63.4465 35.2386C63.3241 35.5926 63.4262 35.9815 63.7095 36.2414L67.387 39.6144L66.5187 44.3762C66.4516 44.7431 66.6121 45.1143 66.9325 45.3331C67.2524 45.5519 67.677 45.5806 68.0274 45.4077L72.5732 43.1593L77.1191 45.4077C77.4689 45.5806 77.894 45.5519 78.2139 45.3331C78.5343 45.1143 78.6948 44.7431 78.6277 44.3762L77.7594 39.6144L81.4369 36.2414C81.7203 35.9815 81.8223 35.5926 81.6999 35.2386C81.5776 34.8846 81.2521 34.6261 80.8605 34.5726L75.7774 33.8789ZM75.9156 38.5719C75.6708 38.7969 75.5591 39.1208 75.617 39.4381L76.2213 42.7528L73.0571 41.1871C72.754 41.0371 72.3919 41.0371 72.0893 41.1871L68.9246 42.7528L69.5289 39.4381C69.5868 39.1208 69.4751 38.7969 69.2298 38.5719L66.6705 36.2242L70.2068 35.7412C70.5455 35.6948 70.8385 35.4946 70.9899 35.2061L72.5727 32.1895L74.1545 35.2061C74.3058 35.4946 74.5988 35.6948 74.938 35.7412L78.4759 36.2247L75.9156 38.5719Z" fill="#1536B1"/>
<path d="M62.9286 52.2347L60.6572 47.9014C60.482 47.5675 60.1204 47.3558 59.7243 47.3558C59.3287 47.3558 58.9672 47.5675 58.792 47.9014L56.5186 52.2347L51.437 52.9284C51.0455 52.9819 50.72 53.2404 50.5976 53.5944C50.4752 53.9484 50.5773 54.3373 50.8606 54.5972L54.5381 57.9702L53.6698 62.732C53.6028 63.0989 53.7632 63.4701 54.0837 63.689C54.4036 63.9078 54.8281 63.9364 55.1785 63.7635L59.7243 61.5152L64.2702 63.7635C64.6201 63.9364 65.0451 63.9078 65.365 63.689C65.6854 63.4701 65.8459 63.0989 65.7789 62.732L64.9105 57.9702L68.588 54.5972C68.8714 54.3373 68.9734 53.9484 68.8511 53.5944C68.7287 53.2404 68.4032 52.9819 68.0117 52.9284L62.9286 52.2347ZM63.0667 56.9277C62.8219 57.1528 62.7102 57.4767 62.7681 57.7939L63.3724 61.1086L60.2083 59.543C59.9051 59.393 59.543 59.393 59.2404 59.543L56.0758 61.1086L56.68 57.7939C56.7379 57.4767 56.6262 57.1528 56.381 56.9277L53.8216 54.58L57.358 54.097C57.6967 54.0507 57.9897 53.8505 58.141 53.5619L59.7238 50.5454L61.3056 53.5619C61.4569 53.8505 61.75 54.0507 62.0892 54.097L65.627 54.5805L63.0667 56.9277Z" fill="#1536B1"/>
</svg>
