<svg width="134" height="96" viewBox="0 0 134 96" fill="none" xmlns="http://www.w3.org/2000/svg">
<path d="M28.7399 18.5635C9.12463 21.1362 -1.25232 39.2434 6.39921 48.1542C11.0026 53.5152 26.3694 67.7308 51.0095 81.7057C81.8097 99.1743 113.608 44.1546 121.091 24.7479C128.574 5.34123 105.519 -2.21391 91.8596 8.23633C78.2004 18.6866 53.2591 15.3476 28.7399 18.5635Z" fill="#CEE8FF"/>
<circle cx="94.0152" cy="74.2445" r="17.6007" fill="white"/>
<path d="M59.29 8.34406C43.973 9.32642 41.5016 23.4889 42.1806 30.4473C40.9582 50.9133 47.5641 50.2311 50.7352 55.4158V60.737L60.5118 68.1047L70.6962 60.737V55.4158C78.5176 51.1589 79.9298 36.9964 79.6582 30.4473C78.8435 17.3491 72.733 8.34406 59.29 8.34406Z" fill="white"/>
<path d="M93.6058 62.3743L89.922 68.5141L82.9635 70.1513L87.8754 75.4725L87.0567 82.8403L93.6058 79.975L100.155 82.4309L99.3363 75.0632L104.248 70.1513L96.8804 68.5141L93.6058 62.3743Z" fill="#FEDB41"/>
<path d="M29.6805 70.1487V83.6557L78.7968 84.4743C72.5754 73.9961 77.0232 64.5549 80.0249 61.5533L71.4293 60.3254L60.3784 66.8743L52.6014 61.5533H41.1409C34.2646 61.5533 30.6355 66.7378 29.6805 70.1487Z" fill="#00C2FF"/>
<path d="M57.5631 38.3354C57.5631 37.5351 56.9148 36.8875 56.1151 36.8875C55.3155 36.8875 54.6671 37.5351 54.6671 38.3354C54.6678 39.0283 54.2507 39.6541 53.6094 39.9192C52.9688 40.1843 52.2314 40.0366 51.7421 39.5452C51.4197 39.2249 51.2395 38.7894 51.2409 38.3354C51.2409 37.5351 50.5925 36.8875 49.7929 36.8875C48.9932 36.8875 48.3449 37.5351 48.3449 38.3354C48.3449 40.8807 50.4087 42.9446 52.954 42.9446C55.5 42.9446 57.5631 40.8807 57.5631 38.3354Z" fill="#1536B1"/>
<path d="M68.7623 42.9453C71.3069 42.9417 73.3678 40.8793 73.3707 38.3354C73.3707 37.5351 72.7223 36.8875 71.9227 36.8875C71.123 36.8875 70.4747 37.5351 70.4747 38.3354C70.474 39.2807 69.7083 40.0479 68.7623 40.0493C67.8163 40.0479 67.0491 39.2814 67.0484 38.3354C67.0484 37.5351 66.4001 36.8875 65.6004 36.8875C64.8008 36.8875 64.1524 37.5351 64.1524 38.3354C64.1531 40.8807 66.217 42.9439 68.7623 42.9453Z" fill="#1536B1"/>
<path d="M60.4851 52.0578C63.0297 52.0543 65.0907 49.9919 65.0935 47.448C65.0935 46.6476 64.4452 46 63.6455 46C62.8459 46 62.1976 46.6476 62.1976 47.448C62.1968 48.3933 61.4311 49.1604 60.4851 49.1618C59.5391 49.1604 58.772 48.394 58.7713 47.448C58.7713 46.6476 58.1229 46 57.3233 46C56.5236 46 55.8753 46.6476 55.8753 47.448C55.876 49.9933 57.9398 52.0564 60.4851 52.0578Z" fill="#1536B1"/>
<path fill-rule="evenodd" clip-rule="evenodd" d="M77.5685 14.8925C77.5685 14.8925 80.761 18.4944 80.4336 29.6274C80.4336 29.6274 81.3316 30.6752 82.5847 31.594C82.5278 31.5845 82.4709 31.5745 82.4139 31.5639C84.1157 32.7623 84.9635 34.8424 84.5852 36.8893C84.2069 38.9361 82.6713 40.5757 80.6534 41.0869C80.0786 45.5002 78.0876 49.6073 74.9795 52.7932C74.2456 53.5709 73.4382 54.2758 72.5686 54.8973V59.4251H79.0336C82.7816 55.2621 88.0348 53.0611 93.5553 53.0611C104.491 53.0611 113.387 61.928 113.387 72.8629C113.387 83.7985 104.49 92.6639 93.5546 92.6639C87.8899 92.6639 82.5433 90.3759 78.777 86.032H29.5777C28.7781 86.032 28.0428 85.4338 28.0428 84.6342V73.449C28.0428 65.6738 34.4548 59.4251 42.2293 59.4251H49.9437V55.4247C45.0673 52.1342 41.8425 46.9043 41.0917 41.0692C38.7542 40.4555 36.9259 38.3365 36.9259 35.922C36.9273 33.5033 38.5556 31.3886 40.8937 30.7685V25.8603C40.8852 20.5633 42.9879 15.4812 46.7366 11.7396C52.6438 5.83305 61.6011 4.22527 69.1925 7.7088C72.5113 9.24305 75.3486 11.6526 77.3997 14.6794C77.4529 14.6311 77.5093 14.5829 77.5685 14.5349V14.8925ZM69.6726 56.7016C64.4186 59.4187 58.2039 59.5509 52.8396 57.0608V60.0133L61.0369 65.4016L69.6726 59.9928V56.7016ZM71.5596 62.3211L62.4326 67.9236V83.136H76.6297C72.6909 76.7381 72.7587 68.6518 76.8037 62.3211H71.5596ZM80.8945 33.9947V37.8466C81.4764 37.3757 81.8186 36.6708 81.8285 35.9228C81.8236 35.2737 81.5605 34.6536 81.0981 34.199C81.0728 34.1737 81.041 34.1492 81.0101 34.1254C80.9506 34.0797 80.8945 34.0366 80.8945 33.9947ZM77.9526 25.1915C77.8486 22.5953 77.1466 20.0585 75.9008 17.779C74.3404 14.8915 71.9874 12.5109 69.119 10.9173C64.1698 18.5221 57.6177 20.996 52.8898 21.7108C51.6504 21.8974 50.3983 21.9901 49.1447 21.9886C47.5327 21.9901 45.9235 21.8409 44.339 21.5418C43.9721 22.9523 43.7876 24.4031 43.7897 25.8603V28.2027C47.1657 28.8716 50.6196 29.0561 54.048 28.7514C61.5446 28.0309 67.0071 24.7977 70.2827 19.14C70.5832 18.6288 71.1616 18.3496 71.7491 18.4316C72.3359 18.5136 72.816 18.9406 72.9652 19.5148C73.832 22.3888 75.596 24.9108 77.9985 26.7123V25.861C77.9985 25.7439 77.9873 25.6255 77.9758 25.5035C77.9662 25.4024 77.9564 25.2988 77.9526 25.1915ZM66.4415 9.71958C60.2627 7.58719 53.4081 9.16669 48.7848 13.7871C47.3418 15.2337 46.1681 16.9249 45.3176 18.783C47.679 19.1796 50.0886 19.2008 52.4564 18.848C58.2555 17.9706 62.9523 14.9007 66.4415 9.71958ZM40.5381 34.2004C40.0799 34.6565 39.8233 35.2758 39.824 35.922C39.8134 36.7083 40.2206 37.4407 40.8937 37.8466V33.9084C40.7558 33.9798 40.6349 34.0795 40.5381 34.2004ZM43.7897 38.5048C43.7897 38.9114 43.7996 39.313 43.8272 39.6976C44.2231 45.3269 47.2909 50.4267 52.0796 53.4132C57.7012 56.942 64.8888 56.7652 70.3308 52.965C71.2676 52.3209 72.1401 51.5863 72.9348 50.7718C75.8541 47.7888 77.6217 43.8669 77.9236 39.7032C77.9311 39.5995 77.94 39.4948 77.9489 39.3893C77.9735 39.0997 77.9985 38.8038 77.9985 38.5048V30.188C75.082 28.4954 72.729 25.9819 71.2323 22.9601C67.4051 27.9531 61.5948 30.9347 54.3187 31.6332C53.1472 31.7456 52.0096 31.7923 50.9264 31.7923C48.5331 31.7881 46.1448 31.5731 43.7897 31.1489V38.5048ZM42.2293 62.3211C36.0513 62.3211 30.9387 67.271 30.9387 73.449V83.136H59.5366V67.9031L50.8791 62.3211H42.2293ZM80.5488 83.7058C83.7643 87.5669 88.5304 89.7976 93.5553 89.7926C101.492 89.7919 108.365 84.2799 110.088 76.5323C111.811 68.784 107.922 60.8787 100.733 57.5147C93.544 54.1507 84.9833 56.2293 80.138 62.5162C75.2934 68.8031 75.4638 77.6113 80.5488 83.7058Z" fill="#1536B1"/>
<path d="M98.0176 67.8526L94.855 61.4398C94.6111 60.9456 94.1077 60.6324 93.5562 60.6324C93.0055 60.6324 92.502 60.9456 92.2581 61.4398L89.0928 67.8526L82.0175 68.8792C81.4724 68.9583 81.0192 69.3408 80.8488 69.8648C80.6784 70.3887 80.8205 70.9642 81.2151 71.3488L86.3353 76.3404L85.1263 83.3874C85.033 83.9304 85.2564 84.4797 85.7026 84.8036C86.148 85.1274 86.7391 85.1698 87.2269 84.9139L93.5562 81.5866L99.8855 84.9139C100.373 85.1698 100.964 85.1274 101.41 84.8036C101.856 84.4797 102.079 83.9304 101.986 83.3874L100.777 76.3404L105.897 71.3488C106.292 70.9642 106.434 70.3887 106.264 69.8648C106.093 69.3408 105.64 68.9583 105.095 68.8792L98.0176 67.8526ZM98.2099 74.7977C97.8691 75.1307 97.7136 75.6101 97.7942 76.0795L98.6355 80.9849L94.23 78.668C93.8079 78.446 93.3038 78.446 92.8824 78.668L88.4762 80.9849L89.3176 76.0795C89.3982 75.6101 89.2426 75.1307 88.9012 74.7977L85.3377 71.3234L90.2615 70.6086C90.7331 70.54 91.141 70.2437 91.3517 69.8167L93.5555 65.3525L95.7579 69.8167C95.9686 70.2437 96.3766 70.54 96.8489 70.6086L101.775 71.3241L98.2099 74.7977Z" fill="#1536B1"/>
</svg>
