<svg width="165" height="117" viewBox="0 0 165 117" fill="none" xmlns="http://www.w3.org/2000/svg">
<path d="M35.7638 22.6761C11.8029 25.8188 -0.872907 47.9374 8.47374 58.8223C14.0969 65.3709 32.8681 82.7359 62.967 99.8068C100.591 121.145 139.434 53.9366 148.575 30.2306C157.715 6.52458 129.552 -2.70431 112.867 10.0611C96.1817 22.8264 65.7149 18.7478 35.7638 22.6761Z" fill="#CEE8FF"/>
<circle cx="115.5" cy="90.6926" r="21.5" fill="white"/>
<path d="M73.0819 10.1926C54.3716 11.3926 51.3527 28.6926 52.1821 37.1926C50.689 62.1926 58.7583 61.3593 62.6319 67.6926V74.1926L74.5744 83.1926L87.015 74.1926V67.6926C96.5692 62.4926 98.2943 45.1926 97.9625 37.1926C96.9673 21.1926 89.5031 10.1926 73.0819 10.1926Z" fill="white"/>
<path d="M115 76.1926L110.5 83.6926L102 85.6926L108 92.1926L107 101.193L115 97.6926L123 100.693L122 91.6926L128 85.6926L119 83.6926L115 76.1926Z" fill="#FEDB41"/>
<path d="M36.9125 85.6898V102.189L96.91 103.189C89.3103 90.3896 94.7436 78.8568 98.4101 75.1902L87.9104 73.6903L74.4112 81.69L64.9113 75.1902H50.9119C42.5122 75.1902 38.0791 81.5233 36.9125 85.6898Z" fill="#00C2FF"/>
<path d="M70.9723 46.8286C70.9723 45.8509 70.1803 45.0598 69.2035 45.0598C68.2267 45.0598 67.4347 45.8509 67.4347 46.8286C67.4356 47.675 66.926 48.4393 66.1427 48.7632C65.3602 49.0871 64.4594 48.9066 63.8618 48.3063C63.4679 47.9151 63.2477 47.3831 63.2494 46.8286C63.2494 45.8509 62.4574 45.0598 61.4806 45.0598C60.5038 45.0598 59.7119 45.8509 59.7119 46.8286C59.7119 49.9378 62.2329 52.4588 65.3421 52.4588C68.4521 52.4588 70.9723 49.9378 70.9723 46.8286Z" fill="#1536B1"/>
<path d="M84.6526 52.4597C87.7609 52.4554 90.2785 49.9361 90.2819 46.8286C90.2819 45.8509 89.4899 45.0598 88.5131 45.0598C87.5363 45.0598 86.7444 45.8509 86.7444 46.8286C86.7435 47.9833 85.8081 48.9204 84.6526 48.9221C83.497 48.9204 82.5599 47.9842 82.559 46.8286C82.559 45.8509 81.7671 45.0598 80.7903 45.0598C79.8135 45.0598 79.0215 45.8509 79.0215 46.8286C79.0223 49.9378 81.5434 52.4579 84.6526 52.4597Z" fill="#1536B1"/>
<path d="M74.5415 63.5909C77.6498 63.5866 80.1674 61.0673 80.1709 57.9598C80.1709 56.9822 79.3789 56.191 78.4021 56.191C77.4253 56.191 76.6333 56.9822 76.6333 57.9598C76.6324 59.1145 75.6971 60.0516 74.5415 60.0533C73.3859 60.0516 72.4489 59.1154 72.448 57.9598C72.448 56.9822 71.656 56.191 70.6792 56.191C69.7024 56.191 68.9104 56.9822 68.9104 57.9598C68.9113 61.069 71.4323 63.5892 74.5415 63.5909Z" fill="#1536B1"/>
<path fill-rule="evenodd" clip-rule="evenodd" d="M95.4096 18.1923C95.4096 18.1923 99.3095 22.5921 98.9095 36.1915C98.9095 36.1915 100.006 37.471 101.536 38.5932C101.467 38.5816 101.398 38.5694 101.328 38.5566C103.407 40.0205 104.443 42.5614 103.981 45.0617C103.519 47.562 101.643 49.5649 99.1779 50.1893C98.4758 55.5803 96.0437 60.5973 92.247 64.489C91.3505 65.439 90.3642 66.3001 89.3019 67.0592V72.5901H97.1993C101.778 67.5049 108.195 64.8163 114.938 64.8163C128.296 64.8163 139.163 75.6475 139.163 89.0049C139.163 102.363 128.295 113.193 114.937 113.193C108.018 113.193 101.486 110.398 96.8858 105.091H36.7869C35.8101 105.091 34.9119 104.361 34.9119 103.384V89.7209C34.9119 80.2232 42.7445 72.5901 52.2413 72.5901H61.6647V67.7035C55.7081 63.684 51.7689 57.2955 50.8517 50.1677C47.9964 49.418 45.763 46.8296 45.763 43.8802C45.7647 40.9257 47.7537 38.3424 50.6099 37.585V31.5895C50.5995 25.1189 53.168 18.9109 57.7472 14.3404C64.9631 7.12535 75.9048 5.16138 85.178 9.41665C89.232 11.2908 92.6979 14.2342 95.2033 17.9315C95.2684 17.8725 95.3373 17.8136 95.4096 17.755V18.1923ZM85.7644 69.2633C79.3465 72.5823 71.7549 72.7439 65.2023 69.702V73.3087L75.2156 79.8907L85.7644 73.2836V69.2633ZM88.0695 76.1277L76.9205 82.9713V101.554H94.2628C89.4514 93.7386 89.5343 83.8609 94.4753 76.1277H88.0695ZM99.4724 41.5259V46.2311C100.183 45.6559 100.601 44.7949 100.613 43.8811C100.607 43.0883 100.286 42.3308 99.7212 41.7755C99.6902 41.7445 99.6513 41.7146 99.6136 41.6856C99.5409 41.6297 99.4724 41.5771 99.4724 41.5259ZM95.8787 30.7724C95.7518 27.6011 94.8942 24.5022 93.3724 21.7178C91.4663 18.1906 88.592 15.2826 85.0881 13.336C79.0425 22.6255 71.0389 25.6475 65.2636 26.5206C63.7496 26.7486 62.2201 26.8618 60.6888 26.86C58.7196 26.8618 56.754 26.6795 54.8185 26.3142C54.3702 28.0372 54.1448 29.8095 54.1474 31.5895V34.4508C58.2714 35.2678 62.4904 35.4932 66.6783 35.121C75.8357 34.2409 82.5084 30.2914 86.5097 23.3803C86.8768 22.7559 87.5833 22.4148 88.301 22.515C89.0178 22.6151 89.6042 23.1368 89.7865 23.8381C90.8453 27.3489 93.0001 30.4296 95.9349 32.6302V31.5903C95.9349 31.4472 95.9212 31.3026 95.9071 31.1536C95.8954 31.0301 95.8834 30.9036 95.8787 30.7724ZM81.8174 11.8729C74.2699 9.2681 65.8967 11.1975 60.2492 16.8416C58.4865 18.6086 57.0528 20.6745 56.0138 22.9442C58.8984 23.4287 61.8418 23.4546 64.7342 23.0237C71.818 21.9518 77.5553 18.2018 81.8174 11.8729ZM50.1754 41.7772C49.6158 42.3343 49.3023 43.0909 49.3031 43.8802C49.2902 44.8406 49.7877 45.7354 50.6099 46.2311V41.4205C50.4414 41.5078 50.2938 41.6295 50.1754 41.7772ZM54.1474 47.0352C54.1474 47.5318 54.1595 48.0224 54.1932 48.4922C54.6768 55.3687 58.4243 61.5983 64.2739 65.2464C71.1408 69.5569 79.9208 69.341 86.5684 64.6988C87.7128 63.912 88.7786 63.0147 89.7493 62.0197C93.3154 58.376 95.4745 53.5852 95.8433 48.4991C95.8525 48.3725 95.8634 48.2446 95.8743 48.1157C95.9042 47.762 95.9349 47.4004 95.9349 47.0352V36.8759C92.3723 34.8083 89.498 31.738 87.6696 28.0467C82.9946 34.1459 75.897 37.788 67.0091 38.6413C65.578 38.7786 64.1884 38.8356 62.8652 38.8356C59.9417 38.8304 57.0243 38.5679 54.1474 38.0497V47.0352ZM52.2413 76.1277C44.6946 76.1277 38.4495 82.1742 38.4495 89.7209V101.554H73.3829V82.9463L62.8074 76.1277H52.2413ZM99.0501 102.25C102.978 106.966 108.8 109.691 114.938 109.685C124.634 109.684 133.028 102.951 135.133 93.4873C137.238 84.0224 132.488 74.3658 123.706 70.2565C114.924 66.1472 104.467 68.6864 98.5483 76.3661C92.6305 84.0457 92.8386 94.8052 99.0501 102.25Z" fill="#1536B1"/>
<path d="M120.389 82.885L116.526 75.0516C116.228 74.4479 115.613 74.0653 114.939 74.0653C114.266 74.0653 113.651 74.4479 113.353 75.0516L109.487 82.885L100.844 84.1391C100.178 84.2358 99.6245 84.703 99.4164 85.343C99.2082 85.983 99.3818 86.686 99.8638 87.1558L106.118 93.2533L104.642 101.861C104.528 102.525 104.8 103.196 105.345 103.591C105.89 103.987 106.612 104.039 107.207 103.726L114.939 99.6617L122.67 103.726C123.266 104.039 123.988 103.987 124.533 103.591C125.078 103.196 125.35 102.525 125.236 101.861L123.76 93.2533L130.014 87.1558C130.496 86.686 130.67 85.983 130.462 85.343C130.253 84.703 129.7 84.2358 129.034 84.1391L120.389 82.885ZM120.624 91.3688C120.207 91.7756 120.017 92.3611 120.116 92.9346L121.144 98.9267L115.762 96.0965C115.246 95.8253 114.631 95.8253 114.116 96.0965L108.734 98.9267L109.761 92.9346C109.86 92.3611 109.67 91.7756 109.253 91.3688L104.9 87.1248L110.914 86.2516C111.49 86.1678 111.989 85.8059 112.246 85.2843L114.938 79.8311L117.628 85.2843C117.886 85.8059 118.384 86.1678 118.961 86.2516L124.978 87.1256L120.624 91.3688Z" fill="#1536B1"/>
</svg>
