<svg width="351" height="297" viewBox="0 0 351 297" fill="none" xmlns="http://www.w3.org/2000/svg">
<path d="M295.858 223.683C299.554 223.711 340.25 224.011 339.939 182.682C337.642 143.156 309.692 59.8932 216.273 43.0517C121.244 -1.32923 51.649 146.486 33.6539 205.254C15.6588 264.022 72.8181 302.207 111.043 268.376C149.269 234.545 222.193 223.118 295.858 223.683Z" fill="#4A90E2"/>
<ellipse cx="269.924" cy="67.7002" rx="63.0994" ry="37.9422" fill="#C6E0FB"/>
<ellipse cx="267.862" cy="118.427" rx="5.77381" ry="5.36139" fill="#C6E0FB"/>
<ellipse cx="254.665" cy="129.769" rx="3.29932" ry="3.09311" fill="#C6E0FB"/>
<path d="M171.49 60.9998H59V154.842H171.49V60.9998Z" fill="#D7EEFD"/>
<g style="mix-blend-mode:multiply">
<g style="mix-blend-mode:multiply">
<path d="M150.287 85.4006H80.2024V141.425H150.287V85.4006Z" fill="white"/>
</g>
<g style="mix-blend-mode:multiply">
<path d="M150.023 85.6802H80.4667V141.143H150.023V85.6802Z" fill="#FEFFFF"/>
</g>
<g style="mix-blend-mode:multiply">
<path d="M149.757 85.9617H80.7311V140.863H149.757V85.9617Z" fill="#FDFEFF"/>
</g>
<g style="mix-blend-mode:multiply">
<path d="M149.492 86.2415H80.9973V140.582H149.492V86.2415Z" fill="#FCFEFF"/>
</g>
<g style="mix-blend-mode:multiply">
<path d="M149.228 86.5229H81.2617V140.302H149.228V86.5229Z" fill="#FBFDFE"/>
</g>
<g style="mix-blend-mode:multiply">
<path d="M148.962 86.8025H81.526V140.02H148.962V86.8025Z" fill="#FAFDFE"/>
</g>
<g style="mix-blend-mode:multiply">
<path d="M148.699 87.084H81.7922V139.743H148.699V87.084Z" fill="#F9FDFE"/>
</g>
<g style="mix-blend-mode:multiply">
<path d="M148.433 87.3638H82.0565V139.461H148.433V87.3638Z" fill="#F8FCFE"/>
</g>
<g style="mix-blend-mode:multiply">
<path d="M148.169 87.6433H82.321V139.18H148.169V87.6433Z" fill="#F7FCFE"/>
</g>
<g style="mix-blend-mode:multiply">
<path d="M147.904 87.9248H82.5872V138.9H147.904V87.9248Z" fill="#F6FBFE"/>
</g>
<g style="mix-blend-mode:multiply">
<path d="M147.638 88.2046H82.8516V138.619H147.638V88.2046Z" fill="#F5FBFE"/>
</g>
<g style="mix-blend-mode:multiply">
<path d="M147.374 88.4861H83.1158V138.339H147.374V88.4861Z" fill="#F4FBFE"/>
</g>
<g style="mix-blend-mode:multiply">
<path d="M147.108 88.7656H83.3802V138.057H147.108V88.7656Z" fill="#F4FAFD"/>
</g>
<g style="mix-blend-mode:multiply">
<path d="M146.845 89.0474H83.6465V137.778H146.845V89.0474Z" fill="#F3FAFD"/>
</g>
<g style="mix-blend-mode:multiply">
<path d="M146.579 89.3269H83.9108V137.498H146.579V89.3269Z" fill="#F2F9FD"/>
</g>
<g style="mix-blend-mode:multiply">
<path d="M146.313 89.6064H84.1752V137.216H146.313V89.6064Z" fill="#F1F9FD"/>
</g>
<g style="mix-blend-mode:multiply">
<path d="M146.05 89.8882H84.4414V136.937H146.05V89.8882Z" fill="#F0F8FD"/>
</g>
<g style="mix-blend-mode:multiply">
<path d="M145.784 90.1677H84.7057V136.655H145.784V90.1677Z" fill="#EFF8FD"/>
</g>
<g style="mix-blend-mode:multiply">
<path d="M145.52 90.4492H84.9701V136.376H145.52V90.4492Z" fill="#EEF8FD"/>
</g>
<g style="mix-blend-mode:multiply">
<path d="M145.254 90.729H85.2345V136.094H145.254V90.729Z" fill="#EDF7FC"/>
</g>
<g style="mix-blend-mode:multiply">
<path d="M144.991 91.0105H85.5006V135.815H144.991V91.0105Z" fill="#ECF7FC"/>
</g>
<g style="mix-blend-mode:multiply">
<path d="M144.725 91.29H85.765V135.533H144.725V91.29Z" fill="#EBF6FC"/>
</g>
<g style="mix-blend-mode:multiply">
<path d="M144.459 91.5718H86.0294V135.255H144.459V91.5718Z" fill="#EAF6FC"/>
</g>
</g>
<path d="M144.459 91.5718H86.0295V135.255H144.459V91.5718Z" fill="white"/>
<path d="M144.459 91.5718H86.0295V127.981H144.459V91.5718Z" fill="#00A7F8"/>
<path d="M109.887 111.671L108.061 123.11H122.133L120.845 113.608L109.887 111.671Z" fill="#6FCBFB"/>
<path d="M125.684 94.8599C125.684 94.8599 125.047 98.5779 125.397 103.623C125.612 106.476 125.341 109.344 124.597 112.106C124.411 112.794 124.19 113.472 123.935 114.137C123.854 114.344 123.722 114.526 123.552 114.668C123.381 114.81 123.178 114.906 122.96 114.948C120.607 115.385 112.705 116.605 108.505 111.872C107.929 111.213 107.541 110.411 107.38 109.55L106.255 103.683L105.693 94.8617L125.684 94.8599Z" fill="url(#paint0_linear)"/>
<path d="M106.002 103.683C104.144 98.2177 104.024 92.0841 104.161 90.1998C104.283 88.5106 104.875 86.9941 106.731 86.2059C109.005 85.2393 110.14 87.1668 110.14 87.1668C110.922 83.2442 115.746 83.5145 115.746 83.5145C120.543 83.4244 120.641 87.2888 120.641 87.2888C122.746 85.5734 125.095 86.6995 125.095 86.6995C129.722 89.1262 126.565 94.9332 126.565 94.9332C123.498 101.38 116.055 98.0338 113.683 96.7556C112.852 96.2979 111.929 96.0318 110.982 95.9767C106.465 95.7553 106.808 100.712 106.808 100.712L106.936 103.683H106.002Z" fill="#2F3676"/>
<path d="M106.201 100.434C105.533 100.198 104.836 100.378 104.72 102.048C104.72 102.048 104.652 104.922 106.574 105.203C106.688 105.222 106.804 105.215 106.915 105.185C107.026 105.154 107.13 105.101 107.218 105.027C107.307 104.954 107.379 104.862 107.43 104.758C107.48 104.655 107.508 104.542 107.511 104.426V102.345C107.516 101.93 107.392 101.524 107.158 101.182C106.923 100.84 106.589 100.579 106.201 100.434V100.434Z" fill="#6FCBFB"/>
<path d="M123.995 101.431C123.995 101.548 123.961 101.663 123.896 101.76C123.831 101.858 123.739 101.934 123.631 101.979C123.523 102.024 123.404 102.035 123.29 102.013C123.175 101.99 123.069 101.934 122.987 101.851C122.904 101.768 122.848 101.662 122.825 101.548C122.802 101.433 122.814 101.314 122.859 101.206C122.904 101.098 122.98 101.005 123.077 100.94C123.175 100.876 123.289 100.841 123.406 100.842C123.562 100.842 123.712 100.904 123.822 101.014C123.933 101.125 123.995 101.275 123.995 101.431V101.431Z" fill="#00569F"/>
<path d="M117.559 101.431C117.559 101.548 117.525 101.663 117.46 101.76C117.395 101.858 117.303 101.934 117.195 101.979C117.087 102.024 116.968 102.035 116.853 102.013C116.739 101.99 116.633 101.934 116.55 101.851C116.468 101.768 116.411 101.662 116.389 101.548C116.366 101.433 116.378 101.314 116.423 101.206C116.468 101.098 116.544 101.005 116.641 100.94C116.738 100.876 116.853 100.841 116.97 100.842C117.126 100.842 117.276 100.904 117.386 101.014C117.497 101.125 117.559 101.275 117.559 101.431V101.431Z" fill="#00569F"/>
<path d="M122.692 107.127H120.172C120.126 107.127 120.083 107.109 120.05 107.076C120.018 107.044 120 107 120 106.954C120 106.909 120.018 106.865 120.05 106.832C120.083 106.8 120.126 106.782 120.172 106.782H122.221L121.128 103.325C121.114 103.281 121.118 103.233 121.139 103.192C121.161 103.151 121.197 103.121 121.241 103.107C121.285 103.093 121.332 103.097 121.373 103.118C121.414 103.139 121.444 103.176 121.458 103.219L122.692 107.127Z" fill="#ACDFFC"/>
<path d="M121.379 116.982C119.467 118.102 117.31 118.736 115.097 118.827C112.884 118.735 110.726 118.102 108.814 116.982C108.814 116.982 93.7238 118.949 93.7238 127.981H136.766C136.815 118.632 121.379 116.982 121.379 116.982Z" fill="#003B8C"/>
<path d="M87.9062 131.569V130.712C87.9063 130.7 87.9095 130.688 87.9154 130.678C87.9214 130.668 87.9299 130.659 87.9401 130.653C87.9504 130.647 87.962 130.644 87.9738 130.644C87.9856 130.644 87.9973 130.647 88.0075 130.653L88.7574 131.083L89.5074 131.511C89.5175 131.517 89.5258 131.526 89.5317 131.536C89.5375 131.546 89.5405 131.557 89.5405 131.569C89.5405 131.581 89.5375 131.593 89.5317 131.603C89.5258 131.613 89.5175 131.621 89.5074 131.627L88.7574 132.057L88.0075 132.487C87.9973 132.493 87.9856 132.496 87.9738 132.496C87.962 132.496 87.9504 132.493 87.9401 132.487C87.9299 132.481 87.9214 132.473 87.9154 132.462C87.9095 132.452 87.9063 132.441 87.9062 132.429V131.569Z" fill="#ACDFFC"/>
<path d="M137.743 131.832H91.0428C90.9737 131.832 90.9074 131.804 90.8586 131.755C90.8097 131.707 90.7822 131.64 90.7822 131.571V131.571C90.7822 131.537 90.789 131.503 90.8021 131.471C90.8152 131.44 90.8344 131.411 90.8587 131.387C90.8829 131.363 90.9116 131.344 90.9432 131.331C90.9748 131.318 91.0087 131.312 91.0428 131.312H137.743C137.812 131.312 137.877 131.339 137.926 131.388C137.975 131.436 138.002 131.502 138.002 131.571V131.571C138.002 131.605 137.996 131.639 137.983 131.671C137.97 131.702 137.951 131.731 137.927 131.755C137.903 131.78 137.874 131.799 137.842 131.812C137.811 131.825 137.777 131.832 137.743 131.832V131.832Z" fill="#ACDFFC"/>
<path d="M118.517 131.832H91.0428C90.9737 131.832 90.9074 131.804 90.8586 131.755C90.8097 131.707 90.7822 131.64 90.7822 131.571V131.571C90.7822 131.537 90.789 131.503 90.8021 131.471C90.8152 131.44 90.8344 131.411 90.8587 131.387C90.8829 131.363 90.9116 131.344 90.9432 131.331C90.9748 131.318 91.0087 131.312 91.0428 131.312H118.517C118.551 131.312 118.585 131.318 118.616 131.331C118.648 131.344 118.677 131.363 118.701 131.387C118.725 131.411 118.744 131.44 118.757 131.471C118.77 131.503 118.777 131.537 118.777 131.571V131.571C118.777 131.64 118.75 131.707 118.701 131.755C118.652 131.804 118.586 131.832 118.517 131.832V131.832Z" fill="#00A7F8"/>
<path d="M118.777 132.175C119.111 132.175 119.381 131.905 119.381 131.571C119.381 131.237 119.111 130.967 118.777 130.967C118.444 130.967 118.173 131.237 118.173 131.571C118.173 131.905 118.444 132.175 118.777 132.175Z" fill="#00A7F8"/>
<path d="M139.882 131.802H139.528V132.887H139.882V131.802Z" fill="#ACDFFC"/>
<path d="M140.784 131.288H140.43V132.889H140.784V131.288Z" fill="#ACDFFC"/>
<path d="M141.686 130.771H141.331V132.889H141.686V130.771Z" fill="#ACDFFC"/>
<path d="M142.586 130.255H142.231V132.887H142.586V130.255Z" fill="#ACDFFC"/>
<path d="M154.617 105.186H136.944C135.783 105.186 134.67 104.725 133.849 103.903C133.028 103.081 132.567 101.966 132.567 100.804V100.804C132.567 99.6415 133.028 98.5268 133.849 97.705C134.67 96.8831 135.783 96.4214 136.944 96.4214H154.617C155.192 96.4211 155.761 96.5343 156.292 96.7545C156.823 96.9746 157.306 97.2974 157.713 97.7044C158.119 98.1114 158.442 98.5946 158.662 99.1264C158.881 99.6583 158.995 100.228 158.994 100.804V100.804C158.995 101.379 158.881 101.949 158.662 102.481C158.442 103.013 158.119 103.496 157.713 103.903C157.306 104.31 156.823 104.633 156.292 104.853C155.761 105.073 155.192 105.187 154.617 105.186V105.186Z" fill="#0089E9"/>
<path d="M139.282 105.115V107.397L142.576 105.115H139.282Z" fill="#0089E9"/>
<path d="M141.706 102.022C141.466 102.022 141.231 101.95 141.031 101.816C140.831 101.682 140.675 101.491 140.584 101.269C140.492 101.046 140.468 100.801 140.515 100.565C140.562 100.329 140.678 100.112 140.849 99.942C141.019 99.7719 141.236 99.6561 141.472 99.6092C141.708 99.5624 141.952 99.5866 142.174 99.6788C142.397 99.7711 142.586 99.9272 142.72 100.127C142.854 100.328 142.925 100.563 142.925 100.804C142.924 101.127 142.796 101.437 142.567 101.665C142.339 101.894 142.029 102.022 141.706 102.022V102.022ZM141.706 99.8712C141.521 99.8712 141.34 99.9263 141.186 100.029C141.031 100.132 140.911 100.279 140.84 100.451C140.769 100.622 140.751 100.811 140.787 100.993C140.823 101.175 140.912 101.342 141.043 101.473C141.175 101.604 141.342 101.694 141.523 101.73C141.705 101.766 141.894 101.748 142.065 101.677C142.236 101.606 142.383 101.485 142.486 101.331C142.589 101.177 142.644 100.995 142.644 100.81C142.644 100.561 142.545 100.322 142.369 100.146C142.193 99.9701 141.955 99.8712 141.706 99.8712V99.8712Z" fill="white"/>
<path d="M145.777 102.022C145.536 102.022 145.301 101.951 145.101 101.817C144.901 101.683 144.745 101.493 144.653 101.27C144.56 101.048 144.536 100.803 144.583 100.566C144.63 100.33 144.746 100.113 144.916 99.9427C145.086 99.7724 145.303 99.6563 145.539 99.6093C145.775 99.5623 146.02 99.5865 146.242 99.6787C146.465 99.7708 146.655 99.927 146.788 100.127C146.922 100.328 146.993 100.563 146.993 100.804C146.993 101.127 146.865 101.436 146.637 101.665C146.408 101.893 146.099 102.022 145.777 102.022ZM145.777 99.8712C145.591 99.8712 145.41 99.9263 145.256 100.029C145.102 100.132 144.982 100.279 144.911 100.451C144.84 100.622 144.821 100.811 144.857 100.993C144.893 101.175 144.983 101.342 145.114 101.473C145.245 101.604 145.412 101.694 145.594 101.73C145.776 101.766 145.964 101.748 146.135 101.677C146.307 101.606 146.453 101.485 146.556 101.331C146.659 101.177 146.714 100.995 146.714 100.81C146.714 100.561 146.615 100.322 146.44 100.146C146.264 99.9701 146.025 99.8712 145.777 99.8712Z" fill="white"/>
<path d="M149.845 102.022C149.604 102.022 149.369 101.95 149.17 101.816C148.97 101.682 148.814 101.491 148.722 101.269C148.63 101.046 148.607 100.801 148.654 100.565C148.701 100.329 148.817 100.112 148.987 99.942C149.157 99.7719 149.374 99.6561 149.61 99.6092C149.846 99.5624 150.091 99.5866 150.313 99.6788C150.535 99.7711 150.725 99.9272 150.859 100.127C150.992 100.328 151.064 100.563 151.064 100.804C151.063 101.127 150.935 101.437 150.706 101.665C150.478 101.894 150.168 102.022 149.845 102.022V102.022ZM149.845 99.8712C149.66 99.8712 149.478 99.9263 149.324 100.029C149.17 100.132 149.05 100.279 148.979 100.451C148.908 100.622 148.889 100.811 148.926 100.993C148.962 101.175 149.051 101.342 149.182 101.473C149.313 101.604 149.48 101.694 149.662 101.73C149.844 101.766 150.032 101.748 150.204 101.677C150.375 101.606 150.521 101.485 150.624 101.331C150.727 101.177 150.782 100.995 150.782 100.81C150.782 100.561 150.684 100.322 150.508 100.146C150.332 99.9701 150.094 99.8712 149.845 99.8712V99.8712Z" fill="white"/>
<path d="M157.686 96.703C157.648 96.7025 157.611 96.687 157.585 96.66C157.558 96.6329 157.543 96.5964 157.543 96.5584V95.1114C157.543 95.0736 157.558 95.0373 157.585 95.0105C157.612 94.9838 157.648 94.9688 157.686 94.9688C157.723 94.9688 157.76 94.9838 157.786 95.0105C157.813 95.0373 157.828 95.0736 157.828 95.1114V96.5584C157.828 96.5964 157.813 96.6329 157.786 96.66C157.76 96.687 157.724 96.7025 157.686 96.703V96.703Z" fill="#0089E9"/>
<path d="M158.505 97.0484C158.486 97.0486 158.468 97.0451 158.45 97.038C158.433 97.0309 158.417 97.0204 158.404 97.0071C158.39 96.9938 158.38 96.978 158.372 96.9606C158.365 96.9432 158.361 96.9246 158.361 96.9057C158.361 96.8869 158.365 96.8682 158.372 96.8508C158.38 96.8334 158.39 96.8176 158.404 96.8044L159.427 95.7815C159.455 95.7589 159.489 95.7473 159.525 95.7489C159.56 95.7506 159.594 95.7655 159.619 95.7906C159.644 95.8157 159.659 95.8492 159.66 95.8847C159.662 95.9201 159.651 95.9549 159.628 95.9823L158.606 97.0071C158.593 97.0203 158.577 97.0307 158.56 97.0378C158.542 97.0449 158.524 97.0485 158.505 97.0484Z" fill="#0089E9"/>
<path d="M160.286 97.8741H158.839C158.801 97.8741 158.765 97.859 158.738 97.8323C158.711 97.8055 158.696 97.7693 158.696 97.7314C158.696 97.6934 158.711 97.6569 158.738 97.6299C158.764 97.6029 158.801 97.5874 158.839 97.5869H160.286C160.324 97.5874 160.36 97.6029 160.387 97.6299C160.414 97.6569 160.429 97.6934 160.429 97.7314C160.429 97.7693 160.414 97.8055 160.387 97.8323C160.36 97.859 160.324 97.8741 160.286 97.8741V97.8741Z" fill="#0089E9"/>
<path d="M94.9837 82.5891H79.7095C77.6189 82.5891 75.9242 84.2857 75.9242 86.3785V86.3803C75.9242 88.4731 77.6189 90.1697 79.7095 90.1697H94.9837C97.0743 90.1697 98.769 88.4731 98.769 86.3803V86.3785C98.769 84.2857 97.0743 82.5891 94.9837 82.5891Z" fill="#6FCBFB"/>
<path d="M81.528 90.0251L84.4396 92.7653V90.0251H81.528Z" fill="#6FCBFB"/>
<path d="M83.8265 87.4333C83.6181 87.4333 83.4144 87.3714 83.2411 87.2555C83.0678 87.1396 82.9328 86.9749 82.853 86.7822C82.7733 86.5894 82.7524 86.3773 82.7931 86.1727C82.8337 85.9681 82.9341 85.7802 83.0814 85.6327C83.2288 85.4852 83.4165 85.3847 83.6209 85.344C83.8253 85.3033 84.0372 85.3242 84.2297 85.404C84.4222 85.4839 84.5868 85.6191 84.7026 85.7925C84.8183 85.966 84.8801 86.1699 84.8801 86.3785C84.8801 86.6583 84.7691 86.9266 84.5715 87.1244C84.3739 87.3222 84.1059 87.4333 83.8265 87.4333ZM83.8265 85.5715C83.667 85.5715 83.5112 85.6188 83.3786 85.7075C83.246 85.7962 83.1427 85.9222 83.0817 86.0697C83.0207 86.2171 83.0047 86.3794 83.0358 86.536C83.0669 86.6925 83.1437 86.8363 83.2564 86.9492C83.3692 87.0621 83.5128 87.1389 83.6692 87.1701C83.8256 87.2012 83.9877 87.1852 84.135 87.1241C84.2823 87.063 84.4082 86.9596 84.4968 86.8269C84.5854 86.6942 84.6327 86.5381 84.6327 86.3785C84.6322 86.1646 84.5471 85.9596 84.396 85.8084C84.2449 85.6572 84.0401 85.572 83.8265 85.5715V85.5715Z" fill="white"/>
<path d="M87.3456 87.4333C87.1373 87.4333 86.9335 87.3714 86.7603 87.2555C86.587 87.1396 86.4519 86.9749 86.3722 86.7822C86.2924 86.5894 86.2716 86.3773 86.3122 86.1727C86.3529 85.9681 86.4532 85.7802 86.6006 85.6327C86.748 85.4852 86.9357 85.3847 87.1401 85.344C87.3445 85.3033 87.5563 85.3242 87.7489 85.404C87.9414 85.4839 88.1059 85.6191 88.2217 85.7925C88.3375 85.966 88.3993 86.1699 88.3993 86.3785C88.3993 86.6583 88.2883 86.9266 88.0907 87.1244C87.8931 87.3222 87.6251 87.4333 87.3456 87.4333ZM87.3456 85.5715C87.1862 85.5715 87.0303 85.6188 86.8978 85.7075C86.7652 85.7962 86.6619 85.9222 86.6008 86.0697C86.5398 86.2171 86.5239 86.3794 86.555 86.536C86.5861 86.6925 86.6628 86.8363 86.7756 86.9492C86.8883 87.0621 87.032 87.1389 87.1884 87.1701C87.3448 87.2012 87.5068 87.1852 87.6542 87.1241C87.8015 87.063 87.9274 86.9596 88.016 86.8269C88.1045 86.6942 88.1518 86.5381 88.1518 86.3785C88.1513 86.1646 88.0662 85.9596 87.9152 85.8084C87.7641 85.6572 87.5593 85.572 87.3456 85.5715V85.5715Z" fill="white"/>
<path d="M90.8721 87.4333C90.6637 87.4333 90.46 87.3714 90.2868 87.2555C90.1135 87.1396 89.9784 86.9749 89.8987 86.7822C89.8189 86.5894 89.7981 86.3773 89.8387 86.1727C89.8794 85.9681 89.9797 85.7802 90.1271 85.6327C90.2744 85.4852 90.4622 85.3847 90.6666 85.344C90.871 85.3033 91.0828 85.3242 91.2754 85.404C91.4679 85.4839 91.6324 85.6191 91.7482 85.7925C91.864 85.966 91.9258 86.1699 91.9258 86.3785C91.9258 86.6583 91.8148 86.9266 91.6172 87.1244C91.4196 87.3222 91.1516 87.4333 90.8721 87.4333ZM90.8721 85.5715C90.7127 85.5715 90.5568 85.6188 90.4242 85.7075C90.2917 85.7962 90.1883 85.9222 90.1273 86.0697C90.0663 86.2171 90.0503 86.3794 90.0814 86.536C90.1126 86.6925 90.1893 86.8363 90.3021 86.9492C90.4148 87.0621 90.5585 87.1389 90.7149 87.1701C90.8712 87.2012 91.0333 87.1852 91.1806 87.1241C91.328 87.063 91.4539 86.9596 91.5424 86.8269C91.631 86.6942 91.6783 86.5381 91.6783 86.3785C91.6778 86.1646 91.5927 85.9596 91.4416 85.8084C91.2906 85.6572 91.0858 85.572 90.8721 85.5715V85.5715Z" fill="white"/>
<path d="M97.644 82.8312C97.6115 82.8312 97.5803 82.8184 97.5572 82.7956C97.534 82.7728 97.5208 82.7418 97.5203 82.7092V81.4574C97.5203 81.4245 97.5333 81.393 97.5565 81.3698C97.5797 81.3465 97.6112 81.3335 97.644 81.3335C97.6768 81.3335 97.7083 81.3465 97.7315 81.3698C97.7547 81.393 97.7677 81.4245 97.7677 81.4574V82.7111C97.7668 82.7433 97.7533 82.7739 97.7302 82.7963C97.7071 82.8187 97.6762 82.8312 97.644 82.8312Z" fill="#6FCBFB"/>
<path d="M98.3528 83.1316C98.3365 83.1317 98.3203 83.1287 98.3052 83.1226C98.29 83.1164 98.2763 83.1074 98.2647 83.0959C98.2421 83.0725 98.2295 83.0412 98.2295 83.0086C98.2295 82.9761 98.2421 82.9448 98.2647 82.9214L99.1496 82.0355C99.1733 82.0155 99.2036 82.0051 99.2346 82.0065C99.2656 82.0078 99.2949 82.0207 99.3168 82.0426C99.3387 82.0646 99.3516 82.0939 99.353 82.1249C99.3543 82.1559 99.3439 82.1863 99.3239 82.21L98.439 83.0959C98.4279 83.1075 98.4145 83.1167 98.3996 83.1228C98.3848 83.1289 98.3688 83.1319 98.3528 83.1316Z" fill="#6FCBFB"/>
<path d="M99.892 83.8447H98.6414C98.6086 83.8447 98.5771 83.8316 98.5539 83.8084C98.5307 83.7852 98.5177 83.7536 98.5177 83.7208C98.5177 83.6879 98.5307 83.6564 98.5539 83.6332C98.5771 83.61 98.6086 83.5969 98.6414 83.5969H99.892C99.9248 83.5969 99.9562 83.61 99.9794 83.6332C100.003 83.6564 100.016 83.6879 100.016 83.7208C100.016 83.7536 100.003 83.7852 99.9794 83.8084C99.9562 83.8316 99.9248 83.8447 99.892 83.8447V83.8447Z" fill="#6FCBFB"/>
<path d="M101.086 132.22L107.2 125.267C107.257 125.181 107.339 125.114 107.435 125.075C107.53 125.036 107.635 125.027 107.736 125.049V125.049L109.611 125.871C109.729 125.933 109.829 126.024 109.903 126.134C109.977 126.244 110.023 126.371 110.037 126.504L114.724 147.665C114.795 148.008 114.795 148.361 114.723 148.704C114.652 149.047 114.51 149.371 114.308 149.656L108.194 156.61C108.136 156.695 108.054 156.762 107.959 156.801C107.863 156.839 107.758 156.849 107.658 156.828L107.568 156.786L105.815 156.017L105.785 156.002C105.667 155.941 105.567 155.851 105.493 155.741C105.419 155.632 105.374 155.505 105.361 155.373L100.674 134.212C100.602 133.869 100.601 133.516 100.672 133.173C100.743 132.83 100.884 132.506 101.086 132.22V132.22Z" fill="#3A3E48"/>
<path d="M102.541 135.032L107.228 156.194C107.242 156.326 107.287 156.453 107.361 156.564C107.435 156.674 107.535 156.765 107.652 156.828C107.753 156.849 107.858 156.84 107.953 156.801C108.049 156.762 108.13 156.696 108.188 156.61L114.308 149.656C114.512 149.372 114.656 149.048 114.73 148.706C114.804 148.363 114.806 148.009 114.737 147.665L110.044 126.502C110.031 126.369 109.985 126.243 109.911 126.132C109.836 126.022 109.736 125.932 109.619 125.869C109.518 125.848 109.413 125.857 109.317 125.896C109.222 125.935 109.14 126.001 109.082 126.087L102.967 133.041C102.763 133.325 102.619 133.649 102.546 133.991C102.473 134.333 102.471 134.687 102.541 135.03V135.032Z" fill="#445C71"/>
<path d="M103.029 137.235L106.568 153.222L114.069 144.69L110.532 128.705L103.029 137.235Z" fill="#AED3DB"/>
<path d="M106.223 131.787C106.253 131.781 106.279 131.765 106.298 131.742L107.47 130.409C107.502 130.367 107.519 130.316 107.519 130.263C107.519 130.21 107.502 130.159 107.47 130.116C107.458 130.096 107.442 130.079 107.423 130.066C107.403 130.053 107.381 130.045 107.358 130.043C107.334 130.04 107.311 130.043 107.289 130.051C107.267 130.06 107.248 130.073 107.232 130.09L106.06 131.423C106.033 131.457 106.016 131.499 106.012 131.543C106.008 131.587 106.016 131.631 106.036 131.67C106.049 131.708 106.075 131.741 106.109 131.762C106.143 131.783 106.183 131.792 106.223 131.787V131.787Z" fill="#3A3E48"/>
<path d="M105.286 132.855C105.315 132.847 105.341 132.831 105.361 132.808L105.595 132.541C105.616 132.514 105.63 132.482 105.637 132.448C105.644 132.415 105.644 132.38 105.637 132.346C105.629 132.312 105.615 132.281 105.594 132.253C105.573 132.226 105.547 132.203 105.516 132.187C105.489 132.174 105.458 132.171 105.429 132.177C105.4 132.184 105.373 132.2 105.353 132.222L105.121 132.489C105.095 132.524 105.078 132.566 105.074 132.609C105.07 132.653 105.078 132.697 105.097 132.737C105.111 132.774 105.137 132.805 105.171 132.826C105.205 132.848 105.244 132.858 105.284 132.855H105.286Z" fill="#3A3E48"/>
<path d="M111.465 150.989C111.583 150.186 111.355 149.487 110.957 149.429C110.558 149.37 110.139 149.974 110.022 150.777C109.904 151.58 110.131 152.278 110.53 152.337C110.928 152.395 111.347 151.792 111.465 150.989Z" fill="#3A3E48"/>
<path fill-rule="evenodd" clip-rule="evenodd" d="M183.602 116.856C186.414 113.555 188.313 109.509 187.994 104.976C187.079 91.9132 168.916 94.7866 165.384 101.38C161.852 107.973 162.27 124.694 166.837 125.873C168.657 126.342 172.536 125.192 176.485 122.81L174.006 140.36H188.639L183.602 116.856Z" fill="#B28B67"/>
<path fill-rule="evenodd" clip-rule="evenodd" d="M158.901 92.2398C159.204 91.1737 160.026 90.2616 161.117 89.9875C161.382 89.9214 161.655 89.893 161.928 89.9031C162.028 89.9031 162.054 89.9369 162.101 89.8674C162.127 89.791 162.143 89.7115 162.15 89.6309C162.193 89.4442 162.248 89.2605 162.315 89.081C162.554 88.4726 162.924 87.9237 163.396 87.4726C164.278 86.598 165.432 86.0516 166.666 85.9242C167.333 85.8748 168.003 85.9662 168.633 86.1926C168.96 86.3073 169.278 86.4434 169.587 86.5998C169.681 86.6468 169.983 86.8757 170.077 86.8607C170.17 86.8457 170.386 86.5886 170.47 86.5229C171.507 85.7271 172.789 85.4137 174.081 85.4231C175.54 85.4343 176.944 85.5075 178.159 86.3971C178.417 86.586 178.663 86.7903 178.896 87.009C179.019 87.1235 179.138 87.2417 179.252 87.3656C179.319 87.4407 179.387 87.5157 179.451 87.5946C179.559 87.7278 179.543 87.771 179.694 87.679C180.275 87.3165 180.962 87.1617 181.642 87.2398C182.048 87.2957 182.443 87.4075 182.818 87.572C182.945 87.6265 183.24 87.8442 183.38 87.8479C183.521 87.8517 183.806 87.6471 183.943 87.5964C184.697 87.3217 185.51 87.2486 186.301 87.3844C187.123 87.5237 187.907 87.8324 188.604 88.2909C188.935 88.4935 189.225 88.7571 189.459 89.0679C189.553 89.2106 189.654 89.3484 189.762 89.4808C189.83 89.5559 189.961 89.6347 189.997 89.7285C189.976 89.6722 190.887 89.3213 190.973 89.2987C191.426 89.182 191.903 89.1996 192.346 89.3494C193.189 89.6291 193.915 90.2522 194.513 90.8903C194.814 91.2198 195.078 91.581 195.301 91.9676C195.409 92.1553 195.51 92.343 195.6 92.5307C195.638 92.6326 195.682 92.7317 195.734 92.8272C195.809 92.938 195.859 92.9398 195.994 92.9867C196.688 93.2261 197.309 93.642 197.794 94.1936C198.277 94.757 198.6 95.4393 198.731 96.1699C198.731 96.213 198.743 96.3913 198.769 96.4139C198.795 96.4364 198.941 96.4326 198.994 96.4383C199.515 96.4979 200.022 96.6458 200.494 96.8756C201.659 97.4852 202.535 98.5319 202.931 99.7866C203.377 101.103 203.344 102.535 202.839 103.829C202.757 104.035 202.656 104.234 202.539 104.422C202.468 104.537 202.445 104.537 202.49 104.659C202.535 104.781 202.639 104.925 202.7 105.057C202.899 105.488 203.043 105.941 203.13 106.408C203.3 107.176 203.325 107.968 203.205 108.745C203.14 109.103 203.019 109.449 202.845 109.77C202.754 109.932 202.648 110.086 202.528 110.229C202.466 110.303 202.401 110.374 202.341 110.441C202.297 110.477 202.255 110.515 202.217 110.556C202.134 110.663 202.117 110.575 202.159 110.73C202.219 110.946 202.346 111.16 202.434 111.37C202.522 111.581 202.595 111.806 202.665 112.027C202.809 112.476 202.921 112.935 203 113.399C203.143 114.293 203.119 115.244 202.697 116.064C202.515 116.414 202.259 116.721 201.947 116.962C201.792 117.078 201.627 117.179 201.452 117.262C201.362 117.305 201.247 117.324 201.206 117.41C201.165 117.496 201.229 117.688 201.244 117.786C201.373 118.694 201.431 119.647 201.169 120.537C200.912 121.362 200.383 122.075 199.669 122.56C198.291 123.499 196.433 123.439 194.982 122.693C194.604 122.5 194.253 122.258 193.938 121.975C193.135 123.056 191.485 123.022 190.313 122.714C189.6 122.519 188.936 122.175 188.365 121.703C187.795 121.231 187.332 120.643 187.006 119.978C186.084 121.104 184.145 120.738 183.506 119.518C183.352 119.217 183.253 118.892 183.212 118.557C183.187 118.382 183.212 118.204 183.183 118.031C183.127 117.804 183.041 117.585 182.928 117.38C182.758 116.968 182.666 116.529 182.655 116.083C182.659 115.85 182.676 115.618 182.705 115.387C182.709 115.181 182.685 114.975 182.634 114.775C183.035 114.812 183.438 114.761 183.817 114.627C184.17 114.489 184.483 114.268 184.732 113.983C185.277 113.364 185.671 112.626 185.883 111.828C186.404 110.122 186.191 108.075 184.477 107.136C183.678 106.701 181.29 106.703 180.334 106.919C179.334 107.144 178.2 109.358 178.146 109.561C178.11 109.691 178.127 109.848 178.011 109.937C177.75 110.124 177.323 109.798 177.132 109.636C176.814 109.346 176.553 108.999 176.363 108.613C175.917 107.792 175.564 106.923 175.309 106.023C175.122 105.333 174.989 104.621 174.734 103.949C174.507 103.272 174.057 102.691 173.459 102.302C172.784 101.891 172.009 101.673 171.267 101.414C170.525 101.155 169.808 100.851 169.238 100.297C169.11 100.179 168.993 100.049 168.89 99.9086C168.811 99.7978 168.732 99.5839 168.61 99.5144C168.423 99.4037 168.145 99.6908 167.982 99.7941C167.184 100.322 166.499 101.004 165.965 101.799C165.432 102.543 164.982 103.345 164.624 104.188C164.358 104.83 164.191 105.652 163.723 106.179C163.515 106.414 161.958 106.554 161.456 106.35C160.948 106.121 160.518 105.749 160.219 105.278C160.048 104.942 159.999 104.557 160.078 104.188C160.121 103.966 160.209 103.762 160.265 103.546C160.297 103.366 160.353 103.191 160.432 103.026C160.515 102.871 160.628 102.734 160.765 102.625C160.903 102.515 161.061 102.435 161.231 102.39C160.87 102.059 160.577 101.662 160.369 101.219C160.14 100.738 159.989 100.223 159.922 99.6946C159.869 99.2822 159.955 98.8637 160.168 98.5066C160.404 98.1312 160.82 97.8947 161.182 97.6639C160.633 97.2303 160.157 96.7113 159.772 96.1267C158.983 95.0119 158.518 93.5873 158.901 92.2398Z" fill="#191847"/>
<path fill-rule="evenodd" clip-rule="evenodd" d="M229.488 216.654H159.369C156.784 216.654 154.304 217.683 152.476 219.513C150.647 221.343 149.62 223.825 149.62 226.414V282.565C149.62 285.154 150.647 287.636 152.476 289.466C154.304 291.297 156.784 292.325 159.369 292.325H229.488C232.074 292.325 234.553 291.297 236.382 289.466C238.21 287.636 239.237 285.154 239.237 282.565V226.42C239.238 225.137 238.986 223.868 238.497 222.683C238.007 221.498 237.289 220.422 236.384 219.515C235.478 218.608 234.403 217.889 233.22 217.398C232.037 216.907 230.769 216.654 229.488 216.654V216.654ZM219.739 233.734C220.385 233.734 221.005 233.991 221.462 234.448C221.919 234.906 222.176 235.526 222.176 236.174V272.795C222.176 273.442 221.919 274.062 221.462 274.52C221.005 274.977 220.385 275.234 219.739 275.234H169.128C168.481 275.234 167.861 274.977 167.404 274.52C166.947 274.062 166.69 273.442 166.69 272.795V236.185C166.69 235.538 166.947 234.917 167.404 234.459C167.861 234.002 168.481 233.745 169.128 233.745L219.739 233.734Z" fill="#C5CFD6"/>
<path fill-rule="evenodd" clip-rule="evenodd" d="M106.019 290.298C113.831 272.99 119.48 257.919 121.749 249.966C125.632 236.352 128.585 224.37 129.333 219.897C131.112 209.227 115.637 208.606 113.584 213.908C110.489 221.934 105.084 248.302 98.5853 288.13L106.019 290.298ZM196.633 235.98C189.466 233.144 164.366 224.269 152.26 221.757C148.782 221.037 145.409 220.365 142.239 219.76C132.818 217.959 127.936 234.976 137.01 236.277C159.611 239.533 191.648 242.896 194.391 243.273C198.233 243.805 201.137 237.763 196.633 235.98Z" fill="#B28B67"/>
<path fill-rule="evenodd" clip-rule="evenodd" d="M136.457 215.078L175.225 195.32V191.02H170.614C133.108 200.587 113.942 206.718 113.117 209.413C113.117 209.443 113.1 209.472 113.093 209.502L113.036 209.577C105.603 219.809 101.152 269.771 99.6914 273.511L113.94 275.64C119.388 255.413 136.813 241.324 136.358 217.099C136.477 216.432 136.51 215.753 136.457 215.078V215.078Z" fill="#1F28CF"/>
<path fill-rule="evenodd" clip-rule="evenodd" d="M172.004 226.81C175.551 226.1 178.819 225.466 181.614 224.974C199.669 221.804 204.933 212.129 201.821 191.02H168.554C163.117 192.582 134.88 204.438 120.227 210.744C110.53 214.916 113.586 229.963 119.079 233.878C119.08 233.978 119.109 234.076 119.163 234.16C119.216 234.244 119.293 234.312 119.383 234.355C148.925 246.612 172.296 240.173 180.103 242.238L183.714 230.834L172.004 226.81Z" fill="#2B44FF"/>
<path fill-rule="evenodd" clip-rule="evenodd" d="M194.176 234.167C196.11 234.353 197.485 234.644 198.3 235.04C199.288 235.523 200.649 236.392 202.386 237.647L187.312 268.588C184.263 268.095 183.056 266.931 183.69 265.096C184.323 263.26 184.833 261.728 185.22 260.499L185.821 242.99C185.827 242.828 185.897 242.676 186.015 242.565C186.133 242.455 186.29 242.396 186.451 242.401H186.468L189.159 242.57C190.688 241.331 191.697 240.21 192.185 239.208C192.582 238.394 192.801 237.108 192.843 235.351C192.851 235.028 192.987 234.721 193.221 234.497C193.455 234.274 193.768 234.152 194.091 234.159L194.176 234.167Z" fill="#754FBA"/>
<path fill-rule="evenodd" clip-rule="evenodd" d="M109.576 287.09C110.256 288.912 110.596 290.276 110.597 291.182C110.597 292.282 110.414 293.888 110.048 296H75.6599C74.7675 293.042 75.2837 291.445 77.2085 291.21C79.1333 290.975 80.7326 290.761 82.0062 290.57L97.9891 283.438C98.1369 283.372 98.3046 283.367 98.4558 283.425C98.6069 283.483 98.729 283.598 98.7953 283.746V283.763L99.8227 286.257C101.605 287.09 103.054 287.507 104.169 287.507C105.075 287.507 106.325 287.14 107.918 286.407C108.213 286.273 108.548 286.261 108.852 286.374C109.155 286.487 109.401 286.715 109.536 287.01L109.576 287.09Z" fill="#754FBA"/>
<path fill-rule="evenodd" clip-rule="evenodd" d="M133.967 180.985L115.474 161.895C110.732 159.893 106.705 157.468 103.394 154.621C102.582 153.609 101.533 151.578 104.574 152.023C107.615 152.468 110.809 152.736 111.092 151.216C111.375 149.696 109.394 147.798 110.056 145.756C110.497 144.396 113.441 147.945 118.888 156.402L136.511 167.317L133.967 180.985ZM216.497 183.708L203.748 183.757C211.615 209.181 215.865 222.67 216.497 224.225C217.907 227.726 214.922 233.056 213.646 235.922C217.804 237.784 217.362 230.886 222.606 233.328C227.394 235.558 231.042 239.599 236.567 236.181C237.248 235.762 237.992 234.18 236.192 232.943C231.706 229.865 225.242 224.473 224.36 222.701C223.175 220.281 220.554 207.284 216.497 183.708Z" fill="#B28B67"/>
<path fill-rule="evenodd" clip-rule="evenodd" d="M180.289 130.188L175.017 129.281C175.735 143.343 168.256 156.246 156.325 161.775C142.19 168.324 128.648 161.353 127.06 160.503L131.935 184.917C133.375 185.668 152.414 195.388 168.517 186.137C184.59 176.905 191.613 152.309 180.289 130.188Z" fill="#191847"/>
<path fill-rule="evenodd" clip-rule="evenodd" d="M203.272 196.508H156.325C167.199 170.036 172.636 147.547 172.636 129.041L186.798 126.93C197.925 144.852 201.073 166.914 203.272 196.508Z" fill="#DDE3E9"/>
<path fill-rule="evenodd" clip-rule="evenodd" d="M187.102 126.943V126.933H186.17C185.064 126.971 183.38 127.039 181.117 127.138L177.694 136.928C177.331 148.864 175.218 172.918 171.353 209.089H202.127C202.047 211.591 201.914 214.113 201.729 216.654H224.612C221.188 177.991 208.689 148.087 187.115 126.941L187.102 126.943Z" fill="#2F3676"/>
<path fill-rule="evenodd" clip-rule="evenodd" d="M200.094 177.124C199.22 192.697 197.027 203.432 193.516 209.331H202.119C202.497 198.126 201.822 187.39 200.094 177.124Z" fill="black" fill-opacity="0.1"/>
<path fill-rule="evenodd" clip-rule="evenodd" d="M195.278 190.408L180.103 183.348V190.408H195.278Z" fill="white" fill-opacity="0.2"/>
<path d="M169.33 107.846C168.906 109.098 168.601 110.388 168.419 111.697C168.42 111.681 168.42 111.666 168.419 111.65C168.37 112.111 168.345 112.574 168.344 113.037C168.352 113.493 168.39 113.947 168.458 114.398L168.47 114.479C168.48 114.515 168.484 114.552 168.479 114.59C168.475 114.627 168.464 114.663 168.445 114.696C168.424 114.728 168.397 114.755 168.364 114.776C168.332 114.796 168.296 114.809 168.258 114.815C168.178 114.827 168.097 114.81 168.029 114.768C167.958 114.727 167.905 114.659 167.883 114.58C167.775 114.013 167.725 113.437 167.733 112.861C167.744 112.29 167.796 111.72 167.89 111.157C168.101 109.973 168.403 108.808 168.794 107.671C168.804 107.638 168.821 107.608 168.843 107.582C168.865 107.556 168.893 107.535 168.924 107.521C168.955 107.506 168.988 107.498 169.022 107.497C169.056 107.496 169.09 107.502 169.122 107.515C169.145 107.523 169.167 107.533 169.188 107.545C169.239 107.575 169.28 107.619 169.304 107.673C169.329 107.727 169.335 107.788 169.323 107.846H169.33ZM168.46 114.4C168.46 114.409 168.46 114.418 168.46 114.43C168.46 114.441 168.46 114.409 168.46 114.4Z" fill="#914B00"/>
<path d="M171.678 115.355C171.678 115.387 171.672 115.418 171.66 115.447C171.647 115.476 171.628 115.502 171.604 115.522C171.554 115.562 171.491 115.583 171.426 115.58C170.868 115.589 170.31 115.545 169.76 115.449C169.226 115.354 168.704 115.205 168.2 115.006C168.127 114.983 168.065 114.934 168.025 114.868C167.986 114.803 167.971 114.725 167.984 114.65C167.994 114.615 168.01 114.583 168.033 114.556C168.056 114.529 168.084 114.506 168.115 114.49C168.186 114.463 168.264 114.463 168.335 114.49C168.55 114.588 168.77 114.675 168.995 114.751C169.254 114.838 169.519 114.908 169.788 114.963L169.746 114.954C170.026 115.008 170.309 115.047 170.581 115.074C170.857 115.097 171.134 115.105 171.411 115.098C171.455 115.098 171.498 115.111 171.535 115.136C171.574 115.16 171.608 115.193 171.632 115.233C171.657 115.272 171.671 115.317 171.676 115.363L171.678 115.355Z" fill="#914B00"/>
<path d="M173.854 118.244C173.906 118.293 173.938 118.36 173.942 118.431C173.943 118.467 173.936 118.502 173.922 118.534C173.908 118.566 173.888 118.595 173.862 118.619C172.934 119.634 171.411 120.085 169.925 119.858C169.838 119.848 169.758 119.81 169.696 119.749C169.639 119.69 169.605 119.613 169.6 119.531C169.599 119.491 169.607 119.452 169.623 119.415C169.639 119.378 169.662 119.346 169.692 119.319C169.722 119.292 169.757 119.273 169.795 119.261C169.834 119.249 169.874 119.246 169.913 119.252C170.257 119.31 170.605 119.335 170.954 119.325C171.288 119.301 171.618 119.243 171.94 119.152C172.252 119.054 172.551 118.917 172.829 118.745C173.06 118.59 173.271 118.407 173.457 118.201C173.506 118.163 173.567 118.142 173.629 118.142C173.691 118.142 173.752 118.163 173.802 118.201C173.822 118.214 173.841 118.229 173.858 118.247L173.854 118.244Z" fill="#914B00"/>
<path d="M174.18 117.277C174.322 117.498 174.433 117.738 174.51 117.988C174.548 118.122 174.575 118.258 174.589 118.396C174.606 118.548 174.606 118.703 174.589 118.855C174.588 118.923 174.56 118.987 174.512 119.034C174.459 119.076 174.392 119.096 174.325 119.09C174.253 119.084 174.185 119.052 174.134 119.001C174.083 118.95 174.052 118.882 174.045 118.81C174.061 118.636 174.058 118.46 174.034 118.287C174.007 118.155 173.97 118.025 173.924 117.898C173.86 117.76 173.786 117.627 173.702 117.5C173.683 117.471 173.671 117.438 173.666 117.404C173.66 117.37 173.662 117.335 173.671 117.301C173.681 117.268 173.697 117.236 173.719 117.21C173.741 117.183 173.769 117.161 173.8 117.146C173.844 117.127 173.893 117.119 173.941 117.123C173.989 117.128 174.035 117.144 174.075 117.17C174.119 117.197 174.156 117.233 174.182 117.277H174.18ZM173.907 117.859C173.909 117.867 173.912 117.874 173.916 117.881L173.907 117.859ZM174.025 118.234C174.025 118.234 174.025 118.247 174.025 118.255C174.025 118.262 174.025 118.242 174.025 118.234Z" fill="#914B00"/>
<path d="M177.461 112.371C177.295 112.583 177.101 112.773 176.886 112.934C176.689 113.077 176.472 113.188 176.241 113.263C176.015 113.329 175.782 113.366 175.547 113.371C175.285 113.373 175.024 113.329 174.777 113.24C174.548 113.16 174.332 113.046 174.137 112.902C174.022 112.819 173.914 112.726 173.813 112.626C173.715 112.522 173.623 112.411 173.539 112.294C173.388 112.079 173.274 111.841 173.202 111.588C173.109 111.285 173.074 110.966 173.101 110.65C173.101 110.6 173.112 110.551 173.132 110.505C173.152 110.459 173.181 110.418 173.217 110.384C173.296 110.32 173.397 110.289 173.498 110.297C173.606 110.306 173.708 110.353 173.785 110.43C173.861 110.507 173.908 110.609 173.916 110.718C173.917 110.866 173.926 111.015 173.942 111.162C173.977 111.355 174.031 111.544 174.104 111.725C174.161 111.845 174.228 111.96 174.304 112.069C174.4 112.187 174.506 112.297 174.621 112.396C174.72 112.467 174.825 112.529 174.934 112.583C175.059 112.639 175.189 112.682 175.322 112.713C175.446 112.733 175.572 112.743 175.697 112.743C175.837 112.732 175.975 112.707 176.11 112.67C176.43 112.565 176.714 112.369 176.925 112.106L176.914 112.12L176.961 112.061C177 112.005 177.06 111.966 177.128 111.953C177.203 111.94 177.28 111.956 177.345 111.996C177.409 112.031 177.457 112.09 177.478 112.161C177.498 112.231 177.491 112.307 177.456 112.371H177.461ZM175.39 112.728L175.337 112.716L175.39 112.728ZM176.903 112.138L176.92 112.12L176.903 112.138Z" fill="#914B00"/>
<path d="M166.97 109.55C166.694 109.961 166.297 110.274 165.834 110.447C165.444 110.577 165.019 110.557 164.643 110.391C164.244 110.209 163.92 109.894 163.726 109.499C163.608 109.268 163.532 109.018 163.5 108.76C163.464 108.474 163.468 108.185 163.513 107.9C163.524 107.852 163.547 107.806 163.58 107.769C163.613 107.731 163.654 107.701 163.7 107.683C163.794 107.639 163.901 107.635 163.998 107.671C164.104 107.705 164.195 107.776 164.253 107.87C164.303 107.958 164.319 108.061 164.298 108.159C164.288 108.204 164.28 108.25 164.276 108.296C164.255 108.49 164.255 108.686 164.276 108.88C164.302 109.008 164.337 109.133 164.383 109.255C164.432 109.358 164.49 109.457 164.557 109.55C164.61 109.611 164.667 109.668 164.728 109.721C164.788 109.764 164.85 109.803 164.915 109.839C164.983 109.867 165.054 109.89 165.125 109.908C165.196 109.92 165.267 109.925 165.339 109.925C165.432 109.918 165.524 109.901 165.614 109.877C165.716 109.839 165.814 109.793 165.909 109.74C166.054 109.639 166.188 109.521 166.308 109.39C166.351 109.338 166.396 109.285 166.436 109.229C166.482 109.167 166.55 109.124 166.627 109.111C166.703 109.098 166.782 109.116 166.846 109.16C166.913 109.198 166.963 109.261 166.984 109.335C167.006 109.41 166.997 109.489 166.96 109.558L166.97 109.55ZM164.894 109.82L164.868 109.809L164.894 109.82Z" fill="#914B00"/>
<path d="M176.603 107.904C177.289 108.352 177.934 108.86 178.53 109.422C178.56 109.45 178.583 109.483 178.599 109.52C178.616 109.557 178.624 109.597 178.624 109.637C178.624 109.678 178.616 109.718 178.599 109.755C178.583 109.792 178.56 109.825 178.53 109.852C178.462 109.903 178.378 109.926 178.293 109.919C178.209 109.911 178.13 109.873 178.073 109.811C177.896 109.646 177.718 109.486 177.531 109.334L177.6 109.389C176.81 108.776 175.955 108.252 175.05 107.825L175.15 107.874C174.842 107.729 174.535 107.596 174.212 107.476C174.1 107.442 174.004 107.367 173.942 107.266C173.881 107.166 173.859 107.046 173.88 106.93C173.895 106.876 173.921 106.826 173.957 106.784C173.993 106.741 174.038 106.707 174.089 106.684C174.161 106.656 174.239 106.645 174.316 106.652C174.394 106.659 174.468 106.683 174.535 106.724C174.88 106.911 175.223 107.084 175.564 107.277C175.787 107.403 176.008 107.534 176.226 107.671C176.348 107.748 176.47 107.825 176.591 107.906L176.603 107.904Z" fill="#510026"/>
<path d="M168.02 105.642C168.06 105.661 168.095 105.688 168.124 105.722C168.153 105.756 168.174 105.795 168.187 105.838C168.199 105.88 168.203 105.925 168.197 105.969C168.191 106.013 168.175 106.055 168.152 106.093C168.128 106.13 168.097 106.162 168.06 106.187C168.024 106.211 167.982 106.228 167.938 106.235C167.894 106.243 167.85 106.241 167.807 106.229C167.764 106.218 167.724 106.198 167.69 106.17C167.306 105.899 166.902 105.658 166.482 105.447C166.102 105.272 165.706 105.135 165.299 105.036C165.037 104.984 164.771 104.952 164.504 104.94C164.394 104.931 164.291 104.882 164.213 104.804C164.136 104.725 164.089 104.621 164.081 104.511C164.08 104.459 164.09 104.408 164.111 104.361C164.132 104.313 164.163 104.271 164.201 104.237C164.24 104.203 164.286 104.177 164.335 104.162C164.384 104.147 164.436 104.143 164.487 104.15C164.8 104.191 165.11 104.253 165.414 104.338C165.73 104.427 166.038 104.54 166.336 104.678C166.725 104.851 167.101 105.052 167.461 105.278C167.65 105.403 167.837 105.529 168.023 105.654L168.02 105.642ZM166.554 105.479L166.486 105.449L166.554 105.479Z" fill="#510026"/>
<path d="M241.802 53.2958H245.042V57.6518C244.586 57.7958 244.118 57.9118 243.638 57.9998C243.158 58.0798 242.614 58.1198 242.006 58.1198C240.71 58.1198 239.714 57.7358 239.018 56.9678C238.322 56.1998 237.974 55.1118 237.974 53.7038C237.974 52.8158 238.146 52.0438 238.49 51.3878C238.842 50.7238 239.35 50.2118 240.014 49.8518C240.678 49.4918 241.486 49.3118 242.438 49.3118C242.902 49.3118 243.35 49.3598 243.782 49.4558C244.222 49.5518 244.622 49.6758 244.982 49.8278L244.454 51.0878C244.174 50.9598 243.858 50.8478 243.506 50.7518C243.154 50.6558 242.786 50.6078 242.402 50.6078C241.818 50.6078 241.314 50.7358 240.89 50.9918C240.466 51.2478 240.138 51.6118 239.906 52.0838C239.682 52.5478 239.57 53.0958 239.57 53.7278C239.57 54.3358 239.658 54.8718 239.834 55.3358C240.01 55.7998 240.29 56.1638 240.674 56.4278C241.058 56.6918 241.558 56.8238 242.174 56.8238C242.478 56.8238 242.734 56.8078 242.942 56.7758C243.15 56.7438 243.346 56.7078 243.53 56.6678V54.6038H241.802V53.2958ZM250.353 51.3758C250.457 51.3758 250.569 51.3798 250.689 51.3878C250.817 51.3958 250.925 51.4118 251.013 51.4358L250.881 52.8398C250.801 52.8238 250.705 52.8118 250.593 52.8038C250.481 52.7878 250.381 52.7798 250.293 52.7798C249.973 52.7798 249.673 52.8478 249.393 52.9838C249.113 53.1118 248.885 53.3158 248.709 53.5958C248.541 53.8678 248.457 54.2118 248.457 54.6278V57.9998H246.945V51.4958H248.109L248.325 52.6238H248.397C248.589 52.2798 248.853 51.9878 249.189 51.7478C249.525 51.4998 249.913 51.3758 250.353 51.3758ZM254.576 51.3758C255.416 51.3758 256.052 51.5598 256.484 51.9278C256.924 52.2958 257.144 52.8638 257.144 53.6318V57.9998H256.076L255.776 57.0998H255.728C255.448 57.4518 255.152 57.7118 254.84 57.8798C254.528 58.0398 254.104 58.1198 253.568 58.1198C252.984 58.1198 252.5 57.9558 252.116 57.6278C251.732 57.2998 251.54 56.7918 251.54 56.1038C251.54 55.4318 251.784 54.9278 252.272 54.5918C252.768 54.2558 253.516 54.0678 254.516 54.0278L255.644 53.9918V53.6678C255.644 53.2598 255.544 52.9678 255.344 52.7918C255.144 52.6078 254.864 52.5158 254.504 52.5158C254.176 52.5158 253.86 52.5638 253.556 52.6598C253.26 52.7558 252.964 52.8678 252.668 52.9958L252.188 51.9398C252.508 51.7718 252.872 51.6358 253.28 51.5318C253.696 51.4278 254.128 51.3758 254.576 51.3758ZM255.644 54.9278L254.852 54.9518C254.188 54.9758 253.728 55.0918 253.472 55.2998C253.216 55.4998 253.088 55.7718 253.088 56.1158C253.088 56.4278 253.176 56.6518 253.352 56.7878C253.536 56.9158 253.776 56.9798 254.072 56.9798C254.512 56.9798 254.884 56.8558 255.188 56.6078C255.492 56.3518 255.644 55.9758 255.644 55.4798V54.9278ZM261.666 58.1198C260.73 58.1198 259.994 57.8518 259.458 57.3158C258.922 56.7798 258.654 55.9358 258.654 54.7838C258.654 53.9838 258.786 53.3358 259.05 52.8398C259.322 52.3358 259.694 51.9678 260.166 51.7358C260.638 51.4958 261.178 51.3758 261.786 51.3758C262.194 51.3758 262.558 51.4158 262.878 51.4958C263.198 51.5758 263.47 51.6718 263.694 51.7838L263.25 52.9718C263.002 52.8758 262.754 52.7958 262.506 52.7318C262.258 52.6598 262.018 52.6238 261.786 52.6238C260.73 52.6238 260.202 53.3398 260.202 54.7718C260.202 55.4678 260.334 55.9918 260.598 56.3438C260.87 56.6958 261.258 56.8718 261.762 56.8718C262.122 56.8718 262.442 56.8278 262.722 56.7398C263.002 56.6518 263.27 56.5318 263.526 56.3798V57.6878C263.278 57.8318 263.01 57.9398 262.722 58.0118C262.442 58.0838 262.09 58.1198 261.666 58.1198ZM265.806 48.9878C266.038 48.9878 266.234 49.0478 266.394 49.1678C266.562 49.2798 266.646 49.4838 266.646 49.7798C266.646 50.0758 266.562 50.2838 266.394 50.4038C266.234 50.5238 266.038 50.5838 265.806 50.5838C265.574 50.5838 265.374 50.5238 265.206 50.4038C265.046 50.2838 264.966 50.0758 264.966 49.7798C264.966 49.4838 265.046 49.2798 265.206 49.1678C265.374 49.0478 265.574 48.9878 265.806 48.9878ZM266.562 51.4958V57.9998H265.05V51.4958H266.562ZM271.087 51.3758C271.927 51.3758 272.563 51.5598 272.995 51.9278C273.435 52.2958 273.655 52.8638 273.655 53.6318V57.9998H272.587L272.287 57.0998H272.239C271.959 57.4518 271.663 57.7118 271.351 57.8798C271.039 58.0398 270.615 58.1198 270.079 58.1198C269.495 58.1198 269.011 57.9558 268.627 57.6278C268.243 57.2998 268.051 56.7918 268.051 56.1038C268.051 55.4318 268.295 54.9278 268.783 54.5918C269.279 54.2558 270.027 54.0678 271.027 54.0278L272.155 53.9918V53.6678C272.155 53.2598 272.055 52.9678 271.855 52.7918C271.655 52.6078 271.375 52.5158 271.015 52.5158C270.687 52.5158 270.371 52.5638 270.067 52.6598C269.771 52.7558 269.475 52.8678 269.179 52.9958L268.699 51.9398C269.019 51.7718 269.383 51.6358 269.791 51.5318C270.207 51.4278 270.639 51.3758 271.087 51.3758ZM272.155 54.9278L271.363 54.9518C270.699 54.9758 270.239 55.0918 269.983 55.2998C269.727 55.4998 269.599 55.7718 269.599 56.1158C269.599 56.4278 269.687 56.6518 269.863 56.7878C270.047 56.9158 270.287 56.9798 270.583 56.9798C271.023 56.9798 271.395 56.8558 271.699 56.6078C272.003 56.3518 272.155 55.9758 272.155 55.4798V54.9278ZM279.978 56.1158C279.978 56.7718 279.742 57.2718 279.27 57.6158C278.806 57.9518 278.138 58.1198 277.266 58.1198C276.81 58.1198 276.418 58.0878 276.09 58.0238C275.77 57.9598 275.458 57.8598 275.154 57.7238V56.4398C275.474 56.5918 275.826 56.7198 276.21 56.8238C276.602 56.9278 276.97 56.9798 277.314 56.9798C277.73 56.9798 278.03 56.9158 278.214 56.7878C278.398 56.6598 278.49 56.4878 278.49 56.2718C278.49 56.1438 278.454 56.0318 278.382 55.9358C278.31 55.8318 278.166 55.7198 277.95 55.5998C277.742 55.4798 277.43 55.3318 277.014 55.1558C276.598 54.9958 276.25 54.8318 275.97 54.6638C275.698 54.4878 275.49 54.2838 275.346 54.0518C275.21 53.8198 275.142 53.5198 275.142 53.1518C275.142 52.5678 275.37 52.1278 275.826 51.8318C276.29 51.5278 276.906 51.3758 277.674 51.3758C278.074 51.3758 278.45 51.4158 278.802 51.4958C279.162 51.5758 279.522 51.6958 279.882 51.8558L279.402 52.9718C279.098 52.8438 278.802 52.7358 278.514 52.6478C278.226 52.5598 277.93 52.5158 277.626 52.5158C276.962 52.5158 276.63 52.7038 276.63 53.0798C276.63 53.2158 276.67 53.3318 276.75 53.4278C276.838 53.5238 276.986 53.6278 277.194 53.7398C277.41 53.8438 277.714 53.9718 278.106 54.1238C278.49 54.2758 278.822 54.4358 279.102 54.6038C279.382 54.7638 279.598 54.9638 279.75 55.2038C279.902 55.4438 279.978 55.7478 279.978 56.1158ZM287.97 51.3758C288.73 51.3758 289.342 51.6598 289.806 52.2278C290.27 52.7878 290.502 53.6238 290.502 54.7358C290.502 55.8478 290.262 56.6918 289.782 57.2678C289.31 57.8358 288.694 58.1198 287.934 58.1198C287.454 58.1198 287.066 58.0318 286.77 57.8558C286.474 57.6798 286.238 57.4758 286.062 57.2438H285.966C285.99 57.3958 286.01 57.5638 286.026 57.7478C286.05 57.9238 286.062 58.0878 286.062 58.2398V60.8798H284.55V51.4958H285.774L285.99 52.3598H286.062C286.238 52.0878 286.478 51.8558 286.782 51.6638C287.086 51.4718 287.482 51.3758 287.97 51.3758ZM287.538 52.5998C287.002 52.5998 286.622 52.7598 286.398 53.0798C286.182 53.3998 286.07 53.8838 286.062 54.5318V54.7238C286.062 55.4198 286.166 55.9558 286.374 56.3318C286.59 56.6998 286.986 56.8838 287.562 56.8838C288.034 56.8838 288.382 56.6918 288.606 56.3078C288.838 55.9158 288.954 55.3838 288.954 54.7118C288.954 54.0398 288.838 53.5198 288.606 53.1518C288.382 52.7838 288.026 52.5998 287.538 52.5998ZM297.87 54.7358C297.87 55.8158 297.59 56.6518 297.03 57.2438C296.47 57.8278 295.71 58.1198 294.75 58.1198C294.158 58.1198 293.63 57.9878 293.166 57.7238C292.702 57.4598 292.338 57.0758 292.074 56.5718C291.81 56.0678 291.678 55.4558 291.678 54.7358C291.678 53.6558 291.954 52.8278 292.506 52.2518C293.066 51.6678 293.826 51.3758 294.786 51.3758C295.386 51.3758 295.918 51.5078 296.382 51.7718C296.846 52.0278 297.21 52.4078 297.474 52.9118C297.738 53.4078 297.87 54.0158 297.87 54.7358ZM293.226 54.7358C293.226 55.4238 293.346 55.9558 293.586 56.3318C293.834 56.7078 294.23 56.8958 294.774 56.8958C295.318 56.8958 295.71 56.7078 295.95 56.3318C296.198 55.9558 296.322 55.4238 296.322 54.7358C296.322 54.0478 296.198 53.5198 295.95 53.1518C295.71 52.7838 295.314 52.5998 294.762 52.5998C294.226 52.5998 293.834 52.7838 293.586 53.1518C293.346 53.5198 293.226 54.0478 293.226 54.7358ZM302.841 51.3758C302.945 51.3758 303.057 51.3798 303.177 51.3878C303.305 51.3958 303.413 51.4118 303.501 51.4358L303.369 52.8398C303.289 52.8238 303.193 52.8118 303.081 52.8038C302.969 52.7878 302.869 52.7798 302.781 52.7798C302.461 52.7798 302.161 52.8478 301.881 52.9838C301.601 53.1118 301.373 53.3158 301.197 53.5958C301.029 53.8678 300.945 54.2118 300.945 54.6278V57.9998H299.433V51.4958H300.597L300.813 52.6238H300.885C301.077 52.2798 301.341 51.9878 301.677 51.7478C302.013 51.4998 302.401 51.3758 302.841 51.3758ZM241.591 65.3758C242.431 65.3758 243.067 65.5598 243.499 65.9278C243.939 66.2958 244.159 66.8638 244.159 67.6318V71.9998H243.091L242.791 71.0998H242.743C242.463 71.4518 242.167 71.7118 241.855 71.8798C241.543 72.0398 241.119 72.1198 240.583 72.1198C239.999 72.1198 239.515 71.9558 239.131 71.6278C238.747 71.2998 238.555 70.7918 238.555 70.1038C238.555 69.4318 238.799 68.9278 239.287 68.5918C239.783 68.2558 240.531 68.0678 241.531 68.0278L242.659 67.9918V67.6678C242.659 67.2598 242.559 66.9678 242.359 66.7918C242.159 66.6078 241.879 66.5158 241.519 66.5158C241.191 66.5158 240.875 66.5638 240.571 66.6598C240.275 66.7558 239.979 66.8678 239.683 66.9958L239.203 65.9398C239.523 65.7718 239.887 65.6358 240.295 65.5318C240.711 65.4278 241.143 65.3758 241.591 65.3758ZM242.659 68.9278L241.867 68.9518C241.203 68.9758 240.743 69.0918 240.487 69.2998C240.231 69.4998 240.103 69.7718 240.103 70.1158C240.103 70.4278 240.191 70.6518 240.367 70.7878C240.551 70.9158 240.791 70.9798 241.087 70.9798C241.527 70.9798 241.899 70.8558 242.203 70.6078C242.507 70.3518 242.659 69.9758 242.659 69.4798V68.9278ZM248.682 72.1198C247.746 72.1198 247.01 71.8518 246.474 71.3158C245.938 70.7798 245.67 69.9358 245.67 68.7838C245.67 67.9838 245.802 67.3358 246.066 66.8398C246.338 66.3358 246.71 65.9678 247.182 65.7358C247.654 65.4958 248.194 65.3758 248.802 65.3758C249.21 65.3758 249.574 65.4158 249.894 65.4958C250.214 65.5758 250.486 65.6718 250.71 65.7838L250.266 66.9718C250.018 66.8758 249.77 66.7958 249.522 66.7318C249.274 66.6598 249.034 66.6238 248.802 66.6238C247.746 66.6238 247.218 67.3398 247.218 68.7718C247.218 69.4678 247.35 69.9918 247.614 70.3438C247.886 70.6958 248.274 70.8718 248.778 70.8718C249.138 70.8718 249.458 70.8278 249.738 70.7398C250.018 70.6518 250.286 70.5318 250.542 70.3798V71.6878C250.294 71.8318 250.026 71.9398 249.738 72.0118C249.458 72.0838 249.106 72.1198 248.682 72.1198ZM253.578 71.9998H252.066V62.8798H253.578V71.9998ZM258.103 65.3758C258.943 65.3758 259.579 65.5598 260.011 65.9278C260.451 66.2958 260.671 66.8638 260.671 67.6318V71.9998H259.603L259.303 71.0998H259.255C258.975 71.4518 258.679 71.7118 258.367 71.8798C258.055 72.0398 257.631 72.1198 257.095 72.1198C256.511 72.1198 256.027 71.9558 255.643 71.6278C255.259 71.2998 255.067 70.7918 255.067 70.1038C255.067 69.4318 255.311 68.9278 255.799 68.5918C256.295 68.2558 257.043 68.0678 258.043 68.0278L259.171 67.9918V67.6678C259.171 67.2598 259.071 66.9678 258.871 66.7918C258.671 66.6078 258.391 66.5158 258.031 66.5158C257.703 66.5158 257.387 66.5638 257.083 66.6598C256.787 66.7558 256.491 66.8678 256.195 66.9958L255.715 65.9398C256.035 65.7718 256.399 65.6358 256.807 65.5318C257.223 65.4278 257.655 65.3758 258.103 65.3758ZM259.171 68.9278L258.379 68.9518C257.715 68.9758 257.255 69.0918 256.999 69.2998C256.743 69.4998 256.615 69.7718 256.615 70.1158C256.615 70.4278 256.703 70.6518 256.879 70.7878C257.063 70.9158 257.303 70.9798 257.599 70.9798C258.039 70.9798 258.411 70.8558 258.715 70.6078C259.019 70.3518 259.171 69.9758 259.171 69.4798V68.9278ZM265.974 65.3758C266.078 65.3758 266.19 65.3798 266.31 65.3878C266.438 65.3958 266.546 65.4118 266.634 65.4358L266.502 66.8398C266.422 66.8238 266.326 66.8118 266.214 66.8038C266.102 66.7878 266.002 66.7798 265.914 66.7798C265.594 66.7798 265.294 66.8478 265.014 66.9838C264.734 67.1118 264.506 67.3158 264.33 67.5958C264.162 67.8678 264.078 68.2118 264.078 68.6278V71.9998H262.566V65.4958H263.73L263.946 66.6238H264.018C264.21 66.2798 264.474 65.9878 264.81 65.7478C265.146 65.4998 265.534 65.3758 265.974 65.3758ZM270.197 65.3758C271.037 65.3758 271.673 65.5598 272.105 65.9278C272.545 66.2958 272.765 66.8638 272.765 67.6318V71.9998H271.697L271.397 71.0998H271.349C271.069 71.4518 270.773 71.7118 270.461 71.8798C270.149 72.0398 269.725 72.1198 269.189 72.1198C268.605 72.1198 268.121 71.9558 267.737 71.6278C267.353 71.2998 267.161 70.7918 267.161 70.1038C267.161 69.4318 267.405 68.9278 267.893 68.5918C268.389 68.2558 269.137 68.0678 270.137 68.0278L271.265 67.9918V67.6678C271.265 67.2598 271.165 66.9678 270.965 66.7918C270.765 66.6078 270.485 66.5158 270.125 66.5158C269.797 66.5158 269.481 66.5638 269.177 66.6598C268.881 66.7558 268.585 66.8678 268.289 66.9958L267.809 65.9398C268.129 65.7718 268.493 65.6358 268.901 65.5318C269.317 65.4278 269.749 65.3758 270.197 65.3758ZM271.265 68.9278L270.473 68.9518C269.809 68.9758 269.349 69.0918 269.093 69.2998C268.837 69.4998 268.709 69.7718 268.709 70.1158C268.709 70.4278 268.797 70.6518 268.973 70.7878C269.157 70.9158 269.397 70.9798 269.693 70.9798C270.133 70.9798 270.505 70.8558 270.809 70.6078C271.113 70.3518 271.265 69.9758 271.265 69.4798V68.9278ZM278.068 65.3758C278.172 65.3758 278.284 65.3798 278.404 65.3878C278.532 65.3958 278.64 65.4118 278.728 65.4358L278.596 66.8398C278.516 66.8238 278.42 66.8118 278.308 66.8038C278.196 66.7878 278.096 66.7798 278.008 66.7798C277.688 66.7798 277.388 66.8478 277.108 66.9838C276.828 67.1118 276.6 67.3158 276.424 67.5958C276.256 67.8678 276.172 68.2118 276.172 68.6278V71.9998H274.66V65.4958H275.824L276.04 66.6238H276.112C276.304 66.2798 276.568 65.9878 276.904 65.7478C277.24 65.4998 277.628 65.3758 278.068 65.3758ZM290.502 65.3758C291.238 65.3758 291.79 65.5638 292.158 65.9398C292.534 66.3158 292.722 66.9238 292.722 67.7638V71.9998H291.21V68.0518C291.21 67.0838 290.842 66.5998 290.106 66.5998C289.578 66.5998 289.202 66.7718 288.978 67.1158C288.754 67.4598 288.642 67.9598 288.642 68.6158V71.9998H287.13V68.0518C287.13 67.0838 286.758 66.5998 286.014 66.5998C285.462 66.5998 285.082 66.7918 284.874 67.1758C284.666 67.5598 284.562 68.1078 284.562 68.8198V71.9998H283.05V65.4958H284.214L284.43 66.3478H284.514C284.706 66.0118 284.974 65.7678 285.318 65.6158C285.67 65.4558 286.034 65.3758 286.41 65.3758C286.898 65.3758 287.306 65.4598 287.634 65.6278C287.97 65.7878 288.226 66.0398 288.402 66.3838H288.522C288.722 66.0318 289.002 65.7758 289.362 65.6158C289.722 65.4558 290.102 65.3758 290.502 65.3758ZM295.373 62.9878C295.605 62.9878 295.801 63.0478 295.961 63.1678C296.129 63.2798 296.213 63.4838 296.213 63.7798C296.213 64.0758 296.129 64.2838 295.961 64.4038C295.801 64.5238 295.605 64.5838 295.373 64.5838C295.141 64.5838 294.941 64.5238 294.773 64.4038C294.613 64.2838 294.533 64.0758 294.533 63.7798C294.533 63.4838 294.613 63.2798 294.773 63.1678C294.941 63.0478 295.141 62.9878 295.373 62.9878ZM296.129 65.4958V71.9998H294.617V65.4958H296.129ZM302.49 70.1158C302.49 70.7718 302.254 71.2718 301.782 71.6158C301.318 71.9518 300.65 72.1198 299.778 72.1198C299.322 72.1198 298.93 72.0878 298.602 72.0238C298.282 71.9598 297.97 71.8598 297.666 71.7238V70.4398C297.986 70.5918 298.338 70.7198 298.722 70.8238C299.114 70.9278 299.482 70.9798 299.826 70.9798C300.242 70.9798 300.542 70.9158 300.726 70.7878C300.91 70.6598 301.002 70.4878 301.002 70.2718C301.002 70.1438 300.966 70.0318 300.894 69.9358C300.822 69.8318 300.678 69.7198 300.462 69.5998C300.254 69.4798 299.942 69.3318 299.526 69.1558C299.11 68.9958 298.762 68.8318 298.482 68.6638C298.21 68.4878 298.002 68.2838 297.858 68.0518C297.722 67.8198 297.654 67.5198 297.654 67.1518C297.654 66.5678 297.882 66.1278 298.338 65.8318C298.802 65.5278 299.418 65.3758 300.186 65.3758C300.586 65.3758 300.962 65.4158 301.314 65.4958C301.674 65.5758 302.034 65.6958 302.394 65.8558L301.914 66.9718C301.61 66.8438 301.314 66.7358 301.026 66.6478C300.738 66.5598 300.442 66.5158 300.138 66.5158C299.474 66.5158 299.142 66.7038 299.142 67.0798C299.142 67.2158 299.182 67.3318 299.262 67.4278C299.35 67.5238 299.498 67.6278 299.706 67.7398C299.922 67.8438 300.226 67.9718 300.618 68.1238C301.002 68.2758 301.334 68.4358 301.614 68.6038C301.894 68.7638 302.11 68.9638 302.262 69.2038C302.414 69.4438 302.49 69.7478 302.49 70.1158ZM255.79 86.1198C255.03 86.1198 254.418 85.8358 253.954 85.2678C253.49 84.6998 253.258 83.8638 253.258 82.7598C253.258 81.6398 253.494 80.7958 253.966 80.2278C254.438 79.6598 255.058 79.3758 255.826 79.3758C256.306 79.3758 256.698 79.4678 257.002 79.6518C257.314 79.8358 257.562 80.0598 257.746 80.3238H257.818C257.794 80.2118 257.77 80.0398 257.746 79.8078C257.722 79.5758 257.71 79.3598 257.71 79.1598V76.8798H259.222V85.9998H258.046L257.77 85.1478H257.71C257.526 85.4198 257.282 85.6518 256.978 85.8438C256.674 86.0278 256.278 86.1198 255.79 86.1198ZM256.246 84.8958C256.806 84.8958 257.198 84.7358 257.422 84.4158C257.654 84.0958 257.774 83.6118 257.782 82.9638V82.7718C257.782 82.0758 257.67 81.5438 257.446 81.1758C257.23 80.7998 256.822 80.6118 256.222 80.6118C255.758 80.6118 255.402 80.8038 255.154 81.1878C254.914 81.5638 254.794 82.0958 254.794 82.7838C254.794 83.4718 254.918 83.9958 255.166 84.3558C255.414 84.7158 255.774 84.8958 256.246 84.8958ZM266.926 79.4958V85.9998H265.738L265.534 85.1598H265.462C265.246 85.4958 264.954 85.7398 264.586 85.8918C264.226 86.0438 263.842 86.1198 263.434 86.1198C262.706 86.1198 262.134 85.9318 261.718 85.5558C261.31 85.1798 261.106 84.5758 261.106 83.7438V79.4958H262.618V83.4438C262.618 84.4118 263.018 84.8958 263.818 84.8958C264.426 84.8958 264.842 84.7078 265.066 84.3318C265.298 83.9478 265.414 83.3958 265.414 82.6758V79.4958H266.926ZM271.001 86.1198C270.241 86.1198 269.629 85.8358 269.165 85.2678C268.701 84.6998 268.469 83.8638 268.469 82.7598C268.469 81.6398 268.705 80.7958 269.177 80.2278C269.649 79.6598 270.269 79.3758 271.037 79.3758C271.517 79.3758 271.909 79.4678 272.213 79.6518C272.525 79.8358 272.773 80.0598 272.957 80.3238H273.029C273.005 80.2118 272.981 80.0398 272.957 79.8078C272.933 79.5758 272.921 79.3598 272.921 79.1598V76.8798H274.433V85.9998H273.257L272.981 85.1478H272.921C272.737 85.4198 272.493 85.6518 272.189 85.8438C271.885 86.0278 271.489 86.1198 271.001 86.1198ZM271.457 84.8958C272.017 84.8958 272.409 84.7358 272.633 84.4158C272.865 84.0958 272.985 83.6118 272.993 82.9638V82.7718C272.993 82.0758 272.881 81.5438 272.657 81.1758C272.441 80.7998 272.033 80.6118 271.433 80.6118C270.969 80.6118 270.613 80.8038 270.365 81.1878C270.125 81.5638 270.005 82.0958 270.005 82.7838C270.005 83.4718 270.129 83.9958 270.377 84.3558C270.625 84.7158 270.985 84.8958 271.457 84.8958ZM278.957 79.3758C279.797 79.3758 280.433 79.5598 280.865 79.9278C281.305 80.2958 281.525 80.8638 281.525 81.6318V85.9998H280.457L280.157 85.0998H280.109C279.829 85.4518 279.533 85.7118 279.221 85.8798C278.909 86.0398 278.485 86.1198 277.949 86.1198C277.365 86.1198 276.881 85.9558 276.497 85.6278C276.113 85.2998 275.921 84.7918 275.921 84.1038C275.921 83.4318 276.165 82.9278 276.653 82.5918C277.149 82.2558 277.897 82.0678 278.897 82.0278L280.025 81.9918V81.6678C280.025 81.2598 279.925 80.9678 279.725 80.7918C279.525 80.6078 279.245 80.5158 278.885 80.5158C278.557 80.5158 278.241 80.5638 277.937 80.6598C277.641 80.7558 277.345 80.8678 277.049 80.9958L276.569 79.9398C276.889 79.7718 277.253 79.6358 277.661 79.5318C278.077 79.4278 278.509 79.3758 278.957 79.3758ZM280.025 82.9278L279.233 82.9518C278.569 82.9758 278.109 83.0918 277.853 83.2998C277.597 83.4998 277.469 83.7718 277.469 84.1158C277.469 84.4278 277.557 84.6518 277.733 84.7878C277.917 84.9158 278.157 84.9798 278.453 84.9798C278.893 84.9798 279.265 84.8558 279.569 84.6078C279.873 84.3518 280.025 83.9758 280.025 83.4798V82.9278ZM287.847 84.1158C287.847 84.7718 287.611 85.2718 287.139 85.6158C286.675 85.9518 286.007 86.1198 285.135 86.1198C284.679 86.1198 284.287 86.0878 283.959 86.0238C283.639 85.9598 283.327 85.8598 283.023 85.7238V84.4398C283.343 84.5918 283.695 84.7198 284.079 84.8238C284.471 84.9278 284.839 84.9798 285.183 84.9798C285.599 84.9798 285.899 84.9158 286.083 84.7878C286.267 84.6598 286.359 84.4878 286.359 84.2718C286.359 84.1438 286.323 84.0318 286.251 83.9358C286.179 83.8318 286.035 83.7198 285.819 83.5998C285.611 83.4798 285.299 83.3318 284.883 83.1558C284.467 82.9958 284.119 82.8318 283.839 82.6638C283.567 82.4878 283.359 82.2838 283.215 82.0518C283.079 81.8198 283.011 81.5198 283.011 81.1518C283.011 80.5678 283.239 80.1278 283.695 79.8318C284.159 79.5278 284.775 79.3758 285.543 79.3758C285.943 79.3758 286.319 79.4158 286.671 79.4958C287.031 79.5758 287.391 79.6958 287.751 79.8558L287.271 80.9718C286.967 80.8438 286.671 80.7358 286.383 80.6478C286.095 80.5598 285.799 80.5158 285.495 80.5158C284.831 80.5158 284.499 80.7038 284.499 81.0798C284.499 81.2158 284.539 81.3318 284.619 81.4278C284.707 81.5238 284.855 81.6278 285.063 81.7398C285.279 81.8438 285.583 81.9718 285.975 82.1238C286.359 82.2758 286.691 82.4358 286.971 82.6038C287.251 82.7638 287.467 82.9638 287.619 83.2038C287.771 83.4438 287.847 83.7478 287.847 84.1158Z" fill="#1536B1"/>
<defs>
<linearGradient id="paint0_linear" x1="105.672" y1="105.139" x2="125.684" y2="105.139" gradientUnits="userSpaceOnUse">
<stop stop-color="#EEEEFF"/>
<stop offset="1" stop-color="white"/>
</linearGradient>
</defs>
</svg>
