<?xml version="1.0" encoding="utf-8"?>
<!-- Generator: Adobe Illustrator 24.2.3, SVG Export Plug-In . SVG Version: 6.00 Build 0)  -->
<svg version="1.1" id="Layer_1" xmlns="http://www.w3.org/2000/svg" xmlns:xlink="http://www.w3.org/1999/xlink" x="0px" y="0px"
	 viewBox="0 0 363 314" style="enable-background:new 0 0 363 314;" xml:space="preserve">
<style type="text/css">
	.st0{fill:#0B3995;}
	.st1{clip-path:url(#SVGID_2_);}
	.st2{clip-path:url(#SVGID_4_);}
	.st3{fill:#1B3A7F;}
	.st4{fill:#00ACEA;}
	.st5{fill:#52A2A7;}
	.st6{fill:none;stroke:#FFFFFF;stroke-width:2;}
	.st7{fill:#CCCCCC;}
	.st8{fill:#F0E9E4;}
	.st9{fill:#333333;}
	.st10{fill:#666666;}
	.st11{fill:#E5E5E5;}
	.st12{opacity:0.25;fill:#FFFFFF;enable-background:new    ;}
	.st13{opacity:0.47;fill:#81858A;enable-background:new    ;}
	.st14{opacity:0.56;fill:#0B3995;enable-background:new    ;}
	.st15{opacity:0.56;fill:#A8C5CB;enable-background:new    ;}
	.st16{opacity:0.2;}
	.st17{fill:#A39B99;}
	.st18{fill:#1E1E1E;}
	.st19{fill:none;stroke:#303030;stroke-width:1.05;stroke-miterlimit:10;}
	.st20{fill:#FDB813;}
	.st21{fill:#E59F23;}
	.st22{opacity:0.4;}
	.st23{fill:#E2E1E0;}
	.st24{fill:#D6E3DD;}
	.st25{fill:#1C1C1C;}
	.st26{fill:#434443;}
	.st27{fill:#FCE015;}
	.st28{opacity:0.57;fill:#FFFFFF;enable-background:new    ;}
	.st29{opacity:0.54;fill:#FFFFFF;enable-background:new    ;}
	.st30{opacity:0.65;}
	.st31{fill:#040000;}
	.st32{fill:#4F4F4F;}
	.st33{fill:#427CCC;}
	.st34{fill:#FFFFFF;}
	.st35{fill:#1536B1;}
	.st36{fill:#3A3E48;}
	.st37{fill:#445C71;}
	.st38{fill:#AED3DB;}
	.st39{fill-rule:evenodd;clip-rule:evenodd;fill:#D4A181;}
	.st40{fill-rule:evenodd;clip-rule:evenodd;fill:#191847;}
	.st41{fill-rule:evenodd;clip-rule:evenodd;fill:#BA8B72;}
	.st42{fill-rule:evenodd;clip-rule:evenodd;fill:url(#SVGID_5_);}
	.st43{fill-rule:evenodd;clip-rule:evenodd;fill:#2F3676;}
	.st44{fill-rule:evenodd;clip-rule:evenodd;fill:#485397;}
	.st45{fill:#733B00;}
</style>
<path class="st0" d="M80.8,57.8c-3.9-0.3-46.7-3.1-46.7,44.2c-5.6,39.1,21,137.2,128.9,167.2c107.8,30,209.1-43.6,170.9-136.8
	c-16.5-40.2-40-102.6-89.5-101.3C194.7,32.3,158.3,63,80.8,57.8z"/>
<g>
	<defs>
		<rect id="SVGID_1_" x="-1" y="113" width="225" height="181"/>
	</defs>
	<clipPath id="SVGID_2_">
		<use xlink:href="#SVGID_1_"  style="overflow:visible;"/>
	</clipPath>
	<g class="st1">
		<defs>
			<rect id="SVGID_3_" x="-146" y="128.4" width="339.2" height="115.1"/>
		</defs>
		<clipPath id="SVGID_4_">
			<use xlink:href="#SVGID_3_"  style="overflow:visible;"/>
		</clipPath>
		<g class="st2">
			<path class="st3" d="M179.8,181l-305.8,1.8l12.7,41.6h293.1V181z"/>
			<path class="st4" d="M-145.2,189.4c0.1-0.5,0.3-1,0.4-1.4c0-0.1,0.1-0.3,0.1-0.4c0.2-0.5,0.4-0.9,0.6-1.3c0-0.1,0.1-0.2,0.2-0.3
				c0.2-0.4,0.4-0.7,0.6-1c0-0.1,0.1-0.1,0.1-0.2c0.5-0.7,1-1.2,1.3-1.9c0-0.1,0.1-0.3,0.1-0.5c0.1-0.5,0.2-1.1,0.2-1.9
				c0-0.4,0-0.8,0.1-1.4c0-0.2,0-0.4,0.1-0.6c0.1-0.6,0.2-1.3,0.4-2c0-0.2,0.1-0.5,0.1-0.7c0.2-1,0.5-2.1,0.7-3.2
				c0.1-0.3,0.2-0.7,0.3-1.1c0.2-0.7,0.4-1.5,0.6-2.2c0.1-0.5,0.3-1.1,0.4-1.6c0.7-2.3,1.3-4.4,1.8-5.8c0.2-0.8,0.5-1.4,0.5-1.6
				c0.6-1.5,20.8-2.1,31.3-6.1c10.1-3.8,48.4-23.6,107.8-25.5c1.1-0.1,2.2-0.1,3.3-0.1c1.7,0,3.2-0.1,4.7-0.1
				c30.5-0.1,32.4,0.3,39.2,2.4c13.2,4.1,56.1,26.9,61.6,29.3c1.3,0.5,3.6,1.1,6.5,1.6c8.7-5,21.1-4,21.1-4l9-1.6l8.3,3.7l4.6,4.5
				l1.1,2.3l0.3,0.8l0.3,0.7l0.6-0.6l0.6-0.7l4.8-2.5l3.1,3.4l0.1,0.8l0.1,0.6l0.7-0.5l1.1-0.7l8.3-3c0,0,2.3,1.1,5.3,2.8
				c4.8-3,5-1.4,5.4,0.8c0,0.2,0,0.9-0.1,2c-0.1,1.2-0.2,3-0.5,5.1c-0.4,3.5-0.9,8.1-1.4,12.9c-1.6,13.8-3.5,29.9-3.5,32
				c0.2,3.5-1.8,3.7-2,3.7l-17.5,0c0.5-2.3,0-7.3,0-9.8c0-17.9-6.2-24.4-23.7-29.9c-17.1-5.4-32.4,14.6-32.4,32.5
				c0,2.5,0.3,4.9,0.8,7.2c0,0,0,0,0,0H-50.2c0,0,0,0,0,0c0.5-2.3,0.8-4.7,0.8-7.2c0-17.9-14.5-32.5-32.4-32.5
				c-17.9,0-32.4,14.6-32.4,32.5c0,2.5,0.3,4.9,0.8,7.1c0,0,0,0,0,0c-1.4-0.2-5.8-0.8-10.2-1.7c-0.3-0.1-0.5-0.1-0.8-0.2
				c-0.6-0.1-1.1-0.2-1.7-0.4c-2.8-0.6-5.4-1.4-6.9-2.2c-1.3-0.6-2.4-1.3-3.4-1.9c-0.7-0.4-1.3-0.8-1.9-1.2
				c-0.3-0.2-0.5-0.4-0.8-0.6c-0.3-0.2-0.6-0.4-0.9-0.6c-2.1-1.5-3.3-2.5-4.1-2.6c0,0-0.1,0-0.1-0.1c-0.1-0.1-0.3-0.3-0.4-0.7
				C-146,208.8-146.6,194.7-145.2,189.4z M80.7,164.3c2.7,0,5.2,0,7.5-0.1c6.5-0.2,11.1-0.6,12.9-1.4c0.9-0.4,1.2-0.8,0.8-1.3
				c-7-8.4-52.6-27.6-57.8-28.5c-7-1.1-26.3-0.9-38.3-0.8c-1.2,9.4-2.1,19.3-2,29C31.6,162.9,61.3,164.3,80.7,164.3z M-66.9,155.8
				c1.6,0.5,32.6,3.1,67.6,5.3c-0.1-9.6,0.7-19.4,1.9-28.8c-2.5,0.1-4.4,0.1-5.5,0.1c-6.5,0-21.6,1.5-32.3,4.6
				C-45.9,140-70.6,154.4-66.9,155.8z"/>
			<path class="st5" d="M4,161.2c27.7,1.7,57.3,3.1,76.7,3c2.7,0,5.3,0,7.5-0.1c6.4-0.1,11.1-0.6,12.9-1.3c0.9-0.4,1.2-0.8,0.8-1.3
				c-7-8.4-52.6-27.6-57.7-28.5c-7-1.1-26.3-0.9-38.3-0.8C4.7,141.6,3.9,151.5,4,161.2z"/>
			<path class="st6" d="M68.3,143.4l-15.6,4.5l-9.8-3h-6.3l-6.3,5.7L14.1,145c0,0-5.6,3.9-8.7,6.1"/>
			<path class="st5" d="M-66.9,155.8c1.6,0.5,32.6,3.1,67.6,5.3c-0.1-9.6,0.7-19.4,1.9-28.8c-2.5,0.1-4.4,0.1-5.5,0.1
				c-6.5,0-21.6,1.5-32.3,4.6C-45.9,140-70.6,154.4-66.9,155.8z"/>
			<path class="st7" d="M5.9,132.2c11.9-0.1,31.2-0.3,38.3,0.8c5.2,0.8,50.7,20.1,57.7,28.4c0.4,0.5,0.1,1-0.8,1.3
				c-1.9,0.7-6.5,1.2-13,1.3c-2.3,0.1-4.8,0.1-7.5,0.1c-19.4,0-49-1.4-76.7-3C3.9,151.5,4.7,141.6,5.9,132.2z M80.7,162.5
				c2.7,0,5.2,0,7.5-0.1c6.4-0.1,9.7-0.5,11.3-0.9c-9.5-8.5-51.1-26-55.6-26.8c-3.6-0.6-11.3-0.9-22.8-0.9c-4.8,0-9.5,0-13.6,0.1
				c-1.2,9.6-1.8,18.1-1.8,25.6c22.8,1.4,53.6,3,74.2,3H80.7z"/>
			<path class="st7" d="M-35.2,136.9c10.7-3.1,25.7-4.6,32.3-4.6c1.2,0,3.1-0.1,5.5-0.1c-1.2,9.3-2,19.1-1.9,28.8
				c-35-2.2-66-4.7-67.6-5.3C-70.6,154.4-45.9,140-35.2,136.9z M-1.1,159.2c0-7.5,0.6-15.7,1.7-25.1c-1.5,0-2.7,0.1-3.5,0.1
				c-6.7,0-21.5,1.6-31.8,4.5c-8.7,2.5-25,11.8-29.7,15.8C-57,155.2-31.2,157.2-1.1,159.2z"/>
			<path class="st3" d="M77.8,152.6c0,2.2,0.3,5,0.5,7.1c0.5,5.2,5.1,0.3,6.1,1c1.3,0.9-3,2.5-3.7,3.5c3.7,0.5,10.9,0.8,13.2,0.7
				c6.5-0.2,7.4-1.1,7.3-2.2c-3.7-3.1-7.6-6.6-12.7-9.6c-1.1-0.6-2-1.1-2.9-1.6c0,0,0,0,0,0c-1.3-0.6-2.6-1.1-4.1-1.2
				C80,150.3,77.8,150.7,77.8,152.6z"/>
			<path class="st8" d="M181.5,173.7c0,5.6,0.2,10.7,4.1,13c1.9,1,4,1.5,6.1,1.9c0.5-4.9,1-9.4,1.4-12.9
				C189.3,174.9,185.4,174,181.5,173.7z"/>
			<path class="st9" d="M140.2,243.4c14.5,0,26.3-11.8,26.3-26.3s-11.8-26.3-26.3-26.3c-14.5,0-26.3,11.8-26.3,26.3
				S125.7,243.4,140.2,243.4z"/>
			<path class="st10" d="M119.7,217.1c0,11.4,9.2,20.6,20.5,20.6c11.3,0,20.5-9.2,20.5-20.6c0-11.4-9.2-20.6-20.5-20.6
				C128.9,196.6,119.7,205.8,119.7,217.1z"/>
			<path class="st11" d="M119.5,213.6c0.1-0.7,0.3-1.5,0.5-2.2c0.1-0.6,0.3-1.2,0.5-1.7c0.2-0.7,0.5-1.4,0.9-2.1
				c3-6,8.8-10.4,15.7-11.4c0.7-0.1,1.5-0.2,2.2-0.2c0.3,0,0.6,0,0.9,0c0.3,0,0.6,0,0.9,0c0.7,0,1.5,0.1,2.2,0.2
				c6.9,1,12.7,5.4,15.7,11.4c0.3,0.6,0.6,1.3,0.9,2.1c0.2,0.5,0.4,1.1,0.5,1.7c0.2,0.7,0.4,1.4,0.5,2.2c0.2,1.2,0.3,2.4,0.3,3.5
				c0,5.9-2.4,11.2-6.3,15l-1.6,1.5c-0.4,0.4-0.9,0.7-1.4,1c-0.6,0.4-1.3,0.8-1.9,1.1c-2.9,1.5-6.2,2.4-9.7,2.4s-6.8-0.9-9.8-2.4
				l-1.9-1.1c-0.5-0.3-1-0.7-1.4-1l-0.1,0l-1.6-1.4l0,0c-3.9-3.8-6.3-9.2-6.3-15C119.1,215.9,119.3,214.7,119.5,213.6z M122.1,210.3
				c-0.2,0.5-0.4,1-0.5,1.5c0,0,0,0,0,0.1l12.1,3.9l2.2,0.7c0,0,0,0,0-0.1c0-0.5,0.3-1.1,0.5-1.5l0,0l-2.3-0.7L122.1,210.3
				C122.2,210.2,122.2,210.3,122.1,210.3z M137.1,198c-5.9,0.9-11.2,4.8-14,10.1l8.9,2.9l3.6,1.2l1.4,0.5L137.1,198L137.1,198z
				 M141.1,197.8L141.1,197.8c-0.3,0-0.5,0-0.7,0h-0.2c-0.2,0-0.4,0-0.6,0c0,0-0.1,0-0.2,0v15.1c0,0,0,0,0,0c0.2,0,0.5,0,0.8,0
				c0.3,0,0.6,0,0.9,0.1c0,0,0,0,0,0L141.1,197.8L141.1,197.8z M140.2,215.2c-1.1,0-1.9,0.8-1.9,1.9c0,1,0.8,1.9,1.9,1.9
				c1,0,1.9-0.9,1.9-1.9C142.1,216,141.3,215.2,140.2,215.2z M143.3,198v14.7l1.5-0.5l3.6-1.2l9-3C154.5,202.7,149.3,199,143.3,198z
				 M158.8,211.9c-0.1-0.5-0.3-1-0.5-1.5c0,0,0-0.1,0-0.1l-12.1,3.9l-2.3,0.7c0,0,0,0,0,0c0.3,0.5,0.5,1,0.6,1.6c0,0,0,0,0,0
				l2.3-0.7L158.8,211.9z M153.9,230.6c3.6-3.6,5.6-8.4,5.6-13.6c0-1-0.1-2-0.2-3l-9,3l-3.6,1.2l-1.4,0.4l0.9,1.2l2.2,3.1
				L153.9,230.6z M150.8,233.3C150.9,233.2,150.9,233.2,150.8,233.3c0.5-0.4,1-0.7,1.4-1c0,0,0,0,0,0l-7.5-10.4l-1.4-1.9
				c0,0.1,0,0.1-0.1,0.1c-0.3,0.4-0.8,0.7-1.2,0.9c0,0,0,0-0.1,0l1.4,1.9L150.8,233.3z M140.2,236.4c3,0,6-0.7,8.7-2.1l-5.6-7.7
				l-2.2-3l-0.9-1.2l-0.9,1.2l-2.2,3l-5.6,7.7C134.2,235.7,137.1,236.4,140.2,236.4z M128.2,232.2c0.3,0.3,0.8,0.6,1.3,0.9l0.1,0.1
				l7.5-10.4l1.3-1.8c0-0.1-0.1-0.1-0.1-0.1c-0.4-0.2-0.9-0.5-1.2-0.9c0-0.1,0-0.1-0.1-0.1l-1.3,1.9l-7.5,10.4L128.2,232.2z
				 M126.5,230.6l5.6-7.7l2.3-3.1l0.9-1.2l-1.4-0.4l-3.6-1.2l-8.9-2.9c-0.1,1-0.2,2-0.2,3C120.9,222.2,122.9,227,126.5,230.6z"/>
			<path class="st12" d="M6.7,141.1c7,0.1,13.3,0.2,20,1.1c18.8,2.5,30.2,5.2,48.3,11.6c0.9,0.3,1.9,0.6,2.9,1
				c0-0.8-0.1-1.6-0.1-2.3c0-1.6,1.8-2.2,3-2.2c-15.3-7.6-33.9-15.2-36.9-15.6c-3.6-0.6-11.3-0.9-22.8-0.9c-4.8,0-9.5,0-13.6,0.1
				C7.2,136.4,6.9,138.8,6.7,141.1z"/>
			<path class="st12" d="M-23.3,136.1c7.9,0.6,15.4,3.9,23.3,3.9c0.2-1.9,0.4-3.9,0.6-6c-1.5,0-2.7,0-3.5,0
				C-7.4,134.1-15.4,134.8-23.3,136.1z"/>
			<path class="st8" d="M172.2,168.6l0.1,0.6l0.7-0.5L172.2,168.6z"/>
			<path class="st8" d="M162.6,167.3l0.3,0.7l0.6-0.6L162.6,167.3z"/>
			<path class="st13" d="M191.1,180.9l-3.7,3.6l4.5,3c0.5-4.4,0.9-8.6,1.3-11.9c-1.4-0.3-2.8-0.6-4.2-0.8l-1.6,1l3.5,2.4l-4.1,2.9
				L191.1,180.9z"/>
			<path class="st14" d="M-145.1,210.6c0.1,0.6,0.3,1.1,0.4,1.5c0.1,0.4,0.3,0.6,0.4,0.7c0,0,0.1,0,0.1,0.1c0.5,0,1.2,0.5,2.1,1.1
				c0.1,0.1,0.3,0.2,0.4,0.3c0.1,0.1,0.3,0.2,0.5,0.3c0.1,0,0.1,0.1,0.2,0.2c0.2,0.2,0.5,0.3,0.8,0.6c0.3,0.2,0.6,0.4,0.9,0.6
				c0.2,0.2,0.5,0.3,0.8,0.5c0.6,0.4,1.2,0.8,1.9,1.2c1,0.6,2.1,1.2,3.4,1.9c1.6,0.8,4.2,1.6,6.9,2.2c0.5,0.1,1.1,0.2,1.7,0.4
				c0.3,0,0.6,0.1,0.8,0.1c1.1,0.2,2.2,0.4,3.3,0.6c3.2,0.5,5.9,0.9,6.9,1.1c0,0,0,0,0,0c-0.5-2.3-0.8-4.7-0.8-7.1
				c0-3.3,0.5-6.6,1.4-9.6c0.2-0.8,0.5-1.6,0.9-2.4c0.6-1.6,1.4-3.1,2.3-4.6c0.8-1.4,1.7-2.7,2.8-3.9c0.3-0.4,0.7-0.8,1-1.2v0
				c0.5-0.6,1.1-1.2,1.7-1.7c0,0,0,0,0,0c0.9-0.9,1.9-1.7,2.9-2.5c0.3-0.2,0.7-0.5,1-0.7c0.3-0.2,0.7-0.5,1-0.7
				c0.3-0.2,0.7-0.4,1.1-0.6c0.8-0.4,1.5-0.8,2.4-1.2c0.3-0.1,0.5-0.3,0.8-0.4c0.1,0,0.3-0.1,0.5-0.2c1-0.4,2-0.8,2.9-1.1
				c1.5-0.5,3-0.8,4.7-1.1c0.4,0,0.9-0.1,1.3-0.2h0c0.5,0,1-0.1,1.6-0.1c0.6,0,1.2,0,1.9,0c0.4,0,0.9,0,1.4,0c0.4,0,0.8,0,1.2,0
				c0.1,0,0.2,0,0.3,0c0.2,0,0.5,0,0.8,0.1c1.1,0.1,2.1,0.3,3.1,0.5c0.3,0,0.7,0.1,1.1,0.2c0.3,0.1,0.7,0.2,1.1,0.3
				c0.2,0,0.4,0.1,0.6,0.2c0.7,0.2,1.3,0.4,2,0.7c1,0.4,2,0.8,2.9,1.3c0.3,0.1,0.5,0.3,0.8,0.4c0.3,0.1,0.6,0.3,0.9,0.5
				c0.5,0.3,1,0.6,1.5,0.9c0.2,0.1,0.4,0.3,0.6,0.4c0.4,0.3,0.8,0.6,1.3,0.9c0.5,0.4,1.1,0.8,1.6,1.3c0.5,0.4,1,0.9,1.5,1.4
				c0.4,0.4,0.9,0.9,1.3,1.4c0,0.1,0.1,0.1,0.1,0.1c0.4,0.5,0.9,1,1.3,1.6c0.4,0.5,0.8,1.1,1.2,1.7c0.4,0.5,0.8,1.1,1.1,1.7
				c0.2,0.3,0.4,0.7,0.6,1.1c0.2,0.3,0.4,0.7,0.6,1.1c0.2,0.4,0.4,0.7,0.5,1.1c0.2,0.4,0.3,0.8,0.5,1.2c0.3,0.8,0.6,1.6,0.8,2.4
				c0.9,3,1.4,6.3,1.4,9.6c0,2.5-0.3,4.9-0.8,7.2h163.1c-0.5-2.3-0.8-4.7-0.8-7.2c0-0.5,0-1,0-1.5c0-0.2,0-0.5,0-0.8
				c0-0.3,0.1-0.7,0.1-1c0-0.6,0.1-1.3,0.2-1.9c2.5-15.4,15.9-27.3,32-27.3h0.1c17.3,5.5,23.5,12,23.5,29.9c0,2.5,0.5,7.5,0,9.8h8
				l9.5,0c0.2,0,2.2-0.2,2-3.7c-0.1-2.1,1.8-17.9,3.4-31.6c-3.4-2.2-4.7-6.2-5.8-10.5l-321.9-16.8c-0.4,1.3-1.1,3.4-1.8,5.8
				c-0.1,0.5-0.3,1.1-0.5,1.6c-0.2,0.7-0.4,1.5-0.6,2.2c-0.1,0.3-0.2,0.7-0.3,1.1c-0.3,1.1-0.5,2.2-0.8,3.2c0,0.2-0.1,0.5-0.1,0.7
				c-0.1,0.7-0.3,1.4-0.4,2c0,0.2-0.1,0.4-0.1,0.6c-0.1,0.6-0.1,1-0.1,1.4c0,0.7-0.1,1.3-0.2,1.8c0,0,0,0,0,0c0,0.1,0,0.1,0,0.2
				c0,0.1,0,0.1-0.1,0.2c0,0.2-0.1,0.3-0.2,0.5c-0.1,0.2-0.3,0.5-0.4,0.7c-0.2,0.2-0.4,0.5-0.6,0.7c0,0-0.1,0.1-0.1,0.2
				c0,0-0.1,0.1-0.1,0.2c0,0-0.1,0.1-0.1,0.2c-0.1,0.1-0.2,0.3-0.3,0.5v0c0,0.1-0.1,0.2-0.2,0.3c-0.1,0.2-0.2,0.4-0.3,0.6l0,0.1
				c-0.1,0.2-0.2,0.4-0.2,0.6v0c0,0.1-0.1,0.1-0.1,0.2c0,0,0,0.1,0,0.2c-0.1,0.2-0.1,0.4-0.2,0.7c0,0.2-0.1,0.5-0.2,0.8
				C-146.4,194.1-146.1,205.7-145.1,210.6z"/>
			<path class="st15" d="M126.6,162l9.9-1.7l15.2,1.7l5.6,3.9v3.8L126.6,162z"/>
		</g>
	</g>
</g>
<g class="st16">
	<path class="st17" d="M184.2,240.3c0,4.7,34.1,8.6,76.2,8.6c42.1,0,76.2-3.8,76.2-8.6s-34.1-8.6-76.2-8.6
		C218.3,231.8,184.2,235.6,184.2,240.3z"/>
</g>
<path class="st18" d="M308.9,204.2v29.8c0,2,0.7,3.9,1.9,5.4c1.2,1.5,3,2.6,4.9,3c0.6,0.1,1.2,0.2,1.8,0.2h6.9c0.2,0,0.4,0,0.6,0
	c2.2-0.1,4.2-1.1,5.7-2.7c1.5-1.6,2.3-3.7,2.3-5.9v-29.8c0-2.3-0.9-4.5-2.5-6.1c-1.6-1.6-3.8-2.5-6.1-2.5h-6.9
	c-2.3,0-4.5,0.9-6.1,2.5C309.8,199.7,308.9,201.9,308.9,204.2L308.9,204.2z"/>
<path class="st19" d="M308.9,204.2v29.8c0,2,0.7,3.9,1.9,5.4c1.2,1.5,3,2.6,4.9,3c0.6,0.1,1.2,0.2,1.8,0.2h6.9c0.2,0,0.4,0,0.6,0
	c1.9-5.9,2.9-13,2.9-20.5c0-10.2-2-19.5-5.2-26.4h-5.2c-2.3,0-4.5,0.9-6.1,2.5C309.8,199.7,308.9,201.9,308.9,204.2L308.9,204.2z"/>
<path class="st19" d="M327,196c3.2,6.9,5.7,15.8,5.7,26c0,7.5,1.2,11.4-0.7,15.9c0,0-3.3,4.6-7,4.6"/>
<path class="st19" d="M310.3,199.5c-0.9,1.4-1.4,3-1.4,4.7v29.8c0,2,0.7,3.9,1.9,5.4c1.2,1.5,3,2.6,4.9,3c0.6,0.1,1.2,0.2,1.8,0.2
	h2.8c1.9-5.9,2.9-13,2.9-20.5c0-10.2-2-19.5-5.2-26.4h-0.5c-1.4,0-2.8,0.4-4.1,1C312.1,197.3,311.1,198.3,310.3,199.5L310.3,199.5z"
	/>
<path class="st19" d="M310.3,199.5c-0.9,1.4-1.4,3-1.4,4.7v29.8c0,2,0.7,3.9,1.9,5.4c1.2,1.5,3,2.6,4.9,3c1.8-5.9,2.9-12.9,2.9-20.3
	c0-9.8-1.8-18.8-4.8-25.5C312.3,197.2,311.1,198.2,310.3,199.5L310.3,199.5z"/>
<path class="st19" d="M310.3,199.5c-0.9,1.4-1.4,3-1.4,4.7v29.8c0,1.2,0.2,2.3,0.7,3.4c0.5,1.1,1.2,2.1,2,2.9
	c1.4-5.4,2.3-11.6,2.3-18.2C313.9,213.6,312.6,205.8,310.3,199.5z"/>
<path class="st18" d="M213.3,204.2v29.8c0,2-0.7,3.9-1.9,5.4c-1.2,1.5-3,2.6-4.9,3c-0.6,0.1-1.2,0.2-1.8,0.2h-6.9
	c-0.2,0-0.4,0-0.6,0c-2.2-0.1-4.2-1.1-5.7-2.7c-1.5-1.6-2.3-3.7-2.3-5.9v-29.8c0-2.3,0.9-4.5,2.5-6.1c1.6-1.6,3.8-2.5,6.1-2.5h6.9
	c2.3,0,4.5,0.9,6.1,2.5C212.4,199.7,213.3,201.9,213.3,204.2L213.3,204.2z"/>
<path class="st19" d="M213.3,204.2v29.8c0,2-0.7,3.9-1.9,5.4c-1.2,1.5-3,2.6-4.9,3c-0.6,0.1-1.2,0.2-1.8,0.2h-6.9
	c-0.2,0-0.4,0-0.6,0c-1.9-5.9-2.9-13-2.9-20.5c0-10.2,2-19.5,5.2-26.4h5.2c2.3,0,4.5,0.9,6.1,2.5
	C212.4,199.7,213.3,201.9,213.3,204.2L213.3,204.2z"/>
<path class="st19" d="M195.2,196c-3.2,6.9-5.7,15.8-5.7,26c0,7.5-1.2,11.4,0.7,15.9c0,0,3.3,4.6,7,4.6"/>
<path class="st19" d="M211.9,199.5c0.9,1.4,1.4,3,1.4,4.7v29.8c0,2-0.7,3.9-1.9,5.4c-1.2,1.5-3,2.6-4.9,3c-0.6,0.1-1.2,0.2-1.8,0.2
	h-2.8c-1.9-5.9-2.9-13-2.9-20.5c0-10.2,2-19.5,5.2-26.4h0.5c1.4,0,2.8,0.4,4.1,1C210.1,197.3,211.1,198.3,211.9,199.5L211.9,199.5z"
	/>
<path class="st19" d="M211.9,199.5c0.9,1.4,1.4,3,1.4,4.7v29.8c0,2-0.7,3.9-1.9,5.4c-1.2,1.5-3,2.6-4.9,3
	c-1.8-5.9-2.9-12.9-2.9-20.3c0-9.8,1.8-18.8,4.8-25.5C209.9,197.2,211.1,198.2,211.9,199.5L211.9,199.5z"/>
<path class="st19" d="M211.9,199.5c0.9,1.4,1.4,3,1.4,4.7v29.8c0,1.2-0.2,2.3-0.7,3.4c-0.5,1.1-1.2,2.1-2,2.9
	c-1.4-5.4-2.3-11.6-2.3-18.2C208.3,213.6,209.7,205.8,211.9,199.5z"/>
<path class="st20" d="M189.2,193.1V218c0,0.3,0,0.6,0,0.9c0.4,5.5,4.1,9,9.2,10.3l0.4,0.1c0.1,0,0.3,0.1,0.4,0.1
	c0.2,0,0.4,0.1,0.6,0.1c0.3,0,0.6,0.1,0.8,0.1c0.2,0,0.3,0,0.5,0.1c0.7,0.1,1.4,0.1,2,0.1c0,0,42.1,2,57.2,2h0.6
	c14.5,0,57.8-2,57.8-2c7.4,0,13.4-3.6,14-10.6c0-0.4,0.1-0.8,0.1-1.2v-24.9c0-4.2-0.9-8.3-2.7-12c-0.6-1.3-1.4-2.6-2.2-3.8
	c0,0,0,0,0,0c-2.6-3.8-6-6.9-10.1-9c-4.1-2.1-8.6-3.3-13.2-3.3h-87.4c-3.7,0-7.4,0.7-10.8,2.1c-3.4,1.4-6.5,3.5-9.1,6.1
	c-2.6,2.6-4.7,5.7-6.1,9.1C190,185.7,189.2,189.4,189.2,193.1L189.2,193.1z"/>
<g>
	<path class="st21" d="M189.2,193.1V218c0,0.3,0,0.6,0,0.9c0.4,5.5,4.1,9,9.2,10.3l0.4,0.1c0.1,0,0.3,0.1,0.4,0.1
		c0.2,0,0.4,0.1,0.6,0.1c0.3,0,0.6,0.1,0.8,0.1c0.2,0,0.3,0,0.5,0.1c0.7,0.1,1.4,0.1,2,0.1c0,0,42.1,2,57.2,2h0.6
		c14.5,0,57.8-2,57.8-2c7.4,0,13.4-3.6,14-10.6c0-0.4,0.1-0.8,0.1-1.2v-24.9c0-5.7-1.7-11.2-4.9-15.8c0.3,0.6,22.6,31.6-64.8,29.5
		c-71.6-1.7-71.7-8.4-69.7-28.8C190.7,182.5,189.2,187.7,189.2,193.1L189.2,193.1z"/>
</g>
<path class="st20" d="M195.4,156.9h4.1c0.8,0,1.6,0.2,2.4,0.5c0.7,0.4,1.4,0.9,1.9,1.5c0.5,0.6,0.9,1.4,1,2.2
	c0.2,0.8,0.1,1.6-0.1,2.4h2.3v4.1h-6.4v-0.1c-0.4,0.1-0.8,0.1-1.1,0.1h-4.1c-1.4,0-2.8-0.6-3.8-1.6c-1-1-1.6-2.4-1.6-3.8
	c0-1.4,0.6-2.8,1.6-3.8C192.6,157.4,194,156.9,195.4,156.9L195.4,156.9z"/>
<g class="st22">
	<path class="st23" d="M194.5,157c-1.9,0.9-2.6,2-2.6,3.1c-0.1,1.3,0.6,2.5,1.7,3.2c4.3,3,8.8,2.3,13.5,2.1v2.3h-6.4v-0.1
		c-0.4,0.1-0.8,0.1-1.1,0.1h-3.8c-2.9,0-5.5-2.2-5.7-5.2c-0.1-1.3,0.4-2.6,1.2-3.7C192,157.9,193.2,157.2,194.5,157L194.5,157z"/>
</g>
<path class="st20" d="M317.1,163.6c-0.2-0.8-0.2-1.6-0.1-2.4s0.5-1.6,1-2.2c0.5-0.6,1.2-1.2,1.9-1.5c0.7-0.4,1.6-0.5,2.4-0.5h4.1
	c1.4,0,2.8,0.6,3.8,1.6c1,1,1.6,2.4,1.6,3.8c0,1.4-0.6,2.8-1.6,3.8c-1,1-2.4,1.6-3.8,1.6h-4.1c-0.4,0-0.8,0-1.1-0.1v0.1h-6.4v-4.1
	L317.1,163.6z"/>
<g class="st22">
	<path class="st23" d="M327.2,164.6c1.9-1,4.6-3.5,2.9-6.3c0.8,0.7,1.4,1.7,1.6,2.8c0.2,1.1,0.2,2.2-0.2,3.2c-0.4,1-1.1,1.9-2,2.5
		c-0.9,0.6-2,0.9-3.1,0.9h-4.1c-0.4,0-0.8,0-1.1-0.1v0.1h-6.4v-3.3C318.9,165.9,322.9,166.8,327.2,164.6z"/>
</g>
<path class="st20" d="M222,129.4l4.3-0.6c23.9-3.1,48-2.9,71.8,0.5l0.7,0.1c4,0,7.7,2.9,8.8,7l9,32.9H204.2l9-32.9
	C214.4,132.3,218,129.4,222,129.4z"/>
<path class="st24" d="M223,133.4l1.2-0.1c24.5-2.7,49.3-2.7,73.9,0.1l0,0c4,0,7.5,2.2,8.6,5.4l7.6,25.6H206.7l7.7-25.6
	C215.5,135.7,219,133.4,223,133.4z"/>
<g>
	<path class="st21" d="M306.4,194.1c6.8,9.5,28,4.2,23.8-13.1c-0.6-1.3-1.4-2.6-2.2-3.8c0,0,0,0,0,0c-3.6-5.3-9-9.3-15.2-11.1
		C309.1,170.8,299.5,184.4,306.4,194.1z"/>
</g>
<g>
	<path class="st21" d="M215.7,194.1c-6.8,9.5-28,4.2-23.8-13.1c0.6-1.3,1.4-2.6,2.2-3.8c0,0,0,0,0,0c3.6-5.3,9-9.3,15.2-11.1
		C213,170.8,222.6,184.4,215.7,194.1z"/>
</g>
<path class="st25" d="M310.8,179.1c-5.5,3.7-7.5,10.4-4.4,15c3.1,4.6,10,5.3,15.5,1.5c5.5-3.7,7.4-10.4,4.4-15
	C323.3,176.1,316.3,175.4,310.8,179.1z"/>
<path class="st26" d="M313.2,182.7c-3.1,2.1-4.2,5.9-2.5,8.5c1.8,2.6,5.7,3,8.9,0.9c3.1-2.1,4.2-5.9,2.5-8.5
	C320.3,180.9,316.3,180.6,313.2,182.7z"/>
<path class="st27" d="M313.8,183.5c-2.6,1.7-3.5,4.9-2,7c1.4,2.1,4.7,2.4,7.2,0.7c2.6-1.7,3.5-4.9,2-7
	C319.6,182.1,316.3,181.8,313.8,183.5z"/>
<path class="st25" d="M213.6,181.3c4,5.3,3.8,12.3-0.6,15.6c-4.4,3.3-11.2,1.8-15.2-3.5c-4-5.3-3.8-12.3,0.6-15.6
	C202.7,174.5,209.5,176.1,213.6,181.3z"/>
<path class="st26" d="M210.4,183.8c2.4,3.1,2.2,7.3-0.4,9.3c-2.6,2-6.7,1.1-9.1-2.1c-2.4-3.1-2.2-7.3,0.4-9.3
	C203.9,179.7,208,180.6,210.4,183.8z"/>
<path class="st27" d="M209.3,184.6c1.9,2.5,1.7,5.7-0.3,7.3c-2,1.6-5.2,0.8-7.1-1.6c-1.9-2.5-1.7-5.7,0.3-7.3
	C204.3,181.4,207.4,182.1,209.3,184.6z"/>
<path class="st28" d="M288.1,164.6h-9.7l-27.7-33.5h7.7L288.1,164.6z"/>
<path class="st29" d="M272.8,164.6h-9.2l-25.1-32.4l7.7-0.6L272.8,164.6z"/>
<path class="st25" d="M316.9,221.2h1.3c2.7,0,5.2-1.1,7.1-3c1.9-1.9,3-4.5,3-7.1l0,0c0-0.6-0.2-1.2-0.7-1.6c-0.4-0.4-1-0.7-1.6-0.7
	h-14.6v6.8c0,0.7,0.1,1.4,0.4,2.1s0.7,1.3,1.2,1.8c0.5,0.5,1.1,0.9,1.8,1.2C315.4,221,316.1,221.2,316.9,221.2L316.9,221.2z"/>
<path class="st26" d="M315.9,214.7c0,0.8,0.2,1.6,0.7,2.3c0.5,0.7,1.1,1.2,1.9,1.5c0.8,0.3,1.6,0.4,2.4,0.2c0.8-0.2,1.5-0.6,2.1-1.1
	c0.6-0.6,1-1.3,1.1-2.1c0.2-0.8,0.1-1.6-0.2-2.4c-0.3-0.8-0.8-1.4-1.5-1.9c-0.7-0.5-1.5-0.7-2.3-0.7c-1.1,0-2.2,0.4-2.9,1.2
	C316.3,212.5,315.9,213.6,315.9,214.7L315.9,214.7z"/>
<path class="st27" d="M317.1,214.7c0,0.6,0.2,1.1,0.5,1.6c0.3,0.5,0.8,0.9,1.3,1.1c0.5,0.2,1.1,0.3,1.7,0.2c0.6-0.1,1.1-0.4,1.5-0.8
	c0.4-0.4,0.7-0.9,0.8-1.5c0.1-0.6,0.1-1.1-0.2-1.7c-0.2-0.5-0.6-1-1.1-1.3c-0.5-0.3-1-0.5-1.6-0.5c-0.4,0-0.8,0.1-1.1,0.2
	s-0.7,0.4-0.9,0.6s-0.5,0.6-0.6,0.9C317.2,213.9,317.1,214.3,317.1,214.7L317.1,214.7z"/>
<path class="st25" d="M205,221.2h-1.3c-2.7,0-5.2-1.1-7.1-3c-1.9-1.9-3-4.5-3-7.1c0-0.3,0.1-0.6,0.2-0.9c0.1-0.3,0.3-0.5,0.5-0.7
	c0.2-0.2,0.5-0.4,0.7-0.5c0.3-0.1,0.6-0.2,0.9-0.2h14.6v6.8c0,1.5-0.6,2.9-1.6,3.9C207.8,220.6,206.4,221.2,205,221.2z"/>
<path class="st26" d="M206,214.7c0,0.8-0.2,1.6-0.7,2.3c-0.5,0.7-1.1,1.2-1.9,1.5c-0.8,0.3-1.6,0.4-2.4,0.2
	c-0.8-0.2-1.5-0.6-2.1-1.1c-0.6-0.6-1-1.3-1.1-2.1c-0.2-0.8-0.1-1.6,0.2-2.4c0.3-0.8,0.8-1.4,1.5-1.9c0.7-0.5,1.5-0.7,2.3-0.7
	c0.5,0,1.1,0.1,1.6,0.3c0.5,0.2,1,0.5,1.3,0.9c0.4,0.4,0.7,0.8,0.9,1.3C205.9,213.6,206,214.1,206,214.7L206,214.7z"/>
<path class="st27" d="M204.7,214.7c0,0.6-0.2,1.1-0.5,1.6c-0.3,0.5-0.8,0.9-1.3,1.1c-0.5,0.2-1.1,0.3-1.7,0.2
	c-0.6-0.1-1.1-0.4-1.5-0.8c-0.4-0.4-0.7-0.9-0.8-1.5c-0.1-0.6-0.1-1.1,0.2-1.7c0.2-0.5,0.6-1,1.1-1.3c0.5-0.3,1-0.5,1.6-0.5
	c0.4,0,0.8,0.1,1.1,0.2c0.4,0.1,0.7,0.4,0.9,0.6c0.3,0.3,0.5,0.6,0.6,0.9C204.7,213.9,204.7,214.3,204.7,214.7L204.7,214.7z"/>
<g class="st30">
	<path class="st24" d="M233.2,147.8c0-1.2,0.4-2.4,1-3.4c0.7-1,1.6-1.8,2.8-2.3c1.1-0.5,2.4-0.6,3.6-0.4c1.2,0.2,2.3,0.8,3.2,1.7
		c0.9,0.9,1.5,2,1.7,3.2c0.2,1.2,0.1,2.4-0.4,3.6c-0.5,1.1-1.3,2.1-2.3,2.8c-1,0.7-2.2,1-3.4,1c-1.6,0-3.2-0.7-4.4-1.8
		C233.8,151,233.2,149.5,233.2,147.8z"/>
</g>
<g class="st30">
	<path class="st24" d="M230.5,155.2h17.7c0.9,0,1.6,0.7,1.6,1.6v11.1c0,0.9-0.7,1.6-1.6,1.6h-17.7c-0.9,0-1.6-0.7-1.6-1.6v-11.1
		C228.9,155.9,229.6,155.2,230.5,155.2z"/>
</g>
<g class="st30">
	<path class="st24" d="M276.1,154c-3.4,0-6.2-2.8-6.2-6.2c0-3.4,2.8-6.2,6.2-6.2c3.4,0,6.2,2.8,6.2,6.2
		C282.3,151.3,279.6,154,276.1,154z"/>
</g>
<g class="st30">
	<path class="st24" d="M267.3,155.2H285c0.9,0,1.6,0.7,1.6,1.6v11.1c0,0.9-0.7,1.6-1.6,1.6h-17.7c-0.9,0-1.6-0.7-1.6-1.6v-11.1
		C265.7,155.9,266.4,155.2,267.3,155.2z"/>
</g>
<path class="st31" d="M189.2,218.8c0,5.6,4,9.1,9.2,10.3l0.4,0.1c0.1,0,0.3,0.1,0.4,0.1c0.2,0,0.4,0.1,0.6,0.1
	c0.3,0,0.6,0.1,0.8,0.1c0.2,0,0.3,0,0.5,0.1c0.7,0.1,1.4,0.1,2,0.1c0,0,42.1,2,57.2,2h0.6c14.5,0,57.8-2,57.8-2
	c7.4,0,13.4-3.6,14-10.6c-0.4,0.8-3.3,5.3-12,5.8c-8.3,0.5-14.7-1.5-20.3-10.4c-0.8-1.3-1.9-2.3-3.1-3c-1.3-0.7-2.7-1.2-4.2-1.2
	l-33.1,0.2l-32.6-0.2c-1.5,0.1-2.9,0.5-4.2,1.3c-1.3,0.7-2.4,1.8-3.1,3c-5.7,8.9-10.7,10.5-19,10
	C192.7,224.2,189.8,219.8,189.2,218.8C189.2,218.9,189.2,218.8,189.2,218.8z"/>
<path class="st32" d="M220,226c0,0,30.3,1.9,40.5,1.9c10.1,0,40.5-1.9,40.5-1.9v-0.3c0-6.4-6.6-11.6-14.8-11.6h-51.3
	c-8.2,0-14.8,5.2-14.8,11.6L220,226z"/>
<path class="st32" d="M236.1,201.8h48.2c2.6,0,5.1-1,7-2.9c1.8-1.8,2.9-4.4,2.9-7l0,0c0-0.6-0.1-1.2-0.3-1.8c-0.2-0.6-0.6-1.1-1-1.5
	c-0.4-0.4-0.9-0.8-1.5-1c-0.6-0.2-1.2-0.3-1.8-0.3h-58.8c-0.6,0-1.2,0.1-1.8,0.3c-0.6,0.2-1.1,0.6-1.5,1c-0.4,0.4-0.8,0.9-1,1.5
	c-0.2,0.6-0.3,1.2-0.3,1.8l0,0c0,2.6,1,5.1,2.9,7C230.9,200.8,233.4,201.8,236.1,201.8L236.1,201.8z"/>
<g>
	<path class="st21" d="M217,179.5c0,0,46.1,12.2,88.2,0c0,0,1.8-3.7,3.3-6.9c1.6-3.3,4.3-6.5,4.3-6.5H209.3l4.2,6.3L217,179.5z"/>
</g>
<path class="st33" d="M132.3,101.8l11.1,33.8l11-7.3l16.7,24.3l-10-36.4l-13.4,6.6L132.3,101.8z"/>
<path class="st33" d="M182,105.3l-7.3,21.4l5.6,2.5l-2.6,20l8.5-22L180,123L182,105.3z"/>
<ellipse class="st34" cx="186.2" cy="43.8" rx="60.4" ry="36.3"/>
<path class="st35" d="M149.8,34.5v0.4c0,0.4-0.1,0.8-0.2,1c-0.2,0.3-0.4,0.6-0.8,0.9c-0.3,0.2-0.5,0.4-0.6,0.5
	c-0.2,0.2-0.3,0.3-0.3,0.5c-0.1,0.1-0.1,0.3-0.1,0.5c0,0.3,0.1,0.5,0.3,0.7c0.2,0.2,0.5,0.2,0.9,0.2c0.4,0,0.7-0.1,1-0.2
	c0.3-0.1,0.6-0.2,1-0.4l0.5,1.1c-0.4,0.2-0.8,0.4-1.2,0.5c-0.4,0.1-0.9,0.2-1.4,0.2c-0.8,0-1.4-0.2-1.9-0.6
	c-0.4-0.4-0.7-0.9-0.7-1.5c0-0.3,0.1-0.6,0.2-0.9c0.1-0.2,0.3-0.5,0.5-0.7c0.2-0.2,0.5-0.4,0.8-0.7c0.2-0.2,0.4-0.4,0.6-0.5
	c0.1-0.1,0.2-0.3,0.3-0.4c0-0.1,0.1-0.3,0.1-0.5v-0.3H149.8z M150,32.6c0,0.3-0.1,0.6-0.3,0.7c-0.2,0.1-0.4,0.2-0.6,0.2
	c-0.2,0-0.5-0.1-0.6-0.2c-0.2-0.1-0.3-0.4-0.3-0.7c0-0.3,0.1-0.6,0.3-0.7c0.2-0.1,0.4-0.2,0.6-0.2c0.3,0,0.5,0.1,0.6,0.2
	C149.9,32,150,32.2,150,32.6z M154.5,33.4l2-3.8h1.7l-2.8,5.2v3.3h-1.5v-3.3l-2.8-5.3h1.7L154.5,33.4z M164.8,31.6
	c0.8,0,1.5,0.2,1.9,0.6c0.4,0.4,0.7,0.9,0.7,1.7v4.4h-1.1l-0.3-0.9h0c-0.3,0.4-0.6,0.6-0.9,0.8c-0.3,0.2-0.7,0.2-1.3,0.2
	c-0.6,0-1.1-0.2-1.5-0.5s-0.6-0.8-0.6-1.5c0-0.7,0.2-1.2,0.7-1.5c0.5-0.3,1.2-0.5,2.2-0.6l1.1,0v-0.3c0-0.4-0.1-0.7-0.3-0.9
	c-0.2-0.2-0.5-0.3-0.8-0.3c-0.3,0-0.6,0-0.9,0.1c-0.3,0.1-0.6,0.2-0.9,0.3l-0.5-1.1c0.3-0.2,0.7-0.3,1.1-0.4
	C163.9,31.6,164.4,31.6,164.8,31.6z M165.9,35.1l-0.8,0c-0.7,0-1.1,0.1-1.4,0.3c-0.3,0.2-0.4,0.5-0.4,0.8c0,0.3,0.1,0.5,0.3,0.7
	c0.2,0.1,0.4,0.2,0.7,0.2c0.4,0,0.8-0.1,1.1-0.4c0.3-0.3,0.5-0.6,0.5-1.1V35.1z M170.8,29.1v2.2c0,0.3,0,0.5,0,0.8
	c0,0.2,0,0.4,0,0.5h0.1c0.2-0.3,0.5-0.6,0.8-0.7c0.3-0.2,0.7-0.2,1.1-0.2c0.7,0,1.3,0.2,1.7,0.6s0.6,1,0.6,1.8v4.2h-1.5v-3.9
	c0-1-0.4-1.5-1.2-1.5c-0.6,0-1,0.2-1.2,0.6s-0.3,0.9-0.3,1.6v3.2h-1.5v-9.1H170.8z M182.8,34.9c0,1.1-0.3,1.9-0.8,2.5
	c-0.6,0.6-1.3,0.9-2.3,0.9c-0.6,0-1.1-0.1-1.6-0.4s-0.8-0.6-1.1-1.2c-0.3-0.5-0.4-1.1-0.4-1.8c0-1.1,0.3-1.9,0.8-2.5
	c0.6-0.6,1.3-0.9,2.3-0.9c0.6,0,1.1,0.1,1.6,0.4c0.5,0.3,0.8,0.6,1.1,1.1C182.6,33.6,182.8,34.2,182.8,34.9z M178.1,34.9
	c0,0.7,0.1,1.2,0.4,1.6c0.2,0.4,0.6,0.6,1.2,0.6s0.9-0.2,1.2-0.6c0.2-0.4,0.4-0.9,0.4-1.6c0-0.7-0.1-1.2-0.4-1.6
	c-0.2-0.4-0.6-0.6-1.2-0.6c-0.5,0-0.9,0.2-1.2,0.6C178.3,33.7,178.1,34.2,178.1,34.9z M187.7,31.6c0.1,0,0.2,0,0.3,0
	c0.1,0,0.2,0,0.3,0l-0.1,1.4c-0.1,0-0.2,0-0.3,0c-0.1,0-0.2,0-0.3,0c-0.3,0-0.6,0.1-0.9,0.2c-0.3,0.1-0.5,0.3-0.7,0.6
	c-0.2,0.3-0.3,0.6-0.3,1v3.4h-1.5v-6.5h1.2l0.2,1.1h0.1c0.2-0.3,0.5-0.6,0.8-0.9C186.9,31.7,187.3,31.6,187.7,31.6z M192,31.6
	c0.8,0,1.5,0.2,1.9,0.6c0.4,0.4,0.7,0.9,0.7,1.7v4.4h-1.1l-0.3-0.9h0c-0.3,0.4-0.6,0.6-0.9,0.8c-0.3,0.2-0.7,0.2-1.3,0.2
	c-0.6,0-1.1-0.2-1.5-0.5s-0.6-0.8-0.6-1.5c0-0.7,0.2-1.2,0.7-1.5c0.5-0.3,1.2-0.5,2.2-0.6l1.1,0v-0.3c0-0.4-0.1-0.7-0.3-0.9
	c-0.2-0.2-0.5-0.3-0.8-0.3c-0.3,0-0.6,0-0.9,0.1c-0.3,0.1-0.6,0.2-0.9,0.3l-0.5-1.1c0.3-0.2,0.7-0.3,1.1-0.4
	C191.1,31.6,191.5,31.6,192,31.6z M193,35.1l-0.8,0c-0.7,0-1.1,0.1-1.4,0.3c-0.3,0.2-0.4,0.5-0.4,0.8c0,0.3,0.1,0.5,0.3,0.7
	c0.2,0.1,0.4,0.2,0.7,0.2c0.4,0,0.8-0.1,1.1-0.4c0.3-0.3,0.5-0.6,0.5-1.1V35.1z M202.2,38.3c-0.9,0-1.7-0.3-2.2-0.8
	c-0.5-0.5-0.8-1.4-0.8-2.5c0-0.8,0.1-1.4,0.4-1.9c0.3-0.5,0.6-0.9,1.1-1.1c0.5-0.2,1-0.4,1.6-0.4c0.4,0,0.8,0,1.1,0.1
	c0.3,0.1,0.6,0.2,0.8,0.3l-0.4,1.2c-0.2-0.1-0.5-0.2-0.7-0.2c-0.2-0.1-0.5-0.1-0.7-0.1c-1.1,0-1.6,0.7-1.6,2.1
	c0,0.7,0.1,1.2,0.4,1.6c0.3,0.4,0.7,0.5,1.2,0.5c0.4,0,0.7,0,1-0.1s0.5-0.2,0.8-0.4v1.3c-0.2,0.1-0.5,0.3-0.8,0.3
	C203,38.3,202.6,38.3,202.2,38.3z M211.3,31.7v6.5h-1.2l-0.2-0.8h-0.1c-0.2,0.3-0.5,0.6-0.9,0.7c-0.4,0.2-0.7,0.2-1.2,0.2
	c-0.7,0-1.3-0.2-1.7-0.6c-0.4-0.4-0.6-1-0.6-1.8v-4.2h1.5v3.9c0,1,0.4,1.5,1.2,1.5c0.6,0,1-0.2,1.2-0.6c0.2-0.4,0.3-0.9,0.3-1.7
	v-3.2H211.3z M215.9,31.6c0.8,0,1.5,0.2,1.9,0.6c0.4,0.4,0.7,0.9,0.7,1.7v4.4h-1.1l-0.3-0.9h0c-0.3,0.4-0.6,0.6-0.9,0.8
	c-0.3,0.2-0.7,0.2-1.3,0.2c-0.6,0-1.1-0.2-1.5-0.5s-0.6-0.8-0.6-1.5c0-0.7,0.2-1.2,0.7-1.5c0.5-0.3,1.2-0.5,2.2-0.6l1.1,0v-0.3
	c0-0.4-0.1-0.7-0.3-0.9c-0.2-0.2-0.5-0.3-0.8-0.3c-0.3,0-0.6,0-0.9,0.1c-0.3,0.1-0.6,0.2-0.9,0.3l-0.5-1.1c0.3-0.2,0.7-0.3,1.1-0.4
	C215,31.6,215.4,31.6,215.9,31.6z M216.9,35.1l-0.8,0c-0.7,0-1.1,0.1-1.4,0.3c-0.3,0.2-0.4,0.5-0.4,0.8c0,0.3,0.1,0.5,0.3,0.7
	c0.2,0.1,0.4,0.2,0.7,0.2c0.4,0,0.8-0.1,1.1-0.4c0.3-0.3,0.5-0.6,0.5-1.1V35.1z M217.9,29v0.1c-0.1,0.1-0.3,0.3-0.6,0.6
	c-0.2,0.2-0.5,0.5-0.8,0.7c-0.3,0.2-0.5,0.4-0.7,0.6h-1v-0.2c0.1-0.1,0.3-0.3,0.4-0.5c0.2-0.2,0.3-0.4,0.5-0.6
	c0.2-0.2,0.3-0.4,0.4-0.6H217.9z M221.8,38.2h-1.5v-9.1h1.5V38.2z M154.7,45.6c0.8,0,1.4,0.3,1.8,0.9c0.5,0.6,0.7,1.4,0.7,2.5
	c0,1.1-0.2,2-0.7,2.5c-0.5,0.6-1.1,0.9-1.8,0.9c-0.5,0-0.9-0.1-1.2-0.3c-0.3-0.2-0.5-0.4-0.7-0.6h-0.1c0,0.2,0,0.3,0.1,0.5
	c0,0.2,0,0.3,0,0.5v2.6h-1.5v-9.4h1.2l0.2,0.9h0.1c0.2-0.3,0.4-0.5,0.7-0.7C153.8,45.7,154.2,45.6,154.7,45.6z M154.3,46.8
	c-0.5,0-0.9,0.2-1.1,0.5c-0.2,0.3-0.3,0.8-0.3,1.5v0.2c0,0.7,0.1,1.2,0.3,1.6c0.2,0.4,0.6,0.6,1.2,0.6c0.5,0,0.8-0.2,1-0.6
	c0.2-0.4,0.3-0.9,0.3-1.6s-0.1-1.2-0.3-1.6C155.1,47,154.8,46.8,154.3,46.8z M161.4,45.6c0.8,0,1.5,0.2,1.9,0.6
	c0.4,0.4,0.7,0.9,0.7,1.7v4.4h-1.1l-0.3-0.9h0c-0.3,0.4-0.6,0.6-0.9,0.8c-0.3,0.2-0.7,0.2-1.3,0.2c-0.6,0-1.1-0.2-1.5-0.5
	c-0.4-0.3-0.6-0.8-0.6-1.5c0-0.7,0.2-1.2,0.7-1.5c0.5-0.3,1.2-0.5,2.2-0.6l1.1,0v-0.3c0-0.4-0.1-0.7-0.3-0.9
	c-0.2-0.2-0.5-0.3-0.8-0.3c-0.3,0-0.6,0-0.9,0.1c-0.3,0.1-0.6,0.2-0.9,0.3l-0.5-1.1c0.3-0.2,0.7-0.3,1.1-0.4
	C160.5,45.6,161,45.6,161.4,45.6z M162.5,49.1l-0.8,0c-0.7,0-1.1,0.1-1.4,0.3c-0.3,0.2-0.4,0.5-0.4,0.8c0,0.3,0.1,0.5,0.3,0.7
	c0.2,0.1,0.4,0.2,0.7,0.2c0.4,0,0.8-0.1,1.1-0.4c0.3-0.3,0.5-0.6,0.5-1.1V49.1z M170.3,50.3c0,0.7-0.2,1.2-0.7,1.5
	c-0.5,0.3-1.1,0.5-2,0.5c-0.5,0-0.8,0-1.2-0.1c-0.3-0.1-0.6-0.2-0.9-0.3v-1.3c0.3,0.2,0.7,0.3,1.1,0.4c0.4,0.1,0.8,0.2,1.1,0.2
	c0.4,0,0.7-0.1,0.9-0.2c0.2-0.1,0.3-0.3,0.3-0.5c0-0.1,0-0.2-0.1-0.3c-0.1-0.1-0.2-0.2-0.4-0.3c-0.2-0.1-0.5-0.3-0.9-0.4
	c-0.4-0.2-0.8-0.3-1-0.5c-0.3-0.2-0.5-0.4-0.6-0.6c-0.1-0.2-0.2-0.5-0.2-0.9c0-0.6,0.2-1,0.7-1.3c0.5-0.3,1.1-0.5,1.8-0.5
	c0.4,0,0.8,0,1.1,0.1c0.4,0.1,0.7,0.2,1.1,0.4l-0.5,1.1c-0.3-0.1-0.6-0.2-0.9-0.3s-0.6-0.1-0.9-0.1c-0.7,0-1,0.2-1,0.6
	c0,0.1,0,0.3,0.1,0.3c0.1,0.1,0.2,0.2,0.4,0.3c0.2,0.1,0.5,0.2,0.9,0.4c0.4,0.2,0.7,0.3,1,0.5c0.3,0.2,0.5,0.4,0.6,0.6
	C170.2,49.6,170.3,49.9,170.3,50.3z M177.6,48.9c0,1.1-0.3,1.9-0.8,2.5c-0.6,0.6-1.3,0.9-2.3,0.9c-0.6,0-1.1-0.1-1.6-0.4
	s-0.8-0.6-1.1-1.2c-0.3-0.5-0.4-1.1-0.4-1.8c0-1.1,0.3-1.9,0.8-2.5c0.6-0.6,1.3-0.9,2.3-0.9c0.6,0,1.1,0.1,1.6,0.4
	c0.5,0.3,0.8,0.6,1.1,1.1C177.4,47.6,177.6,48.2,177.6,48.9z M172.9,48.9c0,0.7,0.1,1.2,0.4,1.6c0.2,0.4,0.6,0.6,1.2,0.6
	c0.5,0,0.9-0.2,1.2-0.6c0.2-0.4,0.4-0.9,0.4-1.6c0-0.7-0.1-1.2-0.4-1.6c-0.2-0.4-0.6-0.6-1.2-0.6c-0.5,0-0.9,0.2-1.2,0.6
	C173,47.7,172.9,48.2,172.9,48.9z M186.7,50.3c0,0.7-0.2,1.2-0.7,1.5c-0.5,0.3-1.1,0.5-2,0.5c-0.5,0-0.8,0-1.2-0.1
	c-0.3-0.1-0.6-0.2-0.9-0.3v-1.3c0.3,0.2,0.7,0.3,1.1,0.4c0.4,0.1,0.8,0.2,1.1,0.2c0.4,0,0.7-0.1,0.9-0.2c0.2-0.1,0.3-0.3,0.3-0.5
	c0-0.1,0-0.2-0.1-0.3c-0.1-0.1-0.2-0.2-0.4-0.3c-0.2-0.1-0.5-0.3-0.9-0.4c-0.4-0.2-0.8-0.3-1-0.5c-0.3-0.2-0.5-0.4-0.6-0.6
	c-0.1-0.2-0.2-0.5-0.2-0.9c0-0.6,0.2-1,0.7-1.3c0.5-0.3,1.1-0.5,1.8-0.5c0.4,0,0.8,0,1.1,0.1c0.4,0.1,0.7,0.2,1.1,0.4l-0.5,1.1
	c-0.3-0.1-0.6-0.2-0.9-0.3s-0.6-0.1-0.9-0.1c-0.7,0-1,0.2-1,0.6c0,0.1,0,0.3,0.1,0.3c0.1,0.1,0.2,0.2,0.4,0.3
	c0.2,0.1,0.5,0.2,0.9,0.4c0.4,0.2,0.7,0.3,1,0.5c0.3,0.2,0.5,0.4,0.6,0.6C186.6,49.6,186.7,49.9,186.7,50.3z M188.9,43.2
	c0.2,0,0.4,0.1,0.6,0.2c0.2,0.1,0.3,0.3,0.3,0.6s-0.1,0.5-0.3,0.6c-0.2,0.1-0.4,0.2-0.6,0.2c-0.2,0-0.4-0.1-0.6-0.2
	c-0.2-0.1-0.2-0.3-0.2-0.6s0.1-0.5,0.2-0.6C188.4,43.2,188.6,43.2,188.9,43.2z M189.6,45.7v6.5h-1.5v-6.5H189.6z M193.8,45.6
	c0.8,0,1.5,0.3,1.9,1h0.1l0.1-0.8h1.3v6.6c0,0.9-0.3,1.6-0.8,2.1c-0.5,0.5-1.3,0.7-2.3,0.7c-0.5,0-0.9,0-1.3-0.1
	c-0.4-0.1-0.8-0.2-1.1-0.3v-1.2c0.7,0.3,1.6,0.5,2.5,0.5c0.5,0,0.9-0.1,1.1-0.4c0.3-0.3,0.4-0.7,0.4-1.2v-0.2c0-0.1,0-0.3,0-0.4
	s0-0.3,0-0.4h0c-0.2,0.3-0.5,0.6-0.8,0.7c-0.3,0.2-0.7,0.2-1.1,0.2c-0.8,0-1.4-0.3-1.9-0.9c-0.4-0.6-0.7-1.4-0.7-2.5
	s0.2-1.9,0.7-2.5C192.3,45.9,192.9,45.6,193.8,45.6z M194.2,46.8c-0.9,0-1.4,0.7-1.4,2.2c0,1.4,0.5,2.1,1.4,2.1
	c0.5,0,0.9-0.1,1.2-0.4c0.3-0.3,0.4-0.8,0.4-1.5V49c0-0.8-0.1-1.3-0.4-1.7C195.1,47,194.7,46.8,194.2,46.8z M204.9,45.7v6.5h-1.2
	l-0.2-0.8h-0.1c-0.2,0.3-0.5,0.6-0.9,0.7c-0.4,0.2-0.7,0.2-1.2,0.2c-0.7,0-1.3-0.2-1.7-0.6c-0.4-0.4-0.6-1-0.6-1.8v-4.2h1.5v3.9
	c0,1,0.4,1.5,1.2,1.5c0.6,0,1-0.2,1.2-0.6c0.2-0.4,0.3-0.9,0.3-1.7v-3.2H204.9z M209.4,45.6c0.9,0,1.6,0.3,2.1,0.8
	c0.5,0.5,0.8,1.2,0.8,2.2v0.8h-4.3c0,0.6,0.2,1.1,0.5,1.4c0.3,0.3,0.7,0.5,1.3,0.5c0.4,0,0.8,0,1.1-0.1c0.3-0.1,0.7-0.2,1-0.4v1.2
	c-0.3,0.2-0.7,0.3-1,0.3c-0.3,0.1-0.8,0.1-1.2,0.1c-0.6,0-1.2-0.1-1.7-0.4c-0.5-0.2-0.9-0.6-1.2-1.1c-0.3-0.5-0.4-1.1-0.4-1.8
	c0-1.1,0.3-2,0.8-2.5S208.5,45.6,209.4,45.6z M209.4,46.7c-0.4,0-0.7,0.1-1,0.4c-0.2,0.3-0.4,0.6-0.4,1.2h2.8c0-0.4-0.1-0.8-0.3-1.1
	C210.2,46.8,209.9,46.7,209.4,46.7z M214.4,49.5v-0.4c0-0.4,0.1-0.8,0.2-1c0.2-0.3,0.4-0.6,0.8-0.9c0.3-0.2,0.5-0.4,0.6-0.5
	c0.2-0.2,0.3-0.3,0.3-0.4c0.1-0.2,0.1-0.3,0.1-0.5c0-0.3-0.1-0.5-0.3-0.7c-0.2-0.2-0.5-0.2-0.9-0.2c-0.4,0-0.7,0.1-1,0.2
	c-0.3,0.1-0.6,0.2-1,0.4l-0.5-1.1c0.4-0.2,0.8-0.4,1.2-0.5c0.4-0.1,0.9-0.2,1.4-0.2c0.8,0,1.4,0.2,1.9,0.6c0.4,0.4,0.7,0.9,0.7,1.5
	c0,0.3-0.1,0.6-0.2,0.9c-0.1,0.2-0.3,0.5-0.5,0.7c-0.2,0.2-0.5,0.4-0.8,0.7c-0.2,0.2-0.4,0.4-0.6,0.5c-0.1,0.1-0.2,0.3-0.3,0.4
	c0,0.1-0.1,0.3-0.1,0.5v0.3H214.4z M214.2,51.4c0-0.3,0.1-0.6,0.3-0.7c0.2-0.1,0.4-0.2,0.7-0.2c0.2,0,0.5,0.1,0.6,0.2
	c0.2,0.1,0.3,0.4,0.3,0.7c0,0.3-0.1,0.6-0.3,0.7c-0.2,0.1-0.4,0.2-0.6,0.2c-0.3,0-0.5-0.1-0.7-0.2C214.3,52,214.2,51.7,214.2,51.4z"
	/>
<ellipse class="st34" cx="163.9" cy="89" rx="5.5" ry="5.1"/>
<ellipse class="st34" cx="158.4" cy="102.6" rx="3.2" ry="3"/>
<path class="st36" d="M135.1,142.9l-5-5.7c-0.1-0.1-0.1-0.1-0.2-0.2c-0.1,0-0.2-0.1-0.3-0.1l0,0l-1.7,0.3c-0.1,0-0.2,0.1-0.3,0.1
	s-0.1,0.2-0.1,0.3l-4.8,14.3c-0.1,0.2-0.1,0.5,0,0.8c0.1,0.3,0.2,0.5,0.3,0.7l5,5.7c0.1,0.1,0.1,0.1,0.2,0.2c0.1,0,0.2,0.1,0.3,0.1
	l0.1,0l1.5-0.3l0,0c0.1,0,0.2-0.1,0.3-0.1s0.1-0.2,0.1-0.3l4.8-14.3c0.1-0.2,0.1-0.5,0-0.8C135.3,143.3,135.2,143.1,135.1,142.9
	L135.1,142.9z"/>
<path class="st37" d="M133.7,144.6l-4.8,14.3c0,0.1-0.1,0.2-0.1,0.3c-0.1,0.1-0.2,0.1-0.3,0.1c-0.1,0-0.2,0-0.3-0.1
	c-0.1,0-0.1-0.1-0.2-0.2l-5-5.7c-0.2-0.2-0.3-0.4-0.3-0.7c-0.1-0.3,0-0.5,0-0.8l4.8-14.3c0-0.1,0.1-0.2,0.1-0.3
	c0.1-0.1,0.2-0.1,0.3-0.1c0.1,0,0.2,0,0.3,0.1c0.1,0,0.1,0.1,0.2,0.2l5,5.7c0.2,0.2,0.3,0.4,0.3,0.7
	C133.8,144.1,133.8,144.4,133.7,144.6L133.7,144.6z"/>
<path class="st38" d="M133.2,146.1l-3.6,10.8l-6.2-7l3.6-10.8L133.2,146.1z"/>
<path class="st36" d="M130.7,141.9C130.6,141.9,130.6,141.9,130.7,141.9l-1-1.1c0,0,0-0.1,0-0.1c0,0,0-0.1,0-0.1c0,0,0.1,0,0.1,0
	c0,0,0.1,0,0.1,0l1,1.1c0,0,0.1,0.1,0.1,0.1c0,0,0,0.1,0,0.1c0,0-0.1,0.1-0.1,0.1C130.7,141.9,130.7,141.9,130.7,141.9L130.7,141.9z
	"/>
<path class="st36" d="M131.4,142.8C131.4,142.8,131.4,142.7,131.4,142.8l-0.3-0.3c0,0,0,0,0-0.1s0-0.1,0-0.1c0,0,0,0,0-0.1
	c0,0,0,0,0.1,0c0,0,0.1,0,0.1,0c0,0,0,0,0.1,0l0.2,0.2c0,0,0,0,0,0c0,0,0,0,0,0.1c0,0,0,0,0,0.1c0,0,0,0,0,0.1c0,0,0,0,0,0
	c0,0,0,0-0.1,0C131.5,142.8,131.5,142.8,131.4,142.8C131.5,142.8,131.4,142.8,131.4,142.8L131.4,142.8z"/>
<path class="st36" d="M126.3,155.8c0.3-0.1,0.5-0.6,0.4-1.2c-0.1-0.6-0.5-1-0.8-0.9c-0.3,0.1-0.5,0.6-0.4,1.2
	C125.6,155.4,126,155.9,126.3,155.8z"/>
<path class="st39" d="M82.8,121c-1.3-2.7-1.9-5.8-0.8-8.8c3-8.7,14.8-3.4,16,1.7c1.2,5.1-2.1,16.4-5.4,16.3c-1.3,0-3.7-1.5-6-3.8
	l-1.5,12.3l-9.9-2.7L82.8,121z"/>
<path class="st40" d="M86.4,121.3c-1.9,2-4,3.4-5.7,2.9c-3.2-0.9-4.4-5.8-3.1-10.4c0-0.2,0.1-0.3,0.1-0.5c-1.9,0.7-2.2-0.5-1.6-1.6
	c0.6-1.3,2-2.5,3.1-1.5c0.9-1.2,1.9-2.2,3-2.8c0.4-0.2,0.8-0.4,1.2-0.4c0.3-0.1,0.6-0.1,0.9-0.1c1.6-0.1,3.9,0,6.3,0.6
	c0.5,0.1,0.9,0.2,1.3,0.3c0.2-0.8,0.7-1.5,1.3-2.1c0.6-0.6,1.4-0.9,2.2-1c0.8-0.1,1.7,0,2.4,0.4c0.8,0.4,1.4,0.9,1.8,1.6
	c0.4,0.7,0.7,1.5,0.6,2.4c0,0.8-0.3,1.6-0.8,2.3c-0.5,0.7-1.2,1.2-1.9,1.5c-0.8,0.3-1.6,0.4-2.4,0.2c-1.6,0-3.2-0.1-4.8-0.5
	c0,0.8-0.1,1.5-0.3,2.3c-0.2,0.8-0.5,1.5-0.8,2.2c-0.3-0.6-0.7-1-1.2-1.1c-0.3-0.1-0.7-0.1-1-0.1c-0.3,0-0.7,0.2-0.9,0.3
	c-0.3,0.2-0.5,0.4-0.8,0.7c-0.2,0.3-0.4,0.6-0.4,0.9C84.5,119.4,85.1,120.8,86.4,121.3z"/>
<path class="st41" d="M62.5,173.8l15.7,54l7.4,40.6h7.4l-7.4-94.6H62.5z"/>
<path class="st39" d="M55.5,173.8c1.1,28.1,0.7,43.4,0.4,45.9c-0.2,2.6-1.6,19.6-11.1,49.5h7.7c12.5-28.7,16.9-45.8,18.4-49.5
	c1.4-3.8,5.7-19.1,11.9-45.9L55.5,173.8z"/>
<linearGradient id="SVGID_5_" gradientUnits="userSpaceOnUse" x1="62.1696" y1="97.64" x2="94.2591" y2="97.64" gradientTransform="matrix(1 0 0 -1 0 316)">
	<stop  offset="0" style="stop-color:#1F28CF"/>
	<stop  offset="1" style="stop-color:#2F3676"/>
</linearGradient>
<path class="st42" d="M62.2,173.8c4.1,18.6,11.1,48.3,21.2,89h10.8c0.8-41.8-2.6-69.4-8.5-89H62.2z"/>
<path class="st43" d="M55.4,173.8c1.1,28.1-1.7,55.7-10.3,89.5h11.5c12.6-28.3,21.6-55.8,27.7-89.5H55.4z"/>
<path class="st40" d="M43.7,274.9l0.4-6.8c2.5,0.7,5.6,0.4,9.3-0.9c4,2.9,9.1,4.8,15.2,5.8c0.2,0,0.4,0.2,0.6,0.3
	c0.1,0.2,0.2,0.4,0.1,0.6c0,0,0,0.1,0,0.1l-0.6,2.1H44.5L43.7,274.9z"/>
<path class="st40" d="M83.9,274.9l0.4-6.8c2.5,0.7,5.6,0.4,9.3-0.9c4,2.9,9.1,4.8,15.2,5.8c0.2,0,0.4,0.2,0.6,0.3
	c0.1,0.2,0.2,0.4,0.1,0.6c0,0,0,0.1,0,0.1l-0.6,2.1H84.7L83.9,274.9z"/>
<path class="st39" d="M93.1,149.8l16-5.4c2.9-2.5,5.7-4.3,8.4-5.5c0.8-0.2,2.1-0.1,0.5,1.8c-1.6,1.9-3.1,3.9-2.6,4.7
	c0.5,0.8,2.1,0.1,2.7,1.3c0.4,0.8-2.4,1.5-8.3,2l-12.3,7.9L93.1,149.8z M114.8,160.6l7-2.4c1.5-3.3,2.9-4.8,4.1-4.6
	c1-0.3-1.4,3.8,0.5,3.7c1.9-0.1,6.9-2.6,7.6-1.8c1,1.2-0.6,4.1-2.1,5.4c-2.7,2.4-4.7,3.1-9.5,3.6c-2.5,0.2-5.3,1.1-8.4,2.6
	L114.8,160.6z"/>
<path class="st44" d="M86.3,146.7c5.1,0.8,12.2,1,20.3-2.4l1.7,6.9c-5.9,4.1-13.7,7-19.8,5.7C83.6,156,82.2,149.6,86.3,146.7z"/>
<path class="st44" d="M91.4,158.2c2.9,1.9,6.2,3.2,9.6,3.8c9.1,1.6,16.4-2.4,18.6-3.8c2,7.1,2.7,12.1,1.9,14.8
	c-5.5,2.3-11.4,3.7-17.4,4.1c-4.1,0.3-8.2,0.1-12.3-0.6c-0.6,4.6-1.9,8.9-4.5,12.6c-5.3,7.5-26.6-4.1-34.5-3.9
	c-2-16.3,8.3-21,10-30.9c1.9-10.9,13.6-26,14.9-25.8l10,7C86.8,143.3,88.1,151.1,91.4,158.2L91.4,158.2z"/>
<path d="M95,117.5C95,117.5,95,117.5,95,117.5c0.1,0.1,0.1,0.1,0.1,0.1c0.3,1.7,0.6,3.3,0.5,5c0,0,0,0.1,0,0.1c0,0-0.1,0-0.1,0.1
	c0,0,0,0-0.1,0c0,0,0,0-0.1,0c0,0,0,0,0-0.1c0,0,0,0,0-0.1c0-0.5,0-1.1,0-1.6c0-0.5-0.1-1.1-0.2-1.6v0c-0.1-0.6-0.2-1.2-0.3-1.8
	c0,0,0-0.1,0-0.1c0,0,0.1-0.1,0.1-0.1C94.8,117.5,94.9,117.5,95,117.5C94.9,117.5,94.9,117.5,95,117.5L95,117.5z"/>
<path d="M93.9,122.7c0.1,0,0.3,0,0.4,0.1c0.1,0,0.2,0,0.2,0c0.1,0,0.2,0,0.3,0c0.1,0,0.2,0,0.3,0c0,0,0.1,0,0.1,0c0,0,0.1,0,0.1,0.1
	c0,0.1,0,0.1-0.1,0.1c-0.1,0-0.2,0-0.4,0c-0.1,0-0.3,0-0.4,0c-0.3,0-0.5,0-0.8-0.1c-0.1,0-0.1-0.1-0.1-0.1c0,0,0,0,0.1-0.1
	C93.8,122.7,93.8,122.7,93.9,122.7C93.9,122.7,93.9,122.7,93.9,122.7L93.9,122.7z"/>
<path class="st45" d="M97,118.1C97,118.1,97,118.1,97,118.1c0.1,0,0.1,0,0.1,0c0,0,0.1,0,0.1,0c0,0,0,0,0.1,0.1
	c0.1,0.3,0.3,0.6,0.2,1c0,0.1-0.1,0.2-0.2,0.3c0,0-0.1,0.1-0.1,0.1c0,0-0.1,0-0.1,0c0,0-0.1,0-0.1,0c0,0-0.1,0-0.1,0
	c0,0-0.1,0-0.1-0.1c-0.1-0.1-0.1-0.2-0.2-0.3c0-0.1,0-0.3,0-0.4c0-0.2,0.1-0.4,0.2-0.5c0,0,0-0.1,0.1-0.1
	C96.9,118.1,96.9,118.1,97,118.1C96.9,118.1,97,118.1,97,118.1L97,118.1z"/>
<path class="st45" d="M91.3,119.3C91.3,119.3,91.3,119.3,91.3,119.3c0.1,0,0.1,0,0.2,0c0,0,0.1,0,0.1,0.1c0,0.1,0.1,0.2,0.1,0.3
	c0,0.1,0,0.1,0,0.2c0,0,0,0,0,0.1c0,0.1,0,0.1,0,0.2c0,0.1,0,0.2-0.1,0.2c0,0,0,0.1-0.1,0.1c0,0-0.1,0.1-0.1,0.1c0,0-0.1,0-0.1,0
	c-0.1,0-0.2,0-0.2,0c-0.2-0.1-0.3-0.3-0.3-0.5c0-0.1,0-0.2,0-0.4c0-0.1,0-0.2,0.1-0.2c0,0,0.1-0.1,0.1-0.1c0,0,0.1,0,0.1,0
	c0,0,0.1,0,0.1,0C91.2,119.2,91.2,119.2,91.3,119.3L91.3,119.3z"/>
<path d="M97.4,116.2c0,0-0.1,0.1-0.1,0.1c-0.1,0-0.1,0-0.2,0c-0.1,0-0.2-0.1-0.3-0.1l0,0l0,0l0,0l0,0c-0.2-0.1-0.4-0.2-0.6-0.2
	c-0.2-0.1-0.5-0.1-0.7-0.2c-0.1,0-0.1-0.1-0.1-0.1c0-0.1,0-0.1,0-0.2c0-0.1,0.1-0.1,0.1-0.1c0.1,0,0.1,0,0.2,0
	c0.3,0.1,0.6,0.2,0.9,0.3c0.3,0.1,0.6,0.3,0.8,0.4c0,0,0.1,0,0.1,0.1c0,0,0,0.1,0,0.1C97.4,116.2,97.4,116.2,97.4,116.2L97.4,116.2z
	 M96.8,116.2L96.8,116.2L96.8,116.2z"/>
<path d="M92.2,116.7c0,0.1,0,0.1,0,0.2c0,0-0.1,0.1-0.1,0.1c-0.2,0.1-0.3,0.1-0.5,0.2c-0.3,0.1-0.6,0.3-0.8,0.5
	c-0.1,0.1-0.2,0.2-0.3,0.3c-0.1,0.1-0.2,0.3-0.4,0.4c0,0-0.1,0.1-0.1,0.1c0,0-0.1,0-0.1,0c0,0-0.1,0-0.1-0.1c0,0,0-0.1,0-0.1
	c0,0,0-0.1,0-0.1c0.5-0.8,1.4-1.2,2.2-1.5c0,0,0,0,0.1,0c0,0,0.1,0,0.1,0C92.2,116.7,92.2,116.7,92.2,116.7L92.2,116.7z M91.6,117.2
	L91.6,117.2L91.6,117.2z"/>
<path d="M94.3,126.4c-0.2-0.2-0.4-0.4-0.6-0.6c-0.1-0.1-0.3-0.2-0.4-0.3c-0.2-0.1-0.3-0.2-0.5-0.2c-0.1-0.1-0.2-0.1-0.4-0.1
	c0,0-0.1,0-0.1-0.1c0,0,0-0.1,0-0.1c0,0,0-0.1,0.1-0.1c0,0,0.1,0,0.1,0l0.1,0l0,0c0.3,0.1,0.7,0.3,1,0.5c0.3,0.2,0.6,0.4,0.8,0.7
	l0.1,0.1c0,0,0.1,0.1,0.1,0.1c0,0,0,0.1-0.1,0.1c0,0-0.1,0-0.1,0C94.4,126.5,94.4,126.5,94.3,126.4
	C94.3,126.5,94.3,126.5,94.3,126.4L94.3,126.4z"/>
<path d="M94.4,126.4c0,0-0.1-0.1-0.1-0.1c0-0.1,0-0.1,0-0.2c0,0,0-0.1,0.1-0.1l0,0l0-0.1l0-0.1c0.1-0.1,0.1-0.3,0.1-0.4
	c0-0.1,0-0.3,0-0.4c0-0.1,0-0.2-0.1-0.3c0-0.1-0.1-0.1-0.1-0.2c-0.1-0.1-0.1-0.1-0.2-0.2c-0.1,0-0.1-0.1-0.2-0.1c0,0-0.1,0-0.1,0
	l-0.1,0c-0.1,0-0.2,0-0.3,0c-0.1,0-0.2,0-0.2,0.1c-0.1,0.1-0.2,0.1-0.3,0.2c-0.1,0.1-0.2,0.2-0.3,0.4l0,0.1c0,0-0.1,0.1-0.1,0.1
	c0,0-0.1,0.1-0.1,0.1c0,0-0.1,0-0.1,0c0,0-0.1-0.1-0.1-0.1c0,0,0-0.1,0-0.1c0.1-0.2,0.3-0.4,0.5-0.6c0.2-0.1,0.3-0.2,0.5-0.3
	c0.2-0.1,0.4-0.1,0.5-0.1c0.2,0,0.3,0.1,0.5,0.2c0.1,0,0.1,0.1,0.2,0.1c0.2,0.2,0.4,0.5,0.4,0.7c0.1,0.5,0,1-0.3,1.4
	c0,0-0.1,0.1-0.1,0.1C94.5,126.5,94.5,126.5,94.4,126.4C94.4,126.4,94.4,126.4,94.4,126.4L94.4,126.4z"/>
<path class="st34" d="M94.4,126c-0.2-0.3-0.5-0.5-0.8-0.7c-0.3-0.2-0.6-0.3-1-0.5l0-0.1c0.1-0.1,0.2-0.3,0.3-0.4
	c0.1-0.1,0.2-0.1,0.3-0.2c0.1,0,0.2,0,0.2-0.1c0.1,0,0.2,0,0.3,0l0.1,0c0,0,0.1,0,0.1,0c0.1,0,0.1,0.1,0.2,0.1
	c0.1,0.1,0.2,0.2,0.3,0.4c0,0.1,0.1,0.2,0.1,0.3c0,0.1,0,0.3,0,0.4c0,0.1-0.1,0.3-0.1,0.4L94.4,126L94.4,126L94.4,126L94.4,126z"/>
</svg>
