<svg width="141" height="119" viewBox="0 0 141 119" fill="none" xmlns="http://www.w3.org/2000/svg">
<path d="M30.4254 22.8393C9.08061 23.4758 3.66953 43.7112 4.75536 60.0907C6.0187 79.1481 25.7837 112.171 55.7584 112.093C106.607 111.962 120.904 70.3974 129.986 44.9109C139.068 19.4245 114.52 5.6786 99.2147 17.9848C83.9097 30.2909 57.1063 22.0438 30.4254 22.8393Z" fill="#CEE8FF"/>
<path d="M39.9682 23.316L37.6171 18.5945C37.4357 18.2306 37.0615 18 36.6515 18C36.242 18 35.8677 18.2306 35.6864 18.5945L33.3331 23.316L28.0731 24.0719C27.6678 24.1302 27.3309 24.4118 27.2042 24.7975C27.0775 25.1833 27.1832 25.607 27.4765 25.8902L31.2831 29.5654L30.3843 34.7539C30.3149 35.1537 30.481 35.5581 30.8127 35.7966C31.1438 36.035 31.5833 36.0662 31.946 35.8778L36.6515 33.428L41.357 35.8778C41.7191 36.0662 42.1591 36.035 42.4902 35.7966C42.8219 35.5581 42.988 35.1537 42.9186 34.7539L42.0198 29.5654L45.8264 25.8902C46.1197 25.607 46.2254 25.1833 46.0987 24.7975C45.972 24.4118 45.6351 24.1302 45.2298 24.0719L39.9682 23.316ZM40.1112 28.4295C39.8578 28.6747 39.7422 29.0276 39.8021 29.3733L40.4276 32.985L37.1524 31.2791C36.8386 31.1156 36.4638 31.1156 36.1505 31.2791L32.8748 32.985L33.5003 29.3733C33.5602 29.0276 33.4446 28.6747 33.1907 28.4295L30.5415 25.8715L34.202 25.3452C34.5526 25.2947 34.8559 25.0766 35.0125 24.7621L36.6509 21.4753L38.2883 24.7621C38.4449 25.0766 38.7482 25.2947 39.0993 25.3452L42.7615 25.872L40.1112 28.4295Z" fill="#1536B1"/>
<path d="M84.9682 5.31601L82.617 0.594485C82.4357 0.23061 82.0614 0 81.6514 0C81.242 0 80.8677 0.23061 80.6864 0.594485L78.3331 5.31601L73.0731 6.07187C72.6678 6.13017 72.3309 6.4118 72.2042 6.79754C72.0775 7.18327 72.1831 7.60701 72.4765 7.8902L76.2831 11.5654L75.3843 16.7539C75.3149 17.1537 75.481 17.5581 75.8127 17.7966C76.1438 18.035 76.5832 18.0662 76.9459 17.8778L81.6514 15.428L86.3569 17.8778C86.7191 18.0662 87.159 18.035 87.4902 17.7966C87.8219 17.5581 87.988 17.1537 87.9186 16.7539L87.0197 11.5654L90.8264 7.8902C91.1197 7.60701 91.2254 7.18327 91.0987 6.79754C90.972 6.4118 90.6351 6.13017 90.2298 6.07187L84.9682 5.31601ZM85.1112 10.4295C84.8578 10.6747 84.7422 11.0276 84.8021 11.3733L85.4276 14.985L82.1524 13.2791C81.8386 13.1156 81.4638 13.1156 81.1505 13.2791L77.8747 14.985L78.5002 11.3733C78.5602 11.0276 78.4445 10.6747 78.1906 10.4295L75.5414 7.87146L79.202 7.34517C79.5526 7.29467 79.8559 7.07656 80.0125 6.76214L81.6509 3.47529L83.2883 6.76214C83.4449 7.07656 83.7482 7.29467 84.0993 7.34517L87.7614 7.87198L85.1112 10.4295Z" fill="#00C2FF"/>
<circle cx="119.06" cy="63.5" r="2.5" fill="#CEE8FF"/>
<path d="M103.897 29.658L102.66 27.2972C102.564 27.1153 102.367 27 102.151 27C101.936 27 101.739 27.1153 101.643 27.2972L100.405 29.658L97.6365 30.0359C97.4232 30.0651 97.2459 30.2059 97.1792 30.3988C97.1125 30.5916 97.1681 30.8035 97.3225 30.9451L99.326 32.7827L98.8529 35.3769C98.8164 35.5768 98.9038 35.7791 99.0784 35.8983C99.2527 36.0175 99.484 36.0331 99.6749 35.9389L102.151 34.714L104.628 35.9389C104.819 36.0331 105.05 36.0175 105.224 35.8983C105.399 35.7791 105.486 35.5768 105.45 35.3769L104.977 32.7827L106.98 30.9451C107.135 30.8035 107.19 30.5916 107.124 30.3988C107.057 30.2059 106.88 30.0651 106.666 30.0359L103.897 29.658ZM103.972 32.2148C103.839 32.3374 103.778 32.5138 103.81 32.6867L104.139 34.4925L102.415 33.6395C102.25 33.5578 102.053 33.5578 101.888 33.6395L100.164 34.4925L100.493 32.6867C100.524 32.5138 100.464 32.3374 100.33 32.2148L98.9356 30.9357L100.862 30.6726C101.047 30.6473 101.206 30.5383 101.289 30.3811L102.151 28.7376L103.013 30.3811C103.095 30.5383 103.255 30.6473 103.44 30.6726L105.367 30.936L103.972 32.2148Z" fill="#0D2E68"/>
<path d="M76.1902 49.6999V37.2999C76.1902 34.8334 75.2107 32.468 73.4671 30.7239C71.7234 28.9798 69.3586 28 66.8927 28L54.496 55.8998V89.9996H89.4547C90.9495 90.0165 92.4001 89.4925 93.5391 88.524C94.6782 87.5556 95.4289 86.208 95.6531 84.7296L99.9299 56.8298C100.065 55.9412 100.005 55.0339 99.7543 54.1708C99.5038 53.3077 99.0687 52.5094 98.4791 51.8311C97.8895 51.1529 97.1595 50.611 96.3398 50.243C95.52 49.875 94.6301 49.6897 93.7316 49.6999H76.1902ZM54.496 89.9996H45.1985C43.5546 89.9996 41.978 89.3464 40.8156 88.1837C39.6532 87.021 39.0001 85.444 39.0001 83.7996V62.0998C39.0001 60.4554 39.6532 58.8785 40.8156 57.7157C41.978 56.553 43.5546 55.8998 45.1985 55.8998H54.496" fill="white"/>
<path d="M54.496 89.9996H45.1985C43.5546 89.9996 41.978 89.3464 40.8156 88.1837C39.6532 87.021 39.0001 85.444 39.0001 83.7996V62.0998C39.0001 60.4554 39.6532 58.8785 40.8156 57.7157C41.978 56.553 43.5546 55.8998 45.1985 55.8998H54.496M76.1902 49.6999V37.2999C76.1902 34.8334 75.2107 32.468 73.4671 30.7239C71.7234 28.9798 69.3586 28 66.8927 28L54.496 55.8998V89.9996H89.4547C90.9495 90.0165 92.4001 89.4925 93.5391 88.524C94.6782 87.5556 95.4289 86.208 95.6531 84.7296L99.9299 56.8298C100.065 55.9412 100.005 55.0339 99.7543 54.1708C99.5038 53.3077 99.0687 52.5094 98.4791 51.8311C97.8895 51.1529 97.1595 50.611 96.3398 50.243C95.52 49.875 94.6301 49.6897 93.7316 49.6999H76.1902Z" stroke="#1536B1" stroke-width="5" stroke-linecap="round" stroke-linejoin="round"/>
</svg>
