<svg width="30" height="38" viewBox="0 0 30 38" fill="none" xmlns="http://www.w3.org/2000/svg">
<g opacity="0.8">
<path opacity="0.8" d="M10.7873 10.0195C10.7873 6.22525 13.2634 3.00987 16.6877 1.89948C15.8578 
1.63044 14.9725 1.48438 14.0529 1.48438C9.33906 1.48438 5.51776 5.30568 5.51776 10.0195C5.51776 
14.7334 9.33906 18.5547 14.0529 18.5547C14.9725 18.5547 15.8578 18.4086 16.6877 18.1396C13.2634 
17.0292 10.7873 13.8138 10.7873 10.0195Z" fill="#CEE8FF"/>
</g>
<path d="M28.1367 38C27.3169 38 26.6523 37.3354 26.6523 36.5156C26.6523 30.7044 21.9245 25.9766 
16.1133 25.9766H13.8867C8.07546 25.9766 3.34766 30.7044 3.34766 36.5156C3.34766 37.3354 2.6831 
38 1.86328 38C1.04346 38 0.378906 37.3354 0.378906 36.5156C0.378906 29.0674 6.4385 23.0078 
13.8867 23.0078H16.1133C23.5615 23.0078 29.6211 29.0674 29.6211 36.5156C29.6211 37.3354 
28.9565 38 28.1367 38Z" fill="#00C2FF"/>
<path d="M14.8516 20.0391C9.32679 20.0391 4.83203 15.5443 4.83203 10.0195C4.83203 4.49476 
9.32679 0 14.8516 0C20.3763 0 24.8711 4.49476 24.8711 10.0195C24.8711 15.5443 20.3763 
20.0391 14.8516 20.0391ZM14.8516 2.96875C10.9638 2.96875 7.80078 6.13173 7.80078 10.0195C7.80078 
13.9073 10.9638 17.0703 14.8516 17.0703C18.7394 17.0703 21.9023 13.9073 21.9023 10.0195C21.9023 
6.13173 18.7394 2.96875 14.8516 2.96875Z" fill="#0D2E68"/>
</svg>
