<svg width="33" height="22" viewBox="0 0 33 22" fill="none" xmlns="http://www.w3.org/2000/svg">
<rect x="0.399902" y="0.200012" width="32.4" height="21.6" rx="4" fill="#2A2A6C"/>
<path fill-rule="evenodd" clip-rule="evenodd" d="M20.8859 12.1273C20.89 11.0981 20.0412 10.6535 19.3825 10.3086C18.9655 10.0902 18.6247 9.91169 18.6247 9.65002C18.6247 9.42727 18.8406 9.19102 19.2996 9.13027C19.8459 9.07623 20.3966 9.1719 20.8926 9.40702L21.1761 8.05702C20.6926 7.87569 20.1806 7.78198 19.6641 7.78027C18.0711 7.78027 16.9641 8.63077 16.9641 9.84577C16.9641 10.7435 17.7674 11.243 18.3749 11.54C18.9824 11.837 19.2186 12.0463 19.2119 12.3163C19.2119 12.7348 18.7124 12.9238 18.2466 12.9305C17.6721 12.9379 17.1052 12.7985 16.5996 12.5255L16.3094 13.8755C16.8815 14.0988 17.4908 14.2111 18.1049 14.2063C19.7991 14.2063 20.9129 13.3693 20.9197 12.0733L20.8859 12.1273ZM16.5054 7.88827L15.1554 14.132H13.5354L14.8854 7.88827H16.5054ZM23.2958 11.9383L24.1463 9.59604L24.6391 11.9383H23.2958ZM26.5966 14.1523H25.0981L24.9023 13.2208H22.8706L22.5398 14.1523H20.8388L23.2621 8.36754C23.3738 8.09231 23.6401 7.91126 23.9371 7.90854H25.2871L26.5966 14.1523ZM11.6115 14.1118L14.2305 7.86801H12.4755L10.7948 12.1138L10.1198 8.50251C10.06 8.13554 9.74231 7.86649 9.37051 7.86801H6.62326L6.58276 8.05026C7.13379 8.15807 7.66902 8.33496 8.17576 8.57676C8.3916 8.67823 8.53786 8.88608 8.56051 9.12351L9.84976 14.1118H11.6115Z" fill="white"/>
</svg>