<svg width="58" height="58" viewBox="0 0 58 58" fill="none" xmlns="http://www.w3.org/2000/svg">
<path d="M24.8675 9.32834L4.39832 43.5C3.9763 44.2309 3.75299 45.0595 3.75063 45.9034C3.74827 46.7474 3.96693 47.5772 4.38485 48.3104C4.80278 49.0437 5.40541 49.6546 6.13278 50.0826C6.86016 50.5106 7.68692 50.7407 8.53082 50.75H49.4692C50.3131 50.7407 51.1398 50.5106 51.8672 50.0826C52.5946 49.6546 53.1972 49.0437 53.6151 48.3104C54.0331 47.5772 54.2517 46.7474 54.2494 45.9034C54.247 45.0595 54.0237 44.2309 53.6017 43.5L33.1325 9.32834C32.7017 8.6181 32.0951 8.03088 31.3712 7.62334C30.6474 7.21581 29.8307 7.00171 29 7.00171C28.1693 7.00171 27.3526 7.21581 26.6288 7.62334C25.9049 8.03088 25.2983 8.6181 24.8675 9.32834V9.32834Z" stroke="#FFB800" stroke-width="4" stroke-linecap="round" stroke-linejoin="round"/>
<path d="M29 21.75V31.4167" stroke="#FFB800" stroke-width="4" stroke-linecap="round" stroke-linejoin="round"/>
<path d="M29 41.0834H29.0242" stroke="#FFB800" stroke-width="4" stroke-linecap="round" stroke-linejoin="round"/>
</svg>
